<?xml version="1.0" encoding="UTF-8"?>
<svg version="1.1" xmlns="http://www.w3.org/2000/svg" width="327" height="361">
<path d="M0 0 C2.24419495 0.68876756 4.48916493 1.37501421 6.73484802 2.05891418 C12.62287086 3.85919454 18.50013053 5.69232974 24.37554932 7.53326416 C30.20730811 9.35466964 36.04819602 11.14623715 41.88867188 12.93945312 C48.7619266 15.05138349 55.63358755 17.16795147 62.49819946 19.30783081 C73.37095554 22.69580799 84.25279449 26.03490874 95.18310547 29.23291016 C97.19575903 29.82555719 99.20836897 30.41835238 101.22093201 31.01130676 C104.9468614 32.10851367 108.67788373 33.18525684 112.41297913 34.2507782 C114.07235132 34.73839681 115.73149941 35.22677894 117.39038086 35.71606445 C118.13213751 35.92118715 118.87389416 36.12630985 119.63812828 36.33764839 C124.39884256 37.7672614 127.20700284 39.62824241 130.37109375 43.45703125 C130.98632812 45.68823242 130.98632812 45.68823242 130.96484375 48 C130.96460205 48.89050049 130.96436035 49.78100098 130.96411133 50.69848633 C130.93341553 51.67068115 130.90271973 52.64287598 130.87109375 53.64453125 C130.85264404 54.68697998 130.83419434 55.72942871 130.81518555 56.8034668 C128.65337256 138.87494006 110.55668157 230.49480653 38.17382812 315.77099609 C28.77540622 324.56101528 18.20031032 331.57059735 7.37109375 338.45703125 C6.75862793 338.84810059 6.14616211 339.23916992 5.51513672 339.64208984 C-7.40542196 347.77507069 -24.97716142 357.96066451 -40.62890625 354.45703125 C-59.38902127 348.48933331 -77.41593927 337.85199739 -92.62890625 325.45703125 C-93.63695313 324.65136719 -94.645 323.84570312 -95.68359375 323.015625 C-109.61020002 311.69543072 -122.0168125 298.92171386 -132.62890625 284.45703125 C-133.27400146 283.59513184 -133.27400146 283.59513184 -133.93212891 282.71582031 C-139.75191651 274.93730435 -144.94879959 266.94869795 -149.57519531 258.39550781 C-150.69779819 256.33029307 -151.84716256 254.28113965 -152.99609375 252.23046875 C-177.70868536 207.44102015 -188.61127914 155.77902238 -194.62890625 105.45703125 C-194.71577698 104.77382812 -194.80264771 104.090625 -194.89215088 103.38671875 C-196.4690193 90.9027417 -197.00157641 78.54253708 -196.99951172 65.96240234 C-197.00398366 62.9040945 -197.0407546 59.84712598 -197.078125 56.7890625 C-197.08397764 54.83464028 -197.08795739 52.88021133 -197.08984375 50.92578125 C-197.10421478 50.01654907 -197.11858582 49.10731689 -197.13339233 48.17053223 C-197.08841564 42.03515205 -197.08841564 42.03515205 -195.09667969 39.52929688 C-191.68947879 38.04884314 -188.23975881 36.88621235 -184.68359375 35.83203125 C-183.42714302 35.44890778 -183.42714302 35.44890778 -182.14530945 35.05804443 C-179.26721652 34.18298944 -176.38562358 33.3200696 -173.50390625 32.45703125 C-171.42421647 31.82774736 -169.34471509 31.19784057 -167.26538086 30.56738281 C-160.95060696 28.65630461 -154.63192948 26.75835853 -148.31256104 24.86254883 C-143.09238371 23.29640647 -137.87310583 21.72727548 -132.65380859 20.15820312 C-110.84984131 13.60408177 -89.04248747 7.06131134 -67.23161316 0.5302124 C-66.39508744 0.27924931 -65.55856173 0.02828621 -64.69668674 -0.23028183 C-63.0861684 -0.71153865 -61.47459865 -1.18929326 -59.86191463 -1.66324234 C-56.84711128 -2.55227147 -53.88109098 -3.44759345 -50.93991089 -4.55993652 C-34.11536 -10.8369791 -16.25540984 -5.15464857 0 0 Z " fill="#21C9D7" transform="translate(196.62890625,6.54296875)"/>
<path d="M0 0 C0.33 0 0.66 0 1 0 C3.30810648 80.653526 -14.91451811 176.37610448 -78.96044922 260.11279297 C-92.01535957 273.7939883 -106.06698031 284.86799402 -122 295 C-122.61246582 295.39106934 -123.22493164 295.78213867 -123.85595703 296.18505859 C-136.77651571 304.31803944 -154.34825517 314.50363326 -170 311 C-188.76011502 305.03230206 -206.78703302 294.39496614 -222 282 C-223.00804687 281.19433594 -224.01609375 280.38867188 -225.0546875 279.55859375 C-238.98129377 268.23839947 -251.38790625 255.46468261 -262 241 C-262.43006348 240.42540039 -262.86012695 239.85080078 -263.30322266 239.25878906 C-269.57893375 230.87090237 -274.99479656 222.19950799 -280 213 C-276.37503036 210.25408549 -272.69268316 207.59113319 -269 204.9375 C-268.38382812 204.49083984 -267.76765625 204.04417969 -267.1328125 203.58398438 C-262.3861151 200.17675201 -262.3861151 200.17675201 -259.6875 198.94140625 C-257.84430787 198.12554908 -257.84430787 198.12554908 -257.12109375 196.171875 C-255.49433188 193.02037813 -252.85958085 191.30717411 -250.0625 189.25 C-249.48564453 188.81679443 -248.90878906 188.38358887 -248.31445312 187.93725586 C-246.54930236 186.61605698 -244.77567671 185.30700552 -243 184 C-241.45119141 182.84951172 -241.45119141 182.84951172 -239.87109375 181.67578125 C-228.98163007 173.66054336 -228.98163007 173.66054336 -224 172 C-224 171.34 -224 170.68 -224 170 C-223.34 170 -222.68 170 -222 170 C-220.73588848 171.47479678 -219.53859807 173.0071727 -218.375 174.5625 C-207.38487288 188.540998 -191.58501227 197.94031877 -174 201 C-151.40979717 202.57874465 -131.14448743 198.7847174 -113 184.625 C-99.98537054 173.166679 -90.30857158 156.35408984 -88 139 C-86.59836324 116.57860376 -90.5231918 99.37746572 -104 81 C-104 80.34 -104 79.68 -104 79 C-101.74592092 77.04018712 -99.4867439 75.19599236 -97.125 73.375 C-96.14853516 72.6015625 -96.14853516 72.6015625 -95.15234375 71.8125 C-90.26064401 68 -90.26064401 68 -88 68 C-88 67.34 -88 66.68 -88 66 C-82.58823529 62 -82.58823529 62 -80 62 C-80 61.34 -80 60.68 -80 60 C-74.58823529 56 -74.58823529 56 -72 56 C-72 55.34 -72 54.68 -72 54 C-69.98046875 52.3359375 -69.98046875 52.3359375 -67.1875 50.375 C-66.19234375 49.67117187 -65.1971875 48.96734375 -64.171875 48.2421875 C-63.12515625 47.50226563 -62.0784375 46.76234375 -61 46 C-58.06845038 43.82711774 -55.13959487 41.65077379 -52.21484375 39.46875 C-50 38 -50 38 -48 38 C-48 37.34 -48 36.68 -48 36 C-46.34928604 34.97388051 -44.68029994 33.97691857 -43 33 C-42.46375 32.46375 -41.9275 31.9275 -41.375 31.375 C-40 30 -40 30 -37 29 C-36.154375 28.154375 -35.30875 27.30875 -34.4375 26.4375 C-33.633125 25.633125 -32.82875 24.82875 -32 24 C-31.34 24 -30.68 24 -30 24 C-30 23.34 -30 22.68 -30 22 C-27.74185152 20.20173555 -25.48722261 18.5253199 -23.125 16.875 C-22.47402344 16.40707031 -21.82304687 15.93914062 -21.15234375 15.45703125 C-16.26412172 12 -16.26412172 12 -14 12 C-14 11.34 -14 10.68 -14 10 C-8.58823529 6 -8.58823529 6 -6 6 C-6 5.34 -6 4.68 -6 4 C-3 2 -3 2 0 2 C0 1.34 0 0.68 0 0 Z " fill="#9E2DDD" transform="translate(326,50)"/>
<path d="M0 0 C14.85029236 11.27258461 27.02920527 27.67300925 30.6015625 46.25390625 C31.93402114 58.78163015 32.38735709 72.03608247 28 84 C27.64808594 84.98871094 27.29617187 85.97742188 26.93359375 86.99609375 C19.66858542 105.81798001 6.71558358 119.9825723 -11.375 128.8125 C-13.23509508 129.57889111 -15.11142293 130.30675713 -17 131 C-18.57201172 131.5878125 -18.57201172 131.5878125 -20.17578125 132.1875 C-39.46525811 138.3669987 -60.2543363 136.40850432 -78.13500977 127.32177734 C-84.42071618 123.9531651 -89.82145192 119.91467302 -95 115 C-95.78890625 114.25234375 -96.5778125 113.5046875 -97.390625 112.734375 C-105.82139921 104.07419197 -111.9938208 92.71586277 -115 81 C-115.34675781 79.79214844 -115.69351563 78.58429688 -116.05078125 77.33984375 C-120.5535823 59.10729398 -116.36680725 38.7067332 -107.08496094 22.75537109 C-104.44574367 18.48535035 -101.38495405 14.69392552 -98 11 C-97.15501953 10.05253906 -97.15501953 10.05253906 -96.29296875 9.0859375 C-71.19598669 -17.59797317 -29.66815163 -20.437497 0 0 Z " fill="#DFE4E4" transform="translate(208,117)"/>
<path d="M0 0 C6.63215012 4.69584056 11.6822733 10.9642128 13.94921875 18.8359375 C14.96040645 24.86595587 15.32062007 31.53813978 13.375 37.375 C12.81360953 40.63106474 12.53123818 42.27404095 13.375 45.375 C16.02662326 48.77292234 19.14184334 51.53918414 22.375 54.375 C24.82340222 56.76899328 27.11174529 59.03004555 29.1875 61.75 C31.66354 64.721248 34.40255553 67.06969443 37.375 69.53125 C41.09526161 72.96086617 43.22674818 74.94436993 43.765625 80.14453125 C43.73931837 81.49274585 43.69201804 82.84069518 43.625 84.1875 C43.60695313 84.88037109 43.58890625 85.57324219 43.5703125 86.28710938 C43.52351064 87.98367664 43.45177624 89.67952476 43.375 91.375 C39.58339703 91.43286668 35.79190689 91.46855054 32 91.5 C30.37964844 91.52513672 30.37964844 91.52513672 28.7265625 91.55078125 C27.6953125 91.55722656 26.6640625 91.56367188 25.6015625 91.5703125 C24.17191162 91.58602295 24.17191162 91.58602295 22.71337891 91.60205078 C20.375 91.375 20.375 91.375 18.375 89.375 C18.03830615 87.32926522 17.93430828 85.31899048 17.81640625 83.25 C17.5044203 80.96814755 17.5044203 80.96814755 14.375 79.375 C12.04585177 79.01358045 9.71246522 78.67800475 7.375 78.375 C5.56308118 76.56308118 5.9026487 73.65148701 5.65625 71.1875 C5.55501957 69.3582467 5.55501957 69.3582467 4.375 68.375 C2.81386303 68.26916021 1.25085197 68.19043177 -0.3125 68.125 C-4.88283565 67.73985936 -6.4162371 66.77669632 -9.67578125 63.5078125 C-13.61984634 61.21567046 -18.54105757 61.76749634 -22.99609375 61.59765625 C-32.42799215 61.01894989 -39.54882773 55.8644398 -45.875 49.125 C-52.98287079 40.17219007 -53.70922239 30.38841694 -52.625 19.375 C-50.80567281 11.12176078 -44.38332964 3.57888438 -37.47265625 -1.07421875 C-35.5519784 -2.06589311 -33.65073385 -2.8756963 -31.625 -3.625 C-30.7175 -4.0375 -29.81 -4.45 -28.875 -4.875 C-18.38988911 -7.29464098 -9.07820412 -5.51122004 0 0 Z " fill="#FD7F02" transform="translate(165.625,132.625)"/>
<path d="M0 0 C0.66 0 1.32 0 2 0 C3.26411152 1.47479678 4.46140193 3.0071727 5.625 4.5625 C15.93521934 17.67621369 29.30263992 25.10487122 45 30 C45 30.33 45 30.66 45 31 C39.19998846 31.54927878 35.08733881 29.66562569 29.9375 27.3125 C29.14794922 26.97283203 28.35839844 26.63316406 27.54492188 26.28320312 C22.78328876 24.14785215 19.52959517 21.94336654 16 18 C14.63767178 16.77739775 13.26365792 15.5676121 11.875 14.375 C6.75192026 9.96955011 6.75192026 9.96955011 5 8 C5 7.34 5 6.68 5 6 C4.34 6 3.68 6 3 6 C2.505 5.01 2.505 5.01 2 4 C1.443125 4.309375 0.88625 4.61875 0.3125 4.9375 C-2 6 -2 6 -4.625 6.375 C-5.40875 6.58125 -6.1925 6.7875 -7 7 C-8.16666667 8.91666667 -8.16666667 8.91666667 -9 11 C-12 13 -12 13 -15 13 C-15.26167969 13.60585937 -15.52335937 14.21171875 -15.79296875 14.8359375 C-17.09691208 17.17375175 -18.13778429 18.10689011 -20.3125 19.625 C-24.04069761 22.29957655 -27.68885843 25.06111074 -31.3125 27.875 C-36.41932888 31.82477801 -41.60193062 35.65262393 -46.85546875 39.40625 C-49.063474 40.96629944 -49.063474 40.96629944 -51 43 C-50.64283139 49.2504506 -46.58911652 54.30407199 -42.875 59.0625 C-40.39524767 62.25696792 -39.22571623 65.13427958 -38 69 C-36.515 69.495 -36.515 69.495 -35 70 C-33.98648336 71.65848177 -32.98879205 73.32665961 -32 75 C-31.13375 75.845625 -30.2675 76.69125 -29.375 77.5625 C-27.11338793 79.88362818 -26.3487646 80.86111862 -26 84 C-25.34 84 -24.68 84 -24 84 C-20.65354983 87.08225674 -17.7760079 90.40147125 -15 94 C-15.33 94.66 -15.66 95.32 -16 96 C-24.191468 88.23632627 -31.26105444 80.03843281 -38 71 C-38.65597168 70.12722412 -38.65597168 70.12722412 -39.32519531 69.23681641 C-45.59208314 60.85678454 -51.00042081 52.18917069 -56 43 C-52.37503036 40.25408549 -48.69268316 37.59113319 -45 34.9375 C-44.38382813 34.49083984 -43.76765625 34.04417969 -43.1328125 33.58398438 C-38.3861151 30.17675201 -38.3861151 30.17675201 -35.6875 28.94140625 C-33.84430787 28.12554908 -33.84430787 28.12554908 -33.12109375 26.171875 C-31.49433188 23.02037813 -28.85958085 21.30717411 -26.0625 19.25 C-25.48564453 18.81679443 -24.90878906 18.38358887 -24.31445312 17.93725586 C-22.54930236 16.61605698 -20.77567671 15.30700552 -19 14 C-17.96746094 13.23300781 -16.93492188 12.46601563 -15.87109375 11.67578125 C-4.98163007 3.66054336 -4.98163007 3.66054336 0 2 C0 1.34 0 0.68 0 0 Z " fill="#BD77DC" transform="translate(102,220)"/>
<path d="M0 0 C0.33 0 0.66 0 1 0 C1.39888732 13.93855501 0.88213627 27.6866451 -0.375 41.5625 C-0.43821442 42.26912781 -0.50142883 42.97575562 -0.56655884 43.70379639 C-1.45499785 53.50750668 -2.62844371 63.25209062 -4 73 C-4.33 73 -4.66 73 -5 73 C-5.02725341 71.2709226 -5.04650987 69.54171824 -5.0625 67.8125 C-5.07410156 66.84957031 -5.08570313 65.88664062 -5.09765625 64.89453125 C-5.00377156 62.11178902 -4.5599908 59.7221775 -4 57 C-2.49410528 45.63287974 -1.82700123 34.32366043 -1.96850586 22.86401367 C-2.03703668 16.85574107 -1.76636246 10.96667913 -1 5 C-3.10688615 6.43364436 -5.21050926 7.87170933 -7.3125 9.3125 C-7.90740234 9.71662109 -8.50230469 10.12074219 -9.11523438 10.53710938 C-12.52110865 12.87300338 -12.52110865 12.87300338 -15.60546875 15.60546875 C-17.50094997 17.50094997 -19.69759783 18.63127546 -22 20 C-24.01922484 21.49521405 -26.01764328 23.0187397 -28 24.5625 C-29.1444772 25.45059049 -30.28901016 26.33860913 -31.43359375 27.2265625 C-32.01866699 27.68192383 -32.60374023 28.13728516 -33.20654297 28.60644531 C-36.15046879 30.89393899 -39.1067857 33.16527347 -42.0625 35.4375 C-43.10535156 36.24058594 -44.14820313 37.04367188 -45.22265625 37.87109375 C-46.13917969 38.57363281 -47.05570312 39.27617188 -48 40 C-48.72058594 40.58910156 -49.44117188 41.17820313 -50.18359375 41.78515625 C-52 43 -52 43 -55 43 C-55.20882812 43.56589844 -55.41765625 44.13179687 -55.6328125 44.71484375 C-57.50882096 47.85045788 -59.92268281 49.42946888 -62.875 51.5625 C-63.92429687 52.32691406 -64.97359375 53.09132812 -66.0546875 53.87890625 C-67.02664063 54.57886719 -67.99859375 55.27882812 -69 56 C-70.08667969 56.87978516 -70.08667969 56.87978516 -71.1953125 57.77734375 C-73 59 -73 59 -76 59 C-76.66 60.32 -77.32 61.64 -78 63 C-78.99 63 -79.98 63 -81 63 C-81.226875 63.639375 -81.45375 64.27875 -81.6875 64.9375 C-83 67 -83 67 -85.625 67.75 C-86.40875 67.8325 -87.1925 67.915 -88 68 C-88 67.34 -88 66.68 -88 66 C-82.58823529 62 -82.58823529 62 -80 62 C-80 61.34 -80 60.68 -80 60 C-74.58823529 56 -74.58823529 56 -72 56 C-72 55.34 -72 54.68 -72 54 C-69.98046875 52.3359375 -69.98046875 52.3359375 -67.1875 50.375 C-66.19234375 49.67117187 -65.1971875 48.96734375 -64.171875 48.2421875 C-63.12515625 47.50226563 -62.0784375 46.76234375 -61 46 C-58.06845038 43.82711774 -55.13959487 41.65077379 -52.21484375 39.46875 C-50 38 -50 38 -48 38 C-48 37.34 -48 36.68 -48 36 C-46.34928604 34.97388051 -44.68029994 33.97691857 -43 33 C-42.195625 32.195625 -42.195625 32.195625 -41.375 31.375 C-40 30 -40 30 -37 29 C-35.7315625 27.7315625 -35.7315625 27.7315625 -34.4375 26.4375 C-33.633125 25.633125 -32.82875 24.82875 -32 24 C-31.34 24 -30.68 24 -30 24 C-30 23.34 -30 22.68 -30 22 C-27.74185152 20.20173555 -25.48722261 18.5253199 -23.125 16.875 C-22.47402344 16.40707031 -21.82304687 15.93914062 -21.15234375 15.45703125 C-16.26412172 12 -16.26412172 12 -14 12 C-14 11.34 -14 10.68 -14 10 C-8.58823529 6 -8.58823529 6 -6 6 C-6 5.34 -6 4.68 -6 4 C-3 2 -3 2 0 2 C0 1.34 0 0.68 0 0 Z " fill="#7B6DE4" transform="translate(326,50)"/>
<path d="M0 0 C0.66 0.33 1.32 0.66 2 1 C1.319375 1.721875 0.63875 2.44375 -0.0625 3.1875 C-2.31737069 5.8205652 -2.31737069 5.8205652 -1.75 8.8125 C-1.5025 9.534375 -1.255 10.25625 -1 11 C-0.34 11 0.32 11 1 11 C11.73948892 31.07137493 18.01947395 52.69628857 11.3125 75.5 C10.59093662 77.35327856 9.82236264 79.18919498 9 81 C8.61457031 81.95390625 8.22914063 82.9078125 7.83203125 83.890625 C5.27931368 89.93783945 2.25027298 95.95202183 -2 101 C-2.66 101 -3.32 101 -4 101 C-4.22816406 101.72574219 -4.45632812 102.45148438 -4.69140625 103.19921875 C-6.26643398 106.57024825 -8.15969646 108.35285898 -10.9375 110.8125 C-11.81277344 111.60269531 -12.68804687 112.39289063 -13.58984375 113.20703125 C-16 115 -16 115 -19 115 C-19 115.66 -19 116.32 -19 117 C-19.99 117 -20.98 117 -22 117 C-22 117.66 -22 118.32 -22 119 C-27.44282245 122.43134459 -34.6556081 126.80397066 -41.30078125 125.57421875 C-41.86152344 125.38472656 -42.42226562 125.19523437 -43 125 C-42.20078125 124.72027344 -41.4015625 124.44054687 -40.578125 124.15234375 C-20.29524668 116.74861704 -5.37412102 104.96305196 3.875 85.25 C11.66510429 66.79551156 13.00096341 45.9967662 6 27 C2.7215511 19.79051996 -1.3310044 13.36681218 -6 7 C-6 6.34 -6 5.68 -6 5 C-4.04072937 3.2856382 -2.04119788 1.61594832 0 0 Z " fill="#8440CB" transform="translate(228,124)"/>
<path d="M0 0 C0 0.66 0 1.32 0 2 C1.32 2 2.64 2 4 2 C4 2.66 4 3.32 4 4 C4.99 4 5.98 4 7 4 C7 4.66 7 5.32 7 6 C7.74894531 6.23074219 8.49789062 6.46148437 9.26953125 6.69921875 C12.54618866 8.26020146 13.68689813 9.81384506 15.6875 12.8125 C16.26886719 13.66457031 16.85023438 14.51664063 17.44921875 15.39453125 C19.98774956 19.65951878 21.25647758 23.09707717 21.1953125 28.08203125 C21.18886719 29.01337891 21.18242187 29.94472656 21.17578125 30.90429688 C21.15064453 32.34385742 21.15064453 32.34385742 21.125 33.8125 C21.11597656 34.79154297 21.10695313 35.77058594 21.09765625 36.77929688 C21.07417182 39.18645061 21.0413284 41.59309743 21 44 C20.34 44 19.68 44 19 44 C19 46.31 19 48.62 19 51 C18.67 51 18.34 51 18 51 C17.875 43.375 17.875 43.375 19 40 C19.82439528 28.55358858 18.48886936 20.02578387 11.08984375 11.078125 C4.17361612 4.20067995 -4.181634 1.01759581 -13.8125 0.625 C-22.76906735 0.7819361 -31.05701275 4.25572581 -37.5546875 10.4921875 C-44.97905455 18.50754895 -46.73381561 26.36237129 -46.33984375 37.08984375 C-45.91085947 42.02562839 -44.85174606 46.41472405 -43 51 C-43.66 51 -44.32 51 -45 51 C-45 50.01 -45 49.02 -45 48 C-45.66 48 -46.32 48 -47 48 C-50.19928642 38.09623288 -50.65298922 27.47831138 -46 18 C-45.525625 16.9275 -45.05125 15.855 -44.5625 14.75 C-42.98258695 11.96935303 -41.44562642 10.05117055 -39 8 C-38.34 8 -37.68 8 -37 8 C-37 7.34 -37 6.68 -37 6 C-26.07877378 -2.08654175 -12.95405973 -4.82011525 0 0 Z " fill="#F9E1B2" transform="translate(160,127)"/>
<path d="M0 0 C0 0.66 0 1.32 0 2 C-4.455 3.485 -4.455 3.485 -9 5 C-10.26038566 9.8150671 -10.07138029 14.50438037 -10 19.4375 C-9.94244766 25.44628996 -10.03580649 31.32464967 -10.625 37.3125 C-11.16513667 43.5721661 -10.48469712 49.36796916 -9.47265625 55.52734375 C-8.99101165 59.06603836 -8.953127 62.43339109 -9 66 C-8.57871806 69.79153747 -7.90430539 73.42679586 -7 77.125 C-5.90267041 81.89354257 -5.60202745 86.61813235 -5.28515625 91.4921875 C-4.80762134 97.3665211 -3.89911839 103.1775537 -3 109 C-3.66 109 -4.32 109 -5 109 C-6.76762052 98.68171192 -8.43226385 88.35042336 -10 78 C-10.1753125 76.84790039 -10.350625 75.69580078 -10.53125 74.50878906 C-12.88552563 58.33785835 -13.32878267 42.25216547 -13.4375 25.9375 C-13.44971588 24.92081238 -13.46193176 23.90412476 -13.47451782 22.85662842 C-13.50397547 19.95474168 -13.50484241 17.05433848 -13.49609375 14.15234375 C-13.51272568 12.83243187 -13.51272568 12.83243187 -13.5296936 11.4858551 C-13.46157939 5.5012746 -13.46157939 5.5012746 -11.16040039 3.00219727 C-7.41538316 1.2649054 -4.15698613 0 0 0 Z " fill="#50E3C6" transform="translate(13,43)"/>
<path d="M0 0 C0.33 0 0.66 0 1 0 C1.62748228 24.1081909 1.62748228 24.1081909 -2 34 C-2.35191406 34.98871094 -2.70382813 35.97742188 -3.06640625 36.99609375 C-10.33141458 55.81798001 -23.28441642 69.9825723 -41.375 78.8125 C-43.23509508 79.57889111 -45.11142293 80.30675713 -47 81 C-48.04800781 81.391875 -49.09601563 81.78375 -50.17578125 82.1875 C-61.94899173 85.95911804 -73.76723076 85.39514474 -86 85 C-86 84.67 -86 84.34 -86 84 C-85.13217896 83.970271 -85.13217896 83.970271 -84.24682617 83.93994141 C-65.11652738 83.533701 -65.11652738 83.533701 -47 78 C-45.69016557 77.53410361 -44.37751072 77.07607926 -43.0625 76.625 C-39.24265756 75.2325818 -36.024897 73.25784877 -32.6640625 70.98828125 C-31 70 -31 70 -29 70 C-29 69.34 -29 68.68 -29 68 C-27.49609375 66.5546875 -27.49609375 66.5546875 -25.4375 64.875 C-10.8651355 52.41010268 -2.49132705 35.63679984 -0.77734375 16.51611328 C-0.39436523 11.01487126 -0.17039865 5.51151494 0 0 Z " fill="#C9CAF9" transform="translate(238,167)"/>
<path d="M0 0 C0.99 0.495 0.99 0.495 2 1 C2.73022461 3.30981445 2.73022461 3.30981445 3.40234375 6.36328125 C3.65306641 7.47896484 3.90378906 8.59464844 4.16210938 9.74414062 C4.41798828 10.92169922 4.67386719 12.09925781 4.9375 13.3125 C5.44551255 15.60050538 5.95462246 17.8882674 6.46484375 20.17578125 C6.7167749 21.30814209 6.96870605 22.44050293 7.22827148 23.60717773 C8.9498008 31.1756981 10.77412196 38.65122244 13.31640625 45.98828125 C14.32576166 48.95867003 15.13825509 51.98389281 16 55 C21.71593722 73.02820757 29.66305847 90.0586708 38 107 C37.34 107.66 36.68 108.32 36 109 C-1.61823012 35.06165266 -1.61823012 35.06165266 0 0 Z " fill="#36DEB1" transform="translate(9,153)"/>
<path d="M0 0 C4.15654169 3.39762256 7.71323013 6.72719917 11 11 C14.98162778 15.21584118 19.33903178 18.99638501 23.6953125 22.81640625 C28.9000829 27.74770566 28.9000829 27.74770566 29.29296875 32.671875 C29.27316751 34.03156035 29.23759202 35.3910934 29.1875 36.75 C29.16719727 37.79607422 29.16719727 37.79607422 29.14648438 38.86328125 C29.1112945 40.57585541 29.05749155 42.28802941 29 44 C25.20839703 44.05786668 21.41690689 44.09355054 17.625 44.125 C16.54476562 44.14175781 15.46453125 44.15851563 14.3515625 44.17578125 C13.3203125 44.18222656 12.2890625 44.18867188 11.2265625 44.1953125 C9.79691162 44.21102295 9.79691162 44.21102295 8.33837891 44.22705078 C6 44 6 44 4 42 C3.77456255 39.97106296 3.55067543 37.9418456 3.3515625 35.91015625 C2.90647166 33.49182937 2.00603542 32.3955029 0 31 C3.875 31.875 3.875 31.875 5 33 C5 35.64 5 38.28 5 41 C12.26 41 19.52 41 27 41 C27 37.04 27 33.08 27 29 C26.34 29 25.68 29 25 29 C23.60522461 27.57739258 23.60522461 27.57739258 21.96484375 25.58203125 C17.03006906 19.77468297 11.53859897 14.5568955 6.05664062 9.27148438 C5.27611328 8.50513672 4.49558594 7.73878906 3.69140625 6.94921875 C2.98185791 6.26174561 2.27230957 5.57427246 1.54125977 4.8659668 C0 3 0 3 0 0 Z " fill="#EAB832" transform="translate(180,180)"/>
<path d="M0 0 C-1.32 0.33 -2.64 0.66 -4 1 C-4 0.34 -4 -0.32 -4 -1 C-4.556875 -1.12375 -5.11375 -1.2475 -5.6875 -1.375 C-8 -2 -8 -2 -10.12890625 -3.015625 C-17.42732241 -5.51793911 -28.0838722 -5.30242156 -35.25 -2.3125 C-38.7682089 -0.38119914 -41.37289608 1.94687923 -44 5 C-44.75603516 5.80630859 -44.75603516 5.80630859 -45.52734375 6.62890625 C-52.20060099 13.92217272 -53.56182743 19.7175206 -53.36328125 29.55078125 C-52.86140479 34.31590932 -51.29865523 37.85891119 -49 42 C-48.32165413 43.66194738 -47.64800425 45.32598903 -47 47 C-46.34 47 -45.68 47 -45 47 C-43.7109375 48.53125 -43.7109375 48.53125 -42.375 50.5 C-41.92898437 51.1496875 -41.48296875 51.799375 -41.0234375 52.46875 C-40.68570313 52.9740625 -40.34796875 53.479375 -40 54 C-46.32473098 51.22599518 -50.52129119 45.64375665 -53.4375 39.5 C-56.2631717 31.58567277 -56.61356838 21.04090553 -53.5625 13.125 C-49.13594298 4.97575545 -42.74300894 -1.7660268 -34 -5 C-33.0925 -5.4125 -32.185 -5.825 -31.25 -6.25 C-19.57375539 -8.94451799 -9.91411815 -6.11722184 0 0 Z " fill="#EB7327" transform="translate(168,134)"/>
<path d="M0 0 C2.81374263 1.94797566 3.79326562 3.10415102 4.5625 6.4375 C3.72101232 10.27094386 2.14799562 11.72272657 -1 14 C-4.88633136 14.06700571 -7.01698822 13.88788161 -9.9375 11.25 C-11.23370853 8.50508782 -11.52487013 6.99925788 -11 4 C-8.00375133 -0.43444803 -5.14731601 -0.73533086 0 0 Z " fill="#F3C8B3" transform="translate(141,142)"/>
<path d="M0 0 C4.12759513 0.4690449 7.05286786 0.93951662 10 4 C10 5.32 10 6.64 10 8 C8.02 8.66 6.04 9.32 4 10 C4 10.66 4 11.32 4 12 C-1.41176471 16 -1.41176471 16 -4 16 C-4 16.66 -4 17.32 -4 18 C-6.046875 19.62109375 -6.046875 19.62109375 -8.75 21.4375 C-12.53812241 23.99517049 -12.53812241 23.99517049 -16.203125 26.72265625 C-18 28 -18 28 -20 28 C-20 28.66 -20 29.32 -20 30 C-21.66279327 31.0064275 -23.32983484 32.00585407 -25 33 C-25.66 33.99 -26.32 34.98 -27 36 C-28.65532623 37.01866229 -30.32260138 38.01810813 -32 39 C-32.53625 39.556875 -33.0725 40.11375 -33.625 40.6875 C-35 42 -35 42 -38 42 C-38 42.66 -38 43.32 -38 44 C-42.455 46.475 -42.455 46.475 -47 49 C-47 48.34 -47 47.68 -47 47 C-45.3203125 45.4921875 -45.3203125 45.4921875 -43.125 43.875 C-42.40570313 43.33617187 -41.68640625 42.79734375 -40.9453125 42.2421875 C-39 41 -39 41 -37 41 C-37 40.34 -37 39.68 -37 39 C-31.58823529 35 -31.58823529 35 -29 35 C-29 34.34 -29 33.68 -29 33 C-23.58823529 29 -23.58823529 29 -21 29 C-21 28.34 -21 27.68 -21 27 C-19.35 26.34 -17.7 25.68 -16 25 C-16 24.34 -16 23.68 -16 23 C-14.1015625 21.4921875 -14.1015625 21.4921875 -11.625 19.875 C-10.81289063 19.33617188 -10.00078125 18.79734375 -9.1640625 18.2421875 C-7 17 -7 17 -5 17 C-5 16.34 -5 15.68 -5 15 C0.41176471 11 0.41176471 11 3 11 C3 10.34 3 9.68 3 9 C4.29233607 7.62689293 5.62437146 6.28965176 7 5 C4.69 3.68 2.38 2.36 0 1 C0 0.67 0 0.34 0 0 Z " fill="#389FF1" transform="translate(316,44)"/>
<path d="M0 0 C0.95206296 2.64461932 0.96552699 4.23011472 0.54296875 7.05078125 C-1.71654718 23.48510214 -0.19797584 38.95748964 7.79296875 53.63671875 C9 56 9 56 9 58 C8.34 58 7.68 58 7 58 C7 57.34 7 56.68 7 56 C6.34 56 5.68 56 5 56 C4.65066406 55.00097656 4.30132812 54.00195312 3.94140625 52.97265625 C3.48192081 51.66921795 3.02227721 50.3658354 2.5625 49.0625 C2.33240234 48.40314453 2.10230469 47.74378906 1.86523438 47.06445312 C0.88035408 43.77671378 0.88035408 43.77671378 -1 41 C-1.31923492 38.9427083 -1.51161352 36.88386479 -1.71875 34.8125 C-1.81998043 32.9832467 -1.81998043 32.9832467 -3 32 C-3.28287771 27.77783581 -3.23189192 23.5430004 -3.25 19.3125 C-3.270625 18.12720703 -3.29125 16.94191406 -3.3125 15.72070312 C-3.36101086 4.90884481 -3.36101086 4.90884481 0 0 Z " fill="#4ACBC1" transform="translate(92,159)"/>
<path d="M0 0 C0.99 0 1.98 0 3 0 C3.32613281 0.66386719 3.65226562 1.32773437 3.98828125 2.01171875 C6.59208331 7.2730887 9.20775993 12.36707 12.515625 17.2265625 C13.06734375 18.03867187 13.6190625 18.85078125 14.1875 19.6875 C14.71730469 20.45449219 15.24710938 21.22148437 15.79296875 22.01171875 C17 24 17 24 17 26 C17.99 26.33 18.98 26.66 20 27 C21.01351664 28.65848177 22.01120795 30.32665961 23 32 C23.86625 32.845625 24.7325 33.69125 25.625 34.5625 C27.88661207 36.88362818 28.6512354 37.86111862 29 41 C29.66 41 30.32 41 31 41 C34.34645017 44.08225674 37.2239921 47.40147125 40 51 C39.505 51.99 39.505 51.99 39 53 C30.81002814 45.23774427 23.73125979 37.0426107 17 28 C16.33605225 27.11127197 16.33605225 27.11127197 15.65869141 26.20458984 C0 5.11693734 0 5.11693734 0 0 Z " fill="#CF46DB" transform="translate(47,263)"/>
<path d="M0 0 C0.33 0 0.66 0 1 0 C1.39888732 13.93855501 0.88213627 27.6866451 -0.375 41.5625 C-0.43821442 42.26912781 -0.50142883 42.97575562 -0.56655884 43.70379639 C-1.45499785 53.50750668 -2.62844371 63.25209062 -4 73 C-4.33 73 -4.66 73 -5 73 C-5.02725341 71.2709226 -5.04650987 69.54171824 -5.0625 67.8125 C-5.07410156 66.84957031 -5.08570313 65.88664062 -5.09765625 64.89453125 C-5.00377156 62.11178902 -4.5599908 59.7221775 -4 57 C-2.50322662 45.70173147 -1.83463305 34.46049084 -1.96630859 23.07055664 C-2.16556423 4.33112845 -2.16556423 4.33112845 0 0 Z " fill="#7E51C1" transform="translate(326,50)"/>
<path d="M0 0 C-2.40864545 1.60576364 -4.67753641 2.83876821 -7.25 4.125 C-14.18171018 7.97970712 -19.37262041 13.86450207 -22.34375 21.25390625 C-24.61127209 30.74240643 -23.63283435 41.00441019 -20 50 C-20.66 50 -21.32 50 -22 50 C-22 49.01 -22 48.02 -22 47 C-22.66 47 -23.32 47 -24 47 C-27.19928642 37.09623288 -27.65298922 26.47831138 -23 17 C-22.525625 15.9275 -22.05125 14.855 -21.5625 13.75 C-19.98258695 10.96935303 -18.44562642 9.05117055 -16 7 C-15.34 7 -14.68 7 -14 7 C-14 6.34 -14 5.68 -14 5 C-12.61217515 4.1533966 -11.21430603 3.32324661 -9.8125 2.5 C-8.64654297 1.80390625 -8.64654297 1.80390625 -7.45703125 1.09375 C-4.75896614 -0.10729647 -2.9193018 -0.20741043 0 0 Z " fill="#FCC4A8" transform="translate(137,128)"/>
<path d="M0 0 C-0.88300781 0.35191406 -1.76601562 0.70382813 -2.67578125 1.06640625 C-20.01958595 8.20139787 -36.82484118 19.42340853 -45 37 C-45.66 37 -46.32 37 -47 37 C-40.93204235 19.99133083 -25.10624187 8.74150516 -9.56640625 1.1640625 C-5.84700104 -0.52297365 -3.89974751 -1.21026647 0 0 Z " fill="#C8DCD2" transform="translate(146,108)"/>
<path d="M0 0 C0.66 0 1.32 0 2 0 C2.02685095 2.47923801 2.04676547 4.9581884 2.0625 7.4375 C2.07087891 8.14455078 2.07925781 8.85160156 2.08789062 9.58007812 C2.09653588 11.38693559 2.05220011 13.19387603 2 15 C-0.71276838 17.71276838 -8.7829499 16.23516672 -12.4375 16.25 C-13.70400391 16.270625 -14.97050781 16.29125 -16.27539062 16.3125 C-17.48259766 16.31765625 -18.68980469 16.3228125 -19.93359375 16.328125 C-21.04790771 16.3374707 -22.16222168 16.34681641 -23.31030273 16.35644531 C-24.64170288 16.18000488 -24.64170288 16.18000488 -26 16 C-28.13586678 12.79619983 -28.23132175 11.98060033 -28.125 8.3125 C-28.10695312 7.50425781 -28.08890625 6.69601563 -28.0703125 5.86328125 C-28.04710937 5.24839844 -28.02390625 4.63351563 -28 4 C-30.31 4 -32.62 4 -35 4 C-35.33 3.34 -35.66 2.68 -36 2 C-32.56292439 1.80170718 -29.82932158 1.65081196 -26.625 3 C-24.11089079 6.09428826 -24.31751435 9.06282202 -24 13 C-22.31699331 14.68300669 -20.17991273 14.22809077 -17.87109375 14.31640625 C-16.31938477 14.37924805 -16.31938477 14.37924805 -14.73632812 14.44335938 C-13.64771484 14.48267578 -12.55910156 14.52199219 -11.4375 14.5625 C-10.34501953 14.60568359 -9.25253906 14.64886719 -8.12695312 14.69335938 C-5.41813232 14.79981958 -2.70908349 14.90044807 0 15 C0 10.05 0 5.1 0 0 Z " fill="#D4DAB5" transform="translate(209,209)"/>
<path d="M0 0 C0.66 0 1.32 0 2 0 C3.26411152 1.47479678 4.46140193 3.0071727 5.625 4.5625 C15.93521934 17.67621369 29.30263992 25.10487122 45 30 C45 30.33 45 30.66 45 31 C39.19998846 31.54927878 35.08733881 29.66562569 29.9375 27.3125 C29.14794922 26.97283203 28.35839844 26.63316406 27.54492188 26.28320312 C22.78328876 24.14785215 19.52959517 21.94336654 16 18 C14.63767178 16.77739775 13.26365792 15.5676121 11.875 14.375 C6.75192026 9.96955011 6.75192026 9.96955011 5 8 C5 7.34 5 6.68 5 6 C4.34 6 3.68 6 3 6 C2.67 5.34 2.34 4.68 2 4 C1.4225 4.309375 0.845 4.61875 0.25 4.9375 C-1.84294184 5.92583364 -3.74535275 6.5168613 -6 7 C-4.71937515 5.2925002 -3.38232443 3.62626404 -2 2 C-1.34 2 -0.68 2 0 2 C0 1.34 0 0.68 0 0 Z " fill="#BD58DB" transform="translate(102,220)"/>
<path d="M0 0 C0.66 0.33 1.32 0.66 2 1 C1.319375 1.721875 0.63875 2.44375 -0.0625 3.1875 C-2.31737069 5.8205652 -2.31737069 5.8205652 -1.75 8.8125 C-1.5025 9.534375 -1.255 10.25625 -1 11 C-0.34 11 0.32 11 1 11 C2.29673602 13.53919006 3.58747837 16.08114238 4.875 18.625 C5.42220703 19.69427734 5.42220703 19.69427734 5.98046875 20.78515625 C8.90836458 26.58771345 11.304247 31.7428611 11.125 38.375 C11.10695312 39.24898437 11.08890625 40.12296875 11.0703125 41.0234375 C11.04710937 41.67570312 11.02390625 42.32796875 11 43 C10.67 43 10.34 43 10 43 C9.79246094 41.99582031 9.58492187 40.99164063 9.37109375 39.95703125 C6.59259741 27.33356688 1.67362047 17.46402791 -6 7 C-6 6.34 -6 5.68 -6 5 C-4.04072937 3.2856382 -2.04119788 1.61594832 0 0 Z " fill="#9757C7" transform="translate(228,124)"/>
<path d="M0 0 C0.33 0 0.66 0 1 0 C1.62748228 24.1081909 1.62748228 24.1081909 -2 34 C-2.35191406 34.98871094 -2.70382813 35.97742188 -3.06640625 36.99609375 C-6.07500662 44.79065246 -9.86594011 54.24396007 -17 59 C-15.95569788 55.86709365 -14.77451013 53.70561045 -12.75 51.0625 C-1.84330302 36.15452958 -0.55006767 17.79184384 0 0 Z " fill="#CCD7FC" transform="translate(238,167)"/>
<path d="M0 0 C0.99 0.33 1.98 0.66 3 1 C-1.75 5 -1.75 5 -4 5 C-4 5.66 -4 6.32 -4 7 C-9.41176471 11 -9.41176471 11 -12 11 C-12 11.66 -12 12.32 -12 13 C-17.41176471 17 -17.41176471 17 -20 17 C-20 17.66 -20 18.32 -20 19 C-21.86382633 20.56656536 -23.7212009 22.01060769 -25.6875 23.4375 C-26.74324219 24.21996094 -27.79898438 25.00242187 -28.88671875 25.80859375 C-31.53546014 27.67301523 -34.19622419 29.38223696 -37 31 C-37.99 29.68 -38.98 28.36 -40 27 C-39.2678125 27.06960937 -38.535625 27.13921875 -37.78125 27.2109375 C-34.3030422 26.94714084 -33.11432253 25.88031345 -30.5 23.625 C-27.43850359 21.00548018 -24.81681557 19.33050965 -21 18 C-21 17.34 -21 16.68 -21 16 C-18.74185152 14.20173555 -16.48722261 12.5253199 -14.125 10.875 C-13.47402344 10.40707031 -12.82304687 9.93914062 -12.15234375 9.45703125 C-7.26412172 6 -7.26412172 6 -5 6 C-5 5.34 -5 4.68 -5 4 C-2.6875 1.8125 -2.6875 1.8125 0 0 Z " fill="#389FF0" transform="translate(258,99)"/>
<path d="M0 0 C8.609347 1.42939026 16.8263985 3.9897439 25.125 6.625 C26.47641376 7.04995248 27.82797539 7.47443501 29.1796875 7.8984375 C32.45484485 8.92688787 35.72796462 9.96165368 39 11 C39 11.66 39 12.32 39 13 C32.25957748 11.56351651 25.62214044 9.90945154 19 8 C18.33887207 7.81002441 17.67774414 7.62004883 16.99658203 7.42431641 C14.82731068 6.79487775 12.66332513 6.14955729 10.5 5.5 C9.80511475 5.29850342 9.11022949 5.09700684 8.39428711 4.8894043 C4.78668946 3.78581523 2.5220618 2.7823049 0 0 Z " fill="#49B3F2" transform="translate(213,13)"/>
<path d="M0 0 C8.609347 1.42939026 16.8263985 3.9897439 25.125 6.625 C26.47641376 7.04995248 27.82797539 7.47443501 29.1796875 7.8984375 C32.45484485 8.92688787 35.72796462 9.96165368 39 11 C39 11.66 39 12.32 39 13 C36.69 12.67 34.38 12.34 32 12 C32 11.34 32 10.68 32 10 C30.6696875 10.12375 30.6696875 10.12375 29.3125 10.25 C23.31377293 10.29957626 17.61577649 7.89162997 12 6 C12 5.34 12 4.68 12 4 C10.948125 4.0825 9.89625 4.165 8.8125 4.25 C4.46236331 3.96474513 3.0684847 2.97550031 0 0 Z " fill="#52B8ED" transform="translate(173,1)"/>
<path d="M0 0 C0 0.66 0 1.32 0 2 C-4.455 3.485 -4.455 3.485 -9 5 C-10.28944005 9.88576895 -10.07034808 14.67982764 -10 19.6875 C-9.9454822 26.5393964 -10.09275168 33.19563761 -11 40 C-11.33 40 -11.66 40 -12 40 C-12.24178289 35.07120252 -12.45677814 30.14223985 -12.64697266 25.21118164 C-12.71545122 23.53378131 -12.79125466 21.85666341 -12.87451172 20.17993164 C-12.99290133 17.7700611 -13.08494242 15.36040348 -13.171875 12.94921875 C-13.21439392 12.19912033 -13.25691284 11.44902191 -13.30072021 10.67619324 C-13.36230469 8.5534668 -13.36230469 8.5534668 -13 5 C-9.59698965 1.4038236 -4.88742681 0 0 0 Z " fill="#3FE1C1" transform="translate(13,43)"/>
<path d="M0 0 C0.66 0 1.32 0 2 0 C3.57652705 6.20100639 4.30012341 12.1130346 4.71484375 18.4921875 C5.19237866 24.3665211 6.10088161 30.1775537 7 36 C6.34 36 5.68 36 5 36 C4.28282605 31.67750105 3.57091144 27.35417799 2.86376953 23.0300293 C2.6226864 21.56039298 2.3801902 20.09098771 2.13623047 18.62182617 C1.78497808 16.5049929 1.43888544 14.38736937 1.09375 12.26953125 C0.88427734 10.99698486 0.67480469 9.72443848 0.45898438 8.41333008 C0.07327991 5.54496089 -0.09642822 2.88561434 0 0 Z " fill="#51D6B4" transform="translate(3,116)"/>
<path d="M0 0 C0 0.66 0 1.32 0 2 C1.32 2 2.64 2 4 2 C4 2.66 4 3.32 4 4 C4.99 4 5.98 4 7 4 C6.67 4.99 6.34 5.98 6 7 C5.11248047 6.47599609 5.11248047 6.47599609 4.20703125 5.94140625 C3.41683594 5.48636719 2.62664062 5.03132812 1.8125 4.5625 C1.03519531 4.11003906 0.25789063 3.65757812 -0.54296875 3.19140625 C-6.10479443 0.49449555 -11.7631678 0.87885621 -17.8125 0.9375 C-19.13797852 0.94426758 -19.13797852 0.94426758 -20.49023438 0.95117188 C-22.66018559 0.96290134 -24.83010172 0.98083505 -27 1 C-27 0.67 -27 0.34 -27 0 C-18.38714943 -3.20478161 -8.61285057 -3.20478161 0 0 Z " fill="#FBD5AE" transform="translate(160,127)"/>
<path d="M0 0 C7.42507799 1.29424225 14.47000764 3.27502921 21.625 5.625 C22.62917969 5.94984375 23.63335937 6.2746875 24.66796875 6.609375 C27.11363517 7.40130508 29.5575428 8.19823827 32 9 C27.87565529 10.37478157 24.55062165 9.26402748 20.4375 8.3125 C19.63062744 8.12896973 18.82375488 7.94543945 17.99243164 7.75634766 C12.17546945 6.38524414 6.24655468 4.95196221 1 2 C0.67 1.34 0.34 0.68 0 0 Z " fill="#50AFEA" transform="translate(253,25)"/>
<path d="M0 0 C0.66 0.33 1.32 0.66 2 1 C-0.98138085 4.22982926 -2.7769377 5.98064013 -7 7 C-7.27457031 7.61101562 -7.54914063 8.22203125 -7.83203125 8.8515625 C-9.30856402 11.56759268 -10.79805369 12.36064248 -13.5 13.8125 C-14.2940625 14.25207031 -15.088125 14.69164062 -15.90625 15.14453125 C-16.5971875 15.42683594 -17.288125 15.70914063 -18 16 C-18.66 15.67 -19.32 15.34 -20 15 C-6.3667426 4.44191344 -6.3667426 4.44191344 0 0 Z " fill="#9C83D6" transform="translate(94,226)"/>
<path d="M0 0 C9.9698428 1.63440046 19.42196248 4.86435051 29 8 C29 8.66 29 9.32 29 10 C25.7 9.34 22.4 8.68 19 8 C19 7.34 19 6.68 19 6 C17.081875 5.8453125 17.081875 5.8453125 15.125 5.6875 C9.86329406 5.11866692 5.00852854 3.6625387 0 2 C0 1.34 0 0.68 0 0 Z " fill="#44AEED" transform="translate(286,35)"/>
<path d="M0 0 C0.99 0.33 1.98 0.66 3 1 C2.39671875 1.59167969 1.7934375 2.18335937 1.171875 2.79296875 C-4.6067428 8.50634409 -9.53948177 13.55988582 -13 21 C-13.66 21 -14.32 21 -15 21 C-12.14484112 12.9177041 -6.3167845 5.72458595 0 0 Z " fill="#D3D5CE" transform="translate(114,124)"/>
<path d="M0 0 C0.33 0 0.66 0 1 0 C1 7.92 1 15.84 1 24 C0.34 24.33 -0.32 24.66 -1 25 C-2.17027179 17.45824847 -3.50031226 7.00062451 0 0 Z " fill="#4C3375" transform="translate(326,50)"/>
<path d="M0 0 C4.15654169 3.39762256 7.71323013 6.72719917 11 11 C12.6459651 12.68711423 14.31237149 14.3545622 16 16 C17.33333333 17.33333333 18.66666667 18.66666667 20 20 C16.38444882 19.42018537 14.68076648 18.06580467 12.109375 15.5078125 C11.40039062 14.80269531 10.69140625 14.09757813 9.9609375 13.37109375 C9.23132813 12.62988281 8.50171875 11.88867188 7.75 11.125 C7.00492188 10.39152344 6.25984375 9.65804687 5.4921875 8.90234375 C4.78835937 8.19464844 4.08453125 7.48695313 3.359375 6.7578125 C2.71452148 6.1095752 2.06966797 5.46133789 1.40527344 4.79345703 C0 3 0 3 0 0 Z " fill="#E9AD2B" transform="translate(180,180)"/>
<path d="M0 0 C2.01974313 -0.00436544 4.03728522 -0.04067029 6.05664062 -0.07861328 C7.97476563 -0.08441406 7.97476563 -0.08441406 9.93164062 -0.09033203 C11.10130371 -0.0985498 12.2709668 -0.10676758 13.47607422 -0.11523438 C17.25414643 0.46159267 18.91889637 1.77408484 21.65820312 4.37060547 C15.11232684 3.47215186 15.11232684 3.47215186 12.29223633 2.84155273 C9.37483174 2.31994059 6.6641757 2.25775433 3.70117188 2.27294922 C2.58935547 2.27617188 1.47753906 2.27939453 0.33203125 2.28271484 C-0.81845703 2.29109375 -1.96894531 2.29947266 -3.15429688 2.30810547 C-4.32412109 2.31261719 -5.49394531 2.31712891 -6.69921875 2.32177734 C-9.58013045 2.33353617 -12.46093731 2.34997121 -15.34179688 2.37060547 C-10.61538219 -0.78033765 -5.56243389 -0.0013488 0 0 Z " fill="#44B5CB" transform="translate(165.341796875,102.62939453125)"/>
<path d="M0 0 C0.99 0 1.98 0 3 0 C3.32613281 0.66386719 3.65226562 1.32773437 3.98828125 2.01171875 C7.27975717 8.66263616 10.84802644 14.84362541 15 21 C13.14306641 20.70019531 13.14306641 20.70019531 11 20 C9.28457658 17.59957815 7.81808037 15.30425225 6.375 12.75 C5.98054688 12.08097656 5.58609375 11.41195313 5.1796875 10.72265625 C3.15169088 7.23532423 1.37250436 3.80759273 0 0 Z " fill="#D74EDF" transform="translate(47,263)"/>
<path d="M0 0 C0.66 0.33 1.32 0.66 2 1 C-2.57281132 6.56690074 -9.05697244 8.96546931 -16.0625 9.75 C-18.0115625 9.87375 -18.0115625 9.87375 -20 10 C-16.21274173 7.47516115 -12.22303557 6.00143903 -8.0078125 4.31640625 C-4.96763777 3.07261691 -4.96763777 3.07261691 -2.2421875 1.27734375 C-1.13230469 0.64505859 -1.13230469 0.64505859 0 0 Z " fill="#8F49CE" transform="translate(205,240)"/>
<path d="M0 0 C4.23169636 1.30786455 8.01989081 2.94080989 11.9375 5 C16.2728682 7.21357529 20.26088906 8.92292933 25 10 C25 10.33 25 10.66 25 11 C19.1228263 11.57917221 14.90203156 9.57522856 9.6875 7.1875 C8.86443359 6.83107422 8.04136719 6.47464844 7.19335938 6.10742188 C2.67283151 4.07635206 2.67283151 4.07635206 1 3 C0.67 2.01 0.34 1.02 0 0 Z " fill="#AA41D4" transform="translate(122,240)"/>
<path d="M0 0 C1.01320313 0.52400391 1.01320313 0.52400391 2.046875 1.05859375 C2.93890625 1.51363281 3.8309375 1.96867188 4.75 2.4375 C5.63171875 2.88996094 6.5134375 3.34242188 7.421875 3.80859375 C12.12904957 5.98387897 16.61339558 6.26634417 21.75 6.5625 C22.44738281 6.60568359 23.14476562 6.64886719 23.86328125 6.69335938 C25.57531922 6.79889596 27.28763561 6.8998991 29 7 C29 7.33 29 7.66 29 8 C26.14524694 8.08156437 23.29286435 8.14076372 20.4375 8.1875 C19.23770508 8.22520508 19.23770508 8.22520508 18.01367188 8.26367188 C11.04279571 8.34902954 5.29761495 6.87380575 0 2 C0 1.34 0 0.68 0 0 Z " fill="#FEDBCF" transform="translate(125,187)"/>
<path d="M0 0 C0.99 0.33 1.98 0.66 3 1 C1.42040347 2.29623379 -0.16383413 3.58681327 -1.75 4.875 C-2.63171875 5.59429687 -3.5134375 6.31359375 -4.421875 7.0546875 C-6.58176924 8.68442588 -8.539766 9.90784005 -11 11 C-11.99 9.68 -12.98 8.36 -14 7 C-13.27039063 7.07347656 -12.54078125 7.14695312 -11.7890625 7.22265625 C-8.24544535 6.93976244 -7.01763871 5.75775495 -4.375 3.4375 C-2.0859375 1.43359375 -2.0859375 1.43359375 0 0 Z " fill="#41A3E5" transform="translate(232,119)"/>
<path d="M0 0 C2.31 0 4.62 0 7 0 C7 0.66 7 1.32 7 2 C8.051875 2.1546875 8.051875 2.1546875 9.125 2.3125 C12.39137647 3.09359003 15.0471852 4.42058743 18 6 C18 6.66 18 7.32 18 8 C13.78224268 6.64474464 9.70578678 5.09799886 5.625 3.375 C4.56539062 2.92898437 3.50578125 2.48296875 2.4140625 2.0234375 C1.61742187 1.68570313 0.82078125 1.34796875 0 1 C0 0.67 0 0.34 0 0 Z " fill="#4AB6CF" transform="translate(187,107)"/>
<path d="M0 0 C0.66 0.33 1.32 0.66 2 1 C-1.49359465 4.59634744 -5.11098131 7.83451967 -9 11 C-9.66 10.67 -10.32 10.34 -11 10 C-9.625 8 -9.625 8 -8 6 C-7.34 6 -6.68 6 -6 6 C-6 5.34 -6 4.68 -6 4 C-4.03852126 2.61061923 -2.03833424 1.2739589 0 0 Z " fill="#77B4CA" transform="translate(69,243)"/>
<path d="M0 0 C2.49361571 1.20381448 4.68143083 2.45428722 7 4 C7 4.66 7 5.32 7 6 C7.53625 6.2475 8.0725 6.495 8.625 6.75 C11.5823982 8.30652537 14.29724051 10.03435673 17 12 C17 12.66 17 13.32 17 14 C10.30708501 10.9121324 4.21782612 6.05166356 0 0 Z " fill="#F2C6FD" transform="translate(109,227)"/>
<path d="M0 0 C0.66 0.33 1.32 0.66 2 1 C0.57277341 2.1998278 -0.86715776 3.3845576 -2.3125 4.5625 C-3.51326172 5.55443359 -3.51326172 5.55443359 -4.73828125 6.56640625 C-5.85783203 7.27603516 -5.85783203 7.27603516 -7 8 C-7.99 7.67 -8.98 7.34 -10 7 C-10 6.34 -10 5.68 -10 5 C-8.38007835 4.13624104 -6.75388139 3.28424146 -5.125 2.4375 C-4.22007813 1.96183594 -3.31515625 1.48617187 -2.3828125 0.99609375 C-1.20332031 0.50302734 -1.20332031 0.50302734 0 0 Z " fill="#6CC3C5" transform="translate(56,254)"/>
<path d="M0 0 C0.99 0.495 0.99 0.495 2 1 C2.72640955 3.31543043 3.38431458 5.65269935 4 8 C4.391875 9.051875 4.78375 10.10375 5.1875 11.1875 C6.04015051 14.13898252 5.85665886 15.16269724 5 18 C2.67344909 12.01589463 0.57065878 6.41991126 0 0 Z " fill="#42D3A9" transform="translate(19,194)"/>
<path d="M0 0 C0.99 0 1.98 0 3 0 C3.33 2.64 3.66 5.28 4 8 C6.97 8.495 6.97 8.495 10 9 C10 9.66 10 10.32 10 11 C7.66705225 11.04241723 5.33297433 11.04092937 3 11 C1.11942336 9.11942336 1.53722415 6.42875904 1.28125 3.91015625 C1.08962214 1.91911653 1.08962214 1.91911653 0 0 Z " fill="#EBA626" transform="translate(170,200)"/>
<path d="M0 0 C0.66 0.33 1.32 0.66 2 1 C-1.42388092 4.82669043 -4.00724943 6.72278474 -9 8 C-6.14723863 5.06799526 -3.34920216 2.35684596 0 0 Z " fill="#9F77D8" transform="translate(94,226)"/>
<path d="M0 0 C0.625 1.8125 0.625 1.8125 1 4 C0.01 5.485 0.01 5.485 -1 7 C-1.66 7 -2.32 7 -3 7 C-3 7.66 -3 8.32 -3 9 C-5.97 9 -8.94 9 -12 9 C-12 8.34 -12 7.68 -12 7 C-10.9275 7.0825 -9.855 7.165 -8.75 7.25 C-5.00111615 7.34689041 -5.00111615 7.34689041 -2.625 5.1875 C-0.82933128 3.00778171 -0.82933128 3.00778171 0 0 Z " fill="#EE7724" transform="translate(145,148)"/>
<path d="M0 0 C0.66 0.33 1.32 0.66 2 1 C1.0409375 2.11375 1.0409375 2.11375 0.0625 3.25 C-1.78333407 5.7111121 -2.56069174 7.03466926 -3 10 C-4.5 8.625 -4.5 8.625 -6 7 C-6 6.34 -6 5.68 -6 5 C-4.04072937 3.2856382 -2.04119788 1.61594832 0 0 Z " fill="#8C66D6" transform="translate(228,124)"/>
<path d="M0 0 C7.48291572 6.15034169 7.48291572 6.15034169 10 10 C9.67 10.66 9.34 11.32 9 12 C7.49105554 10.57189185 5.99307655 9.13218981 4.5 7.6875 C3.6646875 6.88699219 2.829375 6.08648437 1.96875 5.26171875 C0 3 0 3 0 0 Z " fill="#D344E4" transform="translate(77,304)"/>
<path d="M0 0 C0 0.66 0 1.32 0 2 C-1.41601714 2.48108275 -2.83284437 2.95978141 -4.25 3.4375 C-5.03890625 3.70433594 -5.8278125 3.97117188 -6.640625 4.24609375 C-8.74821988 4.91954708 -10.84753973 5.49150595 -13 6 C-9.30533663 1.73692689 -5.66953339 0 0 0 Z " fill="#49DDC4" transform="translate(13,43)"/>
<path d="M0 0 C2.93200474 2.85276137 5.64315404 5.65079784 8 9 C4.21304827 8.4590069 2.37254028 6.96567536 0 4 C0 2.68 0 1.36 0 0 Z " fill="#FED0C0" transform="translate(117,178)"/>
<path d="M0 0 C1.58877287 3.17754575 1 6.49382922 1 10 C1.33 10.66 1.66 11.32 2 12 C-0.38346353 11.07736896 -1.70891888 10.54335142 -2.9375 8.25 C-3.02882333 4.96236023 -1.59648343 2.80981084 0 0 Z " fill="#EDA334" transform="translate(178,168)"/>
<path d="M0 0 C4.12759513 0.4690449 7.05286786 0.93951662 10 4 C10 5.32 10 6.64 10 8 C9.34 7.67 8.68 7.34 8 7 C8.33 6.34 8.66 5.68 9 5 C8.071875 4.731875 7.14375 4.46375 6.1875 4.1875 C3.23759634 3.08851629 1.94384814 2.37581439 0 0 Z " fill="#3FA6E9" transform="translate(316,44)"/>
<path d="M0 0 C0 0.66 0 1.32 0 2 C-4.1205746 3.99785435 -7.45194365 4.17835515 -12 4 C-8.14070855 1.42713903 -4.66785662 0 0 0 Z " fill="#56D5C1" transform="translate(26,39)"/>
<path d="M0 0 C1.60568666 0.28317926 3.20952047 0.57687791 4.8125 0.875 C6.15248047 1.11863281 6.15248047 1.11863281 7.51953125 1.3671875 C10 2 10 2 13 4 C5.73846154 4.49230769 5.73846154 4.49230769 2 2 C1.34 1.34 0.68 0.68 0 0 Z " fill="#5BB3EB" transform="translate(213,13)"/>
<path d="M0 0 C0.66 0.33 1.32 0.66 2 1 C-0.72478774 4.36591427 -4.06856792 5.44226276 -8 7 C-7.34 5.68 -6.68 4.36 -6 3 C-5.01 3 -4.02 3 -3 3 C-3 2.34 -3 1.68 -3 1 C-2.01 0.67 -1.02 0.34 0 0 Z " fill="#51B8CB" transform="translate(98,222)"/>
<path d="M0 0 C2.34914492 2.34914492 2.73140357 3.95679446 3.625 7.125 C3.88539062 8.03507813 4.14578125 8.94515625 4.4140625 9.8828125 C4.70410156 10.93082031 4.70410156 10.93082031 5 12 C4.01 11.67 3.02 11.34 2 11 C1.05078125 8.71484375 1.05078125 8.71484375 0.3125 5.9375 C0.06113281 5.01839844 -0.19023437 4.09929687 -0.44921875 3.15234375 C-0.63097656 2.44207031 -0.81273438 1.73179687 -1 1 C-0.67 0.67 -0.34 0.34 0 0 Z " fill="#3ADDB2" transform="translate(25,211)"/>
<path d="M0 0 C1.14926266 0.95421808 2.29430541 1.91352045 3.4375 2.875 C4.07558594 3.40867188 4.71367187 3.94234375 5.37109375 4.4921875 C7 6 7 6 8 8 C4.21479387 7.45925627 2.40822445 5.92427254 0 3 C0 2.01 0 1.02 0 0 Z " fill="#E6AE3F" transform="translate(180,180)"/>
<path d="M0 0 C4.50802601 1.25805377 7.4912812 2.90407165 11 6 C7.45028204 5.39147692 4.23306391 4.61653196 1 3 C0.67 2.01 0.34 1.02 0 0 Z " fill="#B546D8" transform="translate(122,240)"/>
<path d="M0 0 C2.97 0.495 2.97 0.495 6 1 C6 1.66 6 2.32 6 3 C7.65 3.33 9.3 3.66 11 4 C9.4375 4.75 9.4375 4.75 7 5 C4.49713591 3.86915563 2.32992278 2.47860484 0 1 C0 0.67 0 0.34 0 0 Z " fill="#EF8B38" transform="translate(128,188)"/>
<path d="M0 0 C0.99 0.33 1.98 0.66 3 1 C0.69 3.31 -1.62 5.62 -4 8 C-4 4.09161134 -2.49432124 2.88405893 0 0 Z " fill="#EF671A" transform="translate(122,137)"/>
<path d="M0 0 C3 0 3 0 5.125 1.6875 C7.16972964 4.20933322 7.64598897 5.81390075 8 9 C5.06799526 6.14723863 2.35684596 3.34920216 0 0 Z " fill="#C73ED5" transform="translate(69,297)"/>
<path d="M0 0 C2.32590854 3.63423209 2.16265833 6.77088331 2 11 C1.34 11 0.68 11 0 11 C-0.84098656 6.98195309 -1.05404945 3.98196457 0 0 Z " fill="#3DDDBA" transform="translate(1,87)"/>
<path d="M0 0 C0.66 0.33 1.32 0.66 2 1 C1.0925 1.598125 0.185 2.19625 -0.75 2.8125 C-3.22901481 4.48106766 -5.63317911 6.17936855 -8 8 C-7.00310315 4.31148165 -6.31080309 3.19425193 -3 1.125 C-2.01 0.75375 -1.02 0.3825 0 0 Z " fill="#4794EE" transform="translate(288,78)"/>
<path d="M0 0 C0.66 0.33 1.32 0.66 2 1 C0.29374499 3.78388975 -0.47626739 4.85384206 -3.6875 5.75 C-4.8321875 5.87375 -4.8321875 5.87375 -6 6 C-6 5.34 -6 4.68 -6 4 C-4.03852126 2.61061923 -2.03833424 1.2739589 0 0 Z " fill="#54D0C4" transform="translate(69,243)"/>
<path d="M0 0 C0.66 0.33 1.32 0.66 2 1 C-1.465 3.97 -1.465 3.97 -5 7 C-5.66 6.67 -6.32 6.34 -7 6 C-4.69 4.02 -2.38 2.04 0 0 Z " fill="#C766E1" transform="translate(77,240)"/>
<path d="M0 0 C0.66 0.33 1.32 0.66 2 1 C0.29374499 3.78388975 -0.47626739 4.85384206 -3.6875 5.75 C-4.8321875 5.87375 -4.8321875 5.87375 -6 6 C-4 4 -2 2 0 0 Z " fill="#7B69E1" transform="translate(236,118)"/>
</svg>
