<?xml version="1.0" encoding="UTF-8"?>
<svg version="1.1" xmlns="http://www.w3.org/2000/svg" width="196" height="193">
<path d="M0 0 C0.71188477 0.24669434 1.42376953 0.49338867 2.15722656 0.74755859 C16.5033779 5.87478118 27.98428249 13.44486998 39 24 C39.63679687 24.58523437 40.27359375 25.17046875 40.9296875 25.7734375 C55.35606194 39.43040531 65.95831025 61.99243918 67.17700195 81.88989258 C67.76907076 110.92013463 62.76468078 135.82633533 42.25 157.65454102 C40.84508321 159.1144266 39.42273682 160.55747547 38 162 C37.20722656 162.80566406 36.41445312 163.61132812 35.59765625 164.44140625 C24.60353268 174.9599105 11.39662364 181.48577257 -3 186 C-4.03511719 186.3403125 -5.07023437 186.680625 -6.13671875 187.03125 C-23.60017832 191.76413239 -44.92533302 190.97232402 -62 185 C-62.71188477 184.75330566 -63.42376953 184.50661133 -64.15722656 184.25244141 C-78.5033779 179.12521882 -89.98428249 171.55513002 -101 161 C-101.63679688 160.41476563 -102.27359375 159.82953125 -102.9296875 159.2265625 C-117.35606194 145.56959469 -127.95831025 123.00756082 -129.17700195 103.11010742 C-129.76907076 74.07986537 -124.76468078 49.17366467 -104.25 27.34545898 C-102.84508321 25.8855734 -101.42273682 24.44252453 -100 23 C-99.20722656 22.19433594 -98.41445312 21.38867188 -97.59765625 20.55859375 C-86.60353268 10.0400895 -73.39662364 3.51422743 -59 -1 C-57.96488281 -1.3403125 -56.92976563 -1.680625 -55.86328125 -2.03125 C-38.39982168 -6.76413239 -17.07466698 -5.97232402 0 0 Z " fill="#F9FBFA" transform="translate(129,4)"/>
<path d="M0 0 C1.051875 0.7734375 1.051875 0.7734375 2.125 1.5625 C5.60887535 3.30443767 7.2983569 2.94693195 11 2 C10.20289835 7.92132655 9.29766531 12.54586736 6.625 17.875 C-2.42559803 37.89125013 -0.94762461 60.91596104 6.1328125 81.25390625 C13.53586377 100.44791003 28.3583064 117.20481306 47 126 C47.94746094 126.45246094 48.89492187 126.90492188 49.87109375 127.37109375 C63.78023635 133.59603539 77.0235731 134.43109118 92 134 C92.09224854 133.35740234 92.18449707 132.71480469 92.27954102 132.05273438 C93.26131318 127.89276177 94.8845081 124.09457907 96.52734375 120.15625 C96.87632217 119.30953735 97.2253006 118.46282471 97.58485413 117.5904541 C98.6981727 114.8918655 99.81769659 112.19590324 100.9375 109.5 C101.68726909 107.68637155 102.43662257 105.87257121 103.18554688 104.05859375 C104.56110646 100.72742511 105.9394903 97.3974508 107.32006836 94.06835938 C107.61146698 93.35510498 107.9028656 92.64185059 108.20309448 91.90698242 C108.85790549 90.34002993 109.56734438 88.79601563 110.29125977 87.25976562 C112.01534844 81.76263687 108.5083781 75.98430732 106.4296875 70.921875 C106.0703714 70.0370343 105.7110553 69.1521936 105.34085083 68.24053955 C104.1896875 65.40866221 103.03240912 62.57932955 101.875 59.75 C101.11939551 57.89339034 100.36418345 56.03662093 99.609375 54.1796875 C96.72820356 47.09837846 93.83668048 40.02140828 90.91894531 32.95507812 C90.59556183 32.1717511 90.27217834 31.38842407 89.93899536 30.58135986 C89.33544888 29.12092493 88.73091623 27.660897 88.12521362 26.20135498 C87.00179506 23.48524981 85.92988598 20.78965794 85 18 C90.28 18 95.56 18 101 18 C102.32064453 21.25617188 102.32064453 21.25617188 103.66796875 24.578125 C104.53835899 26.72303613 105.40894131 28.8678692 106.27954102 31.01269531 C106.87609514 32.48266626 107.47245527 33.95271596 108.06860352 35.42285156 C108.93452485 37.55815969 109.80122979 39.69314865 110.66796875 41.828125 C111.09189407 42.87462219 111.09189407 42.87462219 111.52438354 43.94226074 C113.66498614 49.21403142 115.88082088 54.45117736 118.14575195 59.67089844 C119 62 119 62 119 65 C119.66 65 120.32 65 121 65 C121.09676025 64.35361572 121.19352051 63.70723145 121.29321289 63.04125977 C122.23945943 58.96962138 123.76031331 55.21626883 125.30859375 51.33984375 C125.63537613 50.51295547 125.96215851 49.6860672 126.29884338 48.8341217 C126.98866471 47.0910195 127.68051661 45.34871968 128.37426758 43.60717773 C129.43450609 40.94501744 130.48828314 38.28037058 131.54101562 35.61523438 C132.21316369 33.919121 132.88567741 32.22315247 133.55859375 30.52734375 C133.87324081 29.73247055 134.18788788 28.93759735 134.5120697 28.11863708 C134.80900223 27.37428909 135.10593475 26.6299411 135.41186523 25.86303711 C135.6708812 25.21193466 135.92989716 24.56083221 136.19676208 23.88999939 C137.04722867 21.88887207 138.0276005 19.944799 139 18 C143.62 18 148.24 18 153 18 C152.19399813 22.83601121 151.32636792 26.02787082 149.4453125 30.41796875 C149.18852722 31.02305267 148.93174194 31.6281366 148.66717529 32.2515564 C148.11438862 33.55245101 147.55871664 34.85212269 147.00042725 36.15066528 C145.49217278 39.6598833 144.00596647 43.17845947 142.515625 46.6953125 C142.21312836 47.40734329 141.91063171 48.11937408 141.59896851 48.85298157 C138.96258602 55.06472414 136.40514962 61.30674484 133.875 67.5625 C128.68061023 80.37718704 123.40589014 93.15826769 118.125 105.9375 C117.710224 106.94144806 117.295448 107.94539612 116.86810303 108.97976685 C116.46158508 109.96363373 116.05506714 110.94750061 115.63623047 111.96118164 C115.23900787 112.92263596 114.84178528 113.88409027 114.43252563 114.87467957 C113.65814884 116.74693004 112.88260219 118.61869714 112.10580444 120.48994446 C110.5351746 124.27413287 108.96849287 128.0582453 107.45996094 131.86767578 C107.0374707 132.92325684 106.61498047 133.97883789 106.1796875 135.06640625 C105.84437012 135.92306885 105.50905273 136.77973145 105.16357422 137.66235352 C103.04152144 141.92560475 100.16143726 145.6156685 96 148 C93.24536133 148.40405273 93.24536133 148.40405273 90.08203125 148.43359375 C88.91841064 148.44511475 87.75479004 148.45663574 86.5559082 148.46850586 C84.70292114 148.45315796 84.70292114 148.45315796 82.8125 148.4375 C81.54688232 148.42920166 80.28126465 148.42090332 78.97729492 148.41235352 C59.15568413 148.05647385 37.18172802 142.6777503 23 128 C21.23533861 126.43053285 19.46432348 124.86818482 17.6875 123.3125 C0.58193224 107.74322318 -12.36464798 84.08521695 -13.90625 60.69140625 C-13.9371875 59.80324219 -13.968125 58.91507813 -14 58 C-14.0515625 56.83339844 -14.103125 55.66679688 -14.15625 54.46484375 C-14.55708084 37.51303942 -11.62953185 21.25906369 -4 6 C-3.01 5.67 -2.02 5.34 -1 5 C-0.67 3.35 -0.34 1.7 0 0 Z " fill="#1C1F2F" transform="translate(16,45)"/>
<path d="M0 0 C0.71188477 0.24669434 1.42376953 0.49338867 2.15722656 0.74755859 C16.5033779 5.87478118 27.98428249 13.44486998 39 24 C39.63679687 24.58523437 40.27359375 25.17046875 40.9296875 25.7734375 C52.17301391 36.41711983 60.52180271 51.92781176 64 67 C62.68 67 61.36 67 60 67 C59.41073691 71.12484163 58.93731496 75.08144503 59 79.25 C59 83 59 83 58.46875 84.8515625 C57.84235949 87.72251901 58.18491919 90.21050247 58.5 93.125 C59.10865191 98.78269618 59.10865191 98.78269618 58 101 C57.855625 101.78375 57.71125 102.5675 57.5625 103.375 C57.02394567 105.88825355 56.24125594 107.76573931 55 110 C55.66 110.33 56.32 110.66 57 111 C57 116.30479934 55.4637943 117.18982627 52 121 C50.60457755 116.81373265 51.92929154 113.47008176 52.9375 109.3125 C57.01959617 91.08743618 55.28607672 73.7315727 47.98828125 56.57421875 C47 54 47 54 47 51 C46.34 51 45.68 51 45 51 C42 45.25 42 45.25 42 43 C41.34 43 40.68 43 40 43 C38.66796875 41.42578125 38.66796875 41.42578125 37.1875 39.3125 C35.30816858 36.70360012 33.45813656 34.33848853 31.125 32.125 C30.42375 31.42375 29.7225 30.7225 29 30 C29 29.34 29 28.68 29 28 C28.3090625 27.76925781 27.618125 27.53851562 26.90625 27.30078125 C23.38362381 25.72412195 20.54253031 23.51682403 17.5 21.1875 C11.0716894 16.42667387 4.66023373 13.40569324 -3 11 C-3.68835938 10.76796875 -4.37671875 10.5359375 -5.0859375 10.296875 C-13.16398307 7.73821803 -21.55565956 7.81770935 -29.9375 7.8125 C-31.48727539 7.79413086 -31.48727539 7.79413086 -33.06835938 7.77539062 C-53.0533777 7.73742036 -70.06823 16.15045848 -85 29 C-85.54785156 29.57363281 -86.09570312 30.14726563 -86.66015625 30.73828125 C-88 32 -88 32 -90 32 C-90.26039062 32.57105469 -90.52078125 33.14210937 -90.7890625 33.73046875 C-92.09676744 36.18136092 -93.623015 38.15885905 -95.375 40.3125 C-98.34421212 44.05655871 -100.75832396 47.78564904 -103 52 C-103.66 51.67 -104.32 51.34 -105 51 C-104.690625 50.236875 -104.38125 49.47375 -104.0625 48.6875 C-103.32106407 46.81210323 -102.63771783 44.91315348 -102 43 C-104.31 43.66 -106.62 44.32 -109 45 C-109.99 44.01 -110.98 43.02 -112 42 C-112.12375 42.598125 -112.2475 43.19625 -112.375 43.8125 C-113 46 -113 46 -115 49 C-115 48.34 -115 47.68 -115 47 C-115.66 47 -116.32 47 -117 47 C-118.0154024 49.99543707 -119.01111134 52.99578128 -120 56 C-120.33644531 56.99 -120.67289063 57.98 -121.01953125 59 C-129.88141784 86.08351858 -126.75789406 113.66802756 -114.14453125 139.0078125 C-111.31401856 144.43756586 -107.8743425 149.2673174 -104 154 C-103.44828125 154.70253906 -102.8965625 155.40507812 -102.328125 156.12890625 C-98.19107391 161.16231841 -93.38081789 165.11091353 -88.2578125 169.1171875 C-86 171 -86 171 -85 173 C-89.43969122 171.57411377 -92.4211712 169.1544822 -95.75 166 C-96.27368164 165.50870605 -96.79736328 165.01741211 -97.33691406 164.51123047 C-115.66114656 147.12053879 -128.20257992 125.11682744 -129.3828125 99.51171875 C-130.09284415 72.14182678 -123.37250385 47.69234869 -104.25 27.34545898 C-102.84508321 25.8855734 -101.42273682 24.44252453 -100 23 C-99.20722656 22.19433594 -98.41445312 21.38867188 -97.59765625 20.55859375 C-86.60353268 10.0400895 -73.39662364 3.51422743 -59 -1 C-57.96488281 -1.3403125 -56.92976563 -1.680625 -55.86328125 -2.03125 C-38.39982168 -6.76413239 -17.07466698 -5.97232402 0 0 Z " fill="#6ED6AA" transform="translate(129,4)"/>
<path d="M0 0 C1.051875 0.7734375 1.051875 0.7734375 2.125 1.5625 C5.60887535 3.30443767 7.2983569 2.94693195 11 2 C10.20289835 7.92132655 9.29766531 12.54586736 6.625 17.875 C-2.42559803 37.89125013 -0.94762461 60.91596104 6.1328125 81.25390625 C13.5341445 100.44345247 28.35778805 117.20542978 47 126 C48.37068593 126.57293222 49.74506448 127.13721897 51.125 127.6875 C52.07375 128.120625 53.0225 128.55375 54 129 C54.33 129.99 54.66 130.98 55 132 C54.34 132.66 53.68 133.32 53 134 C53.33 134.99 53.66 135.98 54 137 C52.68 137.99 51.36 138.98 50 140 C50.99 140 51.98 140 53 140 C53.99 140.33 54.98 140.66 56 141 C56 142.32 56 143.64 56 145 C49.09979924 143.59656934 42.91273443 141.22548358 36.625 138.125 C35.94759766 137.79757813 35.27019531 137.47015625 34.57226562 137.1328125 C30.2896686 134.95968101 27.30265349 132.55129843 24 129 C22.06774799 127.26497096 20.12999645 125.5360519 18.1875 123.8125 C0.8513608 108.05020197 -12.34284575 84.41606577 -13.90625 60.69140625 C-13.9371875 59.80324219 -13.968125 58.91507813 -14 58 C-14.0515625 56.83339844 -14.103125 55.66679688 -14.15625 54.46484375 C-14.55708084 37.51303942 -11.62953185 21.25906369 -4 6 C-3.01 5.67 -2.02 5.34 -1 5 C-0.67 3.35 -0.34 1.7 0 0 Z " fill="#334E4E" transform="translate(16,45)"/>
<path d="M0 0 C6.1156719 3.74428892 12.76374529 8.84971632 14.875 15.9375 C14.91625 16.618125 14.9575 17.29875 15 18 C10.63799813 20.44697666 6.97306516 21.50269348 2 22 C1.67128906 21.45730469 1.34257813 20.91460937 1.00390625 20.35546875 C-2.27519568 15.42348618 -4.91453709 12.88834031 -10.703125 11.40234375 C-16.59197969 10.37079267 -21.24110717 10.40889843 -26.39453125 13.72265625 C-29.94951793 16.55107631 -32.54721123 19.6416337 -34 24 C-34.52725796 30.93547008 -34.68853203 36.97539768 -31 43 C-27.32140773 46.67859227 -24.13232505 49.01301441 -19 50 C-13.16984195 49.9904736 -7.87301784 49.39977989 -3 46 C-1.1144071 43.75429387 0.40975922 41.47890474 2 39 C6.84659077 39.59104765 10.60748167 40.97944157 15 43 C13.58507893 49.8977402 8.68821211 55.54348559 2.90625 59.39453125 C0.95500825 60.39641884 -0.94108398 61.24454222 -3 62 C-3.91265625 62.35191406 -4.8253125 62.70382813 -5.765625 63.06640625 C-14.23055595 65.50978608 -23.51193345 65.23995991 -31.5 61.5 C-40.10925048 56.47696377 -45.64717072 50.69972412 -49.15234375 41.27734375 C-51.64196098 31.65158865 -50.84582876 21.73299762 -46 13 C-35.80025613 -1.85755502 -16.72176687 -8.91380759 0 0 Z " fill="#1E1F30" transform="translate(87,65)"/>
<path d="M0 0 C1.051875 0.7734375 1.051875 0.7734375 2.125 1.5625 C5.60887535 3.30443767 7.2983569 2.94693195 11 2 C10.20289835 7.92132655 9.29766531 12.54586736 6.625 17.875 C-1.01830895 34.77889776 -1.40546775 56.06345272 3 74 C0.525 74.495 0.525 74.495 -2 75 C-2.33 76.65 -2.66 78.3 -3 80 C-3.99 80 -4.98 80 -6 80 C-7.10844919 76.67465243 -6.84454356 74.37817425 -6 71 C-7.98 71 -9.96 71 -12 71 C-16.26972288 48.73644497 -14.20648787 26.41297573 -4 6 C-3.01 5.67 -2.02 5.34 -1 5 C-0.67 3.35 -0.34 1.7 0 0 Z " fill="#3F7767" transform="translate(16,45)"/>
<path d="M0 0 C4.29 0.33 8.58 0.66 13 1 C13 1.66 13 2.32 13 3 C14.48113281 3.09087891 14.48113281 3.09087891 15.9921875 3.18359375 C17.27351563 3.26738281 18.55484375 3.35117188 19.875 3.4375 C21.15117187 3.51871094 22.42734375 3.59992187 23.7421875 3.68359375 C27 4 27 4 29 5 C28.67 4.01 28.34 3.02 28 2 C39.9531424 3.60373109 50.58293076 16.52035179 58.03125 25.4296875 C65.2841318 35.22107793 71.25602987 47.10946277 74 59 C72.68 59 71.36 59 70 59 C69.41073691 63.12484163 68.93731496 67.08144503 69 71.25 C69 75 69 75 68.46875 76.8515625 C67.84235949 79.72251901 68.18491919 82.21050247 68.5 85.125 C69.10865191 90.78269618 69.10865191 90.78269618 68 93 C67.855625 93.78375 67.71125 94.5675 67.5625 95.375 C67.02394567 97.88825355 66.24125594 99.76573931 65 102 C65.66 102.33 66.32 102.66 67 103 C67 108.30479934 65.4637943 109.18982627 62 113 C60.60457755 108.81373265 61.92929154 105.47008176 62.9375 101.3125 C67.01959617 83.08743618 65.28607672 65.7315727 57.98828125 48.57421875 C57 46 57 46 57 43 C56.34 43 55.68 43 55 43 C52 37.25 52 37.25 52 35 C51.34 35 50.68 35 50 35 C48.66796875 33.42578125 48.66796875 33.42578125 47.1875 31.3125 C45.30816858 28.70360012 43.45813656 26.33848853 41.125 24.125 C40.073125 23.073125 40.073125 23.073125 39 22 C39 21.34 39 20.68 39 20 C38.3090625 19.76925781 37.618125 19.53851562 36.90625 19.30078125 C33.38362381 17.72412195 30.54253031 15.51682403 27.5 13.1875 C19.12419111 6.9843508 10.06008347 3.57350973 0 1 C0 0.67 0 0.34 0 0 Z " fill="#85DBB7" transform="translate(119,12)"/>
<path d="M0 0 C0.66 0 1.32 0 2 0 C2 0.66 2 1.32 2 2 C1.01 2.66 0.02 3.32 -1 4 C-1 4.66 -1 5.32 -1 6 C-0.34 6.66 0.32 7.32 1 8 C-0.28913487 8.67154933 -1.58140204 9.33708859 -2.875 10 C-3.59429687 10.37125 -4.31359375 10.7425 -5.0546875 11.125 C-7 12 -7 12 -9 12 C-8.731875 12.556875 -8.46375 13.11375 -8.1875 13.6875 C-8 16 -8 16 -10.3125 18.75 C-13 21 -13 21 -15 21 C-15.39058594 21.85658203 -15.39058594 21.85658203 -15.7890625 22.73046875 C-17.09676744 25.18136092 -18.623015 27.15885905 -20.375 29.3125 C-23.34421212 33.05655871 -25.75832396 36.78564904 -28 41 C-28.66 40.67 -29.32 40.34 -30 40 C-29.690625 39.236875 -29.38125 38.47375 -29.0625 37.6875 C-28.32106407 35.81210323 -27.63771783 33.91315348 -27 32 C-29.31 32.66 -31.62 33.32 -34 34 C-34.99 33.01 -35.98 32.02 -37 31 C-37.12375 31.598125 -37.2475 32.19625 -37.375 32.8125 C-38 35 -38 35 -40 38 C-40 37.34 -40 36.68 -40 36 C-40.66 36 -41.32 36 -42 36 C-43.0154024 38.99543707 -44.01111134 41.99578128 -45 45 C-45.33644531 45.99 -45.67289063 46.98 -46.01953125 48 C-54.88141784 75.08351858 -51.75789406 102.66802756 -39.14453125 128.0078125 C-36.31401856 133.43756586 -32.8743425 138.2673174 -29 143 C-28.44828125 143.70253906 -27.8965625 144.40507812 -27.328125 145.12890625 C-23.19107391 150.16231841 -18.38081789 154.11091353 -13.2578125 158.1171875 C-11 160 -11 160 -10 162 C-14.43969122 160.57411377 -17.4211712 158.1544822 -20.75 155 C-21.27368164 154.50870605 -21.79736328 154.01741211 -22.33691406 153.51123047 C-40.66114656 136.12053879 -53.20257992 114.11682744 -54.3828125 88.51171875 C-55.09384828 61.10311998 -48.34870906 36.76112382 -29.26538086 16.35424805 C-9.68580318 -4.06803733 -9.68580318 -4.06803733 0 0 Z " fill="#50A386" transform="translate(54,15)"/>
<path d="M0 0 C0.90878906 0.18175781 0.90878906 0.18175781 1.8359375 0.3671875 C3.61629176 0.72325835 5.39763568 1.07439972 7.1796875 1.421875 C8.88035679 1.77048865 10.57603741 2.14749747 12.2578125 2.578125 C18.74626906 4.16067538 25.03000554 4.15038701 31.66796875 4.01416016 C35.60471466 3.9417935 39.15174993 4.00913322 43 5 C43 7 43 7 41.5 8.625 C41.005 9.07875 40.51 9.5325 40 10 C40.66 10.66 41.32 11.32 42 12 C41.34 12 40.68 12 40 12 C40.66 12.66 41.32 13.32 42 14 C42.66 14.99 43.32 15.98 44 17 C41.2981606 19.7018394 33.31695421 18.23529841 29.6875 18.25 C28.45708984 18.270625 27.22667969 18.29125 25.95898438 18.3125 C18.04547715 18.34594324 10.46469837 17.85140409 3 15 C2.67 14.34 2.34 13.68 2 13 C2.33 12.34 2.66 11.68 3 11 C-0.62885324 10.84850702 -0.62885324 10.84850702 -4 12 C-4.33 10.68 -4.66 9.36 -5 8 C-3.35 7.67 -1.7 7.34 0 7 C-0.185625 6.401875 -0.37125 5.80375 -0.5625 5.1875 C-1 3 -1 3 0 0 Z " fill="#202432" transform="translate(69,175)"/>
<path d="M0 0 C0.33 0.99 0.66 1.98 1 3 C1.66 3 2.32 3 3 3 C4.10844919 6.32534757 3.84454356 8.62182575 3 12 C3.99 11.67 4.98 11.34 6 11 C6 9.35 6 7.7 6 6 C7.8125 5.3125 7.8125 5.3125 10 5 C13.29342513 7.41517843 14.29185814 10.79730268 15.75 14.5 C18.13635073 20.39211968 21.04755162 25.54917085 24.6796875 30.79296875 C26 33 26 33 26 36 C24.515 35.505 24.515 35.505 23 35 C22.01 37.475 22.01 37.475 21 40 C19.68 39.34 18.36 38.68 17 38 C17.66 39.32 18.32 40.64 19 42 C18.01 42.66 17.02 43.32 16 44 C-3.26907556 15.64256227 -3.26907556 15.64256227 -2 2 C-1.34 1.34 -0.68 0.68 0 0 Z " fill="#335751" transform="translate(7,113)"/>
<path d="M0 0 C1.9375 1.375 1.9375 1.375 2.6875 4 C2.77 4.78375 2.8525 5.5675 2.9375 6.375 C3.5975 6.375 4.2575 6.375 4.9375 6.375 C5.06125 5.570625 5.185 4.76625 5.3125 3.9375 C5.51875 3.091875 5.725 2.24625 5.9375 1.375 C6.5975 1.045 7.2575 0.715 7.9375 0.375 C7.9375 1.365 7.9375 2.355 7.9375 3.375 C8.9275 3.045 9.9175 2.715 10.9375 2.375 C12.07177397 4.7042043 13.19490384 7.03780485 14.3125 9.375 C14.62960938 10.02339844 14.94671875 10.67179687 15.2734375 11.33984375 C17.46537631 15.95204833 18.83523948 20.38699281 19.9375 25.375 C18.6175 25.375 17.2975 25.375 15.9375 25.375 C15.34823691 29.49984163 14.87481496 33.45644503 14.9375 37.625 C14.9375 41.375 14.9375 41.375 14.40625 43.2265625 C13.77985949 46.09751901 14.12241919 48.58550247 14.4375 51.5 C15.04615191 57.15769618 15.04615191 57.15769618 13.9375 59.375 C13.793125 60.15875 13.64875 60.9425 13.5 61.75 C12.96144567 64.26325355 12.17875594 66.14073931 10.9375 68.375 C11.5975 68.705 12.2575 69.035 12.9375 69.375 C12.9375 74.67979934 11.4012943 75.56482627 7.9375 79.375 C6.54207755 75.18873265 7.86679154 71.84508176 8.875 67.6875 C12.95709617 49.46243618 11.22357672 32.1065727 3.92578125 14.94921875 C2.9375 12.375 2.9375 12.375 2.9375 9.375 C2.2775 9.375 1.6175 9.375 0.9375 9.375 C-2.0625 3.625 -2.0625 3.625 -2.0625 1.375 C-2.7225 1.045 -3.3825 0.715 -4.0625 0.375 C-2.0625 -0.625 -2.0625 -0.625 0 0 Z " fill="#A3E3C8" transform="translate(173.0625,45.625)"/>
<path d="M0 0 C-0.66 0.33 -1.32 0.66 -2 1 C-0.8321734 4.81413002 -0.8321734 4.81413002 2.125 7.3125 C3.053125 7.6528125 3.053125 7.6528125 4 8 C3.4121875 8.29132812 2.824375 8.58265625 2.21875 8.8828125 C0.29717977 9.85036371 -1.60357056 10.85905566 -3.5 11.875 C-6.88018374 13.58394048 -10.25760122 14.75909292 -13.875 15.875 C-22.57279631 18.67189541 -29.70844811 23.61059208 -37 29 C-37.66 28.67 -38.32 28.34 -39 28 C-39 27.34 -39 26.68 -39 26 C-36.69 24.68 -34.38 23.36 -32 22 C-32 20.35 -32 18.7 -32 17 C-30.68 16.67 -29.36 16.34 -28 16 C-28 15.34 -28 14.68 -28 14 C-28.598125 14.20625 -29.19625 14.4125 -29.8125 14.625 C-32 15 -32 15 -35 13 C-34 10 -34 10 -30.5703125 8.28125 C-29.09405809 7.6739142 -27.61183902 7.08094198 -26.125 6.5 C-25.35502686 6.19247803 -24.58505371 5.88495605 -23.79174805 5.56811523 C-7.95226513 -0.64477825 -7.95226513 -0.64477825 0 0 Z " fill="#56B690" transform="translate(84,1)"/>
<path d="M0 0 C1.051875 0.7734375 1.051875 0.7734375 2.125 1.5625 C5.60887535 3.30443767 7.2983569 2.94693195 11 2 C10.20289835 7.92132655 9.29766531 12.54586736 6.625 17.875 C3.59980095 24.35506404 2.25829347 30.99243069 1 38 C0.01 37.67 -0.98 37.34 -2 37 C-2.66666667 35.66666667 -3.33333333 34.33333333 -4 33 C-4.99 32.67 -5.98 32.34 -7 32 C-7 29.03 -7 26.06 -7 23 C-7.33 23 -7.66 23 -8 23 C-8.33 25.64 -8.66 28.28 -9 31 C-11 28 -11 28 -10.8046875 24.8046875 C-9.93553819 20.69521455 -8.69752807 17.00645953 -7.125 13.125 C-6.86847656 12.44953125 -6.61195312 11.7740625 -6.34765625 11.078125 C-5.65566955 9.34641958 -4.83564689 7.66713633 -4 6 C-3.01 5.67 -2.02 5.34 -1 5 C-0.67 3.35 -0.34 1.7 0 0 Z " fill="#418971" transform="translate(16,45)"/>
<path d="M0 0 C0.33 0.66 0.66 1.32 1 2 C0.17455193 4.07112424 -0.73849364 6.1074998 -1.6875 8.125 C-12.42541211 31.91408623 -12.6293039 58.51626497 -4 83 C0.07961424 93.22283732 5.00153396 102.45106079 12 111 C12.55171875 111.70253906 13.1034375 112.40507812 13.671875 113.12890625 C17.80892609 118.16231841 22.61918211 122.11091353 27.7421875 126.1171875 C30 128 30 128 31 130 C26.56030878 128.57411377 23.5788288 126.1544822 20.25 123 C19.72631836 122.50870605 19.20263672 122.01741211 18.66308594 121.51123047 C0.33885344 104.12053879 -12.20257992 82.11682744 -13.3828125 56.51171875 C-13.90222157 36.48983634 -11.3651782 17.0477673 0 0 Z " fill="#E9F2F1" transform="translate(13,47)"/>
<path d="M0 0 C1.19044922 0.00193359 2.38089844 0.00386719 3.60742188 0.00585938 C4.85201172 0.01810547 6.09660156 0.03035156 7.37890625 0.04296875 C9.23999023 0.04393555 9.23999023 0.04393555 11.13867188 0.04492188 C20.37913033 0.08989977 20.37913033 0.08989977 24.94140625 1.23046875 C25.60140625 3.87046875 26.26140625 6.51046875 26.94140625 9.23046875 C15.72140625 9.23046875 4.50140625 9.23046875 -7.05859375 9.23046875 C-7.71859375 6.92046875 -8.37859375 4.61046875 -9.05859375 2.23046875 C-5.55591066 -0.10465331 -4.13773586 -0.01559794 0 0 Z " fill="#5BCE9F" transform="translate(91.05859375,-0.23046875)"/>
<path d="M0 0 C1.69138765 0.60119051 3.35566547 1.28000959 5 2 C6.30710937 2.47759766 6.30710937 2.47759766 7.640625 2.96484375 C8.50171875 3.28582031 9.3628125 3.60679687 10.25 3.9375 C11.55710937 4.41509766 11.55710937 4.41509766 12.890625 4.90234375 C15 6 15 6 16 9 C15.34 9.66 14.68 10.32 14 11 C14.33 11.99 14.66 12.98 15 14 C13.68 14.99 12.36 15.98 11 17 C11.99 17 12.98 17 14 17 C14.99 17.33 15.98 17.66 17 18 C17 19.32 17 20.64 17 22 C4.53863104 19.07313042 4.53863104 19.07313042 0 15 C-1.1875 11.875 -1.1875 11.875 -2 9 C-2.99 8.34 -3.98 7.68 -5 7 C-4.34 7 -3.68 7 -3 7 C-2.87625 6.030625 -2.7525 5.06125 -2.625 4.0625 C-2.41875 3.051875 -2.2125 2.04125 -2 1 C-1.34 0.67 -0.68 0.34 0 0 Z " fill="#303F44" transform="translate(55,168)"/>
<path d="M0 0 C6.59955485 5.08715686 14.58745813 12.40367375 16 21 C15.34 21 14.68 21 14 21 C13.67 20.34 13.34 19.68 13 19 C12.01 21.475 12.01 21.475 11 24 C10.34 24 9.68 24 9 24 C9 23.34 9 22.68 9 22 C8.34 21.67 7.68 21.34 7 21 C7.33 20.34 7.66 19.68 8 19 C7.01 19.33 6.02 19.66 5 20 C4.67 19.34 4.34 18.68 4 18 C3.39414063 17.70867188 2.78828125 17.41734375 2.1640625 17.1171875 C-0.38321765 15.80216562 -1.76527753 14.29604165 -3.625 12.125 C-4.21539062 11.44695313 -4.80578125 10.76890625 -5.4140625 10.0703125 C-7 8 -7 8 -8.0859375 5.8046875 C-8.86682497 3.81831796 -8.86682497 3.81831796 -11 3 C-8.02148438 3.43945312 -8.02148438 3.43945312 -5.04296875 3.87890625 C-2.7974658 4.13904799 -2.7974658 4.13904799 0 3 C0 2.01 0 1.02 0 0 Z " fill="#94DEBE" transform="translate(167,28)"/>
<path d="M0 0 C0.33 0.99 0.66 1.98 1 3 C1.66 3 2.32 3 3 3 C4.10844919 6.32534757 3.84454356 8.62182575 3 12 C3.99 11.67 4.98 11.34 6 11 C6 9.35 6 7.7 6 6 C7.8125 5.3125 7.8125 5.3125 10 5 C13.07842468 7.30881851 13.97192981 10.12462185 15.1875 13.6875 C15.53167969 14.68136719 15.87585938 15.67523438 16.23046875 16.69921875 C16.48441406 17.45847656 16.73835938 18.21773437 17 19 C16.01 19 15.02 19 14 19 C14.20625 19.61875 14.4125 20.2375 14.625 20.875 C14.74875 21.57625 14.8725 22.2775 15 23 C14.34 23.66 13.68 24.32 13 25 C13 24.34 13 23.68 13 23 C10.03 23.33 7.06 23.66 4 24 C-1.86905062 9.98791236 -1.86905062 9.98791236 -2 2 C-1.34 1.34 -0.68 0.68 0 0 Z " fill="#37635A" transform="translate(7,113)"/>
<path d="M0 0 C0.99 0.495 0.99 0.495 2 1 C2 2.32 2 3.64 2 5 C2.66 5 3.32 5 4 5 C4 4.01 4 3.02 4 2 C4.66 2 5.32 2 6 2 C6 4.64 6 7.28 6 10 C6.99 10 7.98 10 9 10 C8.67 12.64 8.34 15.28 8 18 C8.66 18 9.32 18 10 18 C10.12594806 25.55688348 10.12594806 25.55688348 9.46484375 27.8828125 C8.83771816 30.73913242 9.18649075 33.22503941 9.5 36.125 C10.10865191 41.78269618 10.10865191 41.78269618 9 44 C8.855625 44.78375 8.71125 45.5675 8.5625 46.375 C8.02394567 48.88825355 7.24125594 50.76573931 6 53 C6.66 53.33 7.32 53.66 8 54 C8 59.30479934 6.4637943 60.18982627 3 64 C1.60457755 59.81373265 2.92929154 56.47008176 3.9375 52.3125 C7.74449528 35.31566086 6.78634297 18.15795944 0 2 C0 1.34 0 0.68 0 0 Z " fill="#BFE5D6" transform="translate(178,61)"/>
<path d="M0 0 C-0.99 0.495 -0.99 0.495 -2 1 C-0.8321734 4.81413002 -0.8321734 4.81413002 2.125 7.3125 C2.74375 7.539375 3.3625 7.76625 4 8 C-1.9571217 11.47498766 -8.2606305 12.28080706 -15 12 C-15.33 10.02 -15.66 8.04 -16 6 C-15.67 6.66 -15.34 7.32 -15 8 C-14.34 7.67 -13.68 7.34 -13 7 C-13.33 6.01 -13.66 5.02 -14 4 C-14.66 3.67 -15.32 3.34 -16 3 C-5.62642369 -0.44419134 -5.62642369 -0.44419134 0 0 Z " fill="#54C395" transform="translate(84,1)"/>
<path d="M0 0 C1.03382812 -0.01224609 2.06765625 -0.02449219 3.1328125 -0.03710938 C9.74427063 -0.04959954 15.82700081 0.61209789 22.25 2.1875 C22.25 2.5175 22.25 2.8475 22.25 3.1875 C21.11570557 3.1560791 19.98141113 3.1246582 18.81274414 3.09228516 C14.56938535 2.98297166 10.32614866 2.91454695 6.08178711 2.85791016 C4.25149548 2.82789744 2.42134573 2.78707272 0.59155273 2.73486328 C-12.64042964 1.93183924 -12.64042964 1.93183924 -24.01660156 7.74780273 C-27.03747125 10.25682648 -30.88853842 10.94385137 -34.75 11.1875 C-37.01171875 10.72265625 -37.01171875 10.72265625 -38.75 10.1875 C-34.45160855 7.07647285 -30.3270833 5.09492213 -25.25 3.5 C-24.29287109 3.18192383 -24.29287109 3.18192383 -23.31640625 2.85742188 C-15.45746817 0.31009736 -8.19206519 0.00503198 0 0 Z M-40.75 11.1875 C-40.09 11.1875 -39.43 11.1875 -38.75 11.1875 C-39.08 11.8475 -39.41 12.5075 -39.75 13.1875 C-40.08 12.5275 -40.41 11.8675 -40.75 11.1875 Z " fill="#D5F8EC" transform="translate(98.75,10.8125)"/>
<path d="M0 0 C0.90878906 0.18175781 0.90878906 0.18175781 1.8359375 0.3671875 C3.09277344 0.61855469 3.09277344 0.61855469 4.375 0.875 C7.21354167 1.44270833 10.05208333 2.01041667 12.890625 2.578125 C14.24414062 2.84882813 14.24414062 2.84882813 15.625 3.125 C17.8125 3.5625 17.8125 3.5625 20 4 C17.00538277 5.99641149 15.51569716 6.6651717 12 7 C9.1875 6.0625 9.1875 6.0625 7 5 C7 5.66 7 6.32 7 7 C7.66 7 8.32 7 9 7 C8.67 8.32 8.34 9.64 8 11 C4.2619978 11.96120056 1.7407025 11.80880054 -2 11 C-2.99 11.495 -2.99 11.495 -4 12 C-4.33 10.68 -4.66 9.36 -5 8 C-3.35 7.67 -1.7 7.34 0 7 C-0.185625 6.401875 -0.37125 5.80375 -0.5625 5.1875 C-1 3 -1 3 0 0 Z M10 7 C10.66 7 11.32 7 12 7 C11.67 7.99 11.34 8.98 11 10 C10.67 9.01 10.34 8.02 10 7 Z " fill="#1D2D36" transform="translate(69,175)"/>
<path d="M0 0 C0.33 0.66 0.66 1.32 1 2 C0.17455193 4.07112424 -0.73849364 6.1074998 -1.6875 8.125 C-8.10502721 22.34257847 -9.99822628 37.0333499 -10.5625 52.5 C-10.60568359 53.60859375 -10.64886719 54.7171875 -10.69335938 55.859375 C-10.79862214 58.57281506 -10.90075846 61.28633417 -11 64 C-11.66 63.67 -12.32 63.34 -13 63 C-13.64617591 40.51556365 -12.88820128 19.33230192 0 0 Z " fill="#E9F9F5" transform="translate(13,47)"/>
<path d="M0 0 C1.051875 0.7734375 1.051875 0.7734375 2.125 1.5625 C5.60887535 3.30443767 7.2983569 2.94693195 11 2 C10.26189514 7.4830647 9.61862824 12.11189395 7 17 C6.34 17 5.68 17 5 17 C4.01 14.36 3.02 11.72 2 9 C-0.91517292 10.07401108 -2.77810176 10.77810176 -5 13 C-6 10 -6 10 -5.25 7.875 C-4 6 -4 6 -1 5 C-0.67 3.35 -0.34 1.7 0 0 Z " fill="#459479" transform="translate(16,45)"/>
<path d="M0 0 C2.97 0.33 5.94 0.66 9 1 C9.33 2.32 9.66 3.64 10 5 C8.5625 6.5625 8.5625 6.5625 7 8 C7 8.99 7 9.98 7 11 C3.81175432 12.59412284 0.37103338 12.10174735 -3.125 12.0625 C-3.87910156 12.05798828 -4.63320312 12.05347656 -5.41015625 12.04882812 C-7.27347127 12.03703499 -9.13674555 12.01909942 -11 12 C-10.67 11.01 -10.34 10.02 -10 9 C-8.00045254 8.95745644 -5.99958364 8.95919217 -4 9 C-3.67 9.33 -3.34 9.66 -3 10 C0.11332248 9.33131686 0.11332248 9.33131686 1.1875 6.9375 C1.455625 6.298125 1.72375 5.65875 2 5 C1.34 4.67 0.68 4.34 0 4 C0 2.68 0 1.36 0 0 Z " fill="#1A1A28" transform="translate(76,63)"/>
<path d="M0 0 C3.9492568 0.55105909 7.34920174 1.38935371 11 3 C9.74809374 7.48599743 8.20614467 10.59347128 5 14 C4.34 14 3.68 14 3 14 C3.33 12.68 3.66 11.36 4 10 C3.34 10 2.68 10 2 10 C1.87625 9.360625 1.7525 8.72125 1.625 8.0625 C1.315625 7.0415625 1.315625 7.0415625 1 6 C0.34 5.67 -0.32 5.34 -1 5 C-1 3.27917076 -0.4277972 1.65771414 0 0 Z " fill="#191D27" transform="translate(91,105)"/>
<path d="M0 0 C1.68949614 0.60648579 3.35636866 1.27840576 5 2 C5.99 2.33 6.98 2.66 8 3 C8 4.32 8 5.64 8 7 C7.05125 7.309375 6.1025 7.61875 5.125 7.9375 C2.13919592 8.87394742 2.13919592 8.87394742 0 10 C-2.625 9.0625 -2.625 9.0625 -5 8 C-4.34 7.67 -3.68 7.34 -3 7 C-2.835 6.01 -2.67 5.02 -2.5 4 C-2.335 3.01 -2.17 2.02 -2 1 C-1.34 0.67 -0.68 0.34 0 0 Z " fill="#27393D" transform="translate(55,168)"/>
<path d="M0 0 C0.66 0.33 1.32 0.66 2 1 C0.02 5.95 -1.96 10.9 -4 16 C-4.66 16 -5.32 16 -6 16 C-6.53190541 14.56656 -7.05015258 13.12804633 -7.5625 11.6875 C-7.85253906 10.88699219 -8.14257812 10.08648437 -8.44140625 9.26171875 C-9 7 -9 7 -8 4 C-6.02 4.495 -6.02 4.495 -4 5 C-4 5.33 -4 5.66 -4 6 C-3.566875 4.7934375 -3.566875 4.7934375 -3.125 3.5625 C-2 1 -2 1 0 0 Z " fill="#F0F2F4" transform="translate(141,94)"/>
<path d="M0 0 C0 0.66 0 1.32 0 2 C1.918125 1.938125 1.918125 1.938125 3.875 1.875 C6.0546875 1.8046875 6.0546875 1.8046875 8 2 C8.66 2.66 9.32 3.32 10 4 C-1.88 4 -13.76 4 -26 4 C-22.19380596 0.19380596 -17.14226113 0.72162856 -12 0.4375 C-11.2884375 0.39431641 -10.576875 0.35113281 -9.84375 0.30664062 C-6.55377209 0.11329304 -3.29699107 0 0 0 Z " fill="#76C6A7" transform="translate(108,8)"/>
<path d="M0 0 C-5.03685977 4.0723547 -9.44710503 6.49127248 -16 7 C-18.26953125 6.5390625 -18.26953125 6.5390625 -20 6 C-14.46533841 1.77617932 -7.03373194 -2.38239308 0 0 Z M-22 7 C-21.34 7 -20.68 7 -20 7 C-20.33 7.66 -20.66 8.32 -21 9 C-21.33 8.34 -21.66 7.68 -22 7 Z " fill="#EDFCF6" transform="translate(80,15)"/>
<path d="M0 0 C3.61569905 2.63848309 6.02835214 4.95293333 8 9 C8 9.99 8 10.98 8 12 C7.01 12 6.02 12 5 12 C4.67 11.34 4.34 10.68 4 10 C3.1028125 10.3403125 3.1028125 10.3403125 2.1875 10.6875 C1.465625 10.790625 0.74375 10.89375 0 11 C-1.75 9.5625 -1.75 9.5625 -3 8 C-2.2265625 7.38125 -2.2265625 7.38125 -1.4375 6.75 C-0.7259375 5.88375 -0.7259375 5.88375 0 5 C-0.3185177 2.89179203 -0.3185177 2.89179203 -1 1 C-0.67 0.67 -0.34 0.34 0 0 Z " fill="#1A1C27" transform="translate(94,71)"/>
<path d="M0 0 C0 0.99 0 1.98 0 3 C0.33 3.99 0.66 4.98 1 6 C0.34 6 -0.32 6 -1 6 C-0.67 7.65 -0.34 9.3 0 11 C-2.31 11.33 -4.62 11.66 -7 12 C-6.67 10.35 -6.34 8.7 -6 7 C-5.01 7 -4.02 7 -3 7 C-3 6.34 -3 5.68 -3 5 C-4.32 5.33 -5.64 5.66 -7 6 C-7.33 5.01 -7.66 4.02 -8 3 C-5.36 2.01 -2.72 1.02 0 0 Z " fill="#4FB38B" transform="translate(59,10)"/>
<path d="M0 0 C3.11589064 0 5.93150124 0.48858354 9 1 C9.99 1 10.98 1 12 1 C11.67 1.66 11.34 2.32 11 3 C11.66 3.33 12.32 3.66 13 4 C11.39935157 4.53154742 9.79431126 5.04988353 8.1875 5.5625 C7.29417969 5.85253906 6.40085937 6.14257812 5.48046875 6.44140625 C3 7 3 7 0 6 C-1 3 -1 3 0 0 Z " fill="#272B36" transform="translate(88,80)"/>
<path d="M0 0 C0.33 0 0.66 0 1 0 C1.0270043 1.45823212 1.04639787 2.91660675 1.0625 4.375 C1.07410156 5.18710938 1.08570313 5.99921875 1.09765625 6.8359375 C1 9 1 9 0 11 C0.66 11.33 1.32 11.66 2 12 C2 17.30479934 0.4637943 18.18982627 -3 22 C-4.07365377 18.7790387 -3.93405499 17.76285435 -3.22265625 14.55078125 C-3.03896484 13.70322266 -2.85527344 12.85566406 -2.66601562 11.98242188 C-2.46685547 11.10134766 -2.26769531 10.22027344 -2.0625 9.3125 C-1.86720703 8.41982422 -1.67191406 7.52714844 -1.47070312 6.60742188 C-0.98744798 4.40330694 -0.49697166 2.2010555 0 0 Z " fill="#DCF0E7" transform="translate(184,103)"/>
<path d="M0 0 C0.99 0.99 1.98 1.98 3 3 C2.67 3.99 2.34 4.98 2 6 C1.8508625 8.87199032 1.8508625 8.87199032 2.625 11 C3 13 3 13 1 16 C0.67 14.02 0.34 12.04 0 10 C-0.33 10 -0.66 10 -1 10 C-1.33 12.64 -1.66 15.28 -2 18 C-4 15 -4 15 -3.8125 11.8125 C-2.91902234 7.62002792 -1.60207037 3.97034831 0 0 Z " fill="#4C8874" transform="translate(9,58)"/>
<path d="M0 0 C1.04607422 0.23493164 1.04607422 0.23493164 2.11328125 0.47460938 C3.82931635 0.86248032 5.54024522 1.27282067 7.25 1.6875 C4.25538277 3.68391149 2.76569716 4.3526717 -0.75 4.6875 C-2.43949614 4.08101421 -4.10636866 3.40909424 -5.75 2.6875 C-7.7424325 2.31156934 -9.7418674 1.96770455 -11.75 1.6875 C-8.03568804 -2.18955243 -4.76719179 -1.17602746 0 0 Z M-2.75 4.6875 C-2.09 4.6875 -1.43 4.6875 -0.75 4.6875 C-1.08 5.6775 -1.41 6.6675 -1.75 7.6875 C-2.08 6.6975 -2.41 5.7075 -2.75 4.6875 Z " fill="#293139" transform="translate(81.75,177.3125)"/>
<path d="M0 0 C2.5100694 3.20516555 4.61669346 6.55906 6.6875 10.0625 C7.31011719 11.10535156 7.93273438 12.14820313 8.57421875 13.22265625 C10 16 10 16 10 19 C5.26793506 14.82464858 1.51559752 9.81613713 -1 4 C-0.6640625 1.69140625 -0.6640625 1.69140625 0 0 Z " fill="#DFEEEA" transform="translate(11,137)"/>
<path d="M0 0 C1.5625 1.25 1.5625 1.25 3 3 C2.6875 5.1875 2.6875 5.1875 2 7 C1.34 7 0.68 7 0 7 C-0.33 7.99 -0.66 8.98 -1 10 C-2.32 10 -3.64 10 -5 10 C-4.67 11.65 -4.34 13.3 -4 15 C-5.32 14.67 -6.64 14.34 -8 14 C-7.01 11.36 -6.02 8.72 -5 6 C-4.34 6 -3.68 6 -3 6 C-2.01 4.02 -1.02 2.04 0 0 Z " fill="#345E55" transform="translate(24,133)"/>
<path d="M0 0 C0.66 0 1.32 0 2 0 C2.19430855 2.6246601 2.38073238 5.24946765 2.5625 7.875 C2.61857422 8.62136719 2.67464844 9.36773437 2.73242188 10.13671875 C3.11328125 15.7734375 3.11328125 15.7734375 2 18 C1.64386903 19.66194453 1.30791692 21.328451 1 23 C0.67 23 0.34 23 0 23 C0 15.41 0 7.82 0 0 Z " fill="#C7E7DB" transform="translate(185,87)"/>
<path d="M0 0 C0.66 2.31 1.32 4.62 2 7 C1.34 7.66 0.68 8.32 0 9 C-0.66 8.01 -1.32 7.02 -2 6 C-2.33 7.65 -2.66 9.3 -3 11 C-3.66 10.67 -4.32 10.34 -5 10 C-5.39171753 8.34608154 -5.72057545 6.67654729 -6 5 C-6.33 4.01 -6.66 3.02 -7 2 C-4.35261084 0.5393715 -3.10551666 0 0 0 Z " fill="#E8E9E9" transform="translate(106,73)"/>
<path d="M0 0 C2.125 0.375 2.125 0.375 4 1 C3.67 1.33 3.34 1.66 3 2 C3.66 2.66 4.32 3.32 5 4 C4.34 4 3.68 4 3 4 C3.33 4.99 3.66 5.98 4 7 C2.375 8.1875 2.375 8.1875 0 9 C-3.25 7.625 -3.25 7.625 -6 6 C-5 4 -5 4 -2 2 C-1.34 1.34 -0.68 0.68 0 0 Z " fill="#191929" transform="translate(60,63)"/>
<path d="M0 0 C0.66 0.33 1.32 0.66 2 1 C2.4140625 3.28515625 2.4140625 3.28515625 2.625 6.0625 C2.69976563 6.98160156 2.77453125 7.90070313 2.8515625 8.84765625 C2.90054687 9.55792969 2.94953125 10.26820312 3 11 C1.02 11 -0.96 11 -3 11 C-3.33 11.66 -3.66 12.32 -4 13 C-3.40895235 8.15340923 -2.02055843 4.39251833 0 0 Z " fill="#DFF1EC" transform="translate(23,60)"/>
<path d="M0 0 C1.65 0 3.3 0 5 0 C5 3.96 5 7.92 5 12 C4.67 12 4.34 12 4 12 C3.67 9.69 3.34 7.38 3 5 C2.01 6.485 2.01 6.485 1 8 C-0.32 7.67 -1.64 7.34 -3 7 C-2.690625 6.401875 -2.38125 5.80375 -2.0625 5.1875 C-0.89790296 2.91043228 -0.89790296 2.91043228 0 0 Z " fill="#272636" transform="translate(47,87)"/>
<path d="M0 0 C4.29 0.33 8.58 0.66 13 1 C13 1.66 13 2.32 13 3 C14.32 3 15.64 3 17 3 C17 3.66 17 4.32 17 5 C17.99 5.33 18.98 5.66 20 6 C17.58194587 6.85696275 16.35476162 7.11869104 13.88671875 6.29296875 C12.79810547 5.74576172 12.79810547 5.74576172 11.6875 5.1875 C7.82480851 3.33929166 4.14425191 2.05810687 0 1 C0 0.67 0 0.34 0 0 Z " fill="#8BCEB4" transform="translate(119,12)"/>
<path d="M0 0 C1.32 0.66 2.64 1.32 4 2 C3.19175781 2.47050781 2.38351563 2.94101562 1.55078125 3.42578125 C0.48214844 4.04839844 -0.58648437 4.67101562 -1.6875 5.3125 C-2.74324219 5.92738281 -3.79898438 6.54226562 -4.88671875 7.17578125 C-7.60187934 8.76672227 -10.30509361 10.37505645 -13 12 C-13.33 11.01 -13.66 10.02 -14 9 C-7.375 5 -7.375 5 -4 5 C-4 4.34 -4 3.68 -4 3 C-2.68 3 -1.36 3 0 3 C0 2.01 0 1.02 0 0 Z " fill="#69AD92" transform="translate(59,18)"/>
<path d="M0 0 C0.66 0.33 1.32 0.66 2 1 C2 1.66 2 2.32 2 3 C1.34 3 0.68 3 0 3 C0.66 4.65 1.32 6.3 2 8 C-2.455 8.495 -2.455 8.495 -7 9 C-6.67 8.34 -6.34 7.68 -6 7 C-5.34 7 -4.68 7 -4 7 C-3.71125 6.401875 -3.4225 5.80375 -3.125 5.1875 C-2 3 -2 3 0 0 Z " fill="#E4E8E9" transform="translate(120,183)"/>
<path d="M0 0 C0.66 0 1.32 0 2 0 C6.59225513 9.41002278 6.59225513 9.41002278 6 14 C2.67016949 11.30442292 1.45548306 7.95059687 0 4 C0 2.68 0 1.36 0 0 Z " fill="#E9F3F3" transform="translate(5,126)"/>
<path d="M0 0 C0.99 0.66 1.98 1.32 3 2 C2.34 5.63 1.68 9.26 1 13 C0.01 12.67 -0.98 12.34 -2 12 C-1.34 8.04 -0.68 4.08 0 0 Z " fill="#4F8977" transform="translate(16,70)"/>
<path d="M0 0 C-3.22378756 2.1491917 -5.98414648 3.024994 -9.6875 4.125 C-10.86699219 4.47820313 -12.04648438 4.83140625 -13.26171875 5.1953125 C-14.16535156 5.46085937 -15.06898437 5.72640625 -16 6 C-16.33 5.34 -16.66 4.68 -17 4 C-11.6658616 0.28226718 -6.38064121 -0.19335276 0 0 Z " fill="#6DB59A" transform="translate(81,12)"/>
<path d="M0 0 C0.66 0 1.32 0 2 0 C2.50423019 5.29441695 1.18923033 7.81413519 -2 12 C-3.1171875 10.265625 -3.1171875 10.265625 -4 8 C-3.3203125 5.859375 -3.3203125 5.859375 -2.125 3.75 C-1.73570312 3.04359375 -1.34640625 2.3371875 -0.9453125 1.609375 C-0.63335937 1.07828125 -0.32140625 0.5471875 0 0 Z " fill="#EDEFF2" transform="translate(169,65)"/>
<path d="M0 0 C5.30580044 0.94746436 8.35735355 4.22725904 12 8 C11.01 8.33 10.02 8.66 9 9 C4.66062248 6.64950384 2.20696535 4.41393071 0 0 Z " fill="#E8EDEF" transform="translate(47,159)"/>
<path d="M0 0 C2.875 -0.125 2.875 -0.125 6 0 C6.66 0.66 7.32 1.32 8 2 C6.68 2 5.36 2 4 2 C3.67 2.66 3.34 3.32 3 4 C2.67 4.33 2.34 4.66 2 5 C2 5.33 2 5.66 2 6 C0.02 6 -1.96 6 -4 6 C-4 5.01 -4 4.02 -4 3 C-3.01 3 -2.02 3 -1 3 C-0.67 2.01 -0.34 1.02 0 0 Z " fill="#17182A" transform="translate(55,117)"/>
<path d="M0 0 C3 1 3 1 4.23828125 3.1796875 C4.59277344 4.06914063 4.94726562 4.95859375 5.3125 5.875 C5.67988281 6.75929688 6.04726563 7.64359375 6.42578125 8.5546875 C6.61527344 9.36164063 6.80476563 10.16859375 7 11 C6.01 12.485 6.01 12.485 5 14 C4.16235732 12.04350603 3.33000941 10.08474444 2.5 8.125 C2.0359375 7.03445312 1.571875 5.94390625 1.09375 4.8203125 C0 2 0 2 0 0 Z " fill="#E9F2F2" transform="translate(19,119)"/>
<path d="M0 0 C0.99 0.33 1.98 0.66 3 1 C2.34 1 1.68 1 1 1 C1 2.65 1 4.3 1 6 C1.66 6.33 2.32 6.66 3 7 C0.50935112 7.68707555 -1.37886292 8 -4 8 C-3.40138258 5.64828869 -2.73075648 3.3140622 -2 1 C-1.34 0.67 -0.68 0.34 0 0 Z " fill="#EBEBEC" transform="translate(135,150)"/>
<path d="M0 0 C0.99 0.33 1.98 0.66 3 1 C2.875 2.8125 2.875 2.8125 2 5 C-0.875 6.8125 -0.875 6.8125 -4 8 C-4.99 7.67 -5.98 7.34 -7 7 C-5.47005208 5.76302083 -3.94010417 4.52604167 -2.41015625 3.2890625 C-0.86733563 2.0333609 -0.86733563 2.0333609 0 0 Z " fill="#131823" transform="translate(88,119)"/>
<path d="M0 0 C0.66 0 1.32 0 2 0 C3.625 2 3.625 2 5 4 C5.66 3.67 6.32 3.34 7 3 C6.67 4.98 6.34 6.96 6 9 C6.66 9.33 7.32 9.66 8 10 C7.34 10.66 6.68 11.32 6 12 C4.99466333 10.37829621 3.99588093 8.75252763 3 7.125 C2.443125 6.22007812 1.88625 5.31515625 1.3125 4.3828125 C0 2 0 2 0 0 Z " fill="#E7EEEE" transform="translate(25,133)"/>
<path d="M0 0 C0 0.66 0 1.32 0 2 C-1.4117783 2.53394179 -2.82970244 3.05165104 -4.25 3.5625 C-5.03890625 3.85253906 -5.8278125 4.14257812 -6.640625 4.44140625 C-9.19103452 5.04522837 -10.55322229 4.8473932 -13 4 C-11.58774074 3.32404685 -10.16997095 2.65959941 -8.75 2 C-7.56664063 1.443125 -7.56664063 1.443125 -6.359375 0.875 C-4 0 -4 0 0 0 Z " fill="#D6F3E9" transform="translate(76,15)"/>
<path d="M0 0 C0.75 3.1875 0.75 3.1875 1 7 C-0.9375 9.9375 -0.9375 9.9375 -3 12 C-3.24954005 10.56589632 -3.47392642 9.12739928 -3.6875 7.6875 C-3.81511719 6.88699219 -3.94273438 6.08648437 -4.07421875 5.26171875 C-4 3 -4 3 -2.58203125 1.20703125 C-1 0 -1 0 0 0 Z " fill="#141924" transform="translate(131,128)"/>
<path d="M0 0 C3.79588866 0.54226981 5.47211993 2.20127563 8 5 C5.50935112 5.68707555 3.62113708 6 1 6 C0.67 4.02 0.34 2.04 0 0 Z " fill="#EEEEF0" transform="translate(45,120)"/>
<path d="M0 0 C-0.33 0.99 -0.66 1.98 -1 3 C-1.66 3 -2.32 3 -3 3 C-3.33 3.99 -3.66 4.98 -4 6 C-6.0625 7.6875 -6.0625 7.6875 -8 9 C-9 6 -9 6 -8.3125 3.9375 C-6.07945419 0.64109904 -3.89983906 0 0 0 Z " fill="#54927D" transform="translate(19,49)"/>
<path d="M0 0 C0.33 0.99 0.66 1.98 1 3 C1.99 3 2.98 3 4 3 C4.66 4.98 5.32 6.96 6 9 C5.01 9.495 5.01 9.495 4 10 C3.34 8.68 2.68 7.36 2 6 C0.68 6.33 -0.64 6.66 -2 7 C-1.34 4.69 -0.68 2.38 0 0 Z " fill="#292939" transform="translate(119,149)"/>
<path d="M0 0 C2.84550012 0.66010476 5.52325999 1.51724966 8.25 2.5625 C8.95640625 2.83191406 9.6628125 3.10132813 10.390625 3.37890625 C10.92171875 3.58386719 11.4528125 3.78882813 12 4 C11.34 4.66 10.68 5.32 10 6 C6.375 5.625 6.375 5.625 3 5 C3 4.34 3 3.68 3 3 C2.34 2.67 1.68 2.34 1 2 C0.67 1.34 0.34 0.68 0 0 Z " fill="#E0F8EC" transform="translate(129,16)"/>
<path d="M0 0 C0.66 0 1.32 0 2 0 C2.25 7.625 2.25 7.625 0 11 C-1.5625 8.1875 -1.5625 8.1875 -3 5 C-2.67 4.01 -2.34 3.02 -2 2 C-1.67 2.66 -1.34 3.32 -1 4 C-0.67 2.68 -0.34 1.36 0 0 Z " fill="#161723" transform="translate(119,95)"/>
<path d="M0 0 C0.33 0.66 0.66 1.32 1 2 C-1.17508418 6.69360269 -1.17508418 6.69360269 -4.1875 7.8125 C-4.785625 7.874375 -5.38375 7.93625 -6 8 C-6 5 -6 5 -4.6875 3.61328125 C-3.125 2.40885417 -1.5625 1.20442708 0 0 Z " fill="#E0F8F1" transform="translate(49,28)"/>
<path d="M0 0 C0.66 0 1.32 0 2 0 C2 0.99 2 1.98 2 3 C1.01 3 0.02 3 -1 3 C-0.67 4.32 -0.34 5.64 0 7 C-1.175625 7.4640625 -1.175625 7.4640625 -2.375 7.9375 C-4.92330128 8.92875038 -4.92330128 8.92875038 -7 10 C-5.32598022 6.04322598 -2.86850715 3.15535787 0 0 Z " fill="#8AC2AF" transform="translate(25,31)"/>
<path d="M0 0 C0.66 0.33 1.32 0.66 2 1 C1.01 3.97 0.02 6.94 -1 10 C-2.5625 8.1875 -2.5625 8.1875 -4 6 C-3.67 5.01 -3.34 4.02 -3 3 C-2.01 3 -1.02 3 0 3 C0 2.01 0 1.02 0 0 Z " fill="#EDEDF0" transform="translate(122,137)"/>
<path d="M0 0 C1.5625 1.5625 1.5625 1.5625 3 4 C2.6875 7.75 2.6875 7.75 2 11 C-1 9 -1 9 -1.8125 7.1875 C-2.0557245 4.34988083 -1.20169772 2.54477164 0 0 Z " fill="#17192E" transform="translate(155,74)"/>
<path d="M0 0 C2 3 2 3 2 5 C2.66 5.33 3.32 5.66 4 6 C3.67 7.32 3.34 8.64 3 10 C1 10 1 10 -0.625 8.5 C-1.07875 8.005 -1.5325 7.51 -2 7 C-1.34 4.69 -0.68 2.38 0 0 Z " fill="#E9EBE8" transform="translate(160,85)"/>
<path d="M0 0 C0.99 0 1.98 0 3 0 C3 0.99 3 1.98 3 3 C3.66 3 4.32 3 5 3 C5.33 2.34 5.66 1.68 6 1 C6.33 2.65 6.66 4.3 7 6 C5.35 6 3.7 6 2 6 C2 5.34 2 4.68 2 4 C1.34 4 0.68 4 0 4 C0 2.68 0 1.36 0 0 Z " fill="#AAE8D0" transform="translate(186,65)"/>
<path d="M0 0 C3.80635497 3.20760251 7.54563567 6.40746109 11 10 C6.39137539 8.50897439 3.46669756 6.30545582 0 3 C0 2.01 0 1.02 0 0 Z " fill="#DFE8E7" transform="translate(33,167)"/>
<path d="M0 0 C0.66 0.99 1.32 1.98 2 3 C1.3203125 5.26171875 1.3203125 5.26171875 0.125 7.6875 C-0.45894531 8.89986328 -0.45894531 8.89986328 -1.0546875 10.13671875 C-1.52261719 11.05904297 -1.52261719 11.05904297 -2 12 C-2.66 12 -3.32 12 -4 12 C-2.66666667 8 -1.33333333 4 0 0 Z " fill="#DFE2E8" transform="translate(128,163)"/>
<path d="M0 0 C0.66 0.99 1.32 1.98 2 3 C1.67 3.66 1.34 4.32 1 5 C1.66 5.33 2.32 5.66 3 6 C1.35 7.32 -0.3 8.64 -2 10 C-3 8 -3 8 -2.44140625 6.0546875 C-2.15136719 5.33539063 -1.86132812 4.61609375 -1.5625 3.875 C-1.27503906 3.15054688 -0.98757812 2.42609375 -0.69140625 1.6796875 C-0.46324219 1.12539062 -0.23507813 0.57109375 0 0 Z " fill="#ECEDEF" transform="translate(151,107)"/>
<path d="M0 0 C0.66 0 1.32 0 2 0 C2 4.29 2 8.58 2 13 C1.01 13.495 1.01 13.495 0 14 C-0.33 12.02 -0.66 10.04 -1 8 C-0.34 8 0.32 8 1 8 C0.67 5.36 0.34 2.72 0 0 Z " fill="#35675B" transform="translate(14,103)"/>
<path d="M0 0 C0.66 0 1.32 0 2 0 C2.99 2.64 3.98 5.28 5 8 C4.01 8 3.02 8 2 8 C2 7.34 2 6.68 2 6 C1.34 6 0.68 6 0 6 C0 4.02 0 2.04 0 0 Z " fill="#272A37" transform="translate(118,70)"/>
<path d="M0 0 C-0.33 1.32 -0.66 2.64 -1 4 C-3.02045442 3.39816251 -5.02111039 2.72693904 -7 2 C-7.33 1.34 -7.66 0.68 -8 0 C-4.71303767 -0.79953138 -3.28976808 -1.09658936 0 0 Z " fill="#272733" transform="translate(60,123)"/>
<path d="M0 0 C0.66 0.33 1.32 0.66 2 1 C0.515 4.465 0.515 4.465 -1 8 C-1.66 7.67 -2.32 7.34 -3 7 C-3.1875 4.625 -3.1875 4.625 -3 2 C-2.01 1.34 -1.02 0.68 0 0 Z " fill="#E6EAED" transform="translate(141,94)"/>
<path d="M0 0 C1.65 1.65 3.3 3.3 5 5 C4.01 5.33 3.02 5.66 2 6 C1.67 6.99 1.34 7.98 1 9 C0 2.25 0 2.25 0 0 Z " fill="#E4E7EA" transform="translate(83,79)"/>
<path d="M0 0 C0 3.41321235 -0.66867466 4.39472885 -2.5 7.1875 C-2.9640625 7.90292969 -3.428125 8.61835937 -3.90625 9.35546875 C-4.2671875 9.89816406 -4.628125 10.44085938 -5 11 C-5.66 9.68 -6.32 8.36 -7 7 C-2.25 1.125 -2.25 1.125 0 0 Z " fill="#DCF2EB" transform="translate(41,35)"/>
<path d="M0 0 C0.99 0.33 1.98 0.66 3 1 C3.33 2.65 3.66 4.3 4 6 C1.69 5.67 -0.62 5.34 -3 5 C-2.625 3.0625 -2.625 3.0625 -2 1 C-1.34 0.67 -0.68 0.34 0 0 Z " fill="#1D3438" transform="translate(55,168)"/>
<path d="M0 0 C0.66 0.99 1.32 1.98 2 3 C2.66 3 3.32 3 4 3 C3.67 4.65 3.34 6.3 3 8 C1.68 7.67 0.36 7.34 -1 7 C-0.67 4.69 -0.34 2.38 0 0 Z " fill="#141726" transform="translate(134,135)"/>
<path d="M0 0 C0.93065133 2.60582371 1.14917407 3.64198224 0.0625 6.25 C-0.4634375 7.11625 -0.4634375 7.11625 -1 8 C-1.99 7.67 -2.98 7.34 -4 7 C-2.92598892 4.08482708 -2.22189824 2.22189824 0 0 Z " fill="#E0F0EB" transform="translate(33,44)"/>
<path d="M0 0 C1.65 0.33 3.3 0.66 5 1 C5 2.32 5 3.64 5 5 C3.02 4.34 1.04 3.68 -1 3 C-0.67 2.01 -0.34 1.02 0 0 Z " fill="#3D494A" transform="translate(67,185)"/>
<path d="M0 0 C1.32 0.66 2.64 1.32 4 2 C3.625 3.9375 3.625 3.9375 3 6 C2.01 6.495 2.01 6.495 1 7 C0.34 6.34 -0.32 5.68 -1 5 C-0.625 2.375 -0.625 2.375 0 0 Z " fill="#131725" transform="translate(115,181)"/>
<path d="M0 0 C2.625 0.9375 2.625 0.9375 5 2 C2 3.5 2 3.5 -1 5 C-1.99 4.34 -2.98 3.68 -4 3 C-3.34 3 -2.68 3 -2 3 C-2 2.34 -2 1.68 -2 1 C-1.34 0.67 -0.68 0.34 0 0 Z " fill="#234044" transform="translate(54,172)"/>
<path d="M0 0 C0.33 0 0.66 0 1 0 C1.66 3.96 2.32 7.92 3 12 C2.01 11.67 1.02 11.34 0 11 C0 7.37 0 3.74 0 0 Z " fill="#51726C" transform="translate(16,107)"/>
<path d="M0 0 C2.8125 -0.1875 2.8125 -0.1875 6 0 C6.99 0.99 7.98 1.98 9 3 C5.7 3 2.4 3 -1 3 C-0.67 2.01 -0.34 1.02 0 0 Z " fill="#12121F" transform="translate(66,72)"/>
<path d="M0 0 C0.99 0 1.98 0 3 0 C2.67 2.64 2.34 5.28 2 8 C1.34 8 0.68 8 0 8 C0 5.36 0 2.72 0 0 Z " fill="#B0E6D1" transform="translate(184,71)"/>
<path d="M0 0 C2.18975773 3.28463659 2.99806563 6.20696275 4 10 C2.68 10 1.36 10 0 10 C0 6.7 0 3.4 0 0 Z " fill="#EBF9F1" transform="translate(175,55)"/>
<path d="M0 0 C2.31 0.33 4.62 0.66 7 1 C7 1.99 7 2.98 7 4 C6.01 4.33 5.02 4.66 4 5 C3.71125 4.360625 3.4225 3.72125 3.125 3.0625 C2.17176549 0.84793921 2.17176549 0.84793921 0 0 Z " fill="#9BDBC5" transform="translate(156,31)"/>
<path d="M0 0 C2.31 0 4.62 0 7 0 C7.33 0.99 7.66 1.98 8 3 C5.39417629 3.93065133 4.35801776 4.14917407 1.75 3.0625 C1.1725 2.711875 0.595 2.36125 0 2 C0 1.34 0 0.68 0 0 Z " fill="#79D1AE" transform="translate(140,18)"/>
<path d="M0 0 C1.89213369 2.38573379 3.02391783 4.07175348 4 7 C3.34 7.66 2.68 8.32 2 9 C0.4375 6.1875 0.4375 6.1875 -1 3 C-0.67 2.01 -0.34 1.02 0 0 Z " fill="#D9E7E6" transform="translate(11,137)"/>
<path d="M0 0 C0.33 0 0.66 0 1 0 C1.3125 2.25 1.3125 2.25 1 5 C-1.5 7.3125 -1.5 7.3125 -4 9 C-3.35499066 5.51694958 -1.95865224 2.93797836 0 0 Z " fill="#DFEFE9" transform="translate(180,126)"/>
<path d="M0 0 C0.99 0.33 1.98 0.66 3 1 C2.34 2.32 1.68 3.64 1 5 C-0.32 5 -1.64 5 -3 5 C-1.125 1.125 -1.125 1.125 0 0 Z " fill="#1A1729" transform="translate(47,71)"/>
<path d="M0 0 C0.99 0.99 1.98 1.98 3 3 C2.67 3.99 2.34 4.98 2 6 C-0.0625 6.6875 -0.0625 6.6875 -2 7 C-1.34 4.69 -0.68 2.38 0 0 Z " fill="#5C917F" transform="translate(9,58)"/>
<path d="M0 0 C0 2.79784711 -0.37195775 4.9790678 -1 7.6875 C-1.185625 8.49574219 -1.37125 9.30398437 -1.5625 10.13671875 C-1.706875 10.75160156 -1.85125 11.36648437 -2 12 C-3.08203125 10.23046875 -3.08203125 10.23046875 -4 8 C-1.78947368 1.78947368 -1.78947368 1.78947368 0 0 Z " fill="#98C7B8" transform="translate(17,41)"/>
<path d="M0 0 C2.97 0.495 2.97 0.495 6 1 C5.01 2.485 5.01 2.485 4 4 C0.875 4.1875 0.875 4.1875 -2 4 C-1.34 2.68 -0.68 1.36 0 0 Z " fill="#E3E8E8" transform="translate(84,175)"/>
<path d="M0 0 C0.33 1.32 0.66 2.64 1 4 C1.66 4 2.32 4 3 4 C2.67 5.65 2.34 7.3 2 9 C0.05276405 6.07914607 -0.55175352 4.40667322 -1 1 C-0.67 0.67 -0.34 0.34 0 0 Z " fill="#486863" transform="translate(8,124)"/>
<path d="M0 0 C0.33 0 0.66 0 1 0 C1.66 3.3 2.32 6.6 3 10 C2.01 10.33 1.02 10.66 0 11 C0 7.37 0 3.74 0 0 Z " fill="#D8E8E7" transform="translate(4,116)"/>
<path d="M0 0 C0.86625 0.556875 0.86625 0.556875 1.75 1.125 C0.76 2.61 0.76 2.61 -0.25 4.125 C-2.23 3.135 -4.21 2.145 -6.25 1.125 C-2.80384615 -1.09038462 -2.80384615 -1.09038462 0 0 Z " fill="#30323F" transform="translate(80.25,114.875)"/>
<path d="M0 0 C1.65 0.33 3.3 0.66 5 1 C5.33 2.32 5.66 3.64 6 5 C5.34 4.67 4.68 4.34 4 4 C4 3.34 4 2.68 4 2 C2.68 2.33 1.36 2.66 0 3 C0 2.01 0 1.02 0 0 Z M-2 3 C0 4 0 4 0 4 Z " fill="#151426" transform="translate(108,178)"/>
<path d="M0 0 C0.99 0.99 1.98 1.98 3 3 C2.34 4.32 1.68 5.64 1 7 C0.34 6.34 -0.32 5.68 -1 5 C-0.625 2.375 -0.625 2.375 0 0 Z " fill="#436660" transform="translate(24,133)"/>
<path d="M0 0 C1.32 0 2.64 0 4 0 C3.1875 2.4375 3.1875 2.4375 2 5 C1.01 5.33 0.02 5.66 -1 6 C-0.67 4.02 -0.34 2.04 0 0 Z " fill="#12151E" transform="translate(95,113)"/>
<path d="M0 0 C0.33 0.66 0.66 1.32 1 2 C1.66 2 2.32 2 3 2 C2.625 3.9375 2.625 3.9375 2 6 C1.01 6.495 1.01 6.495 0 7 C-1.125 2.25 -1.125 2.25 0 0 Z " fill="#15151F" transform="translate(40,103)"/>
<path d="M0 0 C1.73543126 2.60314689 2.61121812 3.98694043 3 7 C2.34 7.66 1.68 8.32 1 9 C0.34 8.34 -0.32 7.68 -1 7 C-0.625 3.375 -0.625 3.375 0 0 Z " fill="#2D2B38" transform="translate(126,87)"/>
<path d="M0 0 C2.875 0.1875 2.875 0.1875 6 1 C7.375 3.5625 7.375 3.5625 8 6 C4.63408134 4.55746343 2.48952921 2.66735273 0 0 Z " fill="#A6DFC9" transform="translate(148,25)"/>
</svg>
