<?xml version="1.0" encoding="UTF-8"?>
<svg version="1.1" xmlns="http://www.w3.org/2000/svg" width="225" height="225">
<path d="M0 0 C7.35655363 2.22925868 12.06288106 7.49550481 15.95703125 13.875 C17.24911514 16.50756044 18.12267693 19.2052695 19 22 C20.35931641 21.94779297 20.35931641 21.94779297 21.74609375 21.89453125 C30.53158509 21.69929811 37.58301862 22.05534575 45 27 C44.03128981 33.32445273 40.92781285 38.1218111 36.38671875 42.5859375 C32.39636121 45.50571131 29.09289327 46.12995421 24.18359375 46.5390625 C17.73938395 47.08307149 17.73938395 47.08307149 12.55517578 50.57910156 C9.88487642 54.73664294 8.03410292 59.28804071 6.05957031 63.80371094 C-4.20501454 85.08025595 -26.1388098 98.14798785 -47.33984375 106.28125 C-71.84716269 114.44005479 -102.34443036 116.56802717 -125.9375 104.8125 C-141.33145196 95.7527178 -150.07255256 82.9394223 -155 66 C-155.79362244 62.57363363 -156.11921778 59.4324989 -156.09765625 55.91796875 C-156.09443359 54.98662109 -156.09121094 54.05527344 -156.08789062 53.09570312 C-156.07951172 52.13599609 -156.07113281 51.17628906 -156.0625 50.1875 C-156.05798828 49.20845703 -156.05347656 48.22941406 -156.04882812 47.22070312 C-156.03708684 44.81373889 -156.02066419 42.40690143 -156 40 C-155.25916137 39.99761165 -154.51832273 39.99522329 -153.75503445 39.99276257 C-135.7185049 39.93359474 -117.68211199 39.85803322 -99.64572811 39.76428509 C-90.92341763 39.71934317 -82.20114783 39.6799248 -73.47875977 39.65356445 C-65.87522877 39.63057138 -58.27182669 39.59715874 -50.66839796 39.55129844 C-46.643419 39.52738383 -42.61856757 39.50864353 -38.59351921 39.50238609 C-34.80218478 39.49632722 -31.0111766 39.47629868 -27.21996307 39.44572449 C-25.83128947 39.43695707 -24.44257321 39.433219 -23.05387306 39.43499184 C-13.11993231 39.46755577 -13.11993231 39.46755577 -4 36 C-4.495 35.13375 -4.99 34.2675 -5.5 33.375 C-8.65226211 25.93928123 -8.07316973 16.85145146 -5.1875 9.4375 C-3.67102997 6.16170886 -2.00487638 3.00731457 0 0 Z " fill="#0A9CEC" transform="translate(168,71)"/>
<path d="M0 0 C6.93 0 13.86 0 21 0 C21 6.27 21 12.54 21 19 C14.07 19 7.14 19 0 19 C0 12.73 0 6.46 0 0 Z " fill="#0E9DEC" transform="translate(101,65)"/>
<path d="M0 0 C6.93 0 13.86 0 21 0 C21 6.27 21 12.54 21 19 C14.07 19 7.14 19 0 19 C0 12.73 0 6.46 0 0 Z " fill="#0B9CEC" transform="translate(101,42)"/>
<path d="M0 0 C6.93 0 13.86 0 21 0 C21 6.27 21 12.54 21 19 C17.68744674 19.02683436 14.37510817 19.0467578 11.0625 19.0625 C10.11697266 19.07087891 9.17144531 19.07925781 8.19726562 19.08789062 C6.84858398 19.09272461 6.84858398 19.09272461 5.47265625 19.09765625 C4.22367554 19.10551147 4.22367554 19.10551147 2.94946289 19.11352539 C1 19 1 19 0 18 C-0.08631874 16.65732587 -0.10706473 15.31025678 -0.09765625 13.96484375 C-0.09515869 13.23644287 -0.09266113 12.50804199 -0.09008789 11.75756836 C-0.08098389 10.8269458 -0.07187988 9.89632324 -0.0625 8.9375 C-0.041875 5.988125 -0.02125 3.03875 0 0 Z " fill="#079BEB" transform="translate(76,65)"/>
<path d="M0 0 C6.93 0 13.86 0 21 0 C21.020625 2.949375 21.04125 5.89875 21.0625 8.9375 C21.071604 9.86812256 21.08070801 10.79874512 21.09008789 11.75756836 C21.09258545 12.48596924 21.09508301 13.21437012 21.09765625 13.96484375 C21.10551147 15.08814087 21.10551147 15.08814087 21.11352539 16.23413086 C21 18 21 18 20 19 C18.5112814 19.08669432 17.018555 19.10703494 15.52734375 19.09765625 C14.62822266 19.09443359 13.72910156 19.09121094 12.80273438 19.08789062 C11.85720703 19.07951172 10.91167969 19.07113281 9.9375 19.0625 C8.98810547 19.05798828 8.03871094 19.05347656 7.06054688 19.04882812 C4.70700469 19.03700128 2.35349468 19.01906521 0 19 C0 12.73 0 6.46 0 0 Z " fill="#079BEB" transform="translate(52,65)"/>
<path d="M0 0 C6.93 0 13.86 0 21 0 C21 5.94 21 11.88 21 18 C14.07 18 7.14 18 0 18 C0 12.06 0 6.12 0 0 Z " fill="#0C9CEC" transform="translate(126,88)"/>
<path d="M0 0 C6.93 0 13.86 0 21 0 C21 5.94 21 11.88 21 18 C14.07 18 7.14 18 0 18 C0 12.06 0 6.12 0 0 Z " fill="#099CEB" transform="translate(101,88)"/>
<path d="M0 0 C6.93 0 13.86 0 21 0 C21 5.94 21 11.88 21 18 C14.07 18 7.14 18 0 18 C0 12.06 0 6.12 0 0 Z " fill="#0D9DEC" transform="translate(76,88)"/>
<path d="M0 0 C6.93 0 13.86 0 21 0 C21 5.94 21 11.88 21 18 C14.07 18 7.14 18 0 18 C0 12.06 0 6.12 0 0 Z " fill="#0C9CEC" transform="translate(52,88)"/>
<path d="M0 0 C6.93 0 13.86 0 21 0 C21 5.94 21 11.88 21 18 C14.07 18 7.14 18 0 18 C0 12.06 0 6.12 0 0 Z " fill="#0B9CEB" transform="translate(27,88)"/>
<path d="M0 0 C0.99 0.495 0.99 0.495 2 1 C2 6.28 2 11.56 2 17 C7.94 17 13.88 17 20 17 C20.33 17.66 20.66 18.32 21 19 C17.68751813 19.02888146 14.37506833 19.04675799 11.0625 19.0625 C10.11697266 19.07087891 9.17144531 19.07925781 8.19726562 19.08789062 C6.84858398 19.09272461 6.84858398 19.09272461 5.47265625 19.09765625 C4.22367554 19.10551147 4.22367554 19.10551147 2.94946289 19.11352539 C1 19 1 19 0 18 C-0.08631874 16.65732587 -0.10706473 15.31025678 -0.09765625 13.96484375 C-0.09443359 13.15595703 -0.09121094 12.34707031 -0.08789062 11.51367188 C-0.07951172 10.66353516 -0.07113281 9.81339844 -0.0625 8.9375 C-0.05798828 8.08349609 -0.05347656 7.22949219 -0.04882812 6.34960938 C-0.03700373 4.23304337 -0.01906769 2.11651315 0 0 Z " fill="#3CACEF" transform="translate(76,65)"/>
<path d="M0 0 C0.33 0 0.66 0 1 0 C1.02683987 2.97922593 1.04676037 5.95821295 1.0625 8.9375 C1.07087891 9.78763672 1.07925781 10.63777344 1.08789062 11.51367188 C1.09272461 12.72700195 1.09272461 12.72700195 1.09765625 13.96484375 C1.10551147 15.08814087 1.10551147 15.08814087 1.11352539 16.23413086 C1 18 1 18 0 19 C-1.4887186 19.08669432 -2.981445 19.10703494 -4.47265625 19.09765625 C-5.37177734 19.09443359 -6.27089844 19.09121094 -7.19726562 19.08789062 C-8.14279297 19.07951172 -9.08832031 19.07113281 -10.0625 19.0625 C-11.01189453 19.05798828 -11.96128906 19.05347656 -12.93945312 19.04882812 C-15.29303065 19.0370011 -17.64648477 19.02052025 -20 19 C-19.67 18.34 -19.34 17.68 -19 17 C-13.06 17 -7.12 17 -1 17 C-1.03957157 11.77936725 -1.03957157 11.77936725 -1.09008789 6.55883789 C-1.09723945 4.70566241 -1.0502852 2.85250692 -1 1 C-0.67 0.67 -0.34 0.34 0 0 Z " fill="#39ABEF" transform="translate(72,65)"/>
</svg>
