<?xml version="1.0" encoding="UTF-8"?>
<svg version="1.1" xmlns="http://www.w3.org/2000/svg" width="256" height="256">
<path d="M0 0 C84.48 0 168.96 0 256 0 C256 84.48 256 168.96 256 256 C171.52 256 87.04 256 0 256 C0 171.52 0 87.04 0 0 Z " fill="#000000" transform="translate(0,0)"/>
<path d="M0 0 C2.5625 2.125 2.5625 2.125 4 5 C3.71726011 10.2009258 1.55030572 13.90069452 -1.1875 18.1875 C-2.01210479 19.51848687 -2.83501387 20.85052574 -3.65625 22.18359375 C-4.0584375 22.83312012 -4.460625 23.48264648 -4.875 24.15185547 C-7.97168826 29.23907989 -10.69767282 34.54574563 -13.48828125 39.8046875 C-14.96214452 42.55437557 -16.47203362 45.28005985 -18 48 C-18.47179687 48.8765625 -18.94359375 49.753125 -19.4296875 50.65625 C-22.80764326 56.42616362 -22.80764326 56.42616362 -25.98046875 57.953125 C-29.83534379 58.73422538 -31.81229217 58.12258471 -35.0625 56 C-37 53 -37 53 -36.859375 49.76171875 C-35.91767214 45.63962849 -34.33071722 42.40145411 -32.1875 38.8125 C-31.79731689 38.13904541 -31.40713379 37.46559082 -31.00512695 36.77172852 C-29.68488326 34.50540862 -28.34493629 32.2517494 -27 30 C-26.49339844 29.14954102 -25.98679688 28.29908203 -25.46484375 27.42285156 C-22.88951761 23.1058583 -20.30129667 18.79700953 -17.69921875 14.49609375 C-15.40527023 10.69681685 -13.19272327 6.85839742 -11 3 C-8.42970286 -0.98396057 -4.34159965 -0.92411559 0 0 Z " fill="#C0F14D" transform="translate(159,111)"/>
<path d="M0 0 C2.8125 1.5625 2.8125 1.5625 5 4 C6.20362403 11.10044876 2.67864744 15.93088735 -0.875 21.875 C-1.7565979 23.38888306 -1.7565979 23.38888306 -2.65600586 24.93334961 C-4.42429811 27.96344075 -6.2117742 30.98164424 -8 34 C-8.98494578 35.69031632 -9.96816569 37.38164014 -10.94921875 39.07421875 C-20.50283518 55.50283518 -20.50283518 55.50283518 -24 59 C-27.375 59.4375 -27.375 59.4375 -31 59 C-33.72369733 56.62549463 -34.81383033 55.03677245 -35.453125 51.4765625 C-34.75491011 46.11956896 -32.03924372 42.10029423 -29.3125 37.5 C-28.44250366 36.00194824 -28.44250366 36.00194824 -27.55493164 34.47363281 C-26.33368888 32.37556241 -25.10659225 30.28088981 -23.87402344 28.18945312 C-22.02284707 25.03888407 -20.19993905 21.8734309 -18.3828125 18.703125 C-17.23533475 16.71819486 -16.08693102 14.73379968 -14.9375 12.75 C-14.13469604 11.34911133 -14.13469604 11.34911133 -13.31567383 9.91992188 C-12.8080249 9.05431641 -12.30037598 8.18871094 -11.77734375 7.296875 C-11.33640381 6.53729492 -10.89546387 5.77771484 -10.44116211 4.99511719 C-7.61015429 1.07592425 -4.88363858 -0.83379195 0 0 Z " fill="#C1F14D" transform="translate(211,77)"/>
<path d="M0 0 C3.06243788 0.04948284 4.03476301 0.21322096 6.6875 1.9375 C8.63501968 5.02107283 8.51321558 6.69881768 8.1875 10.3125 C6.8671875 13.13671875 6.8671875 13.13671875 5.0625 16 C0.92109728 22.65385371 -2.78605621 29.51566879 -6.47607422 36.42944336 C-8.18647655 39.61420367 -9.93390048 42.77635496 -11.6875 45.9375 C-12.54794922 47.56751953 -12.54794922 47.56751953 -13.42578125 49.23046875 C-17.67076064 56.78445211 -17.67076064 56.78445211 -20.93457031 58.29394531 C-24.4581443 58.82723429 -26.6383946 58.3995527 -29.8125 56.8125 C-32.52379668 53.42337915 -32.21475257 51.58531618 -31.8125 47.3125 C-30.2734375 44.171875 -30.2734375 44.171875 -28.1875 41.0625 C-25.62143182 37.13183703 -23.13907614 33.21259756 -20.9375 29.0625 C-16.80368014 21.34148108 -12.28527756 13.84029943 -7.8125 6.3125 C-7.23886719 5.34054688 -6.66523437 4.36859375 -6.07421875 3.3671875 C-4.2188864 0.34581036 -4.2188864 0.34581036 0 0 Z " fill="#C1F24D" transform="translate(71.8125,110.6875)"/>
<path d="M0 0 C2.375 1.5 2.375 1.5 4 4 C4.93162084 11.44472231 2.39560619 15.81220771 -1.4375 22.0625 C-1.98156494 22.98063477 -2.52562988 23.89876953 -3.08618164 24.84472656 C-4.70772748 27.5733968 -6.35147594 30.28756736 -8 33 C-8.87631088 34.46145436 -9.75142971 35.92362458 -10.625 37.38671875 C-11.75929931 39.2847718 -12.89571969 41.18118102 -14.04321289 43.07128906 C-16.48607737 47.0961614 -18.77654429 51.1766139 -20.9296875 55.36328125 C-22 57 -22 57 -25 59 C-27.875 59.5 -27.875 59.5 -31 59 C-33.9375 56.3125 -33.9375 56.3125 -36 53 C-35.66453156 49.19285932 -34.31027549 46.37507904 -32.4453125 43.078125 C-31.90551758 42.11712891 -31.36572266 41.15613281 -30.80957031 40.16601562 C-30.21241211 39.12123047 -29.61525391 38.07644531 -29 37 C-28.36416992 35.87787109 -27.72833984 34.75574219 -27.07324219 33.59960938 C-25.01758293 29.97708234 -22.94695246 26.36322454 -20.875 22.75 C-19.81712118 20.90246426 -18.75954408 19.05475642 -17.70220947 17.20690918 C-16.71068735 15.47599197 -15.71623035 13.74675698 -14.72167969 12.01757812 C-13.70670701 10.23864133 -12.70254112 8.45333111 -11.72363281 6.65429688 C-8.75692584 1.20547325 -6.3407004 -0.77641229 0 0 Z " fill="#C1F24D" transform="translate(129,77)"/>
</svg>
