<?xml version="1.0" encoding="UTF-8"?>
<svg version="1.1" xmlns="http://www.w3.org/2000/svg" width="207" height="243">
<path d="M0 0 C7.28858784 2.86337379 17.09006913 6.95746368 20.4540863 14.51979065 C21.47297115 17.30002607 22.40831666 20.09693665 23.3203125 22.9140625 C23.66504608 23.95009613 24.00977966 24.98612976 24.36495972 26.05355835 C25.091609 28.24557823 25.81243154 30.43953706 26.52783203 32.63525391 C27.61559081 35.97114432 28.72217122 39.30031227 29.83203125 42.62890625 C30.53758688 44.76525261 31.24204903 46.90196048 31.9453125 49.0390625 C32.27242218 50.02484283 32.59953186 51.01062317 32.93655396 52.02627563 C37.1327974 64.96351245 37.1327974 64.96351245 37.5 70.375 C35.71875 72.96875 35.71875 72.96875 33 74.875 C24.21801794 81.82994003 19.96476947 90.26247008 18.5 101.375 C18.19018044 111.6635913 21.16158782 120.27591777 27.5 128.375 C33.48019081 134.58676995 39.73603136 139.03964536 48.48828125 139.77734375 C49.19919922 139.83946045 49.91011719 139.90157715 50.64257812 139.96557617 C52.06477868 140.07006503 53.49024327 140.13797907 54.91601562 140.1652832 C56.92578125 140.296875 56.92578125 140.296875 60.5 141.375 C63.94800004 147.25408229 66.02857101 153.4690623 68.1015625 159.9375 C68.42410004 160.9282251 68.74663757 161.9189502 69.07894897 162.93969727 C69.75580457 165.02296103 70.42963665 167.10720933 71.10058594 169.19238281 C72.12259715 172.3675349 73.15423188 175.53943298 74.1875 178.7109375 C74.84692105 180.74460794 75.50579372 182.77845629 76.1640625 184.8125 C76.4692984 185.75230713 76.7745343 186.69211426 77.08901978 187.66040039 C78.75985408 192.86357628 80.23970807 198.05705008 81.5 203.375 C74.38111872 208.56071128 67.03520339 213.09975946 59.375 217.4375 C57.08390652 218.7396287 54.79333331 220.04260623 52.50390625 221.34765625 C51.92555527 221.67682037 51.34720428 222.0059845 50.75132751 222.34512329 C46.69668611 224.66277647 42.69944061 227.05987029 38.71484375 229.49609375 C37.63799316 230.14763428 36.56114258 230.7991748 35.45166016 231.47045898 C33.40181007 232.71411123 31.3606122 233.97216975 29.32958984 235.24633789 C22.53412119 239.33601742 22.53412119 239.33601742 17.76953125 239.515625 C13.89199029 238.1628867 10.75889863 236.42307621 7.375 234.125 C6.78074219 233.74214844 6.18648437 233.35929688 5.57421875 232.96484375 C-1.12171442 228.54523223 -5.09208357 224.01021232 -8.06640625 216.59375 C-8.38192947 215.8359877 -8.6974527 215.0782254 -9.02253723 214.29750061 C-10.04757355 211.82799291 -11.05500919 209.35171105 -12.0625 206.875 C-12.77374076 205.1530842 -13.48615486 203.43165261 -14.19970703 201.71069336 C-15.98252061 197.40358952 -17.75175343 193.09106651 -19.51654053 188.77655029 C-21.46673854 184.01428124 -23.43455247 179.25928796 -25.40087891 174.50366211 C-26.37498128 172.14713455 -27.3473443 169.78988717 -28.31787109 167.43188477 C-31.91585823 158.71052811 -35.64187745 150.04961311 -39.46826172 141.42602539 C-39.85385254 140.55196045 -40.23944336 139.67789551 -40.63671875 138.77734375 C-40.97405029 138.01929443 -41.31138184 137.26124512 -41.65893555 136.48022461 C-42.46616139 134.45969966 -43.02828158 132.49638169 -43.5 130.375 C-56.79404992 137.72020168 -70.00284402 145.18343574 -83.0625 152.9375 C-84.74533081 153.93620117 -84.74533081 153.93620117 -86.4621582 154.95507812 C-87.52781006 155.58994141 -88.59346191 156.22480469 -89.69140625 156.87890625 C-90.69574707 157.47590332 -91.70008789 158.07290039 -92.73486328 158.68798828 C-95.17431917 160.17630191 -97.53387862 161.74274147 -99.90234375 163.33984375 C-103.26296158 165.4249177 -105.49099148 166.14472964 -109.5 165.375 C-111.95677917 164.12142703 -114.10498589 162.89519045 -116.375 161.375 C-117.26445313 160.80265625 -117.26445313 160.80265625 -118.171875 160.21875 C-119.62244056 159.28290125 -121.06235847 158.33058369 -122.5 157.375 C-122.00668696 151.36780839 -120.12011373 146.936802 -117.37890625 141.609375 C-116.75072243 140.36006195 -116.75072243 140.36006195 -116.10984802 139.08551025 C-114.77006025 136.4271714 -113.41639113 133.77617862 -112.0625 131.125 C-111.18726769 129.39107061 -110.31291139 127.65669874 -109.43945312 125.921875 C-106.04362776 119.19655424 -102.64173541 112.47587744 -99.07470703 105.83935547 C-94.74419464 97.77382643 -90.65416471 89.65627447 -86.83216858 81.33496094 C-84.87086242 77.07235693 -82.87504059 72.82676925 -80.86749363 68.58578491 C-79.40274594 65.48372059 -77.96354302 62.37400568 -76.57324219 59.23779297 C-68.96088602 42.13011684 -61.45989511 31.52872681 -44.01245117 23.54742432 C-40.55575395 21.93437172 -37.3570353 20.0321286 -34.0859375 18.0703125 C-32.01634341 16.87895945 -29.94606393 15.68879602 -27.875 14.5 C-25.77847709 13.29456427 -23.68212207 12.0888365 -21.5859375 10.8828125 C-20.58723633 10.31030762 -19.58853516 9.73780273 -18.55957031 9.14794922 C-16.42439295 7.91066403 -14.2994489 6.65562356 -12.18261719 5.38720703 C-11.11430664 4.74895996 -10.04599609 4.11071289 -8.9453125 3.453125 C-7.98383301 2.87208008 -7.02235352 2.29103516 -6.03173828 1.69238281 C-3.5 0.375 -3.5 0.375 0 0 Z " fill="#020220" transform="translate(124.5,0.625)"/>
<path d="M0 0 C5.9747937 0.84144742 10.66505777 2.73945903 15 7 C18.29742895 12.64191557 19.92153394 19.16469533 21.8125 25.375 C22.40268194 27.21618292 22.99633136 29.05625758 23.59326172 30.89526367 C24.82308197 34.70309524 26.03225404 38.51654685 27.22412109 42.33642578 C28.89481659 47.6850454 30.61840559 53.01502177 32.36328125 58.33984375 C32.90933163 60.0077894 33.45531183 61.67575803 34.0012207 63.34375 C34.26923492 64.16262695 34.53724915 64.98150391 34.81338501 65.82519531 C35.90582033 69.17311214 36.98776977 72.52437604 38.06950378 75.87576294 C40.96845325 84.85636122 43.92079164 93.81754227 46.91848755 102.765625 C52.05850473 118.11174343 57.15690592 133.47184104 62.21987915 148.84354401 C63.30717577 152.14448217 64.39642538 155.44474269 65.49078369 158.74334717 C66.72311858 162.45824269 67.94591024 166.1762418 69.16796875 169.89453125 C69.54031143 171.01278793 69.91265411 172.13104462 70.29627991 173.28318787 C72.0138015 178.53476797 73.47696232 183.49168288 74 189 C64.55274755 184.6021411 59.71370117 180.8115612 55.92578125 171.06640625 C55.56431503 170.17773865 55.20284882 169.28907104 54.83042908 168.37347412 C53.64218792 165.44251192 52.4776971 162.50269016 51.3125 159.5625 C50.47870543 157.49625462 49.64306233 155.43075432 48.80566406 153.3659668 C47.06379673 149.06655051 45.32996942 144.76402482 43.60205078 140.45898438 C39.55135506 130.38277723 35.39991623 120.34814438 31.25 110.3125 C30.85850769 109.36436432 30.46701538 108.41622864 30.06365967 107.43936157 C24.90941995 94.95734167 19.71926722 82.49105451 14.42492676 70.06771851 C13.77277633 68.53697093 13.12211213 67.00558921 12.47302246 65.47354126 C11.58994257 63.39161125 10.70042896 61.31256671 9.80859375 59.234375 C9.31157959 58.07131836 8.81456543 56.90826172 8.30249023 55.70996094 C7.15013631 52.92946797 7.15013631 52.92946797 5 51 C0.15269043 55.50977931 -3.71021412 60.66043522 -7.6875 65.9375 C-8.75750244 67.34974854 -8.75750244 67.34974854 -9.84912109 68.79052734 C-14.47815585 74.92166447 -19.00032786 81.11444762 -23.4296875 87.390625 C-26.64306689 91.92929645 -29.94879192 96.40002905 -33.25 100.875 C-33.8289502 101.6602002 -34.40790039 102.44540039 -35.00439453 103.25439453 C-38.64686764 108.18675752 -42.31385071 113.10020029 -46 118 C-49.98467756 117.17707746 -52.67947232 115.33946269 -56 113 C-54.31352022 107.19432266 -51.62904388 101.9839384 -48.92358398 96.60424805 C-48.40795898 95.5710997 -47.89233398 94.53795135 -47.36108398 93.47349548 C-45.65998716 90.06760438 -43.9531577 86.66462248 -42.24609375 83.26171875 C-41.06278304 80.8962895 -39.87976807 78.53071228 -38.69703674 76.16499329 C-36.2207543 71.21336316 -33.74138592 66.26328832 -31.26000977 61.31420898 C-28.38893198 55.5878151 -25.52207024 49.85932663 -22.65758842 44.12963074 C-19.90122299 38.61629041 -17.14253419 33.10411685 -14.38264656 27.59253883 C-13.20793494 25.24630688 -12.03371414 22.89982913 -10.85998344 20.55310631 C-9.22434372 17.28398322 -7.58608228 14.01618819 -5.94702148 10.7487793 C-5.45816971 9.77062256 -4.96931793 8.79246582 -4.46565247 7.78466797 C-4.02121796 6.90006393 -3.57678345 6.0154599 -3.11888123 5.10404968 C-2.73156043 4.33108394 -2.34423964 3.55811819 -1.94518185 2.76172924 C-1 1 -1 1 0 0 Z " fill="#FBFBFB" transform="translate(64,42)"/>
<path d="M0 0 C5.79196224 4.80795145 9.53574198 9.97159586 10.81640625 17.5078125 C11.09391613 24.95432774 9.32704785 31.66614266 4.2421875 37.23046875 C-2.22706826 43.14729368 -8.5363554 45.11264548 -17.25 44.8515625 C-23.34312227 44.13758812 -27.37847788 41.66529159 -31.49609375 37.1953125 C-37.54334196 29.3520151 -38.18059741 22.30790526 -37.18359375 12.5078125 C-35.5425093 6.32444075 -31.58191876 1.83144663 -26.18359375 -1.4921875 C-17.2559896 -5.60338672 -8.17211078 -5.77826015 0 0 Z " fill="#090922" transform="translate(193.18359375,84.4921875)"/>
<path d="M0 0 C3.42300207 1.9853412 5.22654191 3.33199351 7.125 6.8125 C7.3337979 12.34564435 5.29461057 15.74189964 1.92578125 19.890625 C-3.96465299 26.1771622 -10.60780453 30.00216223 -19.125 31.3125 C-21.875 30.8125 -21.875 30.8125 -24.1875 28.4375 C-27.80264484 22.81394136 -27.44415956 17.38589204 -26.875 10.8125 C-24.5894807 5.88984305 -21.15805294 3.00200751 -16.875 -0.1875 C-11.47410356 -1.98779881 -5.36197427 -2.05426287 0 0 Z " fill="#FBFBFB" transform="translate(187.875,87.1875)"/>
<path d="M0 0 C1.59505208 1.00911458 3.19010417 2.01822917 4.78515625 3.02734375 C0.10189502 8.53644792 -5.97362694 11.58783767 -12.21484375 15.08984375 C-13.37565107 15.74616934 -14.53612936 16.40307719 -15.69628906 17.06054688 C-17.46630364 18.06356739 -19.23663046 19.06597377 -21.0088501 20.06509399 C-24.83514715 22.22651623 -28.6198549 24.44775171 -32.38671875 26.7109375 C-33.80404297 27.55289673 -33.80404297 27.55289673 -35.25 28.41186523 C-37.02045837 29.46538349 -38.78391055 30.53079329 -40.5390625 31.60961914 C-46.36114906 35.03434125 -46.36114906 35.03434125 -50.55078125 35 C-54.4234718 33.58607046 -56.97058521 31.55786541 -60.21484375 29.02734375 C-57.22890154 25.77380403 -54.20988225 23.68242008 -50.3671875 21.5234375 C-49.5199411 21.04318115 -49.5199411 21.04318115 -48.65557861 20.55322266 C-46.82477597 19.517205 -44.98894664 18.49053884 -43.15234375 17.46484375 C-40.61470957 16.03984599 -38.07872015 14.61193857 -35.54296875 13.18359375 C-34.60054573 12.65408363 -34.60054573 12.65408363 -33.63908386 12.11387634 C-29.84530724 9.9746863 -26.1012003 7.77144307 -22.38671875 5.49609375 C-21.53343994 4.97861572 -20.68016113 4.4611377 -19.80102539 3.92797852 C-18.24671422 2.97988825 -16.7009257 2.0176237 -15.16577148 1.03881836 C-9.75283136 -2.22988357 -6.0029598 -2.63622044 0 0 Z " fill="#F9F9F9" transform="translate(130.21484375,8.97265625)"/>
</svg>
