<?xml version="1.0" encoding="UTF-8"?>
<!DOCTYPE svg PUBLIC "-//W3C//DTD SVG 1.1//EN" "http://www.w3.org/Graphics/SVG/1.1/DTD/svg11.dtd">
<svg xmlns="http://www.w3.org/2000/svg" version="1.1" width="204px" height="192px" style="shape-rendering:geometricPrecision; text-rendering:geometricPrecision; image-rendering:optimizeQuality; fill-rule:evenodd; clip-rule:evenodd" xmlns:xlink="http://www.w3.org/1999/xlink">
<g><path style="opacity:1" fill="#010101" d="M -0.5,-0.5 C 67.5,-0.5 135.5,-0.5 203.5,-0.5C 203.5,63.5 203.5,127.5 203.5,191.5C 135.5,191.5 67.5,191.5 -0.5,191.5C -0.5,127.5 -0.5,63.5 -0.5,-0.5 Z"/></g>
<g><path style="opacity:1" fill="#f8f8f8" d="M 65.5,139.5 C 66.404,138.791 66.7373,137.791 66.5,136.5C 68.4147,136.784 70.0813,136.451 71.5,135.5C 71.5,134.167 71.5,132.833 71.5,131.5C 80.8004,130.336 83.6337,125.336 80,116.5C 75.7974,109.451 69.6308,106.117 61.5,106.5C 61.1388,100.608 62.6388,95.2743 66,90.5C 77.5356,87.3019 84.5356,79.9686 87,68.5C 78.6955,73.9717 70.5288,79.6384 62.5,85.5C 59.2141,95.3541 56.5475,105.354 54.5,115.5C 53.0413,115.567 51.7079,115.234 50.5,114.5C 49.791,113.596 48.791,113.263 47.5,113.5C 47.5,114.833 47.5,116.167 47.5,117.5C 46.1667,117.5 44.8333,117.5 43.5,117.5C 42.6236,117.369 41.9569,117.702 41.5,118.5C 42.8333,120.5 44.1667,122.5 45.5,124.5C 41.8573,125.247 38.3573,124.58 35,122.5C 27.1341,123.65 21.3008,120.65 17.5,113.5C 21.2597,108.317 25.2597,103.317 29.5,98.5C 29.1667,98.1667 28.8333,97.8333 28.5,97.5C 24.2008,99.1564 19.8675,100.323 15.5,101C 22.9886,95.0894 30.6553,89.4227 38.5,84C 43.1223,77.922 47.6223,71.7553 52,65.5C 59.9436,56.7778 69.7769,51.6111 81.5,50C 89.5094,49.4415 97.5094,49.6082 105.5,50.5C 109.878,50.3778 114.211,49.8778 118.5,49C 124.875,46.2637 131.208,43.4304 137.5,40.5C 139.043,45.1539 138.376,49.4872 135.5,53.5C 135.833,53.8333 136.167,54.1667 136.5,54.5C 150.201,50.8246 163.867,46.9912 177.5,43C 181.114,42.0642 184.78,41.5642 188.5,41.5C 187.082,46.6493 185.415,51.6493 183.5,56.5C 166.074,60.5838 148.74,64.9172 131.5,69.5C 131.174,73.8839 131.508,78.2172 132.5,82.5C 144.235,79.4835 155.901,76.3168 167.5,73C 170.801,72.0033 174.134,71.6699 177.5,72C 175.219,76.5607 173.219,81.2273 171.5,86C 158.193,89.6024 144.86,93.1024 131.5,96.5C 131.5,100.833 131.5,105.167 131.5,109.5C 142.31,106.756 153.143,104.089 164,101.5C 164.5,101.833 165,102.167 165.5,102.5C 163.399,106.976 161.399,111.476 159.5,116C 144.979,120.597 130.313,124.597 115.5,128C 101.909,135.267 88.5753,142.934 75.5,151C 68.737,151.615 62.737,149.782 57.5,145.5C 52.6705,137.253 54.0039,135.42 61.5,140C 63.0657,140.765 64.3991,140.598 65.5,139.5 Z"/></g>
<g><path style="opacity:1" fill="#0f0f0f" d="M 106.5,91.5 C 104.738,91.3573 103.071,91.6906 101.5,92.5C 100.702,92.0431 100.369,91.3764 100.5,90.5C 100.877,88.742 101.544,87.0754 102.5,85.5C 105.562,84.1302 108.729,83.1302 112,82.5C 112.195,86.7831 110.361,89.7831 106.5,91.5 Z"/></g>
<g><path style="opacity:1" fill="#0c0c0c" d="M 119.5,91.5 C 120.873,91.3433 122.207,91.51 123.5,92C 122.144,94.3976 120.977,96.8976 120,99.5C 116.925,100.249 113.925,101.249 111,102.5C 111.158,99.4981 111.658,96.4981 112.5,93.5C 115.152,93.5905 117.485,92.9238 119.5,91.5 Z"/></g>
<g><path style="opacity:1" fill="#606060" d="M 100.5,90.5 C 100.369,91.3764 100.702,92.0431 101.5,92.5C 103.071,91.6906 104.738,91.3573 106.5,91.5C 104.485,92.9238 102.152,93.5905 99.5,93.5C 99.2627,92.209 99.596,91.209 100.5,90.5 Z"/></g>
<g><path style="opacity:1" fill="#121212" d="M 98.5,104.5 C 97.7611,104.631 97.0944,104.464 96.5,104C 97.3366,102.989 97.67,101.822 97.5,100.5C 98.2341,99.2921 98.5674,97.9587 98.5,96.5C 101.784,96.2767 104.951,95.6101 108,94.5C 107.417,97.3156 106.584,100.149 105.5,103C 103.187,103.662 100.854,104.162 98.5,104.5 Z"/></g>
<g><path style="opacity:1" fill="#8b8b8b" d="M 97.5,100.5 C 97.67,101.822 97.3366,102.989 96.5,104C 97.0944,104.464 97.7611,104.631 98.5,104.5C 97.791,105.404 96.791,105.737 95.5,105.5C 95.1201,103.302 95.7868,101.635 97.5,100.5 Z"/></g>
<g><path style="opacity:1" fill="#a8a8a8" d="M 50.5,114.5 C 49.5489,115.919 49.2155,117.585 49.5,119.5C 47.2143,119.405 45.2143,118.738 43.5,117.5C 44.8333,117.5 46.1667,117.5 47.5,117.5C 47.5,116.167 47.5,114.833 47.5,113.5C 48.791,113.263 49.791,113.596 50.5,114.5 Z"/></g>
<g><path style="opacity:1" fill="#919191" d="M 71.5,135.5 C 70.0813,136.451 68.4147,136.784 66.5,136.5C 66.7373,137.791 66.404,138.791 65.5,139.5C 65.5,138.167 65.5,136.833 65.5,135.5C 67.5,135.5 69.5,135.5 71.5,135.5 Z"/></g>
</svg>
