<?xml version="1.0" encoding="UTF-8"?>
<svg version="1.1" xmlns="http://www.w3.org/2000/svg" width="32" height="32">
<path d="M0 0 C6.6 0 13.2 0 20 0 C20 3.3 20 6.6 20 10 C17.36 10.33 14.72 10.66 12 11 C12.5775 11.56589844 13.155 12.13179687 13.75 12.71484375 C14.86375 13.81505859 14.86375 13.81505859 16 14.9375 C17.11375 16.03384766 17.11375 16.03384766 18.25 17.15234375 C20 19 20 19 20 20 C16.7 20 13.4 20 10 20 C10 23.3 10 26.6 10 30 C4.82421875 25.60546875 4.82421875 25.60546875 3 24 C2.4328125 23.5565625 1.865625 23.113125 1.28125 22.65625 C-0.59691356 20.22838003 -0.29401174 18.33033274 -0.1875 15.3125 C-0.16042969 14.31863281 -0.13335938 13.32476562 -0.10546875 12.30078125 C-0.07066406 11.54152344 -0.03585938 10.78226563 0 10 C2.64 9.67 5.28 9.34 8 9 C7.4225 8.43410156 6.845 7.86820313 6.25 7.28515625 C5.13625 6.18494141 5.13625 6.18494141 4 5.0625 C3.2575 4.33160156 2.515 3.60070312 1.75 2.84765625 C0 1 0 1 0 0 Z " fill="#000000" transform="translate(6,2)"/>
</svg>
