<?xml version="1.0" encoding="UTF-8"?>
<svg version="1.1" xmlns="http://www.w3.org/2000/svg" width="32" height="32">
<path d="M0 0 C10.56 0 21.12 0 32 0 C32 10.56 32 21.12 32 32 C21.44 32 10.88 32 0 32 C0 21.44 0 10.88 0 0 Z " fill="#FBFBFB" transform="translate(0,0)"/>
<path d="M0 0 C0.99 0 1.98 0 3 0 C3.33 2.97 3.66 5.94 4 9 C6.31 6.03 8.62 3.06 11 0 C12.32 0.33 13.64 0.66 15 1 C12.69 3.97 10.38 6.94 8 10 C9.56891482 13.13782964 11.02310093 15.50839252 13.125 18.25 C13.66382813 18.95640625 14.20265625 19.6628125 14.7578125 20.390625 C15.16773438 20.92171875 15.57765625 21.4528125 16 22 C11.62346871 21.52379711 9.93461995 20.33100111 7.1875 16.9375 C6.58292969 16.20402344 5.97835938 15.47054688 5.35546875 14.71484375 C4.90816406 14.14894531 4.46085938 13.58304688 4 13 C3.67 15.97 3.34 18.94 3 22 C2.01 22 1.02 22 0 22 C0 14.74 0 7.48 0 0 Z " fill="#0C0C0C" transform="translate(8,5)"/>
</svg>
