<?xml version="1.0" encoding="UTF-8"?>
<svg version="1.1" xmlns="http://www.w3.org/2000/svg" width="400" height="401">
<path d="M0 0 C132 0 264 0 400 0 C400 132.33 400 264.66 400 401 C268 401 136 401 0 401 C0 268.67 0 136.34 0 0 Z " fill="#FEFEFE" transform="translate(0,0)"/>
<path d="M0 0 C4.95 0 9.9 0 15 0 C15.5576001 1.53817383 15.5576001 1.53817383 16.12646484 3.10742188 C23.32199311 22.92838862 30.58818302 42.65577246 39 62 C41.36431218 59.63568782 42.14716225 57.60345333 43.43359375 54.515625 C44.15228638 52.79134277 44.15228638 52.79134277 44.88549805 51.03222656 C45.40329664 49.77167512 45.92061916 48.51092804 46.4375 47.25 C46.83009506 46.29957825 46.83009506 46.29957825 47.23062134 45.32995605 C52.00362693 33.76195481 56.38966745 22.06617977 60.60913086 10.28613281 C61.25700562 8.48160645 61.25700562 8.48160645 61.91796875 6.640625 C62.29719482 5.57360352 62.6764209 4.50658203 63.06713867 3.40722656 C64 1 64 1 65 0 C66.68608966 -0.07205511 68.37500659 -0.08386068 70.0625 -0.0625 C70.98160156 -0.05347656 71.90070313 -0.04445312 72.84765625 -0.03515625 C73.55792969 -0.02355469 74.26820313 -0.01195312 75 0 C73.00273824 6.59900048 70.37193154 12.64405496 67.3125 18.8125 C62.63311823 28.40949832 58.2344897 38.10953458 53.9230957 47.87597656 C38.59752244 82.58966731 38.59752244 82.58966731 29.4375 99.0625 C28.91905518 100.00327393 28.40061035 100.94404785 27.86645508 101.91333008 C24.59989896 107.67293247 20.95475975 112.8135987 16.71899414 117.90405273 C13.76544048 121.26647441 13.76544048 121.26647441 13.125 125.5 C13 128 13 128 11.1875 129.8125 C9 131 9 131 6 131 C6.33 131.721875 6.66 132.44375 7 133.1875 C8.00603529 136.01697427 8.16977402 138.02895466 8 141 C5.8128711 142.32789969 4.52279544 143.04752686 1.9375 142.8125 C-0.25755282 141.89199398 -1.44866281 140.78403777 -3 139 C-3.556875 139.309375 -4.11375 139.61875 -4.6875 139.9375 C-7.12540433 141.05761821 -9.36224186 141.56037364 -12 142 C-12.33 141.34 -12.66 140.68 -13 140 C-14.29292969 139.97421875 -15.58585937 139.9484375 -16.91796875 139.921875 C-27.2780151 139.61769574 -36.26450941 138.81958116 -46 135 C-46 135.99 -46 136.98 -46 138 C-50.92127034 138.16682272 -54.50343896 138.24828052 -59 136 C-59.391875 137.2375 -59.78375 138.475 -60.1875 139.75 C-61.64622305 143.70538366 -63.41021904 145.67149343 -67 148 C-67.66 147.34 -68.32 146.68 -69 146 C-71.58354218 145.83312552 -71.58354218 145.83312552 -74 146 C-75.38226016 143.23547967 -75.09525387 140.9538637 -75.0625 137.875 C-75.05347656 136.77929688 -75.04445313 135.68359375 -75.03515625 134.5546875 C-75.02355469 133.71164062 -75.01195312 132.86859375 -75 132 C-75.75925781 132.02320313 -76.51851562 132.04640625 -77.30078125 132.0703125 C-78.29464844 132.08835937 -79.28851563 132.10640625 -80.3125 132.125 C-81.29863281 132.14820313 -82.28476563 132.17140625 -83.30078125 132.1953125 C-86 132 -86 132 -89 130 C-89.1875 127.0625 -89.1875 127.0625 -89 124 C-89 123.01 -89 122.02 -89 121 C-87.25 119.61328125 -87.25 119.61328125 -85 118.3125 C-84.2575 117.87550781 -83.515 117.43851562 -82.75 116.98828125 C-82.1725 116.66214844 -81.595 116.33601563 -81 116 C-88.23953013 115.03472932 -92.94564079 118.33095423 -99 122 C-99.79664063 122.45246094 -100.59328125 122.90492188 -101.4140625 123.37109375 C-106.30293343 126.17260101 -106.30293343 126.17260101 -109 131 C-108.67 131.99 -108.34 132.98 -108 134 C-108.3125 136.625 -108.3125 136.625 -109 139 C-111.70879335 140.35439668 -114.00933268 140.06501451 -117 140 C-116.979375 141.11375 -116.95875 142.2275 -116.9375 143.375 C-117 147 -117 147 -118 149 C-120.32156597 149.40729228 -122.6568787 149.74438677 -125 150 C-128 144.25 -128 144.25 -128 142 C-128.721875 142.33 -129.44375 142.66 -130.1875 143 C-133.01697427 144.00603529 -135.02895466 144.16977402 -138 144 C-139.32789969 141.8128711 -140.04752686 140.52279544 -139.8125 137.9375 C-138.87605999 135.70445074 -137.88552944 134.50842356 -136 133 C-135.34 133 -134.68 133 -134 133 C-134.680625 132.278125 -135.36125 131.55625 -136.0625 130.8125 C-138 128 -138 128 -137.8125 125.375 C-137.4103125 124.199375 -137.4103125 124.199375 -137 123 C-136.67 122.01 -136.34 121.02 -136 120 C-132.28111761 120.50712033 -129.26545761 121.11608215 -126 123 C-125.21625 122.01 -124.4325 121.02 -123.625 120 C-122.75875 119.01 -121.8925 118.02 -121 117 C-120.34 117 -119.68 117 -119 117 C-119 117.66 -119 118.32 -119 119 C-117.68 119 -116.36 119 -115 119 C-115 121.64 -115 124.28 -115 127 C-107.97055629 123.24893026 -102.35169951 118.76754111 -96.53125 113.34765625 C-88.32637021 105.73788348 -88.32637021 105.73788348 -82.5625 105.6875 C-81.386875 105.790625 -80.21125 105.89375 -79 106 C-79 105.01 -79 104.02 -79 103 C-77.35 103 -75.7 103 -74 103 C-73.505 101.515 -73.505 101.515 -73 100 C-69.14896699 100.53675903 -67.68202413 102.11600923 -65.25 105.0625 C-64.63640625 105.79597656 -64.0228125 106.52945313 -63.390625 107.28515625 C-62.93171875 107.85105469 -62.4728125 108.41695313 -62 109 C-61.21625 108.360625 -60.4325 107.72125 -59.625 107.0625 C-55.77510379 104.03758155 -53.85148682 103.8945329 -49 104 C-49 105.32 -49 106.64 -49 108 C-47.68 108 -46.36 108 -45 108 C-45.47911111 113.03066666 -47.11516045 115.90538903 -50 120 C-50 120.66 -50 121.32 -50 122 C-38.7865667 128.80073964 -29.75045344 129.27852932 -17 129 C-17.66 127.02 -18.32 125.04 -19 123 C-18.34 123 -17.68 123 -17 123 C-17 121.68 -17 120.36 -17 119 C-10.25 118.875 -10.25 118.875 -8 120 C-7.814375 118.8553125 -7.814375 118.8553125 -7.625 117.6875 C-7 115 -7 115 -5 112 C-2 111.625 -2 111.625 1 112 C2.9451 114.91765 3.45276317 116.62537285 4 120 C5.21418059 118.98612839 6.42097015 117.96340558 7.625 116.9375 C8.29789063 116.36902344 8.97078125 115.80054688 9.6640625 115.21484375 C15.26228954 109.90682581 19.37911704 104.12147945 23.1875 97.4375 C23.61224609 96.70853516 24.03699219 95.97957031 24.47460938 95.22851562 C25.67000342 93.16306806 26.83814998 91.08444963 28 89 C28.59425781 87.95972656 29.18851563 86.91945313 29.80078125 85.84765625 C31.63655978 81.48842971 31.39917389 78.23772757 29.95288086 73.75317383 C29.21630249 71.99783325 29.21630249 71.99783325 28.46484375 70.20703125 C28.19456863 69.55523895 27.92429352 68.90344666 27.64582825 68.23190308 C26.75335978 66.08762606 25.84568919 63.95016053 24.9375 61.8125 C24.31009123 60.31453593 23.68347645 58.81623908 23.05761719 57.31762695 C21.05590439 52.53761111 19.03073368 47.76774749 17 43 C16.65342346 42.18591675 16.30684692 41.3718335 15.94976807 40.53308105 C12.91288824 33.40365837 9.86787571 26.27775409 6.80053711 19.16137695 C6.49371506 18.44950226 6.18689301 17.73762756 5.87077332 17.00418091 C5.29986129 15.6806195 4.72830703 14.35733484 4.15596008 13.03439331 C3.43249554 11.35833075 2.71598339 9.679272 2 8 C1.60844727 7.09354736 1.21689453 6.18709473 0.81347656 5.25317383 C0 3 0 3 0 0 Z " fill="#FECBC9" transform="translate(211,226)"/>
<path d="M0 0 C12.10365114 5.12912571 21.29484326 22.64083429 26.4375 34.25 C29.52131972 41.95083795 31.88702617 49.76399362 33 58 C35.31 57.67 37.62 57.34 40 57 C40.12375 57.639375 40.2475 58.27875 40.375 58.9375 C40.58125 59.618125 40.7875 60.29875 41 61 C41.99 61.495 41.99 61.495 43 62 C42.56802365 66.7517398 41.67230705 68.92000054 38 72 C39.08231478 74.52540116 40.06855624 76.06647878 42.0625 78 C44.07607222 80.07852616 44.59824094 81.18768658 45 84 C44.01 84.495 44.01 84.495 43 85 C42.34786708 87.02463255 42.34786708 87.02463255 42 89 C40.7625 89.04125 39.525 89.0825 38.25 89.125 C37.55390625 89.14820312 36.8578125 89.17140625 36.140625 89.1953125 C34 89 34 89 30 87 C29.34 93.6 28.68 100.2 28 107 C30.97 107 33.94 107 37 107 C39.96875 107.62109375 39.96875 107.62109375 42.5 108.4375 C50.69014522 110.85239678 58.49703006 111.15976353 67 111 C66.505 110.401875 66.01 109.80375 65.5 109.1875 C64 107 64 107 64 104 C64.66 103.67 65.32 103.34 66 103 C66.495 101.515 66.495 101.515 67 100 C70.55780196 100.60990891 73.6828589 101.5783681 77 103 C78.32 101.35 79.64 99.7 81 98 C83.38564077 98.57584432 85.66682784 99.22227595 88 100 C88.125 106.625 88.125 106.625 87 110 C94.03793163 108.91724129 98.69393646 105.78228824 104.4609375 101.6796875 C107 100 107 100 109 100 C109 99.34 109 98.68 109 98 C107.515 97.505 107.515 97.505 106 97 C106.33 95.02 106.66 93.04 107 91 C108.98 91 110.96 91 113 91 C113.309375 90.195625 113.61875 89.39125 113.9375 88.5625 C115 86 115 86 116 85 C117.66617115 84.95936168 119.33388095 84.957279 121 85 C121.495 88.465 121.495 88.465 122 92 C122.66 91.67 123.32 91.34 124 91 C125.99960012 90.960008 128.00047242 90.95653201 130 91 C130.33 92.65 130.66 94.3 131 96 C130.154375 96.515625 129.30875 97.03125 128.4375 97.5625 C127.2309375 98.7690625 127.2309375 98.7690625 126 100 C126.0636079 103.70054409 126.0636079 103.70054409 127 107 C126.34 107 125.68 107 125 107 C125 107.66 125 108.32 125 109 C122.08482708 107.92598892 120.22189824 107.22189824 118 105 C117.38125 105.66 116.7625 106.32 116.125 107 C114 109 114 109 112 109 C112 108.34 112 107.68 112 107 C105.9058417 108.37118562 102.44371454 111.89529049 98 116 C93.23589438 119.93556551 91.22478937 121.13532151 85 121 C85 123.64 85 126.28 85 129 C81.535 129.99 81.535 129.99 78 131 C76.10786631 128.61426621 74.97608217 126.92824652 74 124 C69.05 124.495 69.05 124.495 64 125 C63.67 123.68 63.34 122.36 63 121 C53.6388252 115.74047202 41.16418763 117.74072012 31 119 C30.67 121.64 30.34 124.28 30 127 C31.11375 127.103125 32.2275 127.20625 33.375 127.3125 C34.57125 127.539375 35.7675 127.76625 37 128 C39 131 39 131 38.625 133.6875 C38.41875 134.450625 38.2125 135.21375 38 136 C35.36 136.33 32.72 136.66 30 137 C30.12375 138.299375 30.2475 139.59875 30.375 140.9375 C30.35610879 146.99213139 27.5836772 150.34656841 24 155 C23.38511719 155.87785156 22.77023438 156.75570312 22.13671875 157.66015625 C17.5387948 164.21150681 12.46991531 170.1628913 7 176 C6.67 175.34 6.34 174.68 6 174 C3.13275314 174.57344937 2.1385485 174.8614515 0 177 C-2.625 176.625 -2.625 176.625 -5 176 C-3.68531542 172.97943201 -2.45925222 171.36956856 0.1875 169.4375 C8.55045625 162.49728734 12.77129687 151.74305594 17 142 C14.69 142.33 12.38 142.66 10 143 C8.67210031 140.8128711 7.95247314 139.52279544 8.1875 136.9375 C9.10800602 134.74244718 10.21596223 133.55133719 12 132 C11.71125 131.443125 11.4225 130.88625 11.125 130.3125 C9.9586747 127.91505355 8.9660119 125.48403061 8 123 C8.99 122.505 8.99 122.505 10 122 C10.33 121.01 10.66 120.02 11 119 C12.98 119.33 14.96 119.66 17 120 C17.66 111.42 18.32 102.84 19 94 C17.02 94.495 17.02 94.495 15 95 C13.73762269 92.47524538 13.90143596 90.68799534 13.9375 87.875 C13.94652344 86.96492188 13.95554688 86.05484375 13.96484375 85.1171875 C13.97644531 84.41851562 13.98804688 83.71984375 14 83 C12.95199219 82.83564453 12.95199219 82.83564453 11.8828125 82.66796875 C10.51769531 82.43013672 10.51769531 82.43013672 9.125 82.1875 C7.76761719 81.96126953 7.76761719 81.96126953 6.3828125 81.73046875 C4 81 4 81 2 78 C1.60986284 76.0103005 1.26797351 74.00980131 1 72 C5.51350747 68.47726246 8.28341664 67.54267333 14 68 C13.505 67.01 13.505 67.01 13 66 C11.71312989 62.13938967 11.86242382 59.05849717 12 55 C12.804375 54.87625 13.60875 54.7525 14.4375 54.625 C15.283125 54.41875 16.12875 54.2125 17 54 C17.33 53.34 17.66 52.68 18 52 C19.65 52.66 21.3 53.32 23 54 C22.58275165 47.23934181 21.4745364 41.32634166 19.0625 35 C18.60931396 33.79102051 18.60931396 33.79102051 18.14697266 32.55761719 C13.60394853 20.90662964 7.4002923 10.06018384 0 0 Z " fill="#FBCAC8" transform="translate(148,17)"/>
<path d="M0 0 C0.99 1.32 1.98 2.64 3 4 C2.67 4.61875 2.34 5.2375 2 5.875 C0.85806765 7.91018344 0.85806765 7.91018344 1 10 C2.65 9.67 4.3 9.34 6 9 C6.33 10.32 6.66 11.64 7 13 C7.66 13 8.32 13 9 13 C8.99476318 13.93046143 8.98952637 14.86092285 8.98413086 15.81958008 C8.83360844 40.92654542 8.83360844 40.92654542 10 66 C14.23467561 65.48084506 16.90177926 62.8837569 20 60.1875 C20.5667041 59.70047607 21.1334082 59.21345215 21.71728516 58.71166992 C29.93463022 51.5559885 37.64598143 43.83533533 44.6953125 35.5234375 C45.74271981 34.30041699 46.86139532 33.13860468 48 32 C51.2578125 31.8046875 51.2578125 31.8046875 55.125 31.875 C57.04699219 31.90207031 57.04699219 31.90207031 59.0078125 31.9296875 C60.48894531 31.96449219 60.48894531 31.96449219 62 32 C55.59471219 38.61879741 48.68798797 44.68507336 41.5 50.4375 C35.93277453 54.93257791 30.96033744 59.84598344 26 65 C29.0312365 69.78539032 32.44688377 74.00272813 36.1875 78.25 C37.05133301 79.23842896 37.05133301 79.23842896 37.93261719 80.24682617 C42.57146868 85.54347354 47.26990526 90.78476733 52 96 C54.35239276 98.62295551 56.70401454 101.24659688 59.0546875 103.87109375 C60.9224002 105.96746772 60.9224002 105.96746772 62.7578125 107.66015625 C64 109 64 109 64 111 C49.11625368 112.91572972 49.11625368 112.91572972 44.21289062 109.90136719 C40.97656847 106.9419167 38.55490622 103.38210072 36.15869141 99.73095703 C34.47911858 97.22186067 32.56183375 94.93873112 30.625 92.625 C29.9134375 91.75359375 29.201875 90.8821875 28.46875 89.984375 C25.38392851 86.25525535 22.26849836 82.55474732 19.125 78.875 C18.56506348 78.21064941 18.00512695 77.54629883 17.42822266 76.86181641 C16.63230713 75.9363501 16.63230713 75.9363501 15.8203125 74.9921875 C15.34867676 74.43901855 14.87704102 73.88584961 14.39111328 73.31591797 C12.91988956 71.73873789 12.91988956 71.73873789 10 71 C10 84.53 10 98.06 10 112 C5.05 112 0.1 112 -5 112 C-4.89083691 101.96647293 -4.77842156 91.93299561 -4.66066074 81.8995657 C-4.60607063 77.23799451 -4.55277157 72.57641685 -4.50268555 67.91479492 C-4.11818744 32.32938181 -4.11818744 32.32938181 -3.65234375 18.47265625 C-3.63200577 17.61006699 -3.61166779 16.74747772 -3.5907135 15.85874939 C-3.35696633 10.16623116 -2.05442629 5.30616657 0 0 Z " fill="#4E4F50" transform="translate(142,194)"/>
<path d="M0 0 C4.95 0 9.9 0 15 0 C15.3717334 1.02544922 15.7434668 2.05089844 16.12646484 3.10742188 C23.32199311 22.92838862 30.58818302 42.65577246 39 62 C41.36431218 59.63568782 42.14716225 57.60345333 43.43359375 54.515625 C43.91272217 53.36610352 44.39185059 52.21658203 44.88549805 51.03222656 C45.40329664 49.77167512 45.92061916 48.51092804 46.4375 47.25 C46.69923004 46.6163855 46.96096008 45.982771 47.23062134 45.32995605 C52.00362693 33.76195481 56.38966745 22.06617977 60.60913086 10.28613281 C61.25700562 8.48160645 61.25700562 8.48160645 61.91796875 6.640625 C62.29719482 5.57360352 62.6764209 4.50658203 63.06713867 3.40722656 C64 1 64 1 65 0 C66.68608966 -0.07205511 68.37500659 -0.08386068 70.0625 -0.0625 C70.98160156 -0.05347656 71.90070313 -0.04445312 72.84765625 -0.03515625 C73.55792969 -0.02355469 74.26820313 -0.01195312 75 0 C73.00273824 6.59900048 70.37193154 12.64405496 67.3125 18.8125 C62.63311823 28.40949832 58.2344897 38.10953458 53.9230957 47.87597656 C38.59752244 82.58966731 38.59752244 82.58966731 29.4375 99.0625 C28.91905518 100.00327393 28.40061035 100.94404785 27.86645508 101.91333008 C17.8598981 119.55692396 17.8598981 119.55692396 11 122 C7.75 121.625 7.75 121.625 5 121 C5.845625 120.01 6.69125 119.02 7.5625 118 C8.11550781 117.34773438 8.66851562 116.69546875 9.23828125 116.0234375 C10.32875981 114.77095879 11.4468008 113.54124103 12.60546875 112.3515625 C19.09728482 105.53592662 23.46843438 97.18405704 28 89 C28.88945312 87.44152344 28.88945312 87.44152344 29.796875 85.8515625 C31.63693713 81.49037629 31.40024088 78.24103602 29.95288086 73.75317383 C29.46182861 72.58294678 28.97077637 71.41271973 28.46484375 70.20703125 C28.19456863 69.55523895 27.92429352 68.90344666 27.64582825 68.23190308 C26.75335978 66.08762606 25.84568919 63.95016053 24.9375 61.8125 C24.31009123 60.31453593 23.68347645 58.81623908 23.05761719 57.31762695 C21.05590439 52.53761111 19.03073368 47.76774749 17 43 C16.65342346 42.18591675 16.30684692 41.3718335 15.94976807 40.53308105 C12.91288824 33.40365837 9.86787571 26.27775409 6.80053711 19.16137695 C6.49371506 18.44950226 6.18689301 17.73762756 5.87077332 17.00418091 C5.29986129 15.6806195 4.72830703 14.35733484 4.15596008 13.03439331 C3.43249554 11.35833075 2.71598339 9.679272 2 8 C1.4126709 6.64032104 1.4126709 6.64032104 0.81347656 5.25317383 C0 3 0 3 0 0 Z " fill="#4E4F50" transform="translate(211,226)"/>
<path d="M0 0 C12.10365114 5.12912571 21.29484326 22.64083429 26.4375 34.25 C29.52131972 41.95083795 31.88702617 49.76399362 33 58 C35.31 57.67 37.62 57.34 40 57 C40.12375 57.639375 40.2475 58.27875 40.375 58.9375 C40.58125 59.618125 40.7875 60.29875 41 61 C41.99 61.495 41.99 61.495 43 62 C42.56802365 66.7517398 41.67230705 68.92000054 38 72 C39.08231478 74.52540116 40.06855624 76.06647878 42.0625 78 C44.07607222 80.07852616 44.59824094 81.18768658 45 84 C44.01 84.495 44.01 84.495 43 85 C42.34786708 87.02463255 42.34786708 87.02463255 42 89 C33.42857143 89.28571429 33.42857143 89.28571429 30 87 C29.67 89.64 29.34 92.28 29 95 C28.34 94.01 27.68 93.02 27 92 C25.35 93.65 23.7 95.3 22 97 C21.34 96.34 20.68 95.68 20 95 C17.41645782 94.83312552 17.41645782 94.83312552 15 95 C13.73762269 92.47524538 13.90143596 90.68799534 13.9375 87.875 C13.94652344 86.96492188 13.95554688 86.05484375 13.96484375 85.1171875 C13.97644531 84.41851562 13.98804688 83.71984375 14 83 C13.30132812 82.89042969 12.60265625 82.78085938 11.8828125 82.66796875 C10.51769531 82.43013672 10.51769531 82.43013672 9.125 82.1875 C7.76761719 81.96126953 7.76761719 81.96126953 6.3828125 81.73046875 C4 81 4 81 2 78 C1.60986284 76.0103005 1.26797351 74.00980131 1 72 C5.51350747 68.47726246 8.28341664 67.54267333 14 68 C13.67 67.34 13.34 66.68 13 66 C11.71312989 62.13938967 11.86242382 59.05849717 12 55 C12.804375 54.87625 13.60875 54.7525 14.4375 54.625 C15.283125 54.41875 16.12875 54.2125 17 54 C17.33 53.34 17.66 52.68 18 52 C19.65 52.66 21.3 53.32 23 54 C22.58275165 47.23934181 21.4745364 41.32634166 19.0625 35 C18.60931396 33.79102051 18.60931396 33.79102051 18.14697266 32.55761719 C13.60394853 20.90662964 7.4002923 10.06018384 0 0 Z " fill="#FBC9C7" transform="translate(148,17)"/>
<path d="M0 0 C1.2065625 0.0309375 1.2065625 0.0309375 2.4375 0.0625 C2.9325 3.5275 2.9325 3.5275 3.4375 7.0625 C4.0975 6.7325 4.7575 6.4025 5.4375 6.0625 C7.43710012 6.022508 9.43797242 6.01903201 11.4375 6.0625 C11.9325 8.5375 11.9325 8.5375 12.4375 11.0625 C11.591875 11.578125 10.74625 12.09375 9.875 12.625 C9.070625 13.429375 8.26625 14.23375 7.4375 15.0625 C7.5011079 18.76304409 7.5011079 18.76304409 8.4375 22.0625 C7.7775 22.0625 7.1175 22.0625 6.4375 22.0625 C6.4375 22.7225 6.4375 23.3825 6.4375 24.0625 C3.52232708 22.98848892 1.65939824 22.28439824 -0.5625 20.0625 C-1.18125 20.7225 -1.8 21.3825 -2.4375 22.0625 C-4.5625 24.0625 -4.5625 24.0625 -6.5625 24.0625 C-6.5625 23.4025 -6.5625 22.7425 -6.5625 22.0625 C-12.6566583 23.43368562 -16.11878546 26.95779049 -20.5625 31.0625 C-25.32660562 34.99806551 -27.33771063 36.19782151 -33.5625 36.0625 C-33.5625 38.7025 -33.5625 41.3425 -33.5625 44.0625 C-35.8725 44.7225 -38.1825 45.3825 -40.5625 46.0625 C-42.45463369 43.67676621 -43.58641783 41.99074652 -44.5625 39.0625 C-49.5125 39.5575 -49.5125 39.5575 -54.5625 40.0625 C-54.8925 38.7425 -55.2225 37.4225 -55.5625 36.0625 C-57.2125 35.7325 -58.8625 35.4025 -60.5625 35.0625 C-59.985 34.815 -59.4075 34.5675 -58.8125 34.3125 C-56.2622003 32.89566683 -54.54464299 31.18622463 -52.5625 29.0625 C-53.5525 28.4025 -54.5425 27.7425 -55.5625 27.0625 C-54.2425 26.7325 -52.9225 26.4025 -51.5625 26.0625 C-52.0575 25.464375 -52.5525 24.86625 -53.0625 24.25 C-54.5625 22.0625 -54.5625 22.0625 -54.5625 19.0625 C-53.9025 18.7325 -53.2425 18.4025 -52.5625 18.0625 C-52.2325 17.0725 -51.9025 16.0825 -51.5625 15.0625 C-48.00469804 15.67240891 -44.8796411 16.6408681 -41.5625 18.0625 C-40.2425 16.4125 -38.9225 14.7625 -37.5625 13.0625 C-35.17685923 13.63834432 -32.89567216 14.28477595 -30.5625 15.0625 C-30.4375 21.6875 -30.4375 21.6875 -31.5625 25.0625 C-24.52456837 23.97974129 -19.86856354 20.84478824 -14.1015625 16.7421875 C-11.5625 15.0625 -11.5625 15.0625 -9.5625 15.0625 C-9.5625 14.4025 -9.5625 13.7425 -9.5625 13.0625 C-10.5525 12.7325 -11.5425 12.4025 -12.5625 12.0625 C-12.2325 10.0825 -11.9025 8.1025 -11.5625 6.0625 C-9.5825 6.0625 -7.6025 6.0625 -5.5625 6.0625 C-5.253125 5.258125 -4.94375 4.45375 -4.625 3.625 C-3.15384615 0.07692308 -3.15384615 0.07692308 0 0 Z " fill="#FCCAC8" transform="translate(266.5625,101.9375)"/>
<path d="M0 0 C3 -0.375 3 -0.375 6 0 C7.9451 2.91765 8.45276317 4.62537285 9 8 C13.455 8.99 13.455 8.99 18 10 C18.25 12.8125 18.25 12.8125 18 16 C16.1875 17.875 16.1875 17.875 14 19 C13.01 19 12.02 19 11 19 C11.495 20.0828125 11.495 20.0828125 12 21.1875 C13.00603529 24.01697427 13.16977402 26.02895466 13 29 C10.8128711 30.32789969 9.52279544 31.04752686 6.9375 30.8125 C4.74244718 29.89199398 3.55133719 28.78403777 2 27 C1.443125 27.309375 0.88625 27.61875 0.3125 27.9375 C-2.12540433 29.05761821 -4.36224186 29.56037364 -7 30 C-7.495 29.01 -7.495 29.01 -8 28 C-9.95679688 27.96132813 -9.95679688 27.96132813 -11.953125 27.921875 C-21.98631799 27.62909621 -30.69393073 27.06667661 -40 23 C-39.62875 22.443125 -39.2575 21.88625 -38.875 21.3125 C-37.70484137 18.94283647 -37.70484137 18.94283647 -38.875 16.25 C-39.24625 15.5075 -39.6175 14.765 -40 14 C-38.9790625 14.32484375 -38.9790625 14.32484375 -37.9375 14.65625 C-29.14286595 17.18236829 -21.04988097 17.31008475 -12 17 C-12.66 15.02 -13.32 13.04 -14 11 C-13.34 11 -12.68 11 -12 11 C-12 9.68 -12 8.36 -12 7 C-5.25 6.875 -5.25 6.875 -3 8 C-2.814375 6.8553125 -2.814375 6.8553125 -2.625 5.6875 C-2 3 -2 3 0 0 Z " fill="#FCCAC8" transform="translate(206,338)"/>
<path d="M0 0 C0.66 3.63 1.32 7.26 2 11 C0.68 10.67 -0.64 10.34 -2 10 C-9.25106504 8.96413357 -14.02532868 12.37924646 -20 16 C-20.79664063 16.45246094 -21.59328125 16.90492188 -22.4140625 17.37109375 C-27.30293343 20.17260101 -27.30293343 20.17260101 -30 25 C-29.67 25.99 -29.34 26.98 -29 28 C-29.3125 30.625 -29.3125 30.625 -30 33 C-32.70879335 34.35439668 -35.00933268 34.06501451 -38 34 C-37.979375 35.11375 -37.95875 36.2275 -37.9375 37.375 C-38 41 -38 41 -39 43 C-41.32156597 43.40729228 -43.6568787 43.74438677 -46 44 C-49 38.25 -49 38.25 -49 36 C-49.721875 36.33 -50.44375 36.66 -51.1875 37 C-54.01697427 38.00603529 -56.02895466 38.16977402 -59 38 C-60.32789969 35.8128711 -61.04752686 34.52279544 -60.8125 31.9375 C-59.87605999 29.70445074 -58.88552944 28.50842356 -57 27 C-56.34 27 -55.68 27 -55 27 C-55.680625 26.278125 -56.36125 25.55625 -57.0625 24.8125 C-59 22 -59 22 -58.8125 19.375 C-58.544375 18.59125 -58.27625 17.8075 -58 17 C-57.67 16.01 -57.34 15.02 -57 14 C-53.28111761 14.50712033 -50.26545761 15.11608215 -47 17 C-46.21625 16.01 -45.4325 15.02 -44.625 14 C-43.325625 12.515 -43.325625 12.515 -42 11 C-41.34 11 -40.68 11 -40 11 C-40 11.66 -40 12.32 -40 13 C-38.68 13 -37.36 13 -36 13 C-36 15.64 -36 18.28 -36 21 C-28.97055629 17.24893026 -23.35169951 12.76754111 -17.53125 7.34765625 C-11.72295951 1.96064609 -8.10533668 -0.71099445 0 0 Z " fill="#FECCCA" transform="translate(132,332)"/>
<path d="M0 0 C1.32 0.33 2.64 0.66 4 1 C4.33 3.97 4.66 6.94 5 10 C7.64 9.67 10.28 9.34 13 9 C13.99 10.98 14.98 12.96 16 15 C14.1875 17 14.1875 17 12 19 C11.01 19 10.02 19 9 19 C9.33 19.53625 9.66 20.0725 10 20.625 C11.22699204 23.5391061 11.14233286 25.86867708 11 29 C10.01 29 9.02 29 8 29 C8 29.66 8 30.32 8 31 C4.12867972 30.42647107 1.91827204 28.51295648 -1 26 C-1.226875 26.639375 -1.45375 27.27875 -1.6875 27.9375 C-3 30 -3 30 -5.625 30.75 C-6.40875 30.8325 -7.1925 30.915 -8 31 C-8 30.34 -8 29.68 -8 29 C-8.99 29 -9.98 29 -11 29 C-10.54177532 25.53058454 -10.10868317 22.32604951 -9 19 C-9.804375 18.731875 -10.60875 18.46375 -11.4375 18.1875 C-12.283125 17.795625 -13.12875 17.40375 -14 17 C-15.2077558 13.37673261 -14.54311128 12.35853631 -13 9 C-10.36 9.33 -7.72 9.66 -5 10 C-4.9175 9.0925 -4.835 8.185 -4.75 7.25 C-3.89872476 3.56114062 -3.06279477 2.18771055 0 0 Z " fill="#FECCCA" transform="translate(211,166)"/>
<path d="M0 0 C0.33 0 0.66 0 1 0 C1 5.61 1 11.22 1 17 C2.258125 16.938125 3.51625 16.87625 4.8125 16.8125 C8.42232178 16.8125 11.42267838 17.27518271 14.875 18.3125 C23.06258527 20.77228957 31.55942784 21.76671433 40 23 C36.45385742 27.64477539 36.45385742 27.64477539 35 29 C31.4956772 29.41576711 29.17878694 29.58939347 26 28 C18.62819576 27.60341559 11.31521969 28.0936896 4 29 C4 28.34 4 27.68 4 27 C0.62599422 26.58274322 0.62599422 26.58274322 -3 27 C-4.8624438 29.40858714 -4.8624438 29.40858714 -6 32 C-6.66 32 -7.32 32 -8 32 C-8 22.76 -8 13.52 -8 4 C-6.515 4.99 -6.515 4.99 -5 6 C-2.12579877 3.28395285 -2.12579877 3.28395285 0 0 Z " fill="#4E4E4F" transform="translate(175,107)"/>
<path d="M0 0 C1.2065625 0.0309375 1.2065625 0.0309375 2.4375 0.0625 C2.7675 2.3725 3.0975 4.6825 3.4375 7.0625 C4.0975 6.7325 4.7575 6.4025 5.4375 6.0625 C7.43710012 6.022508 9.43797242 6.01903201 11.4375 6.0625 C11.9325 8.5375 11.9325 8.5375 12.4375 11.0625 C11.591875 11.578125 10.74625 12.09375 9.875 12.625 C9.070625 13.429375 8.26625 14.23375 7.4375 15.0625 C7.5011079 18.76304409 7.5011079 18.76304409 8.4375 22.0625 C7.7775 22.0625 7.1175 22.0625 6.4375 22.0625 C6.4375 22.7225 6.4375 23.3825 6.4375 24.0625 C3.52232708 22.98848892 1.65939824 22.28439824 -0.5625 20.0625 C-1.18125 20.7225 -1.8 21.3825 -2.4375 22.0625 C-4.5625 24.0625 -4.5625 24.0625 -6.5625 24.0625 C-6.5625 23.4025 -6.5625 22.7425 -6.5625 22.0625 C-11.88226129 23.25944629 -14.81882997 25.82011991 -18.6328125 29.50390625 C-20.65353479 31.1360281 -22.02630629 31.65107302 -24.5625 32.0625 C-25.15982819 29.29985711 -25.5625 26.90217231 -25.5625 24.0625 C-23.29719504 22.35021335 -21.09742555 20.8534964 -18.6875 19.375 C-18.03652344 18.95927734 -17.38554687 18.54355469 -16.71484375 18.11523438 C-11.85252463 15.0625 -11.85252463 15.0625 -9.5625 15.0625 C-9.5625 14.4025 -9.5625 13.7425 -9.5625 13.0625 C-10.5525 12.7325 -11.5425 12.4025 -12.5625 12.0625 C-12.2325 10.0825 -11.9025 8.1025 -11.5625 6.0625 C-9.5825 6.0625 -7.6025 6.0625 -5.5625 6.0625 C-5.253125 5.258125 -4.94375 4.45375 -4.625 3.625 C-3.15384615 0.07692308 -3.15384615 0.07692308 0 0 Z " fill="#FDCCCA" transform="translate(266.5625,101.9375)"/>
<path d="M0 0 C0.66 0 1.32 0 2 0 C2.4125 0.969375 2.825 1.93875 3.25 2.9375 C4.64899168 6.12260099 4.64899168 6.12260099 7.1875 6.875 C7.785625 6.91625 8.38375 6.9575 9 7 C7.6810276 17.99820066 -3.61463904 28.30627324 -11 36 C-11.33 35.34 -11.66 34.68 -12 34 C-14.86724686 34.57344937 -15.8614515 34.8614515 -18 37 C-20.625 36.625 -20.625 36.625 -23 36 C-21.68531542 32.97943201 -20.45925222 31.36956856 -17.8125 29.4375 C-8.91626003 22.03317605 -4.59369017 10.34627483 0 0 Z " fill="#515152" transform="translate(166,157)"/>
<path d="M0 0 C0.33 0.66 0.66 1.32 1 2 C3.52733235 2.65555119 3.52733235 2.65555119 6 3 C6.55059241 9.60710891 5.87885895 14.50992271 2 20 C-0.50665877 22.82943401 -2.86619809 24.73004716 -6.625 25.625 C-9 25 -9 25 -11.3125 22.9375 C-13.46432966 19.19172244 -13.5799099 17.27683548 -13 13 C-10.7285842 6.62303051 -7.36542629 0 0 0 Z " fill="#F14641" transform="translate(242,76)"/>
<path d="M0 0 C0.33333333 1.66666667 0.66666667 3.33333333 1 5 C1.66 5.33 2.32 5.66 3 6 C2.75006984 9.37405722 1.76721161 10.2222071 -0.75 12.625 C-5.87919546 16.55657671 -10.25192624 17.46599878 -16.6796875 17.3125 C-19 17 -19 17 -21.6875 15.375 C-23 13 -23 13 -23.1875 10.125 C-21.5164612 5.72752948 -18.91915163 3.50888036 -15 1 C-10.23266936 -0.84002235 -4.80680706 -2.40340353 0 0 Z " fill="#F14641" transform="translate(316,73)"/>
<path d="M0 0 C13.29799916 5.63525076 22.66366553 25.09433732 27.84375 37.87890625 C28.2253125 38.90886719 28.606875 39.93882813 29 41 C29.37898438 41.98097656 29.75796875 42.96195313 30.1484375 43.97265625 C31.11390778 47.40494739 31.1976198 50.31662982 31.125 53.875 C31.10695312 55.02742188 31.08890625 56.17984375 31.0703125 57.3671875 C31.04710937 58.23601562 31.02390625 59.10484375 31 60 C29.68 60.66 28.36 61.32 27 62 C24.83242537 58.31132036 24.12387956 54.38254761 23.25 50.25 C19.07167036 31.83023424 11.21739532 15.21646674 0 0 Z " fill="#525354" transform="translate(148,17)"/>
<path d="M0 0 C4.44296417 2.22148208 6.51002029 4.73146336 9 9 C10.40214691 13.20644072 10.50764822 17.07093675 9.375 21.375 C8 23 8 23 5.3125 24.125 C1.04642642 23.96401609 -0.51957688 22.56468063 -3.51953125 19.6640625 C-7.89915202 14.74132253 -7.21826139 9.24470075 -7 3 C-4.50907189 1.75453595 -3.58919267 2.2232422 -1 3 C-0.67 2.01 -0.34 1.02 0 0 Z " fill="#FFCDCB" transform="translate(297,127)"/>
<path d="M0 0 C0.93392578 0.30744141 0.93392578 0.30744141 1.88671875 0.62109375 C12.12547648 3.60561309 22.40015717 3.71217655 33 4 C31.68 6.97 30.36 9.94 29 13 C18.53161189 13.44651892 9.8178585 13.23738016 0 9 C0.37125 8.443125 0.7425 7.88625 1.125 7.3125 C2.29515863 4.94283647 2.29515863 4.94283647 1.125 2.25 C0.75375 1.5075 0.3825 0.765 0 0 Z " fill="#4F5051" transform="translate(166,352)"/>
<path d="M0 0 C0.33 0.66 0.66 1.32 1 2 C2.423125 1.690625 2.423125 1.690625 3.875 1.375 C4.90625 1.25125 5.9375 1.1275 7 1 C7.66 1.66 8.32 2.32 9 3 C8.66666667 5 8.33333333 7 8 9 C8.66 9.66 9.32 10.32 10 11 C9.625 13.625 9.625 13.625 9 16 C7.02 16 5.04 16 3 16 C2.34 17.32 1.68 18.64 1 20 C-0.65 19.67 -2.3 19.34 -4 19 C-4 17.02 -4 15.04 -4 13 C-5.98 13 -7.96 13 -10 13 C-10 11.35 -10 9.7 -10 8 C-8.35 7.67 -6.7 7.34 -5 7 C-5.33 4.69 -5.66 2.38 -6 0 C-3 -1 -3 -1 0 0 Z " fill="#E94743" transform="translate(145,339)"/>
<path d="M0 0 C6.27308929 -0.44807781 10.77307092 0.33133382 16 4 C18.30163882 7.45245824 18.34490322 8.94738713 18 13 C15.43599223 15.56400777 14.31217985 15.32633634 10.75 15.375 C4.30505901 15.27363789 1.51860663 13.51860663 -3 9 C-2.56237193 5.82719649 -1.22638495 2.94332389 0 0 Z " fill="#FFCDCB" transform="translate(98,314)"/>
<path d="M0 0 C1.8871875 0.061875 1.8871875 0.061875 3.8125 0.125 C4.4725 3.755 5.1325 7.385 5.8125 11.125 C4.4925 10.795 3.1725 10.465 1.8125 10.125 C-8.54180669 8.64581333 -17.58078638 16.91685243 -25.4609375 22.68359375 C-28.1875 24.125 -28.1875 24.125 -31.0390625 23.84765625 C-32.10253906 23.48994141 -32.10253906 23.48994141 -33.1875 23.125 C-29.67121405 20.27603839 -26.08296726 17.55605793 -22.4375 14.875 C-17.74866387 11.37716293 -13.32732153 7.71757292 -9.02734375 3.75390625 C-5.94523601 1.02516118 -4.07465528 -0.13359526 0 0 Z " fill="#555556" transform="translate(128.1875,331.875)"/>
<path d="M0 0 C1.65 0 3.3 0 5 0 C5.33 0.99 5.66 1.98 6 3 C7.98 2.67 9.96 2.34 12 2 C12.66 3.32 13.32 4.64 14 6 C13.01 7.485 13.01 7.485 12 9 C12.66 9.66 13.32 10.32 14 11 C13.625 13.625 13.625 13.625 13 16 C10.03 15.505 10.03 15.505 7 15 C6.34 16.32 5.68 17.64 5 19 C3.68 18.67 2.36 18.34 1 18 C1 16.35 1 14.7 1 13 C-0.65 12.67 -2.3 12.34 -4 12 C-4.33 10.68 -4.66 9.36 -5 8 C-4.175 7.608125 -3.35 7.21625 -2.5 6.8125 C-1.675 6.214375 -0.85 5.61625 0 5 C0.41780879 2.37305578 0.41780879 2.37305578 0 0 Z " fill="#E84944" transform="translate(166,82)"/>
<path d="M0 0 C6.34886348 0.25913728 9.6688614 2.38745974 14 7 C15.49106457 9.98212913 15.11941467 12.71609658 15 16 C14 17 14 17 10.8125 17.3125 C5.21050626 16.85332019 2.41924716 14.49394438 -1.375 10.5 C-3 8 -3 8 -3 4 C-2.01 4 -1.02 4 0 4 C0 2.68 0 1.36 0 0 Z " fill="#FFCDCB" transform="translate(173,25)"/>
<path d="M0 0 C0.598125 0.309375 1.19625 0.61875 1.8125 0.9375 C4.08956772 2.10209704 4.08956772 2.10209704 7 3 C7.31464883 8.24414718 6.83856733 11.53939419 4 16 C1.47901573 18.60791476 0.41998632 18.97577002 -3.25 19.1875 C-4.61125 19.0946875 -4.61125 19.0946875 -6 19 C-7.73459436 15.53081128 -7.47173877 11.79303468 -7 8 C-4.9949912 4.1973971 -3.57313738 2.38209159 0 0 Z " fill="#F14641" transform="translate(135,166)"/>
<path d="M0 0 C1.32 0.33 2.64 0.66 4 1 C4 2.32 4 3.64 4 5 C5.65 5 7.3 5 9 5 C9.33 6.32 9.66 7.64 10 9 C9.01 9.495 9.01 9.495 8 10 C8 11.98 8 13.96 8 16 C6.1875 16.625 6.1875 16.625 4 17 C3.01 16.34 2.02 15.68 1 15 C0.38125 15.350625 -0.2375 15.70125 -0.875 16.0625 C-1.926875 16.5265625 -1.926875 16.5265625 -3 17 C-3.66 16.67 -4.32 16.34 -5 16 C-4.67 14.02 -4.34 12.04 -4 10 C-4.99 9.67 -5.98 9.34 -7 9 C-7 7.68 -7 6.36 -7 5 C-5.02 5 -3.04 5 -1 5 C-0.67 3.35 -0.34 1.7 0 0 Z " fill="#FED4D2" transform="translate(376,209)"/>
<path d="M0 0 C3 0.5625 3 0.5625 5.4375 2.6875 C7 5.5625 7 5.5625 7 8.6875 C6 11.5625 6 11.5625 4.375 13.5 C0.92482276 15.04350034 -1.39999716 14.49583407 -5 13.5625 C-7.32749345 10.07125983 -7.50299316 8.67027749 -7 4.5625 C-4.88658096 1.47365679 -3.68753254 0.69141235 0 0 Z " fill="#F8DEDF" transform="translate(237,353.4375)"/>
<path d="M0 0 C1.65 0.33 3.3 0.66 5 1 C5 1.99 5 2.98 5 4 C6.65 3.67 8.3 3.34 10 3 C10.625 4.8125 10.625 4.8125 11 7 C10.01 8.485 10.01 8.485 9 10 C8.61500109 11.65549531 8.27206865 13.3222433 8 15 C7.236875 14.79375 6.47375 14.5875 5.6875 14.375 C2.78114056 13.66608797 2.78114056 13.66608797 0 16 C-3.08035356 12.91964644 -4.06916801 9.18874395 -5 5 C-3.35 4.67 -1.7 4.34 0 4 C0 2.68 0 1.36 0 0 Z " fill="#FECCCA" transform="translate(265,47)"/>
<path d="M0 0 C1.32 0 2.64 0 4 0 C4 1.65 4 3.3 4 5 C5.32 5.66 6.64 6.32 8 7 C7.67 7.99 7.34 8.98 7 10 C5.68 10 4.36 10 3 10 C3 11.65 3 13.3 3 15 C1.68 15.33 0.36 15.66 -1 16 C-1.33 14.68 -1.66 13.36 -2 12 C-3.65 12.33 -5.3 12.66 -7 13 C-7.625 11.1875 -7.625 11.1875 -8 9 C-7.34 8.01 -6.68 7.02 -6 6 C-6.66 4.68 -7.32 3.36 -8 2 C-3.25 1 -3.25 1 -1 1 C-0.67 0.67 -0.34 0.34 0 0 Z " fill="#F2BFBD" transform="translate(150,191)"/>
<path d="M0 0 C2.375 1.5625 2.375 1.5625 4 4 C3.9375 7.625 3.9375 7.625 3 11 C0 13 0 13 -3.5625 12.8125 C-7 12 -7 12 -9 9 C-8.8125 5.4375 -8.8125 5.4375 -8 2 C-4.75173326 -0.16551116 -3.76905843 -0.55156953 0 0 Z " fill="#F8DEDF" transform="translate(254,153)"/>
<path d="M0 0 C-1.07321307 7.20585921 -5.32282035 11.6171459 -11 16 C-14.296875 17.26171875 -14.296875 17.26171875 -17 18 C-17.59732819 15.23735711 -18 12.83967231 -18 10 C-16.56298828 8.74145508 -16.56298828 8.74145508 -14.5703125 7.51953125 C-13.85746094 7.07802734 -13.14460937 6.63652344 -12.41015625 6.18164062 C-11.65605469 5.72982422 -10.90195313 5.27800781 -10.125 4.8125 C-9.00544922 4.11737305 -9.00544922 4.11737305 -7.86328125 3.40820312 C-2.29169735 0 -2.29169735 0 0 0 Z " fill="#525253" transform="translate(259,116)"/>
<path d="M0 0 C0.99 0.33 1.98 0.66 3 1 C3.3721042 2.32303717 3.70630173 3.65737935 4 5 C4.66 5.33 5.32 5.66 6 6 C6 7.32 6 8.64 6 10 C4.68 10 3.36 10 2 10 C2 11.32 2 12.64 2 14 C0.35 13.67 -1.3 13.34 -3 13 C-3 12.34 -3 11.68 -3 11 C-4.65 11.33 -6.3 11.66 -8 12 C-7.8864371 10.35333797 -7.75882619 8.70763918 -7.625 7.0625 C-7.55539063 6.14597656 -7.48578125 5.22945312 -7.4140625 4.28515625 C-7.27742187 3.53105469 -7.14078125 2.77695313 -7 2 C-6.34 1.67 -5.68 1.34 -5 1 C-4.01 1.33 -3.02 1.66 -2 2 C-1.34 1.34 -0.68 0.68 0 0 Z " fill="#E74A46" transform="translate(227,124)"/>
<path d="M0 0 C1.32 0 2.64 0 4 0 C4.12375 0.804375 4.2475 1.60875 4.375 2.4375 C4.58125 3.283125 4.7875 4.12875 5 5 C5.66 5.33 6.32 5.66 7 6 C6.67 7.32 6.34 8.64 6 10 C5.01 10 4.02 10 3 10 C3 11.32 3 12.64 3 14 C1.35 13.67 -0.3 13.34 -2 13 C-2 12.34 -2 11.68 -2 11 C-3.65 10.67 -5.3 10.34 -7 10 C-6.67 7.36 -6.34 4.72 -6 2 C-4.68 2 -3.36 2 -2 2 C-1.34 1.34 -0.68 0.68 0 0 Z " fill="#E84B46" transform="translate(87,352)"/>
<path d="M0 0 C1.32 0 2.64 0 4 0 C4 1.65 4 3.3 4 5 C4.99 5 5.98 5 7 5 C7 6.32 7 7.64 7 9 C6.01 9 5.02 9 4 9 C4 10.32 4 11.64 4 13 C2.68 13.33 1.36 13.66 0 14 C-0.33 13.34 -0.66 12.68 -1 12 C-2.65 12 -4.3 12 -6 12 C-5.814375 11.071875 -5.62875 10.14375 -5.4375 9.1875 C-4.75876119 5.98656229 -4.75876119 5.98656229 -6 3 C-5.67 2.34 -5.34 1.68 -5 1 C-3.35 1.33 -1.7 1.66 0 2 C0 1.34 0 0.68 0 0 Z " fill="#E94D49" transform="translate(170,142)"/>
<path d="M0 0 C1.32 0.33 2.64 0.66 4 1 C4 1.99 4 2.98 4 4 C5.32 4.33 6.64 4.66 8 5 C8 5.99 8 6.98 8 8 C7.34 8.66 6.68 9.32 6 10 C6 10.99 6 11.98 6 13 C2.25 14.125 2.25 14.125 0 13 C-0.99 13.33 -1.98 13.66 -3 14 C-3.99 11.03 -4.98 8.06 -6 5 C-4.35 4.67 -2.7 4.34 -1 4 C-0.67 2.68 -0.34 1.36 0 0 Z " fill="#E94D48" transform="translate(207,346)"/>
<path d="M0 0 C3.04718178 0.33857575 4.7747603 0.83107022 7.25 2.6875 C9.37812753 5.49966852 9.77225595 7.50792451 10 11 C9.67 11.66 9.34 12.32 9 13 C5.5930002 13.38937141 4.23631702 13.15388085 1.3125 11.25 C-0.83439633 9.1611279 -2.0093253 7.79190143 -3 5 C-3 4.01 -3 3.02 -3 2 C-2.01 2 -1.02 2 0 2 C0 1.34 0 0.68 0 0 Z " fill="#F8A5A3" transform="translate(9,69)"/>
<path d="M0 0 C1.32 0 2.64 0 4 0 C4 0.99 4 1.98 4 3 C5.32 3 6.64 3 8 3 C8.33 3.99 8.66 4.98 9 6 C8.01 6.33 7.02 6.66 6 7 C6.33 8.65 6.66 10.3 7 12 C3.22888214 13.25703929 0.77111786 13.25703929 -3 12 C-2.67 10.35 -2.34 8.7 -2 7 C-2.99 6.67 -3.98 6.34 -5 6 C-4.67 5.01 -4.34 4.02 -4 3 C-2.68 3 -1.36 3 0 3 C0 2.01 0 1.02 0 0 Z " fill="#EF4A45" transform="translate(209,177)"/>
<path d="M0 0 C2.475 0.99 2.475 0.99 5 2 C5 2.99 5 3.98 5 5 C5.66 5.33 6.32 5.66 7 6 C7.625 8.5625 7.625 8.5625 8 11 C3.42458161 12.01675964 -0.45613293 12.29824773 -5 11 C-5 10.01 -5 9.02 -5 8 C-4.34 7.67 -3.68 7.34 -3 7 C-3 5.35 -3 3.7 -3 2 C-2.01 2 -1.02 2 0 2 C0 1.34 0 0.68 0 0 Z " fill="#FECCCA" transform="translate(252,331)"/>
<path d="M0 0 C3.125 0.25 3.125 0.25 5.0625 1.4375 C6.125 3.25 6.125 3.25 5.9375 5.8125 C5.125 8.25 5.125 8.25 3.125 10.25 C0.125 10.0625 0.125 10.0625 -2.875 9.25 C-4.875 6.25 -4.875 6.25 -4.5625 3.625 C-3.58556988 0.25015051 -3.59697395 0.31278034 0 0 Z " fill="#FDF6F6" transform="translate(180.875,376.75)"/>
<path d="M0 0 C1.65 0.33 3.3 0.66 5 1 C5 1.99 5 2.98 5 4 C6.65 4 8.3 4 10 4 C10.33 5.32 10.66 6.64 11 8 C9.02 8.66 7.04 9.32 5 10 C5.33 8.68 5.66 7.36 6 6 C3.525 5.01 3.525 5.01 1 4 C1 4.66 1 5.32 1 6 C0.01 6 -0.98 6 -2 6 C-1.67 7.65 -1.34 9.3 -1 11 C-1.99 11.495 -1.99 11.495 -3 12 C-5.62386487 8.93882432 -6 8.26826873 -6 4 C-4.35 4 -2.7 4 -1 4 C-0.67 2.68 -0.34 1.36 0 0 Z " fill="#FECECC" transform="translate(251,327)"/>
<path d="M0 0 C0.66 0.66 1.32 1.32 2 2 C1.625 5.125 1.625 5.125 1 8 C-4.41139241 9.32278481 -4.41139241 9.32278481 -6.9375 7.9375 C-8.52666796 5.03960549 -7.87523205 3.09697496 -7 0 C-4.29393021 -1.35303489 -2.8671629 -0.7884698 0 0 Z " fill="#F9E5E6" transform="translate(203,152)"/>
<path d="M0 0 C0.99 0.33 1.98 0.66 3 1 C3 1.66 3 2.32 3 3 C4.32 3 5.64 3 7 3 C6.37240135 5.92879371 5.41377341 8.36095629 4 11 C3.01 10.67 2.02 10.34 1 10 C-0.32 10 -1.64 10 -3 10 C-3.33 7.69 -3.66 5.38 -4 3 C-3.01 3 -2.02 3 -1 3 C-0.67 2.01 -0.34 1.02 0 0 Z " fill="#E25753" transform="translate(265,108)"/>
<path d="M0 0 C3.53571429 0.53571429 3.53571429 0.53571429 5 2 C5.125 4.5 5.125 4.5 5 7 C4 8 4 8 1.5625 8.1875 C-1 8 -1 8 -3 6 C-2.63318342 3.06546739 -2.13562754 2.13562754 0 0 Z " fill="#F8DFE0" transform="translate(179,339)"/>
<path d="M0 0 C1.65 0.99 3.3 1.98 5 3 C4.67 3.99 4.34 4.98 4 6 C2.68 6 1.36 6 0 6 C0 7.65 0 9.3 0 11 C-1.32 11.33 -2.64 11.66 -4 12 C-4.33 10.35 -4.66 8.7 -5 7 C-4.01 7 -3.02 7 -2 7 C-2 6.34 -2 5.68 -2 5 C-1.34 5 -0.68 5 0 5 C0 3.35 0 1.7 0 0 Z " fill="#F7C6C4" transform="translate(153,195)"/>
<path d="M0 0 C1.2065625 0.0309375 1.2065625 0.0309375 2.4375 0.0625 C3.0625 2.4375 3.0625 2.4375 3.4375 5.0625 C2.7775 5.7225 2.1175 6.3825 1.4375 7.0625 C-1.1875 6.6875 -1.1875 6.6875 -3.5625 6.0625 C-3.605221 4.39638095 -3.60313832 2.72867115 -3.5625 1.0625 C-2.5625 0.0625 -2.5625 0.0625 0 0 Z " fill="#F8DEDF" transform="translate(180.5625,187.9375)"/>
<path d="M0 0 C2.475 0.99 2.475 0.99 5 2 C4.67 3.65 4.34 5.3 4 7 C2.35 7.33 0.7 7.66 -1 8 C-1.66 6.02 -2.32 4.04 -3 2 C-2.01 2 -1.02 2 0 2 C0 1.34 0 0.68 0 0 Z " fill="#EB5955" transform="translate(252,331)"/>
<path d="M0 0 C1.32 0.33 2.64 0.66 4 1 C4 1.99 4 2.98 4 4 C5.32 3.67 6.64 3.34 8 3 C8.33 4.32 8.66 5.64 9 7 C8.01 7 7.02 7 6 7 C4.66018514 7.3062434 3.32488113 7.63451555 2 8 C0.74335022 5.09399739 0 3.20395416 0 0 Z " fill="#F14843" transform="translate(261,111)"/>
<path d="M0 0 C1.66611905 -0.042721 3.33382885 -0.04063832 5 0 C6 1 6 1 6.0625 3.5625 C6.041875 4.366875 6.02125 5.17125 6 6 C4.02 6 2.04 6 0 6 C-1.125 2.25 -1.125 2.25 0 0 Z " fill="#FEFDFD" transform="translate(197,153)"/>
<path d="M0 0 C0.66 0 1.32 0 2 0 C2 0.66 2 1.32 2 2 C2.99 2 3.98 2 5 2 C4.67 3.65 4.34 5.3 4 7 C2.35 7 0.7 7 -1 7 C-1.33 5.35 -1.66 3.7 -2 2 C-1.34 2 -0.68 2 0 2 C0 1.34 0 0.68 0 0 Z " fill="#EC6D6A" transform="translate(376,214)"/>
<path d="M0 0 C1.67542976 0.28604898 3.34385343 0.61781233 5 1 C5 2.65 5 4.3 5 6 C3.35 6 1.7 6 0 6 C-0.38218767 4.34385343 -0.71395102 2.67542976 -1 1 C-0.67 0.67 -0.34 0.34 0 0 Z " fill="#EA5551" transform="translate(266,52)"/>
<path d="M0 0 C0.33 0.99 0.66 1.98 1 3 C1.66 3 2.32 3 3 3 C3 3.66 3 4.32 3 5 C2.34 5 1.68 5 1 5 C1 5.66 1 6.32 1 7 C-0.65 6.67 -2.3 6.34 -4 6 C-3.67 4.35 -3.34 2.7 -3 1 C-2.01 0.67 -1.02 0.34 0 0 Z " fill="#E9504C" transform="translate(150,195)"/>
<path d="M0 0 C1.98 0.495 1.98 0.495 4 1 C4 3.31 4 5.62 4 8 C3.01 8.495 3.01 8.495 2 9 C-1.07692308 4.56923077 -1.07692308 4.56923077 -0.6875 1.6875 C-0.460625 1.130625 -0.23375 0.57375 0 0 Z " fill="#FFD3D1" transform="translate(261,51)"/>
<path d="M0 0 C1.65 0.99 3.3 1.98 5 3 C4.67 3.99 4.34 4.98 4 6 C2.35 6.33 0.7 6.66 -1 7 C-0.67 4.69 -0.34 2.38 0 0 Z " fill="#FFD0CE" transform="translate(153,195)"/>
<path d="M0 0 C-0.66 1.98 -1.32 3.96 -2 6 C-3.32 6 -4.64 6 -6 6 C-6 3 -6 3 -4.6875 1.3125 C-3 0 -3 0 0 0 Z " fill="#D0504C" transform="translate(212,183)"/>
<path d="M0 0 C3.125 -0.1875 3.125 -0.1875 6 0 C5.360625 0.226875 4.72125 0.45375 4.0625 0.6875 C1.75631253 1.8477167 1.75631253 1.8477167 1.1875 4.5 C0.78526509 6.99790956 0.78526509 6.99790956 2 9 C1.01 8.67 0.02 8.34 -1 8 C-1.625 5.6875 -1.625 5.6875 -2 3 C-1.34 2.01 -0.68 1.02 0 0 Z " fill="#F9E4E5" transform="translate(178,377)"/>
<path d="M0 0 C0.66 1.32 1.32 2.64 2 4 C2.66 4 3.32 4 4 4 C3.67 5.32 3.34 6.64 3 8 C2.01 8 1.02 8 0 8 C0 5.33333333 0 2.66666667 0 0 Z " fill="#FDC0BD" transform="translate(264,54)"/>
<path d="M0 0 C0.99 0 1.98 0 3 0 C2.67 1.98 2.34 3.96 2 6 C1.34 6 0.68 6 0 6 C0 5.01 0 4.02 0 3 C-0.66 2.67 -1.32 2.34 -2 2 C-1.34 1.34 -0.68 0.68 0 0 Z " fill="#FEC2C0" transform="translate(151,192)"/>
<path d="M0 0 C0.99 1.32 1.98 2.64 3 4 C1.68 5.32 0.36 6.64 -1 8 C-2 6 -2 6 -1.0625 2.875 C-0.5365625 1.451875 -0.5365625 1.451875 0 0 Z " fill="#635E5F" transform="translate(142,194)"/>
</svg>
