<?xml version="1.0" encoding="UTF-8"?>
<svg version="1.1" xmlns="http://www.w3.org/2000/svg" width="800" height="800">
<path d="M0 0 C1.14082191 -0.00320648 2.28164381 -0.00641296 3.45703608 -0.0097166 C7.2897887 -0.01803523 11.12238581 -0.01208567 14.95514107 -0.00622082 C17.72678801 -0.00813455 20.49842784 -0.01304833 23.27007115 -0.01781338 C29.30139568 -0.02657429 35.33268626 -0.02788788 41.36401558 -0.02431011 C50.33289534 -0.01900382 59.30174222 -0.02509766 68.27061841 -0.03339304 C85.22060546 -0.04863906 102.17057758 -0.0503375 119.12057005 -0.04787002 C132.20858812 -0.04603787 145.2966013 -0.04779532 158.38461876 -0.05209446 C160.26448907 -0.05269686 162.14435937 -0.05329806 164.02422968 -0.05389806 C166.85695906 -0.05480531 169.68968844 -0.05571397 172.52241781 -0.05663041 C198.86206763 -0.06506086 225.2017156 -0.06939499 251.54136658 -0.06522369 C253.03101925 -0.06498913 253.03101925 -0.06498913 254.55076592 -0.06474983 C259.5842808 -0.06394404 264.61779568 -0.06309826 269.65131055 -0.06223653 C271.15083769 -0.06197989 271.15083769 -0.06197989 272.68065832 -0.06171808 C274.70226378 -0.06137142 276.72386925 -0.06102289 278.74547472 -0.06067249 C310.20511458 -0.0553147 341.66472641 -0.06324698 373.12436104 -0.08170605 C408.46391411 -0.10241735 443.80344982 -0.11315045 479.14300931 -0.10913056 C482.9103744 -0.10873521 486.6777395 -0.10837366 490.4451046 -0.10803318 C491.37273549 -0.10794245 492.30036638 -0.10785172 493.2561073 -0.10775824 C507.26549177 -0.10659179 521.27485872 -0.11324411 535.28423882 -0.1238451 C551.21479488 -0.13588751 567.14531232 -0.1374671 583.07586895 -0.12505493 C591.9920853 -0.11841902 600.90820934 -0.12007426 609.82441834 -0.13364345 C615.78020071 -0.14187694 621.7359138 -0.13920474 627.69169052 -0.12766818 C631.08510982 -0.12140076 634.47820121 -0.12149166 637.87163351 -0.13153151 C641.52981526 -0.14160508 645.18751052 -0.13324256 648.84567261 -0.12025452 C649.89523583 -0.12756386 650.94479905 -0.13487321 652.02616721 -0.14240405 C665.72786015 -0.04135833 677.31461827 4.9338721 687.29867744 14.31697559 C698.05113346 25.60782354 701.86655098 37.50342548 701.80315304 52.70579815 C701.80796276 54.41703101 701.80796276 54.41703101 701.81286964 56.16283423 C701.82118826 59.99558685 701.8152387 63.82818396 701.80937386 67.66093922 C701.81128759 70.43258615 701.81620137 73.20422599 701.82096642 75.9758693 C701.82972733 82.00719383 701.83104092 88.03848441 701.82746315 94.06981373 C701.82215686 103.03869349 701.8282507 112.00754037 701.83654608 120.97641656 C701.85179209 137.92640361 701.85349054 154.87637573 701.85102306 171.8263682 C701.84919091 184.91438627 701.85094836 198.00239945 701.8552475 211.09041691 C701.8558499 212.97028722 701.85645109 214.85015752 701.8570511 216.73002783 C701.85795835 219.56275721 701.85886701 222.39548659 701.85978345 225.22821596 C701.8682139 251.56786578 701.87254803 277.90751375 701.86837673 304.24716473 C701.86822036 305.24026651 701.86806398 306.23336829 701.86790287 307.25656407 C701.86709707 312.29007895 701.8662513 317.32359382 701.86538956 322.3571087 C701.86521848 323.35679346 701.86504739 324.35647822 701.86487112 325.38645647 C701.86452446 327.40806193 701.86417593 329.4296674 701.86382553 331.45127287 C701.85846774 362.91091273 701.86640002 394.37052456 701.88485909 425.83015919 C701.90557039 461.16971226 701.91630349 496.50924797 701.9122836 531.84880745 C701.91188825 535.61617255 701.9115267 539.38353765 701.91118622 543.15090275 C701.91109549 544.07853364 701.91100475 545.00616453 701.91091127 545.96190544 C701.90974483 559.97128992 701.91639715 573.98065687 701.92699814 587.99003696 C701.93904055 603.92059303 701.94062014 619.85111047 701.92820797 635.7816671 C701.92157206 644.69788345 701.92322729 653.61400749 701.93679649 662.53021649 C701.94502997 668.48599885 701.94235778 674.44171195 701.93082122 680.39748867 C701.9245538 683.79090797 701.92464469 687.18399936 701.93468455 690.57743166 C701.94475812 694.23561341 701.93639559 697.89330867 701.92340755 701.55147076 C701.9307169 702.60103398 701.93802625 703.6505972 701.94555709 704.73196536 C701.84451136 718.4336583 696.86928094 730.02041642 687.48617744 740.00447559 C676.19532949 750.75693161 664.29972756 754.57234913 649.09735489 754.50895119 C647.38612203 754.5137609 647.38612203 754.5137609 645.64031881 754.51866779 C641.80756619 754.52698641 637.97496907 754.52103685 634.14221382 754.515172 C631.37056688 754.51708573 628.59892705 754.52199952 625.82728374 754.52676457 C619.79595921 754.53552548 613.76466863 754.53683907 607.73333931 754.5332613 C598.76445955 754.52795501 589.79561267 754.53404885 580.82673648 754.54234423 C563.87674943 754.55759024 546.92677731 754.55928869 529.97678484 754.5568212 C516.88876677 754.55498905 503.80075359 754.55674651 490.71273613 754.56104565 C488.83286582 754.56164804 486.95299551 754.56224924 485.07312521 754.56284925 C482.24039583 754.5637565 479.40766645 754.56466516 476.57493708 754.5655816 C450.23528726 754.57401205 423.89563929 754.57834618 397.55598831 754.57417488 C396.56288653 754.5740185 395.56978475 754.57386213 394.54658897 754.57370101 C389.51307409 754.57289522 384.47955921 754.57204945 379.44604434 754.57118771 C377.9465172 754.57093108 377.9465172 754.57093108 376.41669657 754.57066926 C374.3950911 754.57032261 372.37348564 754.56997408 370.35188017 754.56962368 C338.89224031 754.56426589 307.43262848 754.57219817 275.97299385 754.59065723 C240.63344078 754.61136853 205.29390507 754.62210164 169.95434558 754.61808175 C166.18698049 754.6176864 162.41961539 754.61732485 158.65225029 754.61698437 C157.26080395 754.61684827 157.26080395 754.61684827 155.84124759 754.61670942 C141.83186312 754.61554298 127.82249617 754.6221953 113.81311607 754.63279629 C97.88256001 754.6448387 81.95204257 754.64641829 66.02148594 754.63400612 C57.10526959 754.62737021 48.18914554 754.62902544 39.27293655 754.64259463 C33.31715418 754.65082812 27.36144109 754.64815593 21.40566437 754.63661937 C18.01224506 754.63035195 14.61915368 754.63044284 11.22572137 754.6404827 C7.56753963 754.65055627 3.90984437 754.64219374 0.25168228 754.6292057 C-0.79788094 754.63651505 -1.84744416 754.6438244 -2.92881233 754.65135524 C-16.63050526 754.55030951 -28.21726338 749.57507909 -38.20132256 740.19197559 C-48.95377857 728.90112764 -52.76919609 717.00552571 -52.70579815 701.80315304 C-52.70900463 700.66233113 -52.71221111 699.52150923 -52.71551475 698.34611696 C-52.72383337 694.51336434 -52.71788381 690.68076722 -52.71201897 686.84801197 C-52.7139327 684.07636503 -52.71884648 681.3047252 -52.72361153 678.53308189 C-52.73237244 672.50175735 -52.73368603 666.47046678 -52.73010826 660.43913746 C-52.72480197 651.4702577 -52.73089581 642.50141082 -52.73919119 633.53253463 C-52.7544372 616.58254758 -52.75613565 599.63257546 -52.75366817 582.68258299 C-52.75183602 569.59456491 -52.75359347 556.50655174 -52.75789261 543.41853428 C-52.75849501 541.53866397 -52.75909621 539.65879366 -52.75969621 537.77892336 C-52.76060346 534.94619398 -52.76151212 532.1134646 -52.76242856 529.28073523 C-52.77085901 502.94108541 -52.77519314 476.60143744 -52.77102184 450.26178646 C-52.77078728 448.77213379 -52.77078728 448.77213379 -52.77054798 447.25238712 C-52.76974218 442.21887224 -52.76889641 437.18535736 -52.76803467 432.15184249 C-52.76786359 431.15215773 -52.7676925 430.15247296 -52.76751623 429.12249472 C-52.76716957 427.10088925 -52.76682104 425.07928379 -52.76647064 423.05767832 C-52.76111285 391.59803846 -52.76904513 360.13842663 -52.7875042 328.678792 C-52.8082155 293.33923893 -52.8189486 257.99970322 -52.81492871 222.66014373 C-52.81453336 218.89277864 -52.81417181 215.12541354 -52.81383133 211.35804844 C-52.8137406 210.43041755 -52.81364987 209.50278666 -52.81355638 208.54704574 C-52.81238994 194.53766127 -52.81904226 180.52829432 -52.82964325 166.51891422 C-52.84168566 150.58835816 -52.84326525 134.65784072 -52.83085308 118.72728409 C-52.82421717 109.81106774 -52.82587241 100.89494369 -52.8394416 91.9787347 C-52.84767509 86.02295233 -52.84500289 80.06723924 -52.83346633 74.11146252 C-52.82719891 70.71804321 -52.82728981 67.32495183 -52.83732966 63.93151952 C-52.84740323 60.27333778 -52.8390407 56.61564252 -52.82605267 52.95748043 C-52.83701668 51.3831356 -52.83701668 51.3831356 -52.8482022 49.77698582 C-52.74715648 36.07529289 -47.77192605 24.48853477 -38.38882256 14.50447559 C-27.09797461 3.75201958 -15.20237267 -0.06339794 0 0 Z " fill="#E25F15" transform="translate(75.45132255554199,22.745524406433105)"/>
<path d="M0 0 C30.69 0 61.38 0 93 0 C93 9.9 93 19.8 93 30 C74.19 30 55.38 30 36 30 C36 142.2 36 254.4 36 370 C54.81 370 73.62 370 93 370 C93 379.9 93 389.8 93 400 C62.31 400 31.62 400 0 400 C0 268 0 136 0 0 Z " fill="#FEFEFD" transform="translate(543,200)"/>
<path d="M0 0 C30.69 0 61.38 0 93 0 C93 132 93 264 93 400 C62.31 400 31.62 400 0 400 C0 390.1 0 380.2 0 370 C18.81 370 37.62 370 57 370 C57 257.8 57 145.6 57 30 C38.19 30 19.38 30 0 30 C0 20.1 0 10.2 0 0 Z " fill="#FEFEFD" transform="translate(164,200)"/>
<path d="M0 0 C13.2 0 26.4 0 40 0 C38.64307207 8.14156756 37.16238654 15.48416346 34.6875 23.25 C34.40455078 24.15878906 34.12160156 25.06757813 33.83007812 26.00390625 C33.22831377 27.93328819 32.62266832 29.86146282 32.01367188 31.78857422 C31.08826322 34.72037225 30.17193302 37.65488187 29.25828552 40.59036255 C26.50923123 49.41635538 23.716177 58.22786287 20.88037109 67.02636719 C20.37816922 68.58783521 19.8781561 70.15000893 19.38037109 71.71289062 C15.95213668 82.47254951 12.18190171 93.02802241 7.99212646 103.51428223 C6.92588754 106.18568467 5.86883779 108.86060775 4.81298828 111.53613281 C-5.72136297 138.20143091 -16.49239427 164.73939834 -28 191 C-28.56743833 192.29717623 -29.13482118 193.59437674 -29.70214844 194.89160156 C-32.78474348 201.93523412 -35.88918274 208.9687007 -39 216 C-50.88 216 -62.76 216 -75 216 C-90.96745842 180.39115468 -106.1061862 144.52964381 -120.17700195 108.12792969 C-120.94318896 106.14688966 -121.71259555 104.1671278 -122.48242188 102.1875 C-154 20.64414894 -154 20.64414894 -154 1 C-140.14 1 -126.28 1 -112 1 C-111.195625 4.361875 -110.39125 7.72375 -109.5625 11.1875 C-106.00656048 25.65579841 -101.52530212 39.811489 -97 54 C-96.1414956 56.71519589 -95.28539204 59.43113755 -94.4296875 62.1472168 C-93.96370697 63.62440575 -93.4964519 65.10119388 -93.02734375 66.57739258 C-92.06576436 69.60394903 -91.11048784 72.63039066 -90.20092773 75.6730957 C-87.29787406 85.33206438 -84.00240425 94.84421518 -80.67407227 104.36352539 C-79.69589975 107.16345646 -78.72370173 109.9654121 -77.75195312 112.76757812 C-73.74440083 124.27965622 -69.49865123 135.67139132 -65 147 C-64.57710693 148.07548096 -64.15421387 149.15096191 -63.71850586 150.2590332 C-62.69394298 152.86287858 -61.66131733 155.46331544 -60.625 158.0625 C-60.28339844 158.92681641 -59.94179688 159.79113281 -59.58984375 160.68164062 C-59.26371094 161.49955078 -58.93757813 162.31746094 -58.6015625 163.16015625 C-58.31619629 163.87824463 -58.03083008 164.59633301 -57.73681641 165.33618164 C-57.11900975 167.00106518 -57.11900975 167.00106518 -56 168 C-47.67463111 147.94220996 -47.67463111 147.94220996 -40.21875 127.55078125 C-39.40120831 125.16890499 -38.54496786 122.79998768 -37.65209961 120.4453125 C-35.77004695 115.4433165 -34.05917673 110.38661136 -32.34765625 105.32421875 C-31.83554848 103.81550957 -31.83554848 103.81550957 -31.31309509 102.27632141 C-30.22835824 99.08045485 -29.14523578 95.88404502 -28.0625 92.6875 C-26.63810097 88.48260257 -25.21207948 84.27826017 -23.78515625 80.07421875 C-23.46523209 79.1280217 -23.14530792 78.18182465 -22.81568909 77.20695496 C-20.91072591 71.59468055 -18.93056717 66.01657597 -16.87315369 60.45828247 C-15.55639173 56.75106243 -14.51090851 52.98743286 -13.5 49.1875 C-13.07340669 47.61705431 -12.64631848 46.04674297 -12.21875 44.4765625 C-12.0125 43.71504883 -11.80625 42.95353516 -11.59375 42.16894531 C-10.76029455 39.12436547 -9.88029145 36.09382621 -9 33.0625 C-7.1486448 26.62038599 -5.43643183 20.14528096 -3.75 13.65844727 C-3.55148437 12.89588623 -3.35296875 12.1333252 -3.1484375 11.34765625 C-2.97489746 10.67742432 -2.80135742 10.00719238 -2.62255859 9.31665039 C-1.78526947 6.20094982 -0.88631708 3.10210979 0 0 Z " fill="#FEFDFD" transform="translate(457,308)"/>
<path d="M0 0 C-5.03603177 19.26061274 -11.28884207 38.13677551 -17.625 57 C-18.38309871 59.26422711 -19.14091248 61.52854964 -19.8984375 63.79296875 C-21.6067537 68.89813387 -23.31740586 74.00250507 -25.0322876 79.10546875 C-25.71168463 81.1376179 -26.38547235 83.17164687 -27.05511475 85.20703125 C-27.40221497 86.26019531 -27.74931519 87.31335938 -28.10693359 88.3984375 C-28.57297501 89.820354 -28.57297501 89.820354 -29.0484314 91.27099609 C-29.99396214 93.98268401 -31.05606066 96.61107748 -32.1875 99.25 C-35.27579698 106.45921338 -37.94022054 113.82475331 -40.61401367 121.19628906 C-43.00996278 127.70056283 -45.76070968 133.87138443 -49 140 C-51.49118358 137.50881642 -52.26372425 135.22095918 -53.57421875 131.9453125 C-53.8190097 131.33594849 -54.06380066 130.72658447 -54.31600952 130.09875488 C-55.11240413 128.10979862 -55.90039809 126.11765025 -56.6875 124.125 C-56.95634003 123.44926941 -57.22518005 122.77353882 -57.50216675 122.07733154 C-61.71246261 111.49197443 -65.68486496 100.84613821 -69.28564453 90.03613281 C-70.03658882 87.89571061 -70.89035257 85.81134914 -71.74609375 83.7109375 C-73.28965626 79.14276186 -73.28965626 79.14276186 -72 76 C-70.18994141 73.88110352 -70.18994141 73.88110352 -67.8515625 71.62890625 C-67.01109375 70.80712891 -66.170625 69.98535156 -65.3046875 69.13867188 C-64.42039062 68.28853516 -63.53609375 67.43839844 -62.625 66.5625 C-60.88339376 64.88108162 -59.14624289 63.19503343 -57.4140625 61.50390625 C-56.6401416 60.75955322 -55.8662207 60.0152002 -55.06884766 59.24829102 C-52.97072237 56.96818295 -51.53655251 54.67965867 -50 52 C-48.62841078 50.51942791 -47.20864122 49.08238942 -45.75 47.6875 C-42.9938879 44.99312482 -40.31926616 42.30274979 -37.8125 39.375 C-34.32388278 35.30630826 -30.66694927 31.40711535 -27 27.5 C-22.85351316 23.07819419 -18.75451467 18.63647081 -14.7890625 14.05078125 C-12.28152789 11.17642389 -9.74270037 8.33201718 -7.1875 5.5 C-6.70643799 4.95835205 -6.22537598 4.4167041 -5.72973633 3.85864258 C-2.22928523 0 -2.22928523 0 0 0 Z " fill="#EA671D" transform="translate(450,337)"/>
</svg>
