<?xml version="1.0" encoding="UTF-8"?>
<svg version="1.1" xmlns="http://www.w3.org/2000/svg" width="211" height="238">
<path d="M0 0 C9.76427523 5.10976686 19.19897585 10.87682891 28.69042969 16.46923828 C34.04736246 19.61331476 39.4301249 22.71225194 44.8125 25.8125 C46.41182373 26.73675781 46.41182373 26.73675781 48.04345703 27.6796875 C53.11136286 30.60649249 58.18524143 33.5212622 63.28256226 36.39649963 C65.0639033 37.40212761 66.84304815 38.41153603 68.62158203 39.42211914 C70.8474397 40.68539681 73.07734084 41.9415877 75.31201172 43.18920898 C92.06907114 52.72946201 92.06907114 52.72946201 94.9375 62.375 C95.35839785 65.9110197 95.34787234 69.41484025 95.32568359 72.97265625 C95.33356903 74.53740189 95.33356903 74.53740189 95.34161377 76.13375854 C95.35477512 79.56849311 95.34608908 83.00276104 95.3359375 86.4375 C95.33795934 88.83211353 95.34087169 91.22672646 95.34463501 93.62133789 C95.34905314 98.63466263 95.34264356 103.64782677 95.32861328 108.66113281 C95.31152194 115.08035567 95.32136582 121.4992022 95.33933067 127.91841125 C95.35018216 132.86156031 95.34671584 137.80462046 95.3389473 142.74777222 C95.33694908 145.11441086 95.33939124 147.48105762 95.34638596 149.84768677 C95.35402266 153.15778929 95.34236442 156.46728621 95.32568359 159.77734375 C95.33175629 160.75105927 95.33782898 161.72477478 95.34408569 162.72799683 C95.28450954 169.12427714 94.48926582 174.00327619 90.52734375 179.23828125 C84.67435002 184.37175802 77.96665098 187.8447474 71.15625 191.5234375 C65.51094514 194.58095185 59.97370885 197.81264177 54.4375 201.0625 C44.714649 206.75951356 34.96933416 212.4155457 25.19335938 218.02099609 C20.38388489 220.78374607 15.59312196 223.56249197 10.87109375 226.47265625 C-5.22706459 236.3756401 -5.22706459 236.3756401 -13.24511719 235.00073242 C-20.87561867 232.86163448 -27.18378461 229.0446001 -33.875 224.875 C-34.98037109 224.19824219 -36.08574219 223.52148438 -37.22460938 222.82421875 C-39.27241815 221.5695492 -41.31745644 220.31033706 -43.35864258 219.04492188 C-45.91411864 217.4666414 -48.48350926 215.91448613 -51.0625 214.375 C-50.0625 211.375 -50.0625 211.375 -48.13671875 210.27734375 C-47.34910156 209.95894531 -46.56148438 209.64054688 -45.75 209.3125 C-42.31068452 207.90449944 -42.31068452 207.90449944 -39.01953125 206.19140625 C-36.50756163 205.14349877 -35.62244606 205.51860165 -33.0625 206.375 C-31.51449432 207.24319184 -29.9979534 208.16867623 -28.5078125 209.1328125 C-27.21423828 209.94685547 -27.21423828 209.94685547 -25.89453125 210.77734375 C-24.09184284 211.9245091 -22.29490915 213.08076872 -20.50390625 214.24609375 C-19.63894531 214.78621094 -18.77398437 215.32632813 -17.8828125 215.8828125 C-17.10180176 216.38441895 -16.32079102 216.88602539 -15.51611328 217.40283203 C-12.24904276 218.69730714 -10.42780073 218.30014625 -7.0625 217.375 C-4.35484071 216.14825824 -4.35484071 216.14825824 -1.703125 214.5234375 C-0.68347656 213.92724609 0.33617188 213.33105469 1.38671875 212.71679688 C3.02060547 211.74323242 3.02060547 211.74323242 4.6875 210.75 C5.84447352 210.06997822 7.00203713 209.39095953 8.16015625 208.71289062 C10.56415148 207.30432676 12.96555773 205.89149359 15.36523438 204.47558594 C20.86584855 201.23483037 26.40352138 198.05831432 31.9375 194.875 C34.07960379 193.63962927 36.22152984 192.4039503 38.36328125 191.16796875 C39.43271973 190.55099121 40.5021582 189.93401367 41.60400391 189.29833984 C44.50253518 187.62596329 47.40094956 185.95338453 50.29928589 184.28067017 C52.08816918 183.24826522 53.87708717 182.21592044 55.66601562 181.18359375 C57.91087636 179.88814052 60.1556719 178.5925743 62.40039062 177.296875 C63.41681641 176.71035156 64.43324219 176.12382812 65.48046875 175.51953125 C66.36758545 175.00753174 67.25470215 174.49553223 68.16870117 173.96801758 C71.4210589 172.09678628 74.67935351 170.23613409 77.9375 168.375 C78.33207026 154.98887379 78.63377331 141.60413789 78.81830692 128.21337318 C78.90689803 121.99448383 79.02693611 115.77958194 79.2199707 109.56298828 C79.40524375 103.55849777 79.50643166 97.55782984 79.55041313 91.55070114 C79.58173315 89.26408034 79.64290882 86.97766041 79.73491096 84.69267654 C80.65048362 72.89584014 80.65048362 72.89584014 76.29145241 62.45689201 C72.25883976 59.1917657 67.8310968 57.11144565 63.02373791 55.23130512 C59.9872255 53.98495584 57.30529164 52.35116178 54.50390625 50.64453125 C52.50302057 49.49146462 50.50171362 48.33912872 48.5 47.1875 C47.41017822 46.55948486 46.32035645 45.93146973 45.19750977 45.28442383 C41.77792232 43.31389299 38.35778753 41.3443154 34.9375 39.375 C31.52661484 37.41109825 28.11587714 35.44694756 24.70605469 33.48120117 C22.50495127 32.21335657 20.30249928 30.94785 18.09863281 29.68481445 C13.27852161 26.91594806 8.48745357 24.12227228 3.7734375 21.17578125 C2.99943604 20.69794189 2.22543457 20.22010254 1.42797852 19.7277832 C0.03274757 18.86117916 -1.35326993 17.97945103 -2.72680664 17.07885742 C-5.66056197 15.26634174 -7.83087831 14.38649696 -11.2890625 14.21484375 C-16.94218476 15.9529155 -21.69917506 18.90086122 -26.75 21.9375 C-28.48576772 22.96064918 -30.22155459 23.98376712 -31.95831299 25.00523376 C-33.16388514 25.7150887 -34.36858672 26.42642405 -35.57244873 27.13917542 C-41.48788934 30.64077343 -47.45696489 34.04501974 -53.43371582 37.44055176 C-74.76298603 49.44471905 -74.76298603 49.44471905 -95.73461914 62.04956055 C-98.0625 63.375 -98.0625 63.375 -100.0625 63.375 C-100.46591572 76.84012605 -100.74331928 90.30153309 -100.86302853 103.77234173 C-100.92252579 110.02924926 -101.02421244 116.27934817 -101.22485352 122.53344727 C-101.41718259 128.57813613 -101.49536628 134.61484425 -101.4968586 140.66248512 C-101.51702449 142.9606871 -101.57729246 145.25892011 -101.67948723 147.55493736 C-102.1992935 158.28566546 -102.1992935 158.28566546 -99.0625 168.375 C-92.69100324 174.70197906 -84.27971592 178.08617474 -76.0625 181.375 C-74.69582362 181.97400992 -73.33041633 182.57593717 -71.96714783 183.18266296 C-67.96578307 184.82519441 -65.1212022 184.77895359 -61.0625 183.375 C-57.5784102 180.63220591 -55.84490742 178.69613091 -55.0625 174.375 C-54.96614894 172.92613127 -54.91679899 171.47368244 -54.90428162 170.02166748 C-54.8944928 169.15792511 -54.88470398 168.29418274 -54.87461853 167.40426636 C-54.86886307 166.46487213 -54.8631076 165.52547791 -54.85717773 164.55761719 C-54.84727814 163.56216888 -54.83737854 162.56672058 -54.82717896 161.54110718 C-54.79559605 158.2513873 -54.77081911 154.96165298 -54.74609375 151.671875 C-54.72552146 149.39072291 -54.70452491 147.10957461 -54.68312073 144.82843018 C-54.6279285 138.82465687 -54.5785066 132.82084932 -54.53027344 126.8170166 C-54.48003766 120.69048007 -54.42436242 114.56399326 -54.36914062 108.4375 C-54.26159387 96.41670914 -54.16014111 84.39587511 -54.0625 72.375 C-51.58326199 72.34814905 -49.1043116 72.32823453 -46.625 72.3125 C-45.91794922 72.30412109 -45.21089844 72.29574219 -44.48242188 72.28710938 C-42.67556441 72.27846412 -40.86862397 72.32279989 -39.0625 72.375 C-37.52240211 73.91509789 -37.92718172 75.33706226 -37.91532898 77.48336792 C-37.90817368 78.36916031 -37.90101837 79.2549527 -37.89364624 80.16758728 C-37.89095734 81.14723953 -37.88826843 82.12689178 -37.88549805 83.13623047 C-37.87892685 84.16233932 -37.87235565 85.18844818 -37.86558533 86.24565125 C-37.84578498 89.661164 -37.83417046 93.0766325 -37.82421875 96.4921875 C-37.82014322 97.65802494 -37.8160677 98.82386238 -37.81186867 100.02502823 C-37.79097225 106.20385818 -37.77669001 112.38266574 -37.76733398 118.56152344 C-37.75630445 124.93122929 -37.72195454 131.30058243 -37.68216228 137.67016411 C-37.65594207 142.57572047 -37.64763698 147.48119385 -37.64405251 152.38681412 C-37.63919502 154.73342375 -37.6276051 157.08002988 -37.60901451 159.42657089 C-37.5845249 162.72459989 -37.58560718 166.02173111 -37.5925293 169.31982422 C-37.57971924 170.27923416 -37.56690918 171.2386441 -37.55371094 172.22712708 C-37.61921836 180.8496431 -39.3886555 189.14989508 -45.6875 195.375 C-52.45397665 200.60991793 -60.63820817 202.38415996 -69.0625 201.375 C-78.82672734 199.75344082 -87.56343594 194.17856119 -96.0625 189.375 C-96.70815918 189.01148438 -97.35381836 188.64796875 -98.01904297 188.2734375 C-113.25879246 179.59485619 -113.25879246 179.59485619 -116.0625 170.375 C-116.36070661 166.91836511 -116.34591654 163.47216005 -116.3371582 160.00439453 C-116.34226913 158.96152283 -116.34738007 157.91865112 -116.35264587 156.84417725 C-116.36653946 153.39866386 -116.36558516 149.95335057 -116.36328125 146.5078125 C-116.36716847 144.11034063 -116.3715032 141.71286946 -116.37626648 139.31539917 C-116.38372832 134.29015877 -116.38343776 129.26498863 -116.37817383 124.23974609 C-116.37238115 117.80478989 -116.38930579 111.37012169 -116.4125185 104.93521309 C-116.42726173 99.98349327 -116.42812668 95.03184271 -116.42500877 90.08010483 C-116.42552175 87.70787867 -116.43075497 85.33564861 -116.44082069 82.96344376 C-116.453178 79.64357124 -116.44639701 76.32425831 -116.43481445 73.00439453 C-116.44245819 72.02753693 -116.45010193 71.05067932 -116.45797729 70.04421997 C-116.40810121 63.56555595 -115.68239 58.50809191 -111.38867188 53.37329102 C-106.12649158 48.96254919 -100.59257245 45.576565 -94.5625 42.3125 C-92.50564091 41.17474758 -90.44967866 40.0353726 -88.39453125 38.89453125 C-87.34475098 38.31396973 -86.2949707 37.7334082 -85.21337891 37.13525391 C-80.18495435 34.32609994 -75.21753254 31.41508144 -70.25 28.5 C-58.48865195 21.6139173 -46.69055796 14.79294056 -34.87744141 7.99609375 C-32.38909014 6.56307967 -29.90303775 5.12619504 -27.41796875 3.6875 C-26.15371809 2.95820806 -24.8894028 2.22902813 -23.625 1.5 C-22.59503906 0.90445312 -21.56507812 0.30890625 -20.50390625 -0.3046875 C-13.27429464 -4.21446146 -7.14517061 -3.46802183 0 0 Z " fill="#56A047" transform="translate(116.0625,2.625)"/>
<path d="M0 0 C1.12535156 -0.020625 2.25070313 -0.04125 3.41015625 -0.0625 C13.92417302 -0.11111973 25.86961926 1.46911642 34.05859375 8.74609375 C39.92988447 15.0859164 43.07284004 22.63844106 43.375 31.25 C40.60712572 34.01787428 38.79708031 33.61435299 34.9375 33.6875 C33.20693359 33.74744141 33.20693359 33.74744141 31.44140625 33.80859375 C28.375 33.25 28.375 33.25 26.55078125 30.9140625 C26.16277344 30.03492187 25.77476562 29.15578125 25.375 28.25 C23.32264411 23.6788437 21.68107175 20.92933353 17.375 18.25 C11.46306973 16.45323688 6.09616683 15.91264662 -0.0625 15.9375 C-1.25456055 15.91333008 -1.25456055 15.91333008 -2.47070312 15.88867188 C-8.88836028 15.88345002 -15.58209529 16.76035069 -20.6875 20.9375 C-22.18159012 24.6229223 -22.06705617 27.27149446 -21.625 31.25 C-18.60377717 34.30147118 -15.46107696 34.96387982 -11.328125 35.78515625 C-10.08353516 36.03281738 -8.83894531 36.28047852 -7.55664062 36.53564453 C0.11036781 37.92869388 7.80866967 39.11849894 15.515625 40.26757812 C25.64720834 41.87139946 34.94030319 43.81530319 42.375 51.25 C46.97233026 57.74967382 47.04482558 64.48959221 46.375 72.25 C44.69465397 79.40665448 41.34169521 84.91862126 35.375 89.25 C24.97864646 95.24544314 14.45702344 96.6279122 2.625 96.5625 C1.5723999 96.55758545 0.5197998 96.5526709 -0.56469727 96.54760742 C-14.45430031 96.33924735 -26.89869216 94.3727036 -37 84.125 C-41.64927723 78.58661796 -43.2185088 72.6451861 -43.875 65.546875 C-43.7925 64.78890625 -43.71 64.0309375 -43.625 63.25 C-40.15114567 60.93409711 -38.66069994 60.98008165 -34.5625 61 C-33.49902344 60.99484375 -32.43554688 60.9896875 -31.33984375 60.984375 C-28.625 61.25 -28.625 61.25 -26.625 63.25 C-26.14145867 64.67267364 -25.7095092 66.11329463 -25.3125 67.5625 C-23.84874717 71.98928647 -22.57019285 74.51251925 -18.625 77.25 C-6.46473104 82.22282522 8.4752684 81.50634143 20.9921875 78.296875 C23.86534995 77.03456756 25.41378648 75.69492089 27.375 73.25 C28.39104423 70.24420248 28.59076793 67.41070856 28.375 64.25 C26.01288004 59.97568769 21.8290517 59.27349285 17.40014648 57.98144531 C10.49572159 56.3120355 3.38290206 55.70077984 -3.66210938 54.87695312 C-14.94605945 53.45380586 -27.36174531 51.79819451 -35.625 43.25 C-40.05092887 37.40052676 -41.20656919 31.46145795 -40.625 24.25 C-38.71298334 15.60716794 -35.02095299 10.13455462 -27.625 5.25 C-18.5034548 0.59449325 -10.09101263 0.04530196 0 0 Z " fill="#57A047" transform="translate(129.625,71.75)"/>
</svg>
