<?xml version="1.0" encoding="UTF-8"?>
<svg version="1.1" xmlns="http://www.w3.org/2000/svg" width="48" height="48">
<path d="M0 0 C15.84 0 31.68 0 48 0 C48 15.84 48 31.68 48 48 C32.16 48 16.32 48 0 48 C0 32.16 0 16.32 0 0 Z " fill="#19181B" transform="translate(0,0)"/>
<path d="M0 0 C3.56980219 1.53915384 5.39022699 2.58781198 7.28125 6.0546875 C8.12487272 11.53823518 8.69755097 15.47208556 6.15625 20.5546875 C2.40046943 24.90348606 -0.8372302 27.49425064 -6.65625 27.9296875 C-11.17781996 27.73110504 -13.56843186 26.04115554 -16.80859375 23.0078125 C-19.86483767 19.31661486 -20.67526352 16.17057964 -20.53125 11.328125 C-19.80529866 6.62759006 -16.93157925 3.92031276 -13.46875 0.9296875 C-8.72030776 -1.44453362 -4.95107093 -1.551568 0 0 Z " fill="#4F4F54" transform="translate(30.21875,10.6953125)"/>
<path d="M0 0 C2.03741439 1.64619018 2.22645522 2.69710607 2.56640625 5.265625 C2.68845954 7.94103316 2.61107938 10.58523738 2.56640625 13.265625 C0.58640625 13.925625 -1.39359375 14.585625 -3.43359375 15.265625 C-3.85677083 13.24739583 -4.27994792 11.22916667 -4.703125 9.2109375 C-5.35668213 6.89515951 -5.35668213 6.89515951 -8.43359375 5.265625 C-11.43652446 5.19613935 -11.43652446 5.19613935 -14.43359375 6.265625 C-15.77186679 7.92832787 -17.1054916 9.59478681 -18.43359375 11.265625 C-21.18359375 11.578125 -21.18359375 11.578125 -23.43359375 11.265625 C-23.93242273 7.0754616 -23.6327939 5.55335854 -21.18359375 2.015625 C-14.62787631 -4.54009244 -7.92393242 -3.9076927 0 0 Z " fill="#99999D" transform="translate(34.43359375,12.734375)"/>
<path d="M0 0 C2 2 2 2 2.265625 3.875 C2.26046875 4.57625 2.2553125 5.2775 2.25 6 C2.25515625 6.70125 2.2603125 7.4025 2.265625 8.125 C2 10 2 10 0 12 C-7.1372549 12.67973856 -7.1372549 12.67973856 -10.0625 10.375 C-11.34452118 7.12721302 -11.05543562 5.30703161 -10 2 C-6.87424861 -1.58882567 -4.39869419 -1.24310923 0 0 Z " fill="#252429" transform="translate(28,18)"/>
<path d="M0 0 C2.475 0.99 2.475 0.99 5 2 C5 4 5 4 2.5625 6.5625 C1.716875 7.366875 0.87125 8.17125 0 9 C-0.33 9.33 -0.66 9.66 -1 10 C-2.66617115 10.04063832 -4.33388095 10.042721 -6 10 C-6.25 4.375 -6.25 4.375 -4 1 C-2.68 1.33 -1.36 1.66 0 2 C0 1.34 0 0.68 0 0 Z " fill="#8B8A8E" transform="translate(17,14)"/>
<path d="M0 0 C0.33 1.32 0.66 2.64 1 4 C2.98 3.67 4.96 3.34 7 3 C8.52448631 5.9826906 9.93940067 8.818202 11 12 C9.02 12 7.04 12 5 12 C5 10.68 5 9.36 5 8 C3.35 8 1.7 8 0 8 C0 5.36 0 2.72 0 0 Z " fill="#636268" transform="translate(10,20)"/>
<path d="M0 0 C0.99 0.33 1.98 0.66 3 1 C4.61729417 4.67566856 4.06546005 9.07239675 4 13 C2.02 13.66 0.04 14.32 -2 15 C-2.33 12.69 -2.66 10.38 -3 8 C-1.68 7.67 -0.36 7.34 1 7 C1.15149298 3.37114676 1.15149298 3.37114676 0 0 Z " fill="#747579" transform="translate(33,13)"/>
<path d="M0 0 C1.05960938 0.00676758 1.05960938 0.00676758 2.140625 0.01367188 C3.88545275 0.02546125 5.630237 0.04339676 7.375 0.0625 C6.08563031 2.64123938 5.02062161 2.99774192 2.375 4.0625 C0.12109375 4.36328125 0.12109375 4.36328125 -2.1875 4.375 C-3.33412109 4.40013672 -3.33412109 4.40013672 -4.50390625 4.42578125 C-7.10397923 3.98046488 -7.97331388 3.06246498 -9.625 1.0625 C-6.55966836 -0.47016582 -3.35745728 -0.04026471 0 0 Z " fill="#3E3D42" transform="translate(25.625,33.9375)"/>
<path d="M0 0 C2.86724686 0.57344937 3.8614515 0.8614515 6 3 C5.625 5.625 5.625 5.625 5 8 C3.68 8.33 2.36 8.66 1 9 C0.29925156 5.846632 0 3.27275026 0 0 Z " fill="#A9A8AD" transform="translate(29,12)"/>
<path d="M0 0 C-1.6875 2.5 -1.6875 2.5 -4 5 C-6.75 5.3125 -6.75 5.3125 -9 5 C-9 3.68 -9 2.36 -9 1 C-3.375 -1.125 -3.375 -1.125 0 0 Z " fill="#79787F" transform="translate(20,19)"/>
<path d="M0 0 C0.33 0 0.66 0 1 0 C1.125 2.875 1.125 2.875 1 6 C-1 8 -1 8 -4.125 8.125 C-5.548125 8.063125 -5.548125 8.063125 -7 8 C-7 7.34 -7 6.68 -7 6 C-5.5459375 5.62875 -5.5459375 5.62875 -4.0625 5.25 C-2.5465625 4.63125 -2.5465625 4.63125 -1 4 C-0.03122943 1.96756452 -0.03122943 1.96756452 0 0 Z " fill="#18181D" transform="translate(29,22)"/>
<path d="M0 0 C0.33 0 0.66 0 1 0 C1 2.64 1 5.28 1 8 C-1.31 8.66 -3.62 9.32 -6 10 C-5.34 8.68 -4.68 7.36 -4 6 C-2.68 6 -1.36 6 0 6 C0 4.02 0 2.04 0 0 Z " fill="#5B5E62" transform="translate(37,20)"/>
</svg>
