<?xml version="1.0" encoding="UTF-8"?>
<svg version="1.1" xmlns="http://www.w3.org/2000/svg" width="225" height="225">
<path d="M0 0 C0.80050781 0.64710937 1.60101563 1.29421875 2.42578125 1.9609375 C22.93312617 19.31603078 36.27877222 45.88446197 39.71875 72.37890625 C42.22542266 104.65231671 34.62660167 133.74516792 14 159 C13.35289062 159.80050781 12.70578125 160.60101563 12.0390625 161.42578125 C-5.31603078 181.93312617 -31.88446197 195.27877222 -58.37890625 198.71875 C-90.65231671 201.22542266 -119.74516792 193.62660167 -145 173 C-145.80050781 172.35289062 -146.60101563 171.70578125 -147.42578125 171.0390625 C-167.93312617 153.68396922 -181.27877222 127.11553803 -184.71875 100.62109375 C-187.22542266 68.34768329 -179.62660167 39.25483208 -159 14 C-158.35289062 13.19949219 -157.70578125 12.39898437 -157.0390625 11.57421875 C-139.68396922 -8.93312617 -113.11553803 -22.27877222 -86.62109375 -25.71875 C-54.34768329 -28.22542266 -25.25483208 -20.62660167 0 0 Z " fill="#324D5B" transform="translate(185,26)"/>
<path d="M0 0 C4.48937437 1.45780422 7.58644857 3.99806179 11.125 7 C23.67925787 17.19843057 38.28071418 24.26633142 54 28 C54.67208496 28.16081055 55.34416992 28.32162109 56.03662109 28.48730469 C70.39766525 31.77505848 85.05591215 32.30933668 99.5390625 29.44921875 C103.42073875 28.7406588 107.38167489 28.19083744 111 30 C112.07455285 62.1358463 97.16978909 99.30923067 75.27148438 122.7668457 C64.80955484 133.54900188 53.24313748 139.9984947 38.13574219 140.53881836 C22.19795636 140.67553265 9.87772299 136.2165858 -2.1875 125.5625 C-9.51532414 117.82673514 -14.5044099 106.46913068 -16 96 C-16.97839844 96.33773437 -17.95679687 96.67546875 -18.96484375 97.0234375 C-25.92799784 99.40133819 -32.76030054 101.60286502 -40 103 C-39.6608026 97.57284163 -36.59357644 93.83314821 -33 90 C-28.11975082 85.95636496 -24.28042557 83.9451804 -18 83 C-18.01571045 82.27111572 -18.0314209 81.54223145 -18.04760742 80.79125977 C-18.3140614 66.51629685 -18.35636286 52.91733219 -15 39 C-14.7215625 37.78054687 -14.443125 36.56109375 -14.15625 35.3046875 C-12.35911902 28.007716 -10.03600547 20.94421652 -7.5 13.875 C-7.21543945 13.06885254 -6.93087891 12.26270508 -6.63769531 11.43212891 C-4.990318 6.97932625 -3.25748349 3.55751487 0 0 Z " fill="#1D8C22" transform="translate(96,42)"/>
<path d="M0 0 C1.96290882 0.30576902 3.92477011 0.62083273 5.87866211 0.97973633 C19.84111362 3.54008807 33.55017977 4.21172921 47.5390625 1.44921875 C51.42073875 0.7406588 55.38167489 0.19083744 59 2 C60.07455285 34.1358463 45.16978909 71.30923067 23.27148438 94.7668457 C12.61765703 105.74677344 1.00403025 112.13264367 -14.37353516 112.3828125 C-26.29915515 112.35042243 -26.29915515 112.35042243 -29 111 C-27.23076339 101.18877881 -24.58772786 91.62002647 -22 82 C-21.02160156 82.02320313 -20.04320313 82.04640625 -19.03515625 82.0703125 C-9.17311811 82.2060731 -1.31664223 82.18978986 7.26171875 76.9140625 C8.15205811 76.36959473 9.04239746 75.82512695 9.9597168 75.26416016 C10.96965698 74.63840088 10.96965698 74.63840088 12 74 C11.29915283 73.79842285 10.59830566 73.5968457 9.8762207 73.38916016 C6.68754429 72.47042029 3.50001793 71.54775074 0.3125 70.625 C-0.79029297 70.30789062 -1.89308594 69.99078125 -3.02929688 69.6640625 C-4.6293457 69.2 -4.6293457 69.2 -6.26171875 68.7265625 C-7.73064575 68.30238037 -7.73064575 68.30238037 -9.22924805 67.86962891 C-11.8836616 67.036514 -14.43285536 66.06947287 -17 65 C-15.57001242 57.32913663 -13.73977585 49.79647727 -11.77734375 42.24609375 C-11.47180069 41.06402847 -11.16625763 39.8819632 -10.85145569 38.66407776 C-10.20989276 36.1854419 -9.56692206 33.70717003 -8.92260742 31.22924805 C-7.93269171 27.41899255 -6.94950396 23.60704212 -5.96679688 19.79492188 C-5.34154885 17.382708 -4.71591186 14.97059491 -4.08984375 12.55859375 C-3.79504623 11.4139415 -3.50024872 10.26928925 -3.19651794 9.08995056 C-2.92275833 8.0411824 -2.64899872 6.99241425 -2.36694336 5.91186523 C-2.12648788 4.9849437 -1.88603241 4.05802216 -1.63829041 3.10301208 C-1 1 -1 1 0 0 Z " fill="#2DAC33" transform="translate(148,70)"/>
<path d="M0 0 C1.31783477 2.63566955 0.75926323 3.67881056 0.0390625 6.5078125 C-0.18523437 7.41273437 -0.40953125 8.31765625 -0.640625 9.25 C-1.00414063 10.673125 -1.00414063 10.673125 -1.375 12.125 C-4.18500224 23.21061322 -5.19466259 33.57894978 -5.5625 45 C-5.62727539 46.87751953 -5.62727539 46.87751953 -5.69335938 48.79296875 C-5.79878017 51.86188523 -5.90090342 54.93087389 -6 58 C-6.67691895 58.25612061 -7.35383789 58.51224121 -8.05126953 58.77612305 C-9.3910083 59.29493042 -9.3910083 59.29493042 -10.7578125 59.82421875 C-11.64098145 60.16283936 -12.52415039 60.50145996 -13.43408203 60.8503418 C-20.08566315 63.83057924 -23.89849507 68.54886975 -27 75 C-27 75.66 -27 76.32 -27 77 C-26.37432129 76.81824219 -25.74864258 76.63648438 -25.10400391 76.44921875 C-22.27845666 75.63006735 -19.45175151 74.8149855 -16.625 74 C-15.64015625 73.71382813 -14.6553125 73.42765625 -13.640625 73.1328125 C-12.22910156 72.72675781 -12.22910156 72.72675781 -10.7890625 72.3125 C-9.91975098 72.06113281 -9.05043945 71.80976563 -8.15478516 71.55078125 C-6 71 -6 71 -4 71 C-3.60167969 72.09699219 -3.20335938 73.19398438 -2.79296875 74.32421875 C-2.25807888 75.77874382 -1.72290775 77.23316548 -1.1875 78.6875 C-0.92646484 79.40873047 -0.66542969 80.12996094 -0.39648438 80.87304688 C1.08143762 84.86891005 2.75243461 88.36204881 5 92 C5 92.66 5 93.32 5 94 C-3.7335522 97.85303774 -13.56674141 98.43676763 -22.625 95.375 C-40.88100792 87.93256495 -51.23095771 72.45344403 -59 55 C-62.39315564 46.51230474 -65.0317541 37.92360135 -67 29 C-67.18949219 28.20335938 -67.37898438 27.40671875 -67.57421875 26.5859375 C-68.0955636 23.41960454 -68.09489694 20.39479686 -68.0625 17.1875 C-68.05347656 16.02605469 -68.04445313 14.86460938 -68.03515625 13.66796875 C-68.02355469 12.78753906 -68.01195313 11.90710938 -68 11 C-67.30519531 11.0721875 -66.61039063 11.144375 -65.89453125 11.21875 C-41.3143892 13.46180479 -22.03401233 11.3617185 0 0 Z " fill="#D45248" transform="translate(84,67)"/>
<path d="M0 0 C12.81602653 2.8035058 25.35054712 6.36094456 37.92382812 10.09326172 C42.94046959 11.57197651 47.96982567 13.00562203 53 14.4375 C53.9084668 14.69644043 54.81693359 14.95538086 55.75292969 15.22216797 C57.83511224 15.81539049 59.9175273 16.40779683 62 17 C56.4069131 22.93712564 50.23591788 26.34112657 42 27 C41.22269531 27.07476562 40.44539063 27.14953125 39.64453125 27.2265625 C29.55369178 27.77988414 19.95338395 24.16387256 12 18 C11.175 17.46375 10.35 16.9275 9.5 16.375 C4.96045816 12.06243525 1.20758497 6.21043697 0 0 Z " fill="#2D4651" transform="translate(99,126)"/>
<path d="M0 0 C10.30888018 2.53627741 20.59071986 5.15480362 30.82397461 7.98217773 C32.25843079 8.37604424 33.6943704 8.76453985 35.1315918 9.14819336 C37.24615531 9.71313145 39.35570769 10.29407724 41.46484375 10.87890625 C42.698396 11.2147876 43.93194824 11.55066895 45.20288086 11.89672852 C46.12593018 12.26080811 47.04897949 12.6248877 48 13 C48.495 14.485 48.495 14.485 49 16 C39.57773209 20.1568829 29.78405029 20.32131894 20.1875 16.75 C15.72140655 14.87371222 11.82300023 12.96282518 8 10 C7.113125 9.34 6.22625 8.68 5.3125 8 C3.14455628 6.12502165 1.53031117 4.4162808 0 2 C0 1.34 0 0.68 0 0 Z " fill="#314E5A" transform="translate(103,134)"/>
<path d="M0 0 C4.86991824 2.73213917 8.74851227 6.34507455 10.6875 11.66796875 C11.17242737 13.57063519 11.5357099 15.50354645 11.875 17.4375 C4.02525111 16.02743195 -3.58610188 14.00473132 -11.25 11.8125 C-12.39726563 11.48765625 -13.54453125 11.1628125 -14.7265625 10.828125 C-17.52702967 10.0346593 -20.32645776 9.23772316 -23.125 8.4375 C-21.10323588 4.00445757 -18.28180509 1.92495179 -14.3125 -0.8125 C-9.29821175 -2.53168454 -4.75444643 -2.12219544 0 0 Z " fill="#2C4751" transform="translate(117.125,89.5625)"/>
<path d="M0 0 C3.76115264 3.14887198 6.94544946 6.60453188 8.6875 11.25 C8.8125 14 8.8125 14 8.6875 16.25 C1.23801184 14.68584448 -6.0539504 12.70345147 -13.375 10.625 C-14.52677734 10.30015625 -15.67855469 9.9753125 -16.86523438 9.640625 C-19.68162217 8.84595956 -22.49734979 8.0490364 -25.3125 7.25 C-23.86908479 4.19066386 -22.73853039 2.50120444 -19.9375 0.5625 C-19.35226563 0.14613281 -18.76703125 -0.27023438 -18.1640625 -0.69921875 C-12.3387298 -4.0051565 -5.72112733 -3.02248236 0 0 Z " fill="#2E4A54" transform="translate(173.3125,106.75)"/>
<path d="M0 0 C-2.66666667 13.33333333 -5.33333333 26.66666667 -8 40 C-9.90055139 36.57393655 -10.9090152 33.10620823 -11.9453125 29.3359375 C-12.12005096 28.70265533 -12.29478943 28.06937317 -12.474823 27.41690063 C-12.84149239 26.0844706 -13.20613003 24.75147997 -13.56884766 23.41796875 C-14.12539414 21.37355217 -14.68914708 19.33122382 -15.25390625 17.2890625 C-18 7.28326232 -18 7.28326232 -18 5 C-17.40832031 4.80664062 -16.81664062 4.61328125 -16.20703125 4.4140625 C-11.1472778 2.7491571 -11.1472778 2.7491571 -6.1875 0.8125 C-4 0 -4 0 0 0 Z " fill="#E0564B" transform="translate(80,71)"/>
<path d="M0 0 C1.31783477 2.63566955 0.75926323 3.67881056 0.0390625 6.5078125 C-0.29738281 7.86519531 -0.29738281 7.86519531 -0.640625 9.25 C-0.88296875 10.19875 -1.1253125 11.1475 -1.375 12.125 C-4.18500224 23.21061322 -5.19466259 33.57894978 -5.5625 45 C-5.60568359 46.25167969 -5.64886719 47.50335938 -5.69335938 48.79296875 C-5.79878017 51.86188523 -5.90090342 54.93087389 -6 58 C-7.65614657 58.38218767 -9.32457024 58.71395102 -11 59 C-12.67112816 57.32887184 -12.17172927 55.36187236 -12.1875 53.0625 C-11.99148954 36.44081327 -9.26214418 19.78643253 -4 4 C-4.66 3.67 -5.32 3.34 -6 3 C-4.02 2.01 -2.04 1.02 0 0 Z " fill="#BA4D40" transform="translate(84,67)"/>
<path d="M0 0 C0.66 4.29 1.32 8.58 2 13 C-5.93711014 15.73981931 -13.73781407 18.40554307 -22 20 C-21.66143876 14.58302008 -18.60115633 10.81737483 -15 7 C-10.42765595 3.38574507 -6.0113314 0 0 0 Z " fill="#334A57" transform="translate(78,125)"/>
<path d="M0 0 C-0.56748126 3.97236879 -1.55358503 6.7943528 -4 10 C-8.34387457 13.07249665 -12.39545748 13.56294967 -17.5859375 13.4375 C-21.5009108 12.72799028 -23.29935333 10.84278597 -26 8 C-25 6 -25 6 -22.80688477 5.22216797 C-21.86127686 4.98127441 -20.91566895 4.74038086 -19.94140625 4.4921875 C-18.91595703 4.22792969 -17.89050781 3.96367188 -16.83398438 3.69140625 C-15.75439453 3.42199219 -14.67480469 3.15257813 -13.5625 2.875 C-11.94891602 2.45927734 -11.94891602 2.45927734 -10.30273438 2.03515625 C-2.31750308 0 -2.31750308 0 0 0 Z " fill="#334B58" transform="translate(61,99)"/>
<path d="M0 0 C0.39832031 1.09699219 0.79664062 2.19398438 1.20703125 3.32421875 C1.74192112 4.77874382 2.27709225 6.23316548 2.8125 7.6875 C3.07353516 8.40873047 3.33457031 9.12996094 3.60351562 9.87304688 C5.08143762 13.86891005 6.75243461 17.36204881 9 21 C9 21.66 9 22.32 9 23 C6.09399739 24.25664978 4.20395416 25 1 25 C-5.70387244 9.43963554 -5.70387244 9.43963554 -6 1 C-3.92446352 0.4465236 -2.15634036 0 0 0 Z " fill="#BA4C40" transform="translate(80,138)"/>
<path d="M0 0 C14.59183749 -0.92223692 14.59183749 -0.92223692 20.578125 3.5546875 C22.49204915 5.50015985 23.39441249 7.35055463 24 10 C17.93629658 9.39502042 12.34485758 8.1366972 6.5 6.4375 C5.67757812 6.20353516 4.85515625 5.96957031 4.0078125 5.72851562 C2.00370942 5.15757928 0.00163409 4.57953295 -2 4 C-1.34 2.68 -0.68 1.36 0 0 Z " fill="#314F59" transform="translate(96,94)"/>
<path d="M0 0 C0.66 0 1.32 0 2 0 C0.44620954 4.87325191 -1.20544948 9.70993055 -3 14.5 C-3.309375 15.3353125 -3.61875 16.170625 -3.9375 17.03125 C-5 19 -5 19 -8 20 C-7.69479473 13.285484 -4.82671135 4.82671135 0 0 Z " fill="#2D4751" transform="translate(90,48)"/>
<path d="M0 0 C-0.75 4.75 -0.75 4.75 -3 7 C-3 6.01 -3 5.02 -3 4 C-4.43750191 2.31201173 -4.43750191 2.31201173 -6 1 C-3.92446352 0.4465236 -2.15634036 0 0 0 Z " fill="#364551" transform="translate(61,99)"/>
</svg>
