<?xml version="1.0" encoding="UTF-8"?>
<!DOCTYPE svg PUBLIC "-//W3C//DTD SVG 1.1//EN" "http://www.w3.org/Graphics/SVG/1.1/DTD/svg11.dtd">
<svg xmlns="http://www.w3.org/2000/svg" version="1.1" width="512px" height="512px" style="shape-rendering:geometricPrecision; text-rendering:geometricPrecision; image-rendering:optimizeQuality; fill-rule:evenodd; clip-rule:evenodd" xmlns:xlink="http://www.w3.org/1999/xlink">
<g><path style="opacity:0.96" fill="#020202" d="M 345.5,-0.5 C 358.5,-0.5 371.5,-0.5 384.5,-0.5C 427.412,4.2055 462.579,23.2055 490,56.5C 496.226,65.5066 499.893,75.5066 501,86.5C 503.054,117.8 499.387,148.467 490,178.5C 478.153,218.718 461.653,256.884 440.5,293C 452.306,291.886 464.139,290.386 476,288.5C 496.152,289.167 505.485,299.5 504,319.5C 501.496,327.341 497.329,334.174 491.5,340C 476.807,352.846 459.807,361.179 440.5,365C 427.473,367.119 414.473,368.286 401.5,368.5C 400.764,395.187 397.264,421.521 391,447.5C 383.657,475.507 366.491,494.674 339.5,505C 331.081,507.354 322.747,509.52 314.5,511.5C 306.5,511.5 298.5,511.5 290.5,511.5C 269.541,506.579 255.375,493.912 248,473.5C 243.59,462.192 240.59,450.525 239,438.5C 237.212,419.871 236.045,401.204 235.5,382.5C 208.377,391.747 182.044,389.914 156.5,377C 154.093,374.715 151.593,372.549 149,370.5C 130.18,384.571 111.014,385.071 91.5,372C 78.8272,361.156 68.6605,348.322 61,333.5C 40.9529,290.991 26.2863,246.658 17,200.5C 13.2442,183.632 10.2442,166.632 8,149.5C 4.98169,122.118 7.98169,95.4516 17,69.5C 30.9108,36.5991 55.4108,16.4324 90.5,9C 128.967,3.16212 166.467,6.99545 203,20.5C 222.575,9.14813 243.742,3.8148 266.5,4.5C 278.891,4.78262 291.225,5.78262 303.5,7.5C 317.508,4.16389 331.508,1.49722 345.5,-0.5 Z"/></g>
<g><path style="opacity:1" fill="#fbfbfc" d="M 344.5,13.5 C 378.386,10.1715 410.386,16.3382 440.5,32C 453.857,40.3542 465.69,50.5208 476,62.5C 481.526,69.5562 484.859,77.5562 486,86.5C 487.226,123.25 481.559,158.916 469,193.5C 455.764,231.97 438.264,268.303 416.5,302.5C 422.767,306.308 429.6,307.974 437,307.5C 447.946,306.841 458.78,305.341 469.5,303C 475.895,301.716 481.729,302.883 487,306.5C 490.394,312.559 489.727,318.226 485,323.5C 468.04,340.394 447.54,349.894 423.5,352C 412.066,352.958 400.732,352.458 389.5,350.5C 386.906,380.976 383.072,411.31 378,441.5C 374.212,468.26 359.379,485.426 333.5,493C 324,495.8 314.333,497.633 304.5,498.5C 278.741,496.587 261.908,483.254 254,458.5C 251.359,447.651 249.692,436.651 249,425.5C 247.885,402.515 247.218,379.515 247,356.5C 227.902,371.338 206.402,376.171 182.5,371C 172.338,369.343 164.171,364.51 158,356.5C 156.289,350.306 157.789,345.14 162.5,341C 165.167,339.667 167.833,338.333 170.5,337C 181.418,334.883 192.084,331.883 202.5,328C 207.389,323.614 211.722,318.78 215.5,313.5C 209.412,312.791 203.412,311.624 197.5,310C 193.832,308.317 190.165,306.984 186.5,306C 173.628,319.87 161.128,334.036 149,348.5C 127.589,371.733 106.923,371.067 87,346.5C 74.0305,327.228 63.6972,306.561 56,284.5C 39.6272,237.676 28.2939,189.676 22,140.5C 18.9121,111.752 24.2454,84.7523 38,59.5C 53.1439,37.7374 73.9773,24.904 100.5,21C 136.463,17.7441 171.296,22.5774 205,35.5C 227.763,21.0788 252.597,15.5788 279.5,19C 287,20.1667 294.5,21.3333 302,22.5C 316.107,18.5933 330.274,15.5933 344.5,13.5 Z"/></g>
<g><path style="opacity:1" fill="#346791" d="M 350.5,27.5 C 380.262,25.109 408.262,30.9424 434.5,45C 449,54.1667 460.833,66 470,80.5C 472.929,95.4032 473.262,110.403 471,125.5C 460.925,184.29 439.759,238.624 407.5,288.5C 406.28,288.113 405.613,287.28 405.5,286C 414.814,269.022 418.314,250.856 416,231.5C 414.653,219.011 413.486,206.511 412.5,194C 413.25,181.414 414.75,168.914 417,156.5C 417.667,149.167 417.667,141.833 417,134.5C 401.765,87.9371 372.265,53.7705 328.5,32C 335.751,29.7386 343.084,28.2386 350.5,27.5 Z"/></g>
<g><path style="opacity:1" fill="#336791" d="M 255.5,32.5 C 324.584,33.1188 372.75,65.1188 400,128.5C 400.49,129.793 400.657,131.127 400.5,132.5C 389.047,131.949 377.713,132.782 366.5,135C 346.83,142.827 338.33,157.327 341,178.5C 343.13,193.016 347.13,207.016 353,220.5C 362.744,240.323 372.744,259.989 383,279.5C 387.392,287.225 392.559,294.392 398.5,301C 387.667,303.833 380.833,310.667 378,321.5C 375.057,360.709 370.39,399.709 364,438.5C 361.863,456.999 352.363,469.832 335.5,477C 321.332,483.251 306.665,484.918 291.5,482C 280.543,477.042 273.043,468.875 269,457.5C 267.198,452.625 265.865,447.625 265,442.5C 261.547,405.222 260.714,367.889 262.5,330.5C 260.802,311.465 250.469,301.799 231.5,301.5C 231.421,298.729 231.921,296.063 233,293.5C 239.392,278.325 245.392,262.991 251,247.5C 258.228,215.675 256.561,184.342 246,153.5C 235.668,138.042 221.168,131.875 202.5,135C 190.051,137.093 178.385,141.26 167.5,147.5C 168.197,117.573 177.031,90.2401 194,65.5C 209.924,45.955 230.424,34.955 255.5,32.5 Z"/></g>
<g><path style="opacity:1" fill="#336791" d="M 107.5,34.5 C 136.368,32.7214 164.368,36.7214 191.5,46.5C 167.017,75.1662 153.85,108.5 152,146.5C 151.68,160.666 151.847,174.833 152.5,189C 151.665,209.856 150.832,230.689 150,251.5C 153.195,269.561 161.362,284.894 174.5,297.5C 159.648,313.851 144.981,330.351 130.5,347C 122.803,352.923 115.136,352.923 107.5,347C 95.4782,335.141 86.3115,321.308 80,305.5C 56.2978,248.191 41.4645,188.691 35.5,127C 35.1192,107.902 38.9525,89.7353 47,72.5C 60.8699,49.7947 81.0366,37.128 107.5,34.5 Z"/></g>
<g><path style="opacity:1" fill="#366892" d="M 378.5,146.5 C 386.521,146.442 394.521,146.776 402.5,147.5C 400.839,162.299 399.505,177.132 398.5,192C 399.269,208.047 400.602,224.047 402.5,240C 402.64,251.331 400.474,262.165 396,272.5C 385.49,253.481 375.49,234.147 366,214.5C 358.85,199.239 355.184,183.239 355,166.5C 358.369,154.568 366.202,147.902 378.5,146.5 Z"/></g>
<g><path style="opacity:1" fill="#346791" d="M 201.5,149.5 C 207.176,149.334 212.843,149.501 218.5,150C 228.205,151.874 234.038,157.708 236,167.5C 242.141,191.729 242.808,216.063 238,240.5C 232.894,255.379 227.228,270.045 221,284.5C 219.107,289.007 217.941,293.673 217.5,298.5C 190.973,296.152 173.806,282.152 166,256.5C 165.118,253.211 164.452,249.877 164,246.5C 165.884,219.23 166.884,191.897 167,164.5C 177.704,157.392 189.204,152.392 201.5,149.5 Z"/></g>
<g><path style="opacity:1" fill="#f8fafb" d="M 374.5,153.5 C 379.37,153.032 384.036,153.698 388.5,155.5C 389.38,162.161 386.38,166.328 379.5,168C 373.971,168.822 369.471,166.989 366,162.5C 365.333,161.167 365.333,159.833 366,158.5C 368.682,156.415 371.516,154.748 374.5,153.5 Z"/></g>
<g><path style="opacity:1" fill="#f9fafb" d="M 206.5,157.5 C 214.139,156.633 221.305,157.966 228,161.5C 230.034,166.887 228.201,170.72 222.5,173C 213.71,175.523 207.21,172.69 203,164.5C 202.176,161.16 203.343,158.827 206.5,157.5 Z"/></g>
<g><path style="opacity:1" fill="#366992" d="M 404.5,313.5 C 407.562,314.692 410.562,316.192 413.5,318C 417.057,319.408 420.724,320.408 424.5,321C 433.167,321.667 441.833,321.667 450.5,321C 457.156,319.556 463.823,318.556 470.5,318C 447.254,335.81 421.254,341.643 392.5,335.5C 389.324,324.055 393.324,316.722 404.5,313.5 Z"/></g>
<g><path style="opacity:1" fill="#376992" d="M 233.5,315.5 C 244.371,317.228 248.871,323.561 247,334.5C 231.479,355.012 210.979,362.512 185.5,357C 181.072,356.303 177.072,354.637 173.5,352C 182.657,348.912 191.99,346.245 201.5,344C 208.05,342.11 213.55,338.61 218,333.5C 222.687,326.988 227.854,320.988 233.5,315.5 Z"/></g>
</svg>
