<?xml version="1.0" encoding="UTF-8"?>
<svg version="1.1" xmlns="http://www.w3.org/2000/svg" width="225" height="225">
<path d="M0 0 C5.34304664 3.63242522 7.661278 7.44430242 10.28515625 13.25390625 C10.66307312 14.05856827 11.04098999 14.86323029 11.43035889 15.692276 C12.65533127 18.30930664 13.85896141 20.93555273 15.0625 23.5625 C15.91166728 25.38717892 16.76218348 27.21123067 17.61401367 29.03466797 C19.71382495 33.53770241 21.79720507 38.04810294 23.87524414 42.56121826 C25.45390824 45.98419859 27.04617151 49.40075947 28.640625 52.81640625 C30.73652843 57.31173379 32.82529087 61.81023488 34.90625 66.3125 C38.19346442 73.4236169 41.49978909 80.52573752 44.8125 87.625 C45.0975943 88.23610626 45.3826886 88.84721252 45.67642212 89.47683716 C51.25386597 101.42928891 56.86885063 113.36403404 62.49536133 125.29345703 C63.74437193 127.94168071 64.9900769 130.5914182 66.2331543 133.24243164 C67.40295448 135.73677857 68.58528617 138.22460835 69.77661133 140.70874023 C70.59295044 142.43072632 70.59295044 142.43072632 71.42578125 144.1875 C71.90700439 145.19296875 72.38822754 146.1984375 72.8840332 147.234375 C74.45049985 151.11644329 75.34753051 154.95740847 74 159 C69.86963831 165.45720304 65.04389201 166.81569451 57.8671875 168.875 C56.76510956 169.20886719 55.66303162 169.54273438 54.52755737 169.88671875 C51.02372948 170.943442 47.51234387 171.97198506 44 173 C41.77576379 173.66726279 39.55211953 174.33650225 37.32910156 175.0078125 C30.60241386 177.03265177 23.8645009 179.01830612 17.125 181 C13.73474234 182.00003567 10.34472055 183.00086694 6.95477295 184.00195312 C4.71050986 184.66376608 2.4657629 185.32394057 0.22052002 185.98242188 C-5.68416087 187.71565427 -11.57843629 189.47724084 -17.46191406 191.28125 C-18.68339142 191.6525 -19.90486877 192.02375 -21.1633606 192.40625 C-23.49949621 193.11710896 -25.8333726 193.83545073 -28.16452026 194.5625 C-40.8206799 198.39485366 -40.8206799 198.39485366 -46.72338867 195.80517578 C-49.27791751 193.77963302 -50.70643343 191.88357242 -52.42578125 189.1171875 C-53.04984863 188.12662354 -53.67391602 187.13605957 -54.31689453 186.11547852 C-54.97544434 185.04612061 -55.63399414 183.9767627 -56.3125 182.875 C-57.36969162 181.18927781 -58.4269019 179.50356697 -59.48522949 177.81855774 C-60.58627185 176.06281111 -61.68265582 174.30421264 -62.77880859 172.54541016 C-64.95717084 169.05842593 -67.17002114 165.59440052 -69.39453125 162.13671875 C-70.10375732 161.03408691 -70.8129834 159.93145508 -71.54370117 158.79541016 C-72.23052979 157.7285498 -72.9173584 156.66168945 -73.625 155.5625 C-75.51465098 152.6262695 -77.39977686 149.68813396 -79.26269531 146.73486328 C-80.41504478 144.92083592 -81.59144782 143.12185309 -82.79199219 141.33935547 C-86.33299383 135.90353464 -87.9936971 132.50972996 -87 126 C-85.70703125 122.89453125 -85.70703125 122.89453125 -83.8125 119.8125 C-83.46010254 119.22847412 -83.10770508 118.64444824 -82.74462891 118.04272461 C-81.51462618 116.01673069 -80.25797928 114.00873105 -79 112 C-78.02110346 110.41209404 -77.04329209 108.82351874 -76.06640625 107.234375 C-73.88050033 103.68679069 -71.68353669 100.14632438 -69.48046875 96.609375 C-66.01219108 91.0328904 -62.59493524 85.42630997 -59.1875 79.8125 C-53.48550389 70.4232769 -47.73853583 61.06251487 -41.97265625 51.71240234 C-38.10830311 45.44125368 -34.26890083 39.15595151 -30.45458984 32.85424805 C-25.65332665 24.92931142 -20.8309733 17.01684304 -15.875 9.1875 C-15.43760498 8.48165771 -15.00020996 7.77581543 -14.54956055 7.04858398 C-10.54465656 0.79735221 -7.46852094 -0.90137322 0 0 Z " fill="#0E354C" transform="translate(119,14)"/>
<path d="M0 0 C3.31198115 1.24082249 4.07219203 2.83783685 5.56974792 5.95269775 C5.87971207 6.64474304 6.18967621 7.33678833 6.5090332 8.04980469 C6.84844437 8.76779236 7.18785553 9.48578003 7.53755188 10.2255249 C8.2478023 11.73238107 8.95011153 13.2430033 9.64483643 14.75708008 C10.61408624 16.86603379 11.60529288 18.96252381 12.6081543 21.05566406 C14.54880963 25.11126264 16.45828582 29.18105557 18.36450195 33.25292969 C19.0634543 34.74223615 19.76251232 36.23149301 20.46166992 37.72070312 C25.82039505 49.14249572 31.13845889 60.58305057 36.44262695 72.03027344 C39.96577667 79.63154497 43.50756417 87.22406851 47.05200195 94.81542969 C47.33537415 95.42237671 47.61874634 96.02932373 47.91070557 96.65466309 C48.73639953 98.42311936 49.56216905 100.19154035 50.38793945 101.95996094 C50.91871094 103.10416504 51.44948242 104.24836914 51.99633789 105.42724609 C53.1911196 107.96919451 54.40512512 110.4935064 55.64672852 113.01220703 C55.97130035 113.68064133 56.29587219 114.34907562 56.63027954 115.0377655 C57.25244003 116.31790472 57.8835542 117.59374679 58.52523804 118.86421204 C60.394733 122.74221911 60.99982736 125.71262089 60.67700195 130.00292969 C55.08863297 132.5475527 49.44358011 134.38584426 43.5559082 136.11230469 C42.58654327 136.40016342 41.61717834 136.68802216 40.61843872 136.98460388 C37.49332304 137.91147722 34.36646471 138.83230911 31.23950195 139.75292969 C29.09658336 140.38712577 26.95376118 141.02164774 24.81103516 141.65649414 C11.5452777 145.58322523 -1.72612848 149.49176633 -15.01904297 153.32568359 C-16.68685095 153.81593466 -18.35061976 154.31999666 -20.01171875 154.83251953 C-20.90076904 155.10660645 -21.78981934 155.38069336 -22.70581055 155.66308594 C-23.50519043 155.91324463 -24.30457031 156.16340332 -25.12817383 156.42114258 C-27.92739979 157.16313985 -30.44673723 157.2979308 -33.32299805 157.00292969 C-33.65299805 156.67292969 -33.98299805 156.34292969 -34.32299805 156.00292969 C-34.23031719 147.42716979 -32.46330858 139.14033844 -30.57299805 130.81542969 C-30.02463747 128.33268442 -29.47779121 125.84960426 -28.93237305 123.36621094 C-28.52341797 121.51116943 -28.52341797 121.51116943 -28.10620117 119.61865234 C-26.94537738 114.25961233 -25.87989562 108.88326366 -24.82299805 103.50292969 C-23.15284723 95.04712631 -21.39791166 86.61415197 -19.57299805 78.19042969 C-16.44632196 63.75529637 -13.50117682 49.28426295 -10.57006836 34.80834961 C-8.80412575 26.10380707 -7.00961015 17.40641654 -5.11206055 8.72949219 C-4.94652679 7.96164398 -4.78099304 7.19379578 -4.61044312 6.40267944 C-3.19347286 0.0040275 -3.19347286 0.0040275 0 0 Z " fill="#FDFDFD" transform="translate(119.322998046875,38.9970703125)"/>
</svg>
