<svg version="1.1" id="Layer_1" xmlns="http://www.w3.org/2000/svg" xmlns:xlink="http://www.w3.org/1999/xlink" x="0px" y="0px"
	 width="100%" viewBox="0 0 224 224" enable-background="new 0 0 224 224" xml:space="preserve">
<path fill="#000000" opacity="1.000000" stroke="none" 
	d="
M106.000000,225.000000 
	C70.666672,225.000000 35.833336,225.000000 1.000005,225.000000 
	C1.000003,150.333344 1.000003,75.666679 1.000002,1.000015 
	C75.666656,1.000010 150.333313,1.000010 224.999969,1.000005 
	C224.999985,75.666649 224.999985,150.333298 225.000000,224.999969 
	C185.500000,225.000000 146.000000,225.000000 106.000000,225.000000 
M98.729546,164.877701 
	C102.842644,165.642899 106.955742,166.408081 111.360214,167.227478 
	C111.360214,143.993622 111.360214,121.764648 111.360214,99.097412 
	C108.632355,99.472351 106.192574,99.727066 103.782753,100.151749 
	C85.228737,103.421524 72.524612,119.314499 74.672104,136.896042 
	C76.406090,151.092255 85.381424,159.455582 98.729546,164.877701 
M111.616524,69.546547 
	C111.616524,66.140541 111.616524,62.734528 111.616524,59.385803 
	C98.815178,59.385803 86.869736,59.385803 74.655563,59.385803 
	C74.655563,71.680771 74.655563,83.749763 74.655563,96.246391 
	C80.950905,96.246391 87.086441,96.246391 93.221970,96.246391 
	C99.307510,96.246391 105.393059,96.246391 111.616501,96.246391 
	C111.616501,87.188583 111.616501,78.861458 111.616524,69.546547 
M150.818298,71.895676 
	C150.369537,71.011223 149.922668,70.125809 149.471695,69.242493 
	C145.816772,62.083519 137.971466,58.082623 130.155075,59.390663 
	C122.060265,60.745300 116.278946,66.751945 114.721436,75.425797 
	C113.476143,82.360947 117.660133,90.374649 124.436523,93.934570 
	C131.266739,97.522774 138.029541,97.044373 144.131790,92.584709 
	C150.857849,87.669167 152.756256,80.709015 150.818298,71.895676 
z"/>
<path fill="#F9F9F9" opacity="1.000000" stroke="none" 
	d="
M98.347488,164.777100 
	C85.381424,159.455582 76.406090,151.092255 74.672104,136.896042 
	C72.524612,119.314499 85.228737,103.421524 103.782753,100.151749 
	C106.192574,99.727066 108.632355,99.472351 111.360214,99.097412 
	C111.360214,121.764648 111.360214,143.993622 111.360214,167.227478 
	C106.955742,166.408081 102.842644,165.642899 98.347488,164.777100 
z"/>
<path fill="#F7F7F7" opacity="1.000000" stroke="none" 
	d="
M111.616516,70.040436 
	C111.616501,78.861458 111.616501,87.188583 111.616501,96.246391 
	C105.393059,96.246391 99.307510,96.246391 93.221970,96.246391 
	C87.086441,96.246391 80.950905,96.246391 74.655563,96.246391 
	C74.655563,83.749763 74.655563,71.680771 74.655563,59.385803 
	C86.869736,59.385803 98.815178,59.385803 111.616524,59.385803 
	C111.616524,62.734528 111.616524,66.140541 111.616516,70.040436 
z"/>
<path fill="#FAFAFA" opacity="1.000000" stroke="none" 
	d="
M150.894135,72.284546 
	C152.756256,80.709015 150.857849,87.669167 144.131790,92.584709 
	C138.029541,97.044373 131.266739,97.522774 124.436523,93.934570 
	C117.660133,90.374649 113.476143,82.360947 114.721436,75.425797 
	C116.278946,66.751945 122.060265,60.745300 130.155075,59.390663 
	C137.971466,58.082623 145.816772,62.083519 149.471695,69.242493 
	C149.922668,70.125809 150.369537,71.011223 150.894135,72.284546 
z"/>
</svg>