<?xml version="1.0" encoding="UTF-8"?>
<svg version="1.1" xmlns="http://www.w3.org/2000/svg" width="200" height="200">
<path d="M0 0 C7.93274984 4.30062 14.49927581 9.78130289 21 16 C24.34503891 14.58983654 26.93419697 12.51370678 29.72119141 10.21630859 C41.24842638 0.71417118 51.77813336 -5.12376197 67 -4 C73.30286167 -1.82264779 77.25507477 2.25365377 80.25 8.125 C85.81168894 19.84101686 84.4448718 37.01096863 80.65625 49.21875 C80.4396875 49.8065625 80.223125 50.394375 80 51 C81.155 51.165 82.31 51.33 83.5 51.5 C96.90648 54.47449636 110.93489932 62.8574267 119 74 C121.7365164 78.60232303 121.62138321 83.79790725 121 89 C118.06615836 99.19417128 109.19077879 105.34801214 100.36816406 110.26367188 C93.91221491 113.71193273 87.40378225 117 80 117 C80.2165625 117.5878125 80.433125 118.175625 80.65625 118.78125 C82.96843446 126.23162215 83.36131992 133.35939279 83.4375 141.125 C83.45941406 142.13755859 83.48132813 143.15011719 83.50390625 144.19335938 C83.48240377 152.45568816 81.70470013 159.77274623 76.625 166.4375 C72.4321129 170.53055645 68.21599985 172.53113906 62.32421875 173.05859375 C48.98234043 172.72224388 38.20295888 165.4013449 28.41015625 157.05078125 C26.3259418 155.27734108 24.20844809 153.61406299 22 152 C21.29617187 152.6290625 20.59234375 153.258125 19.8671875 153.90625 C9.24020212 163.11815378 -3.89718911 173.59999771 -18.7578125 172.86328125 C-24.67590558 171.900487 -29.59466315 170.07534712 -33.40234375 165.20703125 C-38.33222179 157.81935895 -39.36315901 150.6532236 -39.3125 141.9375 C-39.31121094 141.01880127 -39.30992188 140.10010254 -39.30859375 139.15356445 C-39.20107349 131.46250594 -38.09519139 124.42046951 -36 117 C-37.02480469 116.89042969 -38.04960938 116.78085938 -39.10546875 116.66796875 C-51.02819738 114.62304739 -65.51311359 106.73096642 -73 97 C-76.20967844 91.72355532 -78.29823236 86.22456053 -77 80 C-73.23841885 68.69717203 -65.18980425 62.82730287 -54.9375 57.6875 C-41.37554119 51 -41.37554119 51 -36 51 C-36.2165625 50.22140625 -36.433125 49.4428125 -36.65625 48.640625 C-39.73745452 36.25874756 -42.37449928 18.73895465 -36 7 C-26.91005852 -6.29059625 -13.83537293 -6.71890237 0 0 Z M-26 10 C-31.80743691 20.44401961 -29.59743164 34.8708586 -27 46 C-26.67 46.66 -26.34 47.32 -26 48 C-22.22853482 47.52572253 -18.45795448 47.04474135 -14.6875 46.5625 C-13.61564453 46.42779297 -12.54378906 46.29308594 -11.43945312 46.15429688 C-10.41142578 46.02216797 -9.38339844 45.89003906 -8.32421875 45.75390625 C-7.37635498 45.63345947 -6.42849121 45.5130127 -5.4519043 45.38891602 C-0.04829417 44.53180649 1.77434796 42.0664936 4.875 37.875 C5.53991455 36.9929187 5.53991455 36.9929187 6.21826172 36.09301758 C9.21113298 32.1085721 12.14858789 28.08702402 15 24 C9.60609343 18.63095014 4.2289279 14.24494205 -2.375 10.5 C-2.96941895 10.16226562 -3.56383789 9.82453125 -4.17626953 9.4765625 C-11.29433412 5.56939691 -20.07276292 3.05666514 -26 10 Z M29 24 C32.98954451 29.41006415 37.12379017 34.68184466 41.36328125 39.8984375 C43 42 43 42 44 44 C46.2530295 44.67544553 46.2530295 44.67544553 48.98828125 45.10546875 C50.00470703 45.28400391 51.02113281 45.46253906 52.06835938 45.64648438 C53.13892578 45.82501953 54.20949219 46.00355469 55.3125 46.1875 C56.37146484 46.37763672 57.43042969 46.56777344 58.52148438 46.76367188 C64.7972612 47.97751511 64.7972612 47.97751511 71 47 C72.65599989 40.28728615 73.23859783 33.70103539 73.3125 26.8125 C73.32990234 26.06500488 73.34730469 25.31750977 73.36523438 24.54736328 C73.35956514 18.11703824 72.16500155 12.47428749 67.8125 7.5 C54.08151387 0.1768074 38.46087989 15.59032899 29 24 Z M21 32 C19.56197818 33.5910643 18.19674665 35.2486015 16.875 36.9375 C16.15054688 37.85402344 15.42609375 38.77054688 14.6796875 39.71484375 C12.90129017 41.66161306 12.90129017 41.66161306 13 43 C18.94 43 24.88 43 31 43 C28.47050641 38.78417734 26.25335314 35.58703038 23 32 C22.34 32 21.68 32 21 32 Z M13.9140625 52.5234375 C9.87365781 52.18753687 7.72003896 52.29953566 4 54 C-1.19754781 59.80299962 -4.55084861 67.0787119 -8 74 C-8.40460449 74.74620605 -8.80920898 75.49241211 -9.22607422 76.26123047 C-12.04053188 81.350193 -12.04053188 81.350193 -12 87 C-10.65006724 90.03234612 -9.04140758 92.88175369 -7.375 95.75 C-6.91641602 96.55042725 -6.45783203 97.35085449 -5.98535156 98.17553711 C-4.6688554 100.45757218 -3.33520795 102.72888388 -2 105 C-1.11441406 106.55654297 -1.11441406 106.55654297 -0.2109375 108.14453125 C0.51222656 109.34142578 0.51222656 109.34142578 1.25 110.5625 C1.64703125 111.22378906 2.0440625 111.88507813 2.453125 112.56640625 C6.97781322 116.75974104 16.70662829 115.18415123 22.5 115.1875 C24.17255859 115.20586914 24.17255859 115.20586914 25.87890625 115.22460938 C33.72535816 115.43724333 33.72535816 115.43724333 41 113 C42.75101346 110.70975735 44.08132956 108.68973874 45.4375 106.1875 C45.81366455 105.52113525 46.1898291 104.85477051 46.57739258 104.16821289 C47.35028512 102.79285885 48.11549545 101.41316011 48.87304688 100.02929688 C49.94338776 98.10194128 51.06171214 96.21402697 52.203125 94.328125 C52.85796875 93.20921875 53.5128125 92.0903125 54.1875 90.9375 C54.77917969 89.93589844 55.37085938 88.93429688 55.98046875 87.90234375 C57.35800436 83.9808535 56.76795651 82.7636044 55 79 C53.10586325 75.40700975 51.10228008 71.88701136 49.0625 68.375 C48.25522461 66.96347656 48.25522461 66.96347656 47.43164062 65.5234375 C44.07164308 59.51943773 44.07164308 59.51943773 40 54 C37.15548809 53.29413901 37.15548809 53.29413901 33.9375 53.25 C32.77089844 53.19585937 31.60429688 53.14171875 30.40234375 53.0859375 C28.71818359 53.04339844 28.71818359 53.04339844 27 53 C26.13503906 52.97164062 25.27007812 52.94328125 24.37890625 52.9140625 C22.78132953 52.88782971 21.18231742 52.90940089 19.5859375 52.9765625 C17 53 17 53 13.9140625 52.5234375 Z M52 55 C53.26486115 57.27434653 54.53654703 59.54438745 55.8125 61.8125 C56.16892578 62.45509766 56.52535156 63.09769531 56.89257812 63.75976562 C58.6465286 66.86538435 60.25964807 69.67459095 63 72 C63.67260351 70.23141309 64.33788395 68.46003984 65 66.6875 C65.556875 65.20830078 65.556875 65.20830078 66.125 63.69921875 C67.15418502 60.99728344 67.15418502 60.99728344 67 58 C64.87562952 57.49733206 62.75048274 56.9979439 60.625 56.5 C58.84996094 56.08234375 58.84996094 56.08234375 57.0390625 55.65625 C54.19236158 54.92964224 54.19236158 54.92964224 52 55 Z M-23 58 C-22.52140759 59.60433809 -22.04210442 61.20846416 -21.5625 62.8125 C-21.29566406 63.70582031 -21.02882812 64.59914063 -20.75390625 65.51953125 C-20.19612127 67.35473055 -19.60655425 69.18033726 -19 71 C-16.40691686 69.70345843 -15.59623957 68.16032175 -14 65.75 C-13.2265625 64.59757812 -13.2265625 64.59757812 -12.4375 63.421875 C-11.00537176 61.00905024 -9.96943053 58.62864817 -9 56 C-14.19209404 55.78807779 -18.126739 56.4087311 -23 58 Z M77 60 C75.68373309 63.41522737 74.37264674 66.83242064 73.0625 70.25 C72.68931641 71.21808594 72.31613281 72.18617187 71.93164062 73.18359375 C71.39506836 74.58544922 71.39506836 74.58544922 70.84765625 76.015625 C70.51773682 76.87446289 70.18781738 77.73330078 69.84790039 78.61816406 C68.25606398 83.08978975 67.73137208 85.15386714 69.58203125 89.66015625 C69.93716797 90.53607422 70.29230469 91.41199219 70.65820312 92.31445312 C71.03912109 93.22130859 71.42003906 94.12816406 71.8125 95.0625 C72.36647461 96.42858398 72.36647461 96.42858398 72.93164062 97.82226562 C74.42562548 101.4620097 75.81007333 104.71511 78 108 C78 107.01 78 106.02 78 105 C78.87011719 105.20753906 79.74023438 105.41507813 80.63671875 105.62890625 C88.55432505 106.50250973 96.78002183 100.98254365 103.08984375 96.55078125 C107.12077196 93.27822808 110.70854837 89.56477432 111.3125 84.25 C110.84987561 79.43870632 108.86756508 76.69113612 105.3046875 73.46484375 C96.83002154 66.75716279 87.23995795 63.14940287 77 60 Z M-64 76 C-66.28958381 79.39744694 -66.9879328 81.33630387 -67.0625 85.4375 C-64.64047572 93.55840494 -58.62581417 97.36078846 -51.45703125 101.35546875 C-45.50722444 104.18582883 -39.30688135 106.13033709 -33 108 C-31.6803392 104.77371408 -30.37055472 101.54350696 -29.0625 98.3125 C-28.68931641 97.40048828 -28.31613281 96.48847656 -27.93164062 95.54882812 C-27.57392578 94.66259766 -27.21621094 93.77636719 -26.84765625 92.86328125 C-26.3527771 91.64572144 -26.3527771 91.64572144 -25.84790039 90.40356445 C-24.05196707 85.31258732 -23.8028321 82.55195963 -25.87109375 77.48046875 C-26.48500977 75.9480957 -26.48500977 75.9480957 -27.11132812 74.38476562 C-27.7677832 72.80211914 -27.7677832 72.80211914 -28.4375 71.1875 C-28.87126953 70.11306641 -29.30503906 69.03863281 -29.75195312 67.93164062 C-30.82323297 65.28287177 -31.90619552 62.63952875 -33 60 C-42.71842885 60 -57.33958418 69.49816551 -64 76 Z M62 96 C60.43099902 98.43803176 58.9207249 100.88554442 57.4375 103.375 C57.01275391 104.07367188 56.58800781 104.77234375 56.15039062 105.4921875 C53.82395468 108.99899243 53.82395468 108.99899243 53 113 C57.29 112.34 61.58 111.68 66 111 C67.11581881 106.53672476 66.68986512 105.39238394 65.0625 101.25 C64.49208984 99.77273437 64.49208984 99.77273437 63.91015625 98.265625 C63.45962891 97.14414063 63.45962891 97.14414063 63 96 C62.67 96 62.34 96 62 96 Z M-19 97 C-19.6987693 98.76641683 -20.38366583 100.53832664 -21.0625 102.3125 C-21.44535156 103.29863281 -21.82820313 104.28476563 -22.22265625 105.30078125 C-23.29389848 108.06233263 -23.29389848 108.06233263 -22 111 C-17.38 111.66 -12.76 112.32 -8 113 C-8.56589844 112.01257813 -9.13179687 111.02515625 -9.71484375 110.0078125 C-10.45575759 108.71355794 -11.19664145 107.41928621 -11.9375 106.125 C-12.31068359 105.47402344 -12.68386719 104.82304688 -13.06835938 104.15234375 C-15.88671875 99.2265625 -15.88671875 99.2265625 -17 97 C-17.66 97 -18.32 97 -19 97 Z M-26 120 C-29.44637029 131.25814296 -31.55265225 145.05256593 -26.96484375 156.2578125 C-25.34591643 159.18105778 -24.00017635 160.49991183 -21 162 C-10.9397138 163.85939142 -2.6897417 158.14096085 5.40234375 152.8828125 C9.00076984 150.27462998 12.0496834 147.31281284 15 144 C14.50693359 143.34257812 14.50693359 143.34257812 14.00390625 142.671875 C13.52824219 142.03765625 13.05257812 141.4034375 12.5625 140.75 C11.99144531 140.028125 11.42039063 139.30625 10.83203125 138.5625 C9 136 9 136 7.51171875 132.9375 C4.71333588 127.8743505 2.61208703 124.81927494 -2.95166016 123.07421875 C-10.55416654 121.44643149 -18.25552208 120.61005353 -26 120 Z M47.97753906 122.79931641 C39.98548976 126.02208604 35.35683037 133.92320626 31 141 C30.34 141.99 29.68 142.98 29 144 C35.22488497 149.95999625 41.37284912 154.95981142 49 159 C50.155 159.61875 51.31 160.2375 52.5 160.875 C57.10129253 162.35398689 61.21727994 162.85926835 66 162 C70.313102 158.94488608 71.68476441 156.01289354 73 151 C73.27834663 147.93244797 73.28482201 144.89088782 73.25 141.8125 C73.24468262 140.97477051 73.23936523 140.13704102 73.23388672 139.27392578 C73.14053884 133.15668597 73.01165276 126.83627653 71 121 C64.90174902 117.95087451 54.26586 121.15328399 47.97753906 122.79931641 Z M13 125 C15.63252093 129.38814114 15.63252093 129.38814114 18.6875 133.3125 C19.450625 134.199375 20.21375 135.08625 21 136 C24.415759 134.55661511 26.36026263 132.75105832 28.75 129.9375 C29.36359375 129.22464844 29.9771875 128.51179687 30.609375 127.77734375 C32.10270249 126.24485712 32.10270249 126.24485712 32 125 C25.73 125 19.46 125 13 125 Z " fill="#69529C" transform="translate(78,16)"/>
<path d="M0 0 C5.05658896 2.99999121 8.87818624 6.34549623 10.78125 12.0546875 C11.28039836 17.2671056 11.45354146 21.65838985 9.15625 26.4296875 C5.25625489 30.74020841 1.61511559 34.6458312 -4.453125 35.29296875 C-10.68523207 35.47683526 -14.17620524 34.78617062 -19.21875 31.0546875 C-23.78881123 26.11408077 -25.70022542 22.11339277 -25.53515625 15.43359375 C-24.8382075 10.1935717 -22.52512549 6.32756618 -18.78125 2.6796875 C-12.94386747 -1.02206727 -6.64248738 -2.83007385 0 0 Z " fill="#69529C" transform="translate(107.21875,82.9453125)"/>
<path d="M0 0 C7.59 0 15.18 0 23 0 C23 0.33 23 0.66 23 1 C15.41 1 7.82 1 0 1 C0 0.67 0 0.34 0 0 Z " fill="#68519B" transform="translate(89,129)"/>
<path d="M0 0 C0.33 0 0.66 0 1 0 C1 6.27 1 12.54 1 19 C0.67 19 0.34 19 0 19 C0 12.73 0 6.46 0 0 Z " fill="#68519B" transform="translate(37,148)"/>
<path d="M0 0 C0.33 0 0.66 0 1 0 C1 6.27 1 12.54 1 19 C0.67 19 0.34 19 0 19 C0 12.73 0 6.46 0 0 Z " fill="#68519B" transform="translate(37,33)"/>
<path d="M0 0 C0.33 0 0.66 0 1 0 C1 5.94 1 11.88 1 18 C0.67 18 0.34 18 0 18 C0 12.06 0 6.12 0 0 Z " fill="#68529B" transform="translate(149,148)"/>
<path d="M0 0 C0.33 0 0.66 0 1 0 C1 5.94 1 11.88 1 18 C0.67 18 0.34 18 0 18 C0 12.06 0 6.12 0 0 Z " fill="#68519B" transform="translate(149,34)"/>
<path d="M0 0 C4.95 0 9.9 0 15 0 C14.34 0.66 13.68 1.32 13 2 C9.9609375 1.9765625 9.9609375 1.9765625 6.375 1.625 C5.18648438 1.51414063 3.99796875 1.40328125 2.7734375 1.2890625 C1.85820313 1.19367188 0.94296875 1.09828125 0 1 C0 0.67 0 0.34 0 0 Z " fill="#68519B" transform="translate(93,142)"/>
<path d="M0 0 C4.29 0 8.58 0 13 0 C13 0.66 13 1.32 13 2 C8.38 2 3.76 2 -1 2 C-0.67 1.34 -0.34 0.68 0 0 Z " fill="#68519B" transform="translate(94,56)"/>
<path d="M0 0 C0.33 0 0.66 0 1 0 C1 4.62 1 9.24 1 14 C0.67 14 0.34 14 0 14 C0 9.38 0 4.76 0 0 Z " fill="#68519B" transform="translate(50,151)"/>
<path d="M0 0 C0.33 0 0.66 0 1 0 C1 4.29 1 8.58 1 13 C0.67 13 0.34 13 0 13 C0 8.71 0 4.42 0 0 Z " fill="#68519B" transform="translate(50,36)"/>
<path d="M0 0 C3.96 0 7.92 0 12 0 C12 0.33 12 0.66 12 1 C8.04 1 4.08 1 0 1 C0 0.67 0 0.34 0 0 Z " fill="#68519B" transform="translate(133,10)"/>
<path d="M0 0 C3.96 0 7.92 0 12 0 C12 0.33 12 0.66 12 1 C8.04 1 4.08 1 0 1 C0 0.67 0 0.34 0 0 Z " fill="#68519B" transform="translate(55,10)"/>
<path d="M0 0 C3.3 0 6.6 0 10 0 C10 0.33 10 0.66 10 1 C6.7 1 3.4 1 0 1 C0 0.67 0 0.34 0 0 Z " fill="#68529B" transform="translate(134,176)"/>
<path d="M0 0 C3.3 0 6.6 0 10 0 C10 0.33 10 0.66 10 1 C6.7 1 3.4 1 0 1 C0 0.67 0 0.34 0 0 Z " fill="#68519B" transform="translate(95,119)"/>
<path d="M0 0 C0.33 0 0.66 0 1 0 C1 3.3 1 6.6 1 10 C0.67 10 0.34 10 0 10 C0 6.7 0 3.4 0 0 Z " fill="#68519B" transform="translate(119,95)"/>
<path d="M0 0 C2.97 0 5.94 0 9 0 C8.67 0.66 8.34 1.32 8 2 C5.36 1.67 2.72 1.34 0 1 C0 0.67 0 0.34 0 0 Z " fill="#68519B" transform="translate(109,71)"/>
<path d="M0 0 C2.97 0 5.94 0 9 0 C9 0.33 9 0.66 9 1 C6.03 1 3.06 1 0 1 C0 0.67 0 0.34 0 0 Z " fill="#68519B" transform="translate(57,176)"/>
<path d="M0 0 C0.33 0 0.66 0 1 0 C1 2.64 1 5.28 1 8 C0.67 8 0.34 8 0 8 C0 5.36 0 2.72 0 0 Z " fill="#68519B" transform="translate(162,146)"/>
<path d="M0 0 C0.33 0.66 0.66 1.32 1 2 C3.02463255 2.65213292 3.02463255 2.65213292 5 3 C3.02 3 1.04 3 -1 3 C-0.67 2.01 -0.34 1.02 0 0 Z " fill="#68529B" transform="translate(134,124)"/>
<path d="M0 0 C0.33 0 0.66 0 1 0 C1 2.64 1 5.28 1 8 C0.67 8 0.34 8 0 8 C0 5.36 0 2.72 0 0 Z " fill="#68519B" transform="translate(80,96)"/>
<path d="M0 0 C2.64 0 5.28 0 8 0 C8 0.33 8 0.66 8 1 C5.36 1 2.72 1 0 1 C0 0.67 0 0.34 0 0 Z " fill="#69519C" transform="translate(96,80)"/>
<path d="M0 0 C2.64 0 5.28 0 8 0 C8 0.33 8 0.66 8 1 C5.36 1 2.72 1 0 1 C0 0.67 0 0.34 0 0 Z " fill="#69529C" transform="translate(83,71)"/>
<path d="M0 0 C0.33 0 0.66 0 1 0 C1 2.64 1 5.28 1 8 C0.67 8 0.34 8 0 8 C0 5.36 0 2.72 0 0 Z " fill="#68529C" transform="translate(162,46)"/>
<path d="M0 0 C2.64 0 5.28 0 8 0 C8 0.33 8 0.66 8 1 C5.36 1 2.72 1 0 1 C0 0.67 0 0.34 0 0 Z " fill="#68519B" transform="translate(135,23)"/>
<path d="M0 0 C2.64 0 5.28 0 8 0 C8 0.33 8 0.66 8 1 C5.36 1 2.72 1 0 1 C0 0.67 0 0.34 0 0 Z " fill="#68519B" transform="translate(57,23)"/>
<path d="M0 0 C0.33 0 0.66 0 1 0 C1 2.31 1 4.62 1 7 C0.67 7 0.34 7 0 7 C0 4.69 0 2.38 0 0 Z " fill="#68519B" transform="translate(162,162)"/>
<path d="M0 0 C2.31 0 4.62 0 7 0 C7 0.33 7 0.66 7 1 C4.69 1 2.38 1 0 1 C0 0.67 0 0.34 0 0 Z " fill="#68519B" transform="translate(65,140)"/>
<path d="M0 0 C0.33 0.66 0.66 1.32 1 2 C-0.98 2 -2.96 2 -5 2 C-5 1.67 -5 1.34 -5 1 C-3.35 0.67 -1.7 0.34 0 0 Z " fill="#68519B" transform="translate(66,125)"/>
<path d="M0 0 C2.31 0 4.62 0 7 0 C7 0.33 7 0.66 7 1 C4.69 1 2.38 1 0 1 C0 0.67 0 0.34 0 0 Z " fill="#68529C" transform="translate(126,59)"/>
<path d="M0 0 C2.31 0 4.62 0 7 0 C7 0.33 7 0.66 7 1 C4.69 1 2.38 1 0 1 C0 0.67 0 0.34 0 0 Z " fill="#69519B" transform="translate(67,59)"/>
<path d="M0 0 C0.33 0 0.66 0 1 0 C1 2.31 1 4.62 1 7 C0.67 7 0.34 7 0 7 C0 4.69 0 2.38 0 0 Z " fill="#68529C" transform="translate(162,32)"/>
<path d="M0 0 C0.33 0 0.66 0 1 0 C1 1.98 1 3.96 1 6 C0.67 6 0.34 6 0 6 C0 4.02 0 2.04 0 0 Z " fill="#68519B" transform="translate(38,141)"/>
<path d="M0 0 C1.98 0 3.96 0 6 0 C6 0.33 6 0.66 6 1 C4.02 1 2.04 1 0 1 C0 0.67 0 0.34 0 0 Z " fill="#68529B" transform="translate(129,140)"/>
<path d="M0 0 C2.475 0.495 2.475 0.495 5 1 C5 1.33 5 1.66 5 2 C3.35 2 1.7 2 0 2 C0 1.34 0 0.68 0 0 Z " fill="#68519C" transform="translate(56,124)"/>
<path d="M0 0 C0.33 0.99 0.66 1.98 1 3 C-0.32 2.67 -1.64 2.34 -3 2 C-2.01 2 -1.02 2 0 2 C0 1.34 0 0.68 0 0 Z " fill="#68529C" transform="translate(44,119)"/>
<path d="M0 0 C0.33 0 0.66 0 1 0 C1 1.65 1 3.3 1 5 C0.34 4.67 -0.32 4.34 -1 4 C-0.67 2.68 -0.34 1.36 0 0 Z " fill="#68519B" transform="translate(160,61)"/>
<path d="M0 0 C0.33 0 0.66 0 1 0 C1 1.98 1 3.96 1 6 C0.67 6 0.34 6 0 6 C0 4.02 0 2.04 0 0 Z " fill="#68519B" transform="translate(51,51)"/>
<path d="M0 0 C1.65 0 3.3 0 5 0 C5 0.33 5 0.66 5 1 C3.35 1 1.7 1 0 1 C0 0.67 0 0.34 0 0 Z " fill="#68519B" transform="translate(132,189)"/>
<path d="M0 0 C0.33 0 0.66 0 1 0 C1 1.65 1 3.3 1 5 C0.67 5 0.34 5 0 5 C0 3.35 0 1.7 0 0 Z " fill="#68529B" transform="translate(148,142)"/>
<path d="M0 0 C0.33 0 0.66 0 1 0 C1 1.65 1 3.3 1 5 C0.67 5 0.34 5 0 5 C0 3.35 0 1.7 0 0 Z " fill="#68519C" transform="translate(51,144)"/>
<path d="M0 0 C0.33 0 0.66 0 1 0 C1 1.65 1 3.3 1 5 C0.67 5 0.34 5 0 5 C0 3.35 0 1.7 0 0 Z " fill="#68529C" transform="translate(161,140)"/>
<path d="M0 0 C1.65 0 3.3 0 5 0 C5 0.33 5 0.66 5 1 C3.35 1 1.7 1 0 1 C0 0.67 0 0.34 0 0 Z " fill="#68519B" transform="translate(136,139)"/>
<path d="M0 0 C1.65 0 3.3 0 5 0 C5 0.33 5 0.66 5 1 C3.35 1 1.7 1 0 1 C0 0.67 0 0.34 0 0 Z " fill="#68519B" transform="translate(59,139)"/>
<path d="M0 0 C0.33 0.66 0.66 1.32 1 2 C-0.32 1.67 -1.64 1.34 -3 1 C-2.01 0.67 -1.02 0.34 0 0 Z " fill="#68519B" transform="translate(117,127)"/>
<path d="M0 0 C0.33 0.66 0.66 1.32 1 2 C-0.32 1.67 -1.64 1.34 -3 1 C-2.01 0.67 -1.02 0.34 0 0 Z " fill="#68519B" transform="translate(143,124)"/>
<path d="M0 0 C0.66 0 1.32 0 2 0 C1.67 0.99 1.34 1.98 1 3 C0.67 2.01 0.34 1.02 0 0 Z " fill="#68519C" transform="translate(139,115)"/>
<path d="M0 0 C0.33 0 0.66 0 1 0 C1 1.65 1 3.3 1 5 C0.67 5 0.34 5 0 5 C0 3.35 0 1.7 0 0 Z " fill="#68529B" transform="translate(187,98)"/>
<path d="M0 0 C0.99 0 1.98 0 3 0 C2.67 0.99 2.34 1.98 2 3 C2 2.34 2 1.68 2 1 C1.34 0.67 0.68 0.34 0 0 Z " fill="#68519B" transform="translate(42,78)"/>
<path d="M0 0 C1.65 0 3.3 0 5 0 C5 0.33 5 0.66 5 1 C3.35 1 1.7 1 0 1 C0 0.67 0 0.34 0 0 Z " fill="#69529B" transform="translate(138,74)"/>
<path d="M0 0 C1.65 0 3.3 0 5 0 C5 0.33 5 0.66 5 1 C3.35 1 1.7 1 0 1 C0 0.67 0 0.34 0 0 Z " fill="#68519C" transform="translate(57,74)"/>
<path d="M0 0 C1.32 0.33 2.64 0.66 4 1 C2.68 1.33 1.36 1.66 0 2 C0 1.34 0 0.68 0 0 Z " fill="#68529C" transform="translate(133,73)"/>
<path d="M0 0 C1.32 0 2.64 0 4 0 C3.67 0.66 3.34 1.32 3 2 C2.01 1.34 1.02 0.68 0 0 Z " fill="#68529C" transform="translate(63,73)"/>
<path d="M0 0 C0.33 1.32 0.66 2.64 1 4 C0.34 3.67 -0.32 3.34 -1 3 C-0.67 2.01 -0.34 1.02 0 0 Z " fill="#68529B" transform="translate(147,59)"/>
<path d="M0 0 C1.65 0 3.3 0 5 0 C5 0.33 5 0.66 5 1 C3.35 1 1.7 1 0 1 C0 0.67 0 0.34 0 0 Z " fill="#68519B" transform="translate(55,61)"/>
<path d="M0 0 C1.65 0 3.3 0 5 0 C5 0.33 5 0.66 5 1 C3.35 1 1.7 1 0 1 C0 0.67 0 0.34 0 0 Z " fill="#68519C" transform="translate(134,60)"/>
<path d="M0 0 C1.65 0 3.3 0 5 0 C5 0.33 5 0.66 5 1 C3.35 1 1.7 1 0 1 C0 0.67 0 0.34 0 0 Z " fill="#68529B" transform="translate(61,60)"/>
<path d="M0 0 C0.33 0 0.66 0 1 0 C1 1.65 1 3.3 1 5 C0.67 5 0.34 5 0 5 C0 3.35 0 1.7 0 0 Z " fill="#68519C" transform="translate(161,55)"/>
<path d="M0 0 C0.33 0 0.66 0 1 0 C1 1.65 1 3.3 1 5 C0.67 5 0.34 5 0 5 C0 3.35 0 1.7 0 0 Z " fill="#68519B" transform="translate(52,57)"/>
<path d="M0 0 C0.33 0 0.66 0 1 0 C1 1.65 1 3.3 1 5 C0.67 5 0.34 5 0 5 C0 3.35 0 1.7 0 0 Z " fill="#68519B" transform="translate(38,54)"/>
<path d="M0 0 C0.33 0 0.66 0 1 0 C1 1.65 1 3.3 1 5 C0.67 5 0.34 5 0 5 C0 3.35 0 1.7 0 0 Z " fill="#69529C" transform="translate(148,53)"/>
<path d="M0 0 C4 1 4 1 4 1 Z " fill="#68519B" transform="translate(142,189)"/>
<path d="M0 0 C4 1 4 1 4 1 Z " fill="#68519C" transform="translate(64,189)"/>
<path d="M0 0 C1 4 1 4 1 4 Z " fill="#68519B" transform="translate(38,168)"/>
<path d="M0 0 C0 3 0 3 0 3 Z " fill="#68529B" transform="translate(109,158)"/>
<path d="M0 0 C4 1 4 1 4 1 Z " fill="#69529C" transform="translate(123,141)"/>
<path d="M0 0 C4 1 4 1 4 1 Z " fill="#68519B" transform="translate(73,141)"/>
<path d="M0 0 C1 4 1 4 1 4 Z " fill="#68529C" transform="translate(147,137)"/>
<path d="M0 0 C1 4 1 4 1 4 Z " fill="#68519C" transform="translate(52,139)"/>
<path d="M0 0 C4 1 4 1 4 1 Z " fill="#68519C" transform="translate(142,138)"/>
<path d="M0 0 C4 1 4 1 4 1 Z " fill="#68519C" transform="translate(54,138)"/>
<path d="M0 0 C1 4 1 4 1 4 Z " fill="#68519B" transform="translate(39,137)"/>
<path d="M0 0 C0.66 0 1.32 0 2 0 C2 0.66 2 1.32 2 2 C1.34 2 0.68 2 0 2 C0 1.34 0 0.68 0 0 Z " fill="#69519B" transform="translate(139,83)"/>
<path d="M0 0 C1 4 1 4 1 4 Z " fill="#68519B" transform="translate(39,60)"/>
<path d="M0 0 C4 1 4 1 4 1 Z " fill="#68519B" transform="translate(141,61)"/>
<path d="M0 0 C3 1 3 1 3 1 Z " fill="#69529C" transform="translate(55,189)"/>
<path d="M0 0 C3 1 3 1 3 1 Z " fill="#69529C" transform="translate(129,188)"/>
<path d="" fill="#68529C" transform="translate(0,0)"/>
<path d="" fill="#68519B" transform="translate(0,0)"/>
<path d="" fill="#68519C" transform="translate(0,0)"/>
<path d="" fill="#69529C" transform="translate(0,0)"/>
<path d="M0 0 C0.66 0.66 1.32 1.32 2 2 C1.34 2 0.68 2 0 2 C0 1.34 0 0.68 0 0 Z " fill="#68519B" transform="translate(99,149)"/>
<path d="" fill="#69529B" transform="translate(0,0)"/>
<path d="M0 0 C3 1 3 1 3 1 Z " fill="#69529C" transform="translate(159,134)"/>
<path d="M0 0 C0.66 0 1.32 0 2 0 C1.67 0.66 1.34 1.32 1 2 C0.67 1.34 0.34 0.68 0 0 Z " fill="#68519B" transform="translate(39,134)"/>
<path d="M0 0 C3 1 3 1 3 1 Z " fill="#69529C" transform="translate(162,133)"/>
<path d="M0 0 C3 1 3 1 3 1 Z " fill="#69529B" transform="translate(30,131)"/>
<path d="M0 0 C3 1 3 1 3 1 Z " fill="#68519B" transform="translate(83,128)"/>
<path d="" fill="#68529B" transform="translate(0,0)"/>
<path d="M0 0 C3 1 3 1 3 1 Z " fill="#69529C" transform="translate(35,119)"/>
<path d="M0 0 C3 1 3 1 3 1 Z " fill="#68529C" transform="translate(92,118)"/>
<path d="" fill="#68519B" transform="translate(0,0)"/>
<path d="" fill="#69519B" transform="translate(0,0)"/>
<path d="" fill="#68519C" transform="translate(0,0)"/>
<path d="" fill="#69519C" transform="translate(0,0)"/>
<path d="" fill="#68519B" transform="translate(0,0)"/>
<path d="" fill="#68529B" transform="translate(0,0)"/>
<path d="" fill="#68529B" transform="translate(0,0)"/>
<path d="" fill="#68519B" transform="translate(0,0)"/>
<path d="" fill="#68529C" transform="translate(0,0)"/>
<path d="" fill="#69519B" transform="translate(0,0)"/>
<path d="" fill="#69529B" transform="translate(0,0)"/>
<path d="M0 0 C3 1 3 1 3 1 Z " fill="#68519B" transform="translate(33,81)"/>
<path d="" fill="#69529C" transform="translate(0,0)"/>
<path d="" fill="#69519C" transform="translate(0,0)"/>
<path d="M0 0 C3 1 3 1 3 1 Z " fill="#68529B" transform="translate(159,79)"/>
<path d="M0 0 C3 1 3 1 3 1 Z " fill="#68519C" transform="translate(156,78)"/>
<path d="" fill="#68519B" transform="translate(0,0)"/>
<path d="" fill="#68519B" transform="translate(0,0)"/>
<path d="M0 0 C3 1 3 1 3 1 Z " fill="#69529B" transform="translate(164,67)"/>
<path d="M0 0 C3 1 3 1 3 1 Z " fill="#69529C" transform="translate(161,66)"/>
<path d="M0 0 C3 1 3 1 3 1 Z " fill="#68529C" transform="translate(36,66)"/>
<path d="" fill="#69529C" transform="translate(0,0)"/>
<path d="" fill="#68529C" transform="translate(0,0)"/>
<path d="" fill="#68529B" transform="translate(0,0)"/>
<path d="" fill="#68519B" transform="translate(0,0)"/>
<path d="M0 0 C3 1 3 1 3 1 Z " fill="#69529C" transform="translate(132,24)"/>
<path d="M0 0 C3 1 3 1 3 1 Z " fill="#69529B" transform="translate(145,11)"/>
<path d="M0 0 C3 1 3 1 3 1 Z " fill="#68519C" transform="translate(130,11)"/>
<path d="M0 0 C3 1 3 1 3 1 Z " fill="#68519B" transform="translate(68,11)"/>
<path d="M0 0 C2 1 2 1 2 1 Z " fill="#69519C" transform="translate(146,188)"/>
<path d="M0 0 C2 1 2 1 2 1 Z " fill="#69529C" transform="translate(69,188)"/>
<path d="M0 0 C2 1 2 1 2 1 Z " fill="#69529C" transform="translate(52,188)"/>
<path d="M0 0 C2 1 2 1 2 1 Z " fill="#69529C" transform="translate(126,187)"/>
<path d="M0 0 C2 1 2 1 2 1 Z " fill="#68529B" transform="translate(72,187)"/>
<path d="M0 0 C2 1 2 1 2 1 Z " fill="#69529C" transform="translate(50,187)"/>
<path d="M0 0 C2 1 2 1 2 1 Z " fill="#68519B" transform="translate(150,186)"/>
<path d="M0 0 C2 1 2 1 2 1 Z " fill="#69529C" transform="translate(124,186)"/>
<path d="M0 0 C2 1 2 1 2 1 Z " fill="#68519B" transform="translate(74,186)"/>
<path d="M0 0 C2 1 2 1 2 1 Z " fill="#68519C" transform="translate(122,185)"/>
<path d="M0 0 C2 1 2 1 2 1 Z " fill="#68529C" transform="translate(76,185)"/>
<path d="M0 0 C2 1 2 1 2 1 Z " fill="#68529B" transform="translate(47,185)"/>
<path d="M0 0 C2 1 2 1 2 1 Z " fill="#69529C" transform="translate(120,184)"/>
<path d="M0 0 C2 1 2 1 2 1 Z " fill="#69529B" transform="translate(78,184)"/>
<path d="M0 0 C2 1 2 1 2 1 Z " fill="#69529C" transform="translate(80,183)"/>
<path d="M0 0 C2 1 2 1 2 1 Z " fill="#69529C" transform="translate(115,181)"/>
<path d="" fill="#69529C" transform="translate(0,0)"/>
<path d="" fill="#68519B" transform="translate(0,0)"/>
<path d="M0 0 C2 1 2 1 2 1 Z " fill="#68519C" transform="translate(112,179)"/>
<path d="M0 0 C2 1 2 1 2 1 Z " fill="#68519B" transform="translate(86,179)"/>
<path d="" fill="#69529C" transform="translate(0,0)"/>
<path d="" fill="#69529C" transform="translate(0,0)"/>
<path d="M0 0 C2 1 2 1 2 1 Z " fill="#69529C" transform="translate(131,175)"/>
<path d="M0 0 C2 1 2 1 2 1 Z " fill="#69519B" transform="translate(67,175)"/>
<path d="" fill="#69529C" transform="translate(0,0)"/>
<path d="M0 0 C2 1 2 1 2 1 Z " fill="#69529C" transform="translate(129,174)"/>
<path d="M0 0 C2 1 2 1 2 1 Z " fill="#69529B" transform="translate(72,173)"/>
<path d="" fill="#69529C" transform="translate(0,0)"/>
<path d="" fill="#69519C" transform="translate(0,0)"/>
<path d="M0 0 C2 1 2 1 2 1 Z " fill="#69529C" transform="translate(95,172)"/>
<path d="M0 0 C2 1 2 1 2 1 Z " fill="#68529C" transform="translate(123,171)"/>
<path d="" fill="#68519B" transform="translate(0,0)"/>
<path d="M0 0 C2 1 2 1 2 1 Z " fill="#69529B" transform="translate(77,170)"/>
<path d="M0 0 C2 1 2 1 2 1 Z " fill="#68519B" transform="translate(117,167)"/>
<path d="M0 0 C2 1 2 1 2 1 Z " fill="#69529B" transform="translate(85,164)"/>
<path d="M0 0 C2 1 2 1 2 1 Z " fill="#69529B" transform="translate(112,163)"/>
<path d="" fill="#68519C" transform="translate(0,0)"/>
<path d="" fill="#68519C" transform="translate(0,0)"/>
<path d="" fill="#69529C" transform="translate(0,0)"/>
<path d="" fill="#68529C" transform="translate(0,0)"/>
<path d="" fill="#68529B" transform="translate(0,0)"/>
<path d="M0 0 C2 1 2 1 2 1 Z " fill="#68529C" transform="translate(36,133)"/>
<path d="M0 0 C2 1 2 1 2 1 Z " fill="#69529C" transform="translate(165,132)"/>
<path d="M0 0 C2 1 2 1 2 1 Z " fill="#69529C" transform="translate(33,132)"/>
<path d="M0 0 C2 1 2 1 2 1 Z " fill="#69529C" transform="translate(168,131)"/>
<path d="M0 0 C2 1 2 1 2 1 Z " fill="#69529B" transform="translate(170,130)"/>
<path d="M0 0 C2 1 2 1 2 1 Z " fill="#69529C" transform="translate(28,130)"/>
<path d="M0 0 C2 1 2 1 2 1 Z " fill="#69529B" transform="translate(173,129)"/>
<path d="M0 0 C2 1 2 1 2 1 Z " fill="#68529C" transform="translate(26,129)"/>
<path d="M0 0 C2 1 2 1 2 1 Z " fill="#69529B" transform="translate(175,128)"/>
<path d="M0 0 C2 1 2 1 2 1 Z " fill="#69529C" transform="translate(177,127)"/>
<path d="" fill="#68519B" transform="translate(0,0)"/>
<path d="" fill="#69529C" transform="translate(0,0)"/>
<path d="M0 0 C2 1 2 1 2 1 Z " fill="#68519C" transform="translate(18,125)"/>
<path d="M0 0 C2 1 2 1 2 1 Z " fill="#68529B" transform="translate(182,124)"/>
<path d="M0 0 C2 1 2 1 2 1 Z " fill="#69529C" transform="translate(16,124)"/>
<path d="" fill="#69529C" transform="translate(0,0)"/>
<path d="" fill="#68519B" transform="translate(0,0)"/>
<path d="M0 0 C2 1 2 1 2 1 Z " fill="#68519C" transform="translate(185,122)"/>
<path d="" fill="#69529C" transform="translate(0,0)"/>
<path d="" fill="#68519B" transform="translate(0,0)"/>
<path d="" fill="#68519B" transform="translate(0,0)"/>
<path d="M0 0 C2 1 2 1 2 1 Z " fill="#68529C" transform="translate(160,120)"/>
<path d="" fill="#69529C" transform="translate(0,0)"/>
<path d="" fill="#68519B" transform="translate(0,0)"/>
<path d="" fill="#69529C" transform="translate(0,0)"/>
<path d="M0 0 C2 1 2 1 2 1 Z " fill="#68519C" transform="translate(38,120)"/>
<path d="M0 0 C2 1 2 1 2 1 Z " fill="#68519C" transform="translate(163,119)"/>
<path d="" fill="#68529B" transform="translate(0,0)"/>
<path d="M0 0 C2 1 2 1 2 1 Z " fill="#68519C" transform="translate(190,118)"/>
<path d="M0 0 C2 1 2 1 2 1 Z " fill="#69519C" transform="translate(165,118)"/>
<path d="" fill="#68529C" transform="translate(0,0)"/>
<path d="M0 0 C2 1 2 1 2 1 Z " fill="#68529C" transform="translate(106,118)"/>
<path d="" fill="#69529C" transform="translate(0,0)"/>
<path d="M0 0 C2 1 2 1 2 1 Z " fill="#69529C" transform="translate(33,118)"/>
<path d="M0 0 C2 1 2 1 2 1 Z " fill="#69529C" transform="translate(168,117)"/>
<path d="" fill="#68529C" transform="translate(0,0)"/>
<path d="" fill="#69529B" transform="translate(0,0)"/>
<path d="M0 0 C2 1 2 1 2 1 Z " fill="#69529C" transform="translate(108,117)"/>
<path d="" fill="#69529C" transform="translate(0,0)"/>
<path d="M0 0 C2 1 2 1 2 1 Z " fill="#69519B" transform="translate(30,117)"/>
<path d="" fill="#69519C" transform="translate(0,0)"/>
<path d="M0 0 C2 1 2 1 2 1 Z " fill="#69529C" transform="translate(170,116)"/>
<path d="M0 0 C2 1 2 1 2 1 Z " fill="#69529B" transform="translate(28,116)"/>
<path d="M0 0 C2 1 2 1 2 1 Z " fill="#68519B" transform="translate(172,115)"/>
<path d="" fill="#69529C" transform="translate(0,0)"/>
<path d="" fill="#68519B" transform="translate(0,0)"/>
<path d="M0 0 C2 1 2 1 2 1 Z " fill="#69529C" transform="translate(26,115)"/>
<path d="M0 0 C2 1 2 1 2 1 Z " fill="#68519B" transform="translate(174,114)"/>
<path d="" fill="#69529C" transform="translate(0,0)"/>
<path d="M0 0 C2 1 2 1 2 1 Z " fill="#68519C" transform="translate(112,114)"/>
<path d="M0 0 C2 1 2 1 2 1 Z " fill="#68529B" transform="translate(24,114)"/>
<path d="" fill="#68529B" transform="translate(0,0)"/>
<path d="" fill="#69519C" transform="translate(0,0)"/>
<path d="" fill="#69529B" transform="translate(0,0)"/>
<path d="" fill="#69519C" transform="translate(0,0)"/>
<path d="M0 0 C2 1 2 1 2 1 Z " fill="#69529C" transform="translate(21,112)"/>
<path d="" fill="#68529C" transform="translate(0,0)"/>
<path d="" fill="#69519C" transform="translate(0,0)"/>
<path d="" fill="#68529C" transform="translate(0,0)"/>
<path d="" fill="#68519B" transform="translate(0,0)"/>
<path d="" fill="#69529C" transform="translate(0,0)"/>
<path d="" fill="#69529B" transform="translate(0,0)"/>
<path d="" fill="#68519B" transform="translate(0,0)"/>
<path d="" fill="#69529C" transform="translate(0,0)"/>
<path d="" fill="#69529B" transform="translate(0,0)"/>
<path d="M0 0 C2 1 2 1 2 1 Z " fill="#69529C" transform="translate(17,109)"/>
<path d="" fill="#69519C" transform="translate(0,0)"/>
<path d="" fill="#68519B" transform="translate(0,0)"/>
<path d="" fill="#68529C" transform="translate(0,0)"/>
<path d="" fill="#69529B" transform="translate(0,0)"/>
<path d="" fill="#69529C" transform="translate(0,0)"/>
<path d="" fill="#68529C" transform="translate(0,0)"/>
<path d="" fill="#69529C" transform="translate(0,0)"/>
<path d="" fill="#68529B" transform="translate(0,0)"/>
<path d="" fill="#69529B" transform="translate(0,0)"/>
<path d="" fill="#69529C" transform="translate(0,0)"/>
<path d="" fill="#69529C" transform="translate(0,0)"/>
<path d="" fill="#69529C" transform="translate(0,0)"/>
<path d="" fill="#68519B" transform="translate(0,0)"/>
<path d="" fill="#68529B" transform="translate(0,0)"/>
<path d="" fill="#68529C" transform="translate(0,0)"/>
<path d="" fill="#68529B" transform="translate(0,0)"/>
<path d="" fill="#68519C" transform="translate(0,0)"/>
<path d="" fill="#68529B" transform="translate(0,0)"/>
<path d="" fill="#69519C" transform="translate(0,0)"/>
<path d="" fill="#69529C" transform="translate(0,0)"/>
<path d="" fill="#68529C" transform="translate(0,0)"/>
<path d="" fill="#69529C" transform="translate(0,0)"/>
<path d="" fill="#69529C" transform="translate(0,0)"/>
<path d="" fill="#68529B" transform="translate(0,0)"/>
<path d="" fill="#69529C" transform="translate(0,0)"/>
<path d="" fill="#69529C" transform="translate(0,0)"/>
<path d="" fill="#69519C" transform="translate(0,0)"/>
<path d="" fill="#68529C" transform="translate(0,0)"/>
<path d="" fill="#69529C" transform="translate(0,0)"/>
<path d="" fill="#69529C" transform="translate(0,0)"/>
<path d="" fill="#68529B" transform="translate(0,0)"/>
<path d="" fill="#69529C" transform="translate(0,0)"/>
<path d="" fill="#69519B" transform="translate(0,0)"/>
<path d="" fill="#68529B" transform="translate(0,0)"/>
<path d="" fill="#69529C" transform="translate(0,0)"/>
<path d="" fill="#68519B" transform="translate(0,0)"/>
<path d="" fill="#69529C" transform="translate(0,0)"/>
<path d="" fill="#69519C" transform="translate(0,0)"/>
<path d="" fill="#69519C" transform="translate(0,0)"/>
<path d="" fill="#69519C" transform="translate(0,0)"/>
<path d="" fill="#69519B" transform="translate(0,0)"/>
<path d="" fill="#69529B" transform="translate(0,0)"/>
<path d="M0 0 C2 1 2 1 2 1 Z " fill="#68529C" transform="translate(181,90)"/>
<path d="" fill="#68519B" transform="translate(0,0)"/>
<path d="" fill="#68519B" transform="translate(0,0)"/>
<path d="" fill="#69519C" transform="translate(0,0)"/>
<path d="" fill="#68529C" transform="translate(0,0)"/>
<path d="" fill="#68529B" transform="translate(0,0)"/>
<path d="" fill="#69519B" transform="translate(0,0)"/>
<path d="M0 0 C2 1 2 1 2 1 Z " fill="#68519B" transform="translate(177,87)"/>
<path d="" fill="#68529B" transform="translate(0,0)"/>
<path d="" fill="#68519B" transform="translate(0,0)"/>
<path d="" fill="#69529C" transform="translate(0,0)"/>
<path d="M0 0 C2 1 2 1 2 1 Z " fill="#69529C" transform="translate(23,86)"/>
<path d="" fill="#68519B" transform="translate(0,0)"/>
<path d="M0 0 C2 1 2 1 2 1 Z " fill="#69529C" transform="translate(25,85)"/>
<path d="" fill="#69529B" transform="translate(0,0)"/>
<path d="M0 0 C2 1 2 1 2 1 Z " fill="#68529B" transform="translate(27,84)"/>
<path d="M0 0 C2 1 2 1 2 1 Z " fill="#68529B" transform="translate(109,83)"/>
<path d="M0 0 C2 1 2 1 2 1 Z " fill="#68519C" transform="translate(89,83)"/>
<path d="" fill="#68519B" transform="translate(0,0)"/>
<path d="" fill="#69519C" transform="translate(0,0)"/>
<path d="M0 0 C2 1 2 1 2 1 Z " fill="#68519B" transform="translate(29,83)"/>
<path d="M0 0 C2 1 2 1 2 1 Z " fill="#68519C" transform="translate(167,82)"/>
<path d="M0 0 C2 1 2 1 2 1 Z " fill="#68519C" transform="translate(91,82)"/>
<path d="" fill="#69529C" transform="translate(0,0)"/>
<path d="M0 0 C2 1 2 1 2 1 Z " fill="#69519C" transform="translate(31,82)"/>
<path d="M0 0 C2 1 2 1 2 1 Z " fill="#69529C" transform="translate(165,81)"/>
<path d="" fill="#69529C" transform="translate(0,0)"/>
<path d="M0 0 C2 1 2 1 2 1 Z " fill="#68529C" transform="translate(105,81)"/>
<path d="M0 0 C2 1 2 1 2 1 Z " fill="#69529C" transform="translate(93,81)"/>
<path d="" fill="#68519B" transform="translate(0,0)"/>
<path d="M0 0 C2 1 2 1 2 1 Z " fill="#69529B" transform="translate(162,80)"/>
<path d="" fill="#69529C" transform="translate(0,0)"/>
<path d="M0 0 C2 1 2 1 2 1 Z " fill="#69529C" transform="translate(36,80)"/>
<path d="" fill="#68519C" transform="translate(0,0)"/>
<path d="" fill="#68519B" transform="translate(0,0)"/>
<path d="M0 0 C2 1 2 1 2 1 Z " fill="#69519C" transform="translate(39,79)"/>
<path d="M0 0 C2 1 2 1 2 1 Z " fill="#68519B" transform="translate(186,78)"/>
<path d="" fill="#68519C" transform="translate(0,0)"/>
<path d="" fill="#68529B" transform="translate(0,0)"/>
<path d="" fill="#69519C" transform="translate(0,0)"/>
<path d="" fill="#69529C" transform="translate(0,0)"/>
<path d="M0 0 C2 1 2 1 2 1 Z " fill="#69519C" transform="translate(15,76)"/>
<path d="M0 0 C2 1 2 1 2 1 Z " fill="#69529C" transform="translate(180,74)"/>
<path d="" fill="#69529C" transform="translate(0,0)"/>
<path d="M0 0 C2 1 2 1 2 1 Z " fill="#68529C" transform="translate(178,73)"/>
<path d="M0 0 C2 1 2 1 2 1 Z " fill="#69529C" transform="translate(20,73)"/>
<path d="M0 0 C2 1 2 1 2 1 Z " fill="#68519C" transform="translate(176,72)"/>
<path d="M0 0 C2 1 2 1 2 1 Z " fill="#69529C" transform="translate(22,72)"/>
<path d="M0 0 C2 1 2 1 2 1 Z " fill="#68519B" transform="translate(174,71)"/>
<path d="M0 0 C2 1 2 1 2 1 Z " fill="#68529C" transform="translate(24,71)"/>
<path d="M0 0 C2 1 2 1 2 1 Z " fill="#69529B" transform="translate(172,70)"/>
<path d="M0 0 C2 1 2 1 2 1 Z " fill="#69529C" transform="translate(26,70)"/>
<path d="M0 0 C2 1 2 1 2 1 Z " fill="#68529C" transform="translate(170,69)"/>
<path d="M0 0 C2 1 2 1 2 1 Z " fill="#68519B" transform="translate(29,69)"/>
<path d="M0 0 C2 1 2 1 2 1 Z " fill="#69519C" transform="translate(167,68)"/>
<path d="M0 0 C2 1 2 1 2 1 Z " fill="#69529C" transform="translate(31,68)"/>
<path d="M0 0 C2 1 2 1 2 1 Z " fill="#68519C" transform="translate(34,67)"/>
<path d="" fill="#68519B" transform="translate(0,0)"/>
<path d="M0 0 C2 1 2 1 2 1 Z " fill="#68519B" transform="translate(53,62)"/>
<path d="M0 0 C2 1 2 1 2 1 Z " fill="#68529C" transform="translate(123,58)"/>
<path d="M0 0 C2 1 2 1 2 1 Z " fill="#68519C" transform="translate(75,58)"/>
<path d="" fill="#69529B" transform="translate(0,0)"/>
<path d="" fill="#68529B" transform="translate(0,0)"/>
<path d="" fill="#68519C" transform="translate(0,0)"/>
<path d="" fill="#69529C" transform="translate(0,0)"/>
<path d="" fill="#68519B" transform="translate(0,0)"/>
<path d="" fill="#69529C" transform="translate(0,0)"/>
<path d="" fill="#68519C" transform="translate(0,0)"/>
<path d="M0 0 C2 1 2 1 2 1 Z " fill="#68529C" transform="translate(109,39)"/>
<path d="M0 0 C2 1 2 1 2 1 Z " fill="#69529B" transform="translate(87,37)"/>
<path d="M0 0 C2 1 2 1 2 1 Z " fill="#68519B" transform="translate(116,33)"/>
<path d="M0 0 C2 1 2 1 2 1 Z " fill="#69529C" transform="translate(98,30)"/>
<path d="M0 0 C2 1 2 1 2 1 Z " fill="#68529C" transform="translate(78,30)"/>
<path d="" fill="#69529B" transform="translate(0,0)"/>
<path d="M0 0 C2 1 2 1 2 1 Z " fill="#68519C" transform="translate(122,29)"/>
<path d="" fill="#69529C" transform="translate(0,0)"/>
<path d="M0 0 C2 1 2 1 2 1 Z " fill="#69519C" transform="translate(75,28)"/>
<path d="M0 0 C2 1 2 1 2 1 Z " fill="#68529C" transform="translate(125,27)"/>
<path d="M0 0 C2 1 2 1 2 1 Z " fill="#68529C" transform="translate(73,27)"/>
<path d="" fill="#69529B" transform="translate(0,0)"/>
<path d="" fill="#68529B" transform="translate(0,0)"/>
<path d="" fill="#69529C" transform="translate(0,0)"/>
<path d="M0 0 C2 1 2 1 2 1 Z " fill="#69529C" transform="translate(127,26)"/>
<path d="M0 0 C2 1 2 1 2 1 Z " fill="#69529B" transform="translate(71,26)"/>
<path d="M0 0 C2 1 2 1 2 1 Z " fill="#69519C" transform="translate(129,25)"/>
<path d="M0 0 C2 1 2 1 2 1 Z " fill="#69519C" transform="translate(106,25)"/>
<path d="M0 0 C2 1 2 1 2 1 Z " fill="#69519C" transform="translate(69,25)"/>
<path d="" fill="#69529C" transform="translate(0,0)"/>
<path d="M0 0 C2 1 2 1 2 1 Z " fill="#68519C" transform="translate(143,24)"/>
<path d="M0 0 C2 1 2 1 2 1 Z " fill="#68519B" transform="translate(91,24)"/>
<path d="M0 0 C2 1 2 1 2 1 Z " fill="#69529C" transform="translate(66,24)"/>
<path d="M0 0 C2 1 2 1 2 1 Z " fill="#68519B" transform="translate(55,24)"/>
<path d="" fill="#69529C" transform="translate(0,0)"/>
<path d="" fill="#68519B" transform="translate(0,0)"/>
<path d="M0 0 C2 1 2 1 2 1 Z " fill="#68529B" transform="translate(111,21)"/>
<path d="" fill="#68519B" transform="translate(0,0)"/>
<path d="M0 0 C2 1 2 1 2 1 Z " fill="#69529B" transform="translate(114,19)"/>
<path d="M0 0 C2 1 2 1 2 1 Z " fill="#69519B" transform="translate(117,17)"/>
<path d="M0 0 C2 1 2 1 2 1 Z " fill="#68529B" transform="translate(81,17)"/>
<path d="M0 0 C2 1 2 1 2 1 Z " fill="#69519B" transform="translate(78,15)"/>
<path d="M0 0 C2 1 2 1 2 1 Z " fill="#69529C" transform="translate(151,14)"/>
<path d="M0 0 C2 1 2 1 2 1 Z " fill="#69529C" transform="translate(76,14)"/>
<path d="M0 0 C2 1 2 1 2 1 Z " fill="#69519C" transform="translate(125,13)"/>
<path d="M0 0 C2 1 2 1 2 1 Z " fill="#69529B" transform="translate(74,13)"/>
<path d="M0 0 C2 1 2 1 2 1 Z " fill="#69529C" transform="translate(148,12)"/>
<path d="M0 0 C2 1 2 1 2 1 Z " fill="#69519B" transform="translate(127,12)"/>
<path d="M0 0 C2 1 2 1 2 1 Z " fill="#69529C" transform="translate(71,12)"/>
<path d="M0 0 C2 1 2 1 2 1 Z " fill="#69529B" transform="translate(53,11)"/>
<path d="" fill="#69519C" transform="translate(0,0)"/>
<path d="" fill="#69529C" transform="translate(0,0)"/>
<path d="" fill="#69519C" transform="translate(0,0)"/>
<path d="" fill="#69519C" transform="translate(0,0)"/>
<path d="" fill="#69529C" transform="translate(0,0)"/>
<path d="" fill="#69529C" transform="translate(0,0)"/>
<path d="" fill="#69529C" transform="translate(0,0)"/>
<path d="" fill="#69529C" transform="translate(0,0)"/>
<path d="" fill="#69529C" transform="translate(0,0)"/>
<path d="" fill="#69529C" transform="translate(0,0)"/>
<path d="" fill="#69529C" transform="translate(0,0)"/>
<path d="" fill="#69529C" transform="translate(0,0)"/>
<path d="" fill="#68519C" transform="translate(0,0)"/>
<path d="" fill="#69529C" transform="translate(0,0)"/>
<path d="" fill="#69529C" transform="translate(0,0)"/>
<path d="" fill="#69529C" transform="translate(0,0)"/>
<path d="" fill="#69529C" transform="translate(0,0)"/>
<path d="" fill="#69529C" transform="translate(0,0)"/>
<path d="" fill="#69519C" transform="translate(0,0)"/>
<path d="" fill="#68529C" transform="translate(0,0)"/>
<path d="" fill="#68529B" transform="translate(0,0)"/>
<path d="" fill="#68519B" transform="translate(0,0)"/>
<path d="" fill="#69529B" transform="translate(0,0)"/>
<path d="" fill="#69529C" transform="translate(0,0)"/>
<path d="" fill="#69529C" transform="translate(0,0)"/>
<path d="" fill="#69529C" transform="translate(0,0)"/>
<path d="" fill="#69529C" transform="translate(0,0)"/>
<path d="" fill="#69529C" transform="translate(0,0)"/>
<path d="" fill="#68519C" transform="translate(0,0)"/>
<path d="" fill="#69529C" transform="translate(0,0)"/>
<path d="" fill="#69529C" transform="translate(0,0)"/>
<path d="" fill="#68529C" transform="translate(0,0)"/>
<path d="" fill="#69529C" transform="translate(0,0)"/>
<path d="" fill="#69529C" transform="translate(0,0)"/>
<path d="" fill="#69529C" transform="translate(0,0)"/>
<path d="" fill="#69529B" transform="translate(0,0)"/>
<path d="" fill="#69529C" transform="translate(0,0)"/>
<path d="" fill="#69529C" transform="translate(0,0)"/>
<path d="" fill="#68519C" transform="translate(0,0)"/>
<path d="" fill="#69529C" transform="translate(0,0)"/>
<path d="" fill="#69529C" transform="translate(0,0)"/>
<path d="" fill="#69529C" transform="translate(0,0)"/>
<path d="" fill="#69529C" transform="translate(0,0)"/>
<path d="" fill="#69529B" transform="translate(0,0)"/>
<path d="" fill="#69529C" transform="translate(0,0)"/>
<path d="" fill="#69529C" transform="translate(0,0)"/>
<path d="" fill="#69529C" transform="translate(0,0)"/>
<path d="" fill="#69529C" transform="translate(0,0)"/>
<path d="" fill="#68519C" transform="translate(0,0)"/>
<path d="" fill="#69529C" transform="translate(0,0)"/>
<path d="" fill="#69529C" transform="translate(0,0)"/>
<path d="" fill="#69529B" transform="translate(0,0)"/>
<path d="" fill="#68529C" transform="translate(0,0)"/>
<path d="" fill="#69529C" transform="translate(0,0)"/>
<path d="" fill="#69529C" transform="translate(0,0)"/>
<path d="" fill="#68519B" transform="translate(0,0)"/>
<path d="" fill="#69529C" transform="translate(0,0)"/>
<path d="" fill="#69529C" transform="translate(0,0)"/>
<path d="" fill="#69529C" transform="translate(0,0)"/>
<path d="" fill="#69529C" transform="translate(0,0)"/>
<path d="" fill="#68519C" transform="translate(0,0)"/>
<path d="" fill="#69529C" transform="translate(0,0)"/>
<path d="" fill="#69529C" transform="translate(0,0)"/>
<path d="" fill="#69529C" transform="translate(0,0)"/>
<path d="" fill="#68519C" transform="translate(0,0)"/>
<path d="" fill="#69529C" transform="translate(0,0)"/>
<path d="" fill="#69529B" transform="translate(0,0)"/>
<path d="" fill="#68529C" transform="translate(0,0)"/>
<path d="" fill="#69529C" transform="translate(0,0)"/>
<path d="" fill="#69529C" transform="translate(0,0)"/>
<path d="" fill="#69529C" transform="translate(0,0)"/>
<path d="" fill="#68519C" transform="translate(0,0)"/>
<path d="" fill="#69529C" transform="translate(0,0)"/>
<path d="" fill="#69529C" transform="translate(0,0)"/>
<path d="" fill="#69529C" transform="translate(0,0)"/>
<path d="" fill="#68519B" transform="translate(0,0)"/>
<path d="" fill="#69529C" transform="translate(0,0)"/>
<path d="" fill="#68529C" transform="translate(0,0)"/>
<path d="" fill="#68519B" transform="translate(0,0)"/>
<path d="" fill="#68519B" transform="translate(0,0)"/>
<path d="" fill="#69519C" transform="translate(0,0)"/>
<path d="" fill="#69529C" transform="translate(0,0)"/>
<path d="" fill="#69529C" transform="translate(0,0)"/>
<path d="" fill="#68529C" transform="translate(0,0)"/>
<path d="" fill="#69529C" transform="translate(0,0)"/>
<path d="" fill="#69529C" transform="translate(0,0)"/>
<path d="" fill="#69529C" transform="translate(0,0)"/>
<path d="" fill="#68529B" transform="translate(0,0)"/>
<path d="" fill="#68519C" transform="translate(0,0)"/>
<path d="" fill="#68529B" transform="translate(0,0)"/>
<path d="" fill="#69529C" transform="translate(0,0)"/>
<path d="" fill="#69529C" transform="translate(0,0)"/>
<path d="" fill="#69519C" transform="translate(0,0)"/>
<path d="" fill="#69529C" transform="translate(0,0)"/>
<path d="" fill="#69519B" transform="translate(0,0)"/>
<path d="" fill="#69529C" transform="translate(0,0)"/>
<path d="" fill="#68519B" transform="translate(0,0)"/>
<path d="" fill="#69529C" transform="translate(0,0)"/>
<path d="" fill="#69529C" transform="translate(0,0)"/>
<path d="" fill="#68529C" transform="translate(0,0)"/>
<path d="" fill="#69519C" transform="translate(0,0)"/>
<path d="" fill="#69529C" transform="translate(0,0)"/>
<path d="" fill="#69529C" transform="translate(0,0)"/>
<path d="" fill="#69529C" transform="translate(0,0)"/>
<path d="" fill="#69529C" transform="translate(0,0)"/>
<path d="" fill="#68519B" transform="translate(0,0)"/>
<path d="" fill="#69529C" transform="translate(0,0)"/>
<path d="" fill="#69529C" transform="translate(0,0)"/>
<path d="" fill="#69529B" transform="translate(0,0)"/>
<path d="" fill="#69529C" transform="translate(0,0)"/>
<path d="" fill="#69529C" transform="translate(0,0)"/>
<path d="" fill="#69529C" transform="translate(0,0)"/>
<path d="" fill="#69529C" transform="translate(0,0)"/>
<path d="" fill="#69529C" transform="translate(0,0)"/>
<path d="" fill="#69529C" transform="translate(0,0)"/>
<path d="" fill="#69529C" transform="translate(0,0)"/>
<path d="" fill="#69529C" transform="translate(0,0)"/>
<path d="" fill="#68529C" transform="translate(0,0)"/>
<path d="" fill="#69529C" transform="translate(0,0)"/>
<path d="" fill="#69529C" transform="translate(0,0)"/>
<path d="" fill="#69529C" transform="translate(0,0)"/>
<path d="" fill="#69529C" transform="translate(0,0)"/>
<path d="" fill="#69529C" transform="translate(0,0)"/>
<path d="" fill="#69529C" transform="translate(0,0)"/>
<path d="" fill="#69529C" transform="translate(0,0)"/>
<path d="" fill="#69529C" transform="translate(0,0)"/>
<path d="" fill="#69529C" transform="translate(0,0)"/>
<path d="" fill="#69519C" transform="translate(0,0)"/>
<path d="" fill="#69529C" transform="translate(0,0)"/>
<path d="" fill="#68519C" transform="translate(0,0)"/>
<path d="" fill="#69519C" transform="translate(0,0)"/>
<path d="" fill="#69529C" transform="translate(0,0)"/>
<path d="" fill="#68529B" transform="translate(0,0)"/>
<path d="" fill="#69529C" transform="translate(0,0)"/>
<path d="" fill="#69529C" transform="translate(0,0)"/>
<path d="" fill="#69529C" transform="translate(0,0)"/>
<path d="" fill="#69529C" transform="translate(0,0)"/>
<path d="" fill="#69529C" transform="translate(0,0)"/>
<path d="" fill="#69529C" transform="translate(0,0)"/>
<path d="" fill="#68519B" transform="translate(0,0)"/>
<path d="" fill="#69529C" transform="translate(0,0)"/>
<path d="" fill="#68519B" transform="translate(0,0)"/>
<path d="" fill="#68529C" transform="translate(0,0)"/>
<path d="" fill="#69529B" transform="translate(0,0)"/>
<path d="" fill="#69529C" transform="translate(0,0)"/>
<path d="" fill="#69519C" transform="translate(0,0)"/>
<path d="" fill="#69529C" transform="translate(0,0)"/>
<path d="" fill="#69529C" transform="translate(0,0)"/>
<path d="" fill="#68529B" transform="translate(0,0)"/>
<path d="" fill="#69529C" transform="translate(0,0)"/>
<path d="" fill="#69529C" transform="translate(0,0)"/>
<path d="" fill="#69529C" transform="translate(0,0)"/>
<path d="" fill="#69529C" transform="translate(0,0)"/>
<path d="" fill="#68529B" transform="translate(0,0)"/>
<path d="" fill="#69529C" transform="translate(0,0)"/>
<path d="" fill="#68519C" transform="translate(0,0)"/>
<path d="" fill="#69529C" transform="translate(0,0)"/>
<path d="" fill="#69529C" transform="translate(0,0)"/>
<path d="" fill="#69529C" transform="translate(0,0)"/>
<path d="" fill="#69529C" transform="translate(0,0)"/>
<path d="" fill="#69529C" transform="translate(0,0)"/>
<path d="" fill="#68529C" transform="translate(0,0)"/>
<path d="" fill="#69529C" transform="translate(0,0)"/>
<path d="" fill="#68529B" transform="translate(0,0)"/>
<path d="" fill="#69529C" transform="translate(0,0)"/>
<path d="" fill="#69529C" transform="translate(0,0)"/>
<path d="" fill="#69529C" transform="translate(0,0)"/>
<path d="" fill="#69529C" transform="translate(0,0)"/>
<path d="" fill="#69529C" transform="translate(0,0)"/>
<path d="" fill="#69529C" transform="translate(0,0)"/>
<path d="" fill="#69519C" transform="translate(0,0)"/>
<path d="" fill="#69529C" transform="translate(0,0)"/>
<path d="" fill="#69529C" transform="translate(0,0)"/>
<path d="" fill="#69529C" transform="translate(0,0)"/>
<path d="" fill="#69529C" transform="translate(0,0)"/>
<path d="" fill="#69529C" transform="translate(0,0)"/>
<path d="" fill="#69529C" transform="translate(0,0)"/>
<path d="" fill="#69529C" transform="translate(0,0)"/>
<path d="" fill="#69519C" transform="translate(0,0)"/>
<path d="" fill="#69529C" transform="translate(0,0)"/>
<path d="" fill="#69519C" transform="translate(0,0)"/>
<path d="" fill="#69529C" transform="translate(0,0)"/>
<path d="" fill="#69519B" transform="translate(0,0)"/>
<path d="" fill="#69529C" transform="translate(0,0)"/>
<path d="" fill="#69529C" transform="translate(0,0)"/>
<path d="" fill="#69529B" transform="translate(0,0)"/>
<path d="" fill="#69529C" transform="translate(0,0)"/>
<path d="" fill="#69529C" transform="translate(0,0)"/>
<path d="" fill="#68519B" transform="translate(0,0)"/>
<path d="" fill="#69529C" transform="translate(0,0)"/>
<path d="" fill="#68529C" transform="translate(0,0)"/>
<path d="" fill="#69529C" transform="translate(0,0)"/>
<path d="" fill="#68519B" transform="translate(0,0)"/>
<path d="" fill="#69529C" transform="translate(0,0)"/>
<path d="" fill="#69529C" transform="translate(0,0)"/>
<path d="" fill="#69529C" transform="translate(0,0)"/>
<path d="" fill="#69529C" transform="translate(0,0)"/>
<path d="" fill="#69529B" transform="translate(0,0)"/>
<path d="" fill="#69529C" transform="translate(0,0)"/>
<path d="" fill="#69529C" transform="translate(0,0)"/>
<path d="" fill="#69529C" transform="translate(0,0)"/>
<path d="" fill="#69529B" transform="translate(0,0)"/>
<path d="" fill="#68529C" transform="translate(0,0)"/>
<path d="" fill="#69529C" transform="translate(0,0)"/>
<path d="" fill="#69529C" transform="translate(0,0)"/>
<path d="" fill="#68529C" transform="translate(0,0)"/>
<path d="" fill="#69529C" transform="translate(0,0)"/>
<path d="" fill="#69529C" transform="translate(0,0)"/>
<path d="" fill="#69529C" transform="translate(0,0)"/>
<path d="" fill="#69529C" transform="translate(0,0)"/>
<path d="" fill="#69519C" transform="translate(0,0)"/>
<path d="" fill="#68519B" transform="translate(0,0)"/>
<path d="" fill="#68529C" transform="translate(0,0)"/>
<path d="" fill="#68529B" transform="translate(0,0)"/>
<path d="" fill="#68529C" transform="translate(0,0)"/>
<path d="" fill="#69529C" transform="translate(0,0)"/>
<path d="" fill="#69529C" transform="translate(0,0)"/>
<path d="" fill="#69529C" transform="translate(0,0)"/>
<path d="" fill="#69529C" transform="translate(0,0)"/>
<path d="" fill="#68529B" transform="translate(0,0)"/>
<path d="" fill="#69529C" transform="translate(0,0)"/>
<path d="" fill="#68519C" transform="translate(0,0)"/>
<path d="" fill="#69529C" transform="translate(0,0)"/>
<path d="" fill="#69519C" transform="translate(0,0)"/>
<path d="" fill="#69529C" transform="translate(0,0)"/>
<path d="" fill="#68519B" transform="translate(0,0)"/>
<path d="" fill="#69519B" transform="translate(0,0)"/>
<path d="" fill="#69529C" transform="translate(0,0)"/>
<path d="" fill="#69529C" transform="translate(0,0)"/>
<path d="" fill="#68519C" transform="translate(0,0)"/>
<path d="" fill="#68529C" transform="translate(0,0)"/>
<path d="" fill="#68529C" transform="translate(0,0)"/>
<path d="" fill="#69519C" transform="translate(0,0)"/>
<path d="" fill="#69529C" transform="translate(0,0)"/>
<path d="" fill="#69519B" transform="translate(0,0)"/>
<path d="" fill="#68529C" transform="translate(0,0)"/>
<path d="" fill="#69529C" transform="translate(0,0)"/>
<path d="" fill="#69529C" transform="translate(0,0)"/>
<path d="" fill="#69529C" transform="translate(0,0)"/>
<path d="" fill="#69529C" transform="translate(0,0)"/>
<path d="" fill="#69529C" transform="translate(0,0)"/>
<path d="" fill="#69529C" transform="translate(0,0)"/>
<path d="" fill="#68529C" transform="translate(0,0)"/>
<path d="" fill="#69529C" transform="translate(0,0)"/>
<path d="" fill="#69529C" transform="translate(0,0)"/>
<path d="" fill="#69519C" transform="translate(0,0)"/>
<path d="" fill="#69529C" transform="translate(0,0)"/>
<path d="" fill="#69529C" transform="translate(0,0)"/>
<path d="" fill="#69529C" transform="translate(0,0)"/>
<path d="" fill="#69529C" transform="translate(0,0)"/>
<path d="" fill="#69529C" transform="translate(0,0)"/>
<path d="" fill="#68529C" transform="translate(0,0)"/>
<path d="" fill="#68519C" transform="translate(0,0)"/>
<path d="" fill="#69529C" transform="translate(0,0)"/>
<path d="" fill="#68519C" transform="translate(0,0)"/>
<path d="" fill="#69529C" transform="translate(0,0)"/>
<path d="" fill="#69529C" transform="translate(0,0)"/>
<path d="" fill="#69529C" transform="translate(0,0)"/>
<path d="" fill="#69529C" transform="translate(0,0)"/>
<path d="" fill="#68529B" transform="translate(0,0)"/>
<path d="" fill="#69529C" transform="translate(0,0)"/>
<path d="" fill="#69529C" transform="translate(0,0)"/>
<path d="" fill="#69529C" transform="translate(0,0)"/>
<path d="" fill="#68529B" transform="translate(0,0)"/>
<path d="" fill="#69529C" transform="translate(0,0)"/>
<path d="" fill="#69529C" transform="translate(0,0)"/>
<path d="" fill="#69519C" transform="translate(0,0)"/>
<path d="" fill="#68519C" transform="translate(0,0)"/>
<path d="" fill="#69529C" transform="translate(0,0)"/>
<path d="" fill="#68519B" transform="translate(0,0)"/>
<path d="" fill="#69529C" transform="translate(0,0)"/>
<path d="" fill="#68519C" transform="translate(0,0)"/>
<path d="" fill="#69529C" transform="translate(0,0)"/>
<path d="" fill="#69529C" transform="translate(0,0)"/>
<path d="" fill="#69529C" transform="translate(0,0)"/>
<path d="" fill="#69529C" transform="translate(0,0)"/>
<path d="" fill="#69529C" transform="translate(0,0)"/>
<path d="" fill="#69529C" transform="translate(0,0)"/>
<path d="" fill="#69529C" transform="translate(0,0)"/>
<path d="" fill="#69529C" transform="translate(0,0)"/>
<path d="" fill="#68529B" transform="translate(0,0)"/>
<path d="" fill="#69529C" transform="translate(0,0)"/>
<path d="" fill="#69529C" transform="translate(0,0)"/>
<path d="" fill="#69529C" transform="translate(0,0)"/>
<path d="" fill="#69529C" transform="translate(0,0)"/>
<path d="" fill="#69529C" transform="translate(0,0)"/>
<path d="" fill="#69529C" transform="translate(0,0)"/>
<path d="" fill="#68519B" transform="translate(0,0)"/>
<path d="" fill="#69519C" transform="translate(0,0)"/>
<path d="" fill="#69529C" transform="translate(0,0)"/>
<path d="" fill="#68529C" transform="translate(0,0)"/>
<path d="" fill="#68519C" transform="translate(0,0)"/>
<path d="" fill="#69529B" transform="translate(0,0)"/>
<path d="" fill="#69529C" transform="translate(0,0)"/>
<path d="" fill="#68529C" transform="translate(0,0)"/>
<path d="" fill="#68529C" transform="translate(0,0)"/>
<path d="" fill="#69519C" transform="translate(0,0)"/>
<path d="" fill="#69529C" transform="translate(0,0)"/>
<path d="" fill="#69529C" transform="translate(0,0)"/>
<path d="" fill="#69529C" transform="translate(0,0)"/>
<path d="" fill="#69529C" transform="translate(0,0)"/>
<path d="" fill="#69529C" transform="translate(0,0)"/>
<path d="" fill="#69529C" transform="translate(0,0)"/>
<path d="" fill="#69529C" transform="translate(0,0)"/>
<path d="" fill="#69519C" transform="translate(0,0)"/>
<path d="" fill="#69529B" transform="translate(0,0)"/>
<path d="" fill="#69529C" transform="translate(0,0)"/>
<path d="" fill="#69529B" transform="translate(0,0)"/>
<path d="" fill="#69529C" transform="translate(0,0)"/>
<path d="" fill="#69519C" transform="translate(0,0)"/>
<path d="" fill="#69529C" transform="translate(0,0)"/>
<path d="" fill="#69529C" transform="translate(0,0)"/>
<path d="" fill="#68519B" transform="translate(0,0)"/>
<path d="" fill="#69529B" transform="translate(0,0)"/>
<path d="" fill="#69529C" transform="translate(0,0)"/>
<path d="" fill="#69529C" transform="translate(0,0)"/>
<path d="" fill="#69529C" transform="translate(0,0)"/>
<path d="" fill="#69529C" transform="translate(0,0)"/>
<path d="" fill="#68529C" transform="translate(0,0)"/>
<path d="" fill="#69529C" transform="translate(0,0)"/>
<path d="" fill="#69519C" transform="translate(0,0)"/>
<path d="" fill="#68519C" transform="translate(0,0)"/>
<path d="" fill="#68519B" transform="translate(0,0)"/>
<path d="" fill="#69519C" transform="translate(0,0)"/>
<path d="" fill="#69529C" transform="translate(0,0)"/>
<path d="" fill="#69529C" transform="translate(0,0)"/>
<path d="" fill="#69529C" transform="translate(0,0)"/>
<path d="" fill="#68529B" transform="translate(0,0)"/>
<path d="" fill="#69529C" transform="translate(0,0)"/>
<path d="" fill="#68529C" transform="translate(0,0)"/>
<path d="" fill="#69529C" transform="translate(0,0)"/>
<path d="" fill="#69529C" transform="translate(0,0)"/>
<path d="" fill="#69529C" transform="translate(0,0)"/>
<path d="" fill="#69529C" transform="translate(0,0)"/>
<path d="" fill="#69519C" transform="translate(0,0)"/>
<path d="" fill="#69529C" transform="translate(0,0)"/>
<path d="" fill="#68529B" transform="translate(0,0)"/>
<path d="" fill="#69529C" transform="translate(0,0)"/>
<path d="" fill="#69529C" transform="translate(0,0)"/>
<path d="" fill="#69529C" transform="translate(0,0)"/>
<path d="" fill="#69529C" transform="translate(0,0)"/>
<path d="" fill="#69529C" transform="translate(0,0)"/>
</svg>
