<?xml version="1.0" encoding="UTF-8"?>
<!DOCTYPE svg PUBLIC "-//W3C//DTD SVG 1.1//EN" "http://www.w3.org/Graphics/SVG/1.1/DTD/svg11.dtd">
<svg xmlns="http://www.w3.org/2000/svg" version="1.1" width="512px" height="512px" style="shape-rendering:geometricPrecision; text-rendering:geometricPrecision; image-rendering:optimizeQuality; fill-rule:evenodd; clip-rule:evenodd" xmlns:xlink="http://www.w3.org/1999/xlink">
<g><path style="opacity:0.994" fill="#d82b1f" d="M 260.5,39.5 C 274.417,39.5834 287.751,42.4168 300.5,48C 368.088,74.131 435.421,100.798 502.5,128C 504.378,129.543 505.878,131.376 507,133.5C 507.667,151.833 507.667,170.167 507,188.5C 506.208,190.587 505.041,192.421 503.5,194C 500.167,196.333 496.833,198.667 493.5,201C 422.382,232.392 351.382,264.059 280.5,296C 262.969,304.156 245.302,304.489 227.5,297C 171.492,272.553 115.159,248.886 58.5,226C 43.5953,219.881 28.9287,213.215 14.5,206C 10.0591,203.558 6.22581,200.392 3,196.5C 2.33333,178.5 2.33333,160.5 3,142.5C 4.75189,138.412 7.58522,135.246 11.5,133C 88.6171,101.627 166.284,71.6267 244.5,43C 249.954,41.7451 255.287,40.5784 260.5,39.5 Z M 230.5,69.5 C 230.735,68.9033 231.235,68.5699 232,68.5C 242.525,72.897 253.192,76.897 264,80.5C 274.544,77.763 284.877,74.4296 295,70.5C 293.257,77.5098 290.757,84.3431 287.5,91C 297.5,95 307.5,99 317.5,103C 304.215,104.921 290.882,106.755 277.5,108.5C 274.758,115.646 271.758,122.646 268.5,129.5C 263.625,121.582 258.625,113.749 253.5,106C 237.538,104.034 221.538,102.367 205.5,101C 217.294,96.7916 228.961,92.2916 240.5,87.5C 237.503,81.2061 234.17,75.2061 230.5,69.5 Z M 370.5,111.5 C 372.527,111.338 374.527,111.505 376.5,112C 397.63,120.209 418.63,128.709 439.5,137.5C 415.165,147.584 390.665,157.251 366,166.5C 343.575,158.249 321.408,149.415 299.5,140C 323.466,130.962 347.133,121.462 370.5,111.5 Z M 137.5,117.5 C 157.606,115.947 177.272,118.114 196.5,124C 203.731,126.352 209.564,130.518 214,136.5C 215.672,142.658 213.838,147.491 208.5,151C 197.465,157.762 185.465,161.762 172.5,163C 151.821,165.544 131.488,163.878 111.5,158C 104.787,155.897 98.9539,152.397 94,147.5C 89.8429,139.628 91.6762,133.461 99.5,129C 111.575,122.805 124.242,118.971 137.5,117.5 Z M 297.5,166.5 C 299.646,166.696 299.812,167.696 298,169.5C 287.236,185.372 276.236,201.039 265,216.5C 239.109,205.805 213.276,194.971 187.5,184C 224.357,178.467 261.023,172.634 297.5,166.5 Z"/></g>
<g><path style="opacity:0.992" fill="#d82c1f" d="M 506.5,221.5 C 507.662,238.995 507.829,256.662 507,274.5C 505.558,278.275 503.058,281.108 499.5,283C 491.152,288.175 482.485,292.842 473.5,297C 406.149,325.508 339.149,354.842 272.5,385C 257.259,390.036 242.259,389.369 227.5,383C 161.282,354.724 94.9486,326.724 28.5,299C 19.235,295.457 11.0683,290.291 4,283.5C 3.33333,265.167 3.33333,246.833 4,228.5C 5.07641,232.146 7.24308,234.98 10.5,237C 17.8281,241.561 25.4948,245.561 33.5,249C 98.6151,276.058 163.615,303.391 228.5,331C 247.93,339.015 266.93,338.015 285.5,328C 301.663,319.947 317.996,312.28 334.5,305C 381.617,284.942 428.617,264.609 475.5,244C 486.597,239.709 496.43,233.543 505,225.5C 505.791,224.255 506.291,222.922 506.5,221.5 Z"/></g>
<g><path style="opacity:0.992" fill="#d82c1f" d="M 506.5,304.5 C 507.662,321.995 507.829,339.662 507,357.5C 504.167,361.667 500.667,365.167 496.5,368C 490.325,371.588 483.991,374.922 477.5,378C 407.716,408.058 338.05,438.392 268.5,469C 255.631,472.496 242.964,471.83 230.5,467C 168.064,440.115 105.397,413.782 42.5,388C 30.6583,383.28 19.325,377.613 8.5,371C 6.62173,369.457 5.12173,367.624 4,365.5C 3.33333,347.5 3.33333,329.5 4,311.5C 6.08805,315.924 9.25472,319.424 13.5,322C 26.3802,328.274 39.3802,334.274 52.5,340C 112.329,364.61 171.996,389.61 231.5,415C 248.096,421.339 264.43,420.673 280.5,413C 296.713,405.06 313.046,397.393 329.5,390C 380.332,368.389 430.998,346.389 481.5,324C 490.276,320.2 498.11,315.033 505,308.5C 505.791,307.255 506.291,305.922 506.5,304.5 Z"/></g>
</svg>
