<?xml version="1.0" encoding="UTF-8"?>
<!DOCTYPE svg PUBLIC "-//W3C//DTD SVG 1.1//EN" "http://www.w3.org/Graphics/SVG/1.1/DTD/svg11.dtd">
<svg xmlns="http://www.w3.org/2000/svg" version="1.1" width="32px" height="32px" style="shape-rendering:geometricPrecision; text-rendering:geometricPrecision; image-rendering:optimizeQuality; fill-rule:evenodd; clip-rule:evenodd" xmlns:xlink="http://www.w3.org/1999/xlink">
<g><path style="opacity:1" fill="#020202" d="M -0.5,-0.5 C 10.1667,-0.5 20.8333,-0.5 31.5,-0.5C 31.5,10.1667 31.5,20.8333 31.5,31.5C 20.8333,31.5 10.1667,31.5 -0.5,31.5C -0.5,20.8333 -0.5,10.1667 -0.5,-0.5 Z"/></g>
<g><path style="opacity:1" fill="#dadada" d="M 20.5,6.5 C 21.3764,6.36912 22.0431,6.70245 22.5,7.5C 17.1667,12.1667 12.1667,17.1667 7.5,22.5C 6.47899,21.9984 6.31232,21.3317 7,20.5C 11.7033,15.9645 16.2033,11.2979 20.5,6.5 Z"/></g>
<g><path style="opacity:1" fill="#dddddd" d="M 22.5,14.5 C 23.525,14.8966 23.6917,15.5632 23,16.5C 20.6094,19.5968 17.776,21.7635 14.5,23C 17.3714,20.2972 20.0381,17.4639 22.5,14.5 Z"/></g>
</svg>
