<?xml version="1.0" encoding="UTF-8"?>
<svg version="1.1" xmlns="http://www.w3.org/2000/svg" width="225" height="225">
<path d="M0 0 C7.61308865 6.28907323 11.281249 12.14721171 12.2265625 22.0625 C13.51648018 47.98149338 -0.09963282 71.37815017 -12.125 93.375 C-12.69963989 94.5189624 -12.69963989 94.5189624 -13.28588867 95.68603516 C-16.42113537 101.47036051 -20.14949563 103.44006128 -26.1875 105.75 C-27.78264014 106.4034309 -29.37769517 107.05706964 -30.97265625 107.7109375 C-31.67398682 107.98470215 -32.37531738 108.2584668 -33.09790039 108.54052734 C-35.1508682 109.38564886 -37.13926946 110.38213473 -39.125 111.375 C-33.845 110.385 -28.565 109.395 -23.125 108.375 C-24.68714782 112.28036954 -25.82399971 114.60251497 -28.2421875 117.84375 C-29.15291016 119.07158203 -29.15291016 119.07158203 -30.08203125 120.32421875 C-30.71496094 121.16597656 -31.34789062 122.00773437 -32 122.875 C-32.62519531 123.71675781 -33.25039062 124.55851562 -33.89453125 125.42578125 C-35.62658479 127.75105397 -37.37465393 130.06349067 -39.125 132.375 C-39.83269531 133.33535156 -40.54039062 134.29570312 -41.26953125 135.28515625 C-43.31898426 137.59348754 -45.23302504 138.84313959 -47.9375 140.3125 C-55.52462617 144.70211485 -60.33755559 149.12582537 -64.9609375 156.6171875 C-65.53714844 157.48730469 -65.53714844 157.48730469 -66.125 158.375 C-66.455 158.375 -66.785 158.375 -67.125 158.375 C-66.52300674 151.14355601 -65.03762097 144.4299745 -63.125 137.4375 C-62.81522217 136.3043335 -62.50544434 135.17116699 -62.1862793 134.00366211 C-56.03312233 111.96765922 -47.85775969 91.06651364 -38.125 70.375 C-37.47313721 68.98643799 -37.47313721 68.98643799 -36.80810547 67.56982422 C-32.28175971 58.02010138 -27.33554068 48.77346991 -21.9375 39.6875 C-21.46248047 38.88578369 -20.98746094 38.08406738 -20.49804688 37.25805664 C-17.08866069 31.64256246 -13.25346393 26.48183772 -9.125 21.375 C-46.67864267 49.22451554 -64.48749181 113.49891699 -71 157.1875 C-73.45496894 175.62283041 -73.90863609 195.29399452 -69.125 213.375 C-70.115 213.045 -71.105 212.715 -72.125 212.375 C-72.63366669 210.02241656 -73.1320625 207.66838596 -73.625 205.3125 C-73.76808594 204.65572266 -73.91117187 203.99894531 -74.05859375 203.32226562 C-74.19394531 202.66806641 -74.32929687 202.01386719 -74.46875 201.33984375 C-74.65727539 200.45220337 -74.65727539 200.45220337 -74.84960938 199.54663086 C-75.23749216 196.48792754 -75.14075715 193.45492283 -75.125 190.375 C-76.24951065 190.37944122 -77.3740213 190.38388245 -78.53260803 190.38845825 C-89.14075552 190.42903803 -99.74888721 190.45900061 -110.35709476 190.47862434 C-115.8106059 190.4890523 -121.26405428 190.50319356 -126.7175293 190.52587891 C-131.98245802 190.54764237 -137.24732644 190.55957606 -142.51229668 190.56475449 C-144.51889431 190.56844394 -146.52548872 190.57564851 -148.53206062 190.58646011 C-151.34704798 190.60102149 -154.16178756 190.60297599 -156.97680664 190.60205078 C-157.80255692 190.60924133 -158.62830719 190.61643188 -159.4790802 190.62384033 C-165.61803558 190.60207099 -171.00834628 190.15491335 -175.875 186.0625 C-179.90868296 181.2444898 -181.49934289 178.14508762 -181.51268005 171.78457642 C-181.51806559 171.13595843 -181.52345113 170.48734044 -181.52899987 169.81906736 C-181.54326641 167.65343452 -181.53617934 165.48841406 -181.52905273 163.32275391 C-181.53475707 161.76688649 -181.54172158 160.21102326 -181.54985046 158.65516663 C-181.56779164 154.43399258 -181.56661152 150.2130263 -181.56090808 145.99182558 C-181.5578171 142.46553851 -181.56390778 138.93929139 -181.56994683 135.41301 C-181.58399406 127.09203795 -181.58242958 118.77116856 -181.57104492 110.45019531 C-181.55956776 101.87218202 -181.57363208 93.29448153 -181.6004414 84.71650946 C-181.62261116 77.34648649 -181.62923278 69.9765616 -181.62336498 62.60650766 C-181.61999673 58.2070742 -181.62240147 53.80784117 -181.63961601 49.40843582 C-181.65510311 45.26983579 -181.6511103 41.13169825 -181.63231087 36.99311638 C-181.62862961 35.47702433 -181.63172001 33.96089789 -181.64219666 32.44483757 C-181.73362029 18.11750347 -181.73362029 18.11750347 -177.125 12.375 C-172.20785445 8.56170345 -168.65155115 7.24907093 -162.50312805 7.25715637 C-161.33258377 7.25603851 -160.16203949 7.25492065 -158.95602417 7.25376892 C-157.67027496 7.25743973 -156.38452576 7.26111053 -155.05981445 7.26489258 C-153.69305928 7.26513472 -152.32630393 7.26485748 -150.95954895 7.26409912 C-148.01466119 7.26299256 -145.06978902 7.26442663 -142.12490273 7.26746559 C-137.46394734 7.27109796 -132.80307316 7.26195886 -128.14213562 7.24967957 C-127.35523403 7.24765764 -126.56833244 7.24563571 -125.75758535 7.24355251 C-124.14834395 7.23938376 -122.53910265 7.235181 -120.92986143 7.23094499 C-110.0792512 7.20281143 -99.22881661 7.18265452 -88.37817383 7.19995117 C-81.05874289 7.21152341 -73.73967636 7.20187535 -66.42031068 7.16789359 C-62.54884678 7.15076501 -58.67804032 7.14440873 -54.80657387 7.164011 C-51.16103559 7.18230153 -47.51662733 7.17253306 -43.8711834 7.14175415 C-41.90465491 7.1324011 -39.93805445 7.152613 -37.97161865 7.1738739 C-31.18260236 7.08666764 -26.90064944 6.56950698 -21.83238506 1.85009289 C-15.52223626 -3.60155116 -7.13481538 -3.710104 0 0 Z " fill="#47A4DE" transform="translate(197.125,6.625)"/>
<path d="M0 0 C7.61308865 6.28907323 11.281249 12.14721171 12.2265625 22.0625 C13.51648018 47.98149338 -0.09963282 71.37815017 -12.125 93.375 C-12.50809326 94.1376416 -12.89118652 94.9002832 -13.28588867 95.68603516 C-16.42113537 101.47036051 -20.14949563 103.44006128 -26.1875 105.75 C-27.78264014 106.4034309 -29.37769517 107.05706964 -30.97265625 107.7109375 C-31.67398682 107.98470215 -32.37531738 108.2584668 -33.09790039 108.54052734 C-35.1508682 109.38564886 -37.13926946 110.38213473 -39.125 111.375 C-33.845 110.385 -28.565 109.395 -23.125 108.375 C-24.68714782 112.28036954 -25.82399971 114.60251497 -28.2421875 117.84375 C-29.15291016 119.07158203 -29.15291016 119.07158203 -30.08203125 120.32421875 C-30.71496094 121.16597656 -31.34789062 122.00773437 -32 122.875 C-32.62519531 123.71675781 -33.25039062 124.55851562 -33.89453125 125.42578125 C-35.62658479 127.75105397 -37.37465393 130.06349067 -39.125 132.375 C-40.18654297 133.81552734 -40.18654297 133.81552734 -41.26953125 135.28515625 C-43.31898426 137.59348754 -45.23302504 138.84313959 -47.9375 140.3125 C-55.52462617 144.70211485 -60.33755559 149.12582537 -64.9609375 156.6171875 C-65.53714844 157.48730469 -65.53714844 157.48730469 -66.125 158.375 C-66.455 158.375 -66.785 158.375 -67.125 158.375 C-66.52300674 151.14355601 -65.03762097 144.4299745 -63.125 137.4375 C-62.81522217 136.3043335 -62.50544434 135.17116699 -62.1862793 134.00366211 C-56.03312233 111.96765922 -47.85775969 91.06651364 -38.125 70.375 C-37.6904248 69.44929199 -37.25584961 68.52358398 -36.80810547 67.56982422 C-32.28175971 58.02010138 -27.33554068 48.77346991 -21.9375 39.6875 C-21.2249707 38.48492554 -21.2249707 38.48492554 -20.49804688 37.25805664 C-17.08866069 31.64256246 -13.25346393 26.48183772 -9.125 21.375 C-46.67864267 49.22451554 -64.48749181 113.49891699 -71 157.1875 C-73.45496894 175.62283041 -73.90863609 195.29399452 -69.125 213.375 C-70.115 213.045 -71.105 212.715 -72.125 212.375 C-72.61057871 210.0845344 -73.08849409 207.79286582 -73.5625 205.5 C-73.82933594 204.22382813 -74.09617187 202.94765625 -74.37109375 201.6328125 C-76.34568253 191.14842273 -76.40636699 180.5297937 -76.64257812 169.89453125 C-76.94261393 159.53480455 -78.23650213 149.69138445 -81.1875 139.75 C-81.52910156 138.58210937 -81.87070313 137.41421875 -82.22265625 136.2109375 C-83.01617701 133.46350617 -83.01617701 133.46350617 -84.125 131.375 C-84.3680836 126.43230019 -84.37995121 122.88490242 -82.125 118.375 C-80.805 120.025 -79.485 121.675 -78.125 123.375 C-77.92193077 120.4215367 -77.92193077 120.4215367 -79.125 118.125 C-81.15101986 112.55344537 -80.23420336 107.7798336 -78.125 102.375 C-75.78441363 104.50280579 -74.41799694 106.49062221 -73.125 109.375 C-73.58091509 106.7154953 -74.0642806 104.4998121 -75.25 102.0625 C-77.309608 95.73656115 -74.48293049 88.54596922 -72.5 82.4375 C-72.23276123 81.60976074 -71.96552246 80.78202148 -71.69018555 79.92919922 C-63.40403662 54.77061665 -51.54429555 30.65254229 -33.125 11.375 C-32.46757812 10.6428125 -31.81015625 9.910625 -31.1328125 9.15625 C-23.02305564 0.42767635 -11.54569778 -6.00376285 0 0 Z " fill="#053C58" transform="translate(197.125,6.625)"/>
<path d="M0 0 C1.17369141 -0.00137466 2.34738281 -0.00274933 3.55664062 -0.00416565 C4.84560745 -0.00057037 6.13457428 0.0030249 7.46260071 0.00672913 C8.83248391 0.00701117 10.20236726 0.00685292 11.57225037 0.00628662 C15.29304164 0.00599933 19.01380077 0.01188503 22.73458457 0.01886058 C26.62234062 0.02510548 30.51009738 0.02569882 34.39785767 0.02688599 C41.76074448 0.02999594 49.12361647 0.03820482 56.48649675 0.04823548 C64.86850878 0.05940702 73.25052153 0.06490969 81.63253915 0.06993091 C98.87578765 0.0803877 116.11902171 0.09798067 133.36225891 0.12025452 C131.79123272 2.86513768 130.87574902 4.30009354 128.36225891 6.12025452 C124.07898337 7.01193316 119.84065257 6.83613398 115.48139954 6.7379303 C114.17196884 6.73238129 112.86253815 6.72683228 111.51342773 6.72111511 C108.67014943 6.70894494 105.82792232 6.67796657 102.98498535 6.63237381 C98.48858588 6.56068503 93.99256112 6.53280996 89.49568176 6.51109314 C80.7623349 6.46286432 72.029748 6.36946891 63.29683685 6.27191162 C52.18101975 6.15020038 41.06510663 6.05089776 29.94879866 5.98792255 C25.47980485 5.96116347 21.011673 5.91342322 16.54306793 5.84911752 C14.43239967 5.82160758 12.32188544 5.80319935 10.21109009 5.7888031 C7.63927191 5.77102107 5.06749684 5.7387329 2.49609375 5.68922424 C1.36053543 5.68605194 0.22497711 5.68287964 -0.94499207 5.67961121 C-2.42164211 5.66239108 -2.42164211 5.66239108 -3.92812347 5.64482307 C-7.4205231 6.25760201 -9.0951499 7.70353494 -11.63774109 10.12025452 C-13.21238302 13.26953838 -12.77607535 16.64173954 -12.76713562 20.09901428 C-12.76888794 20.92365677 -12.77064026 21.74829926 -12.77244568 22.59793091 C-12.77686149 25.33586202 -12.77392526 28.07372894 -12.77055359 30.81166077 C-12.77122716 32.71538302 -12.77219763 34.61910519 -12.77345276 36.52282715 C-12.77492973 40.52186396 -12.77277685 44.52087849 -12.76811218 48.51991272 C-12.76244192 53.62851794 -12.76567666 58.73707032 -12.77168465 63.84567356 C-12.7753134 67.78264762 -12.7741406 71.71960934 -12.77155685 75.65658379 C-12.77089257 77.53871098 -12.77169848 79.42083931 -12.77403641 81.30296516 C-12.77659794 83.94725083 -12.77267221 86.59145349 -12.76713562 89.23573303 C-12.76915985 90.00439697 -12.77118408 90.77306091 -12.77326965 91.5650177 C-12.75570244 96.13214926 -12.43734492 100.57810716 -11.86414909 105.10984707 C-11.24770685 110.58359382 -11.79794024 115.70820458 -12.63774109 121.12025452 C-12.89094088 123.41463417 -13.12801844 125.71000722 -13.35649109 128.00697327 C-13.63774109 130.12025452 -13.63774109 130.12025452 -14.14482117 131.86317444 C-15.27079906 137.01902664 -14.82252167 142.4913295 -14.82524109 147.74525452 C-14.83748718 148.99822327 -14.84973328 150.25119202 -14.86235046 151.54212952 C-14.86428406 152.73580139 -14.86621765 153.92947327 -14.86820984 155.15931702 C-14.87231873 156.25453674 -14.87642761 157.34975647 -14.88066101 158.47816467 C-14.90726768 161.27699251 -14.90726768 161.27699251 -12.63774109 163.12025452 C-13.13274109 164.11025452 -13.13274109 164.11025452 -13.63774109 165.12025452 C-12.97774109 165.12025452 -12.31774109 165.12025452 -11.63774109 165.12025452 C-11.14274109 164.13025452 -11.14274109 164.13025452 -10.63774109 163.12025452 C-10.46939176 164.89092868 -10.303122 166.66180064 -10.13774109 168.43275452 C-10.04492859 169.41888733 -9.95211609 170.40502014 -9.85649109 171.42103577 C-9.63774109 174.12025452 -9.63774109 174.12025452 -9.63774109 177.12025452 C-11.28774109 177.45025452 -12.93774109 177.78025452 -14.63774109 178.12025452 C-19.87370685 171.34783376 -19.20309139 164.01089835 -19.15531921 155.84095764 C-19.16074437 154.28479356 -19.16786923 152.72863462 -19.17655945 151.17248535 C-19.19474917 146.95962547 -19.18774342 142.74715871 -19.17504311 138.53429222 C-19.1648928 134.11864056 -19.17431442 129.70302181 -19.18058777 125.28736877 C-19.18785827 117.87304156 -19.17829218 110.4588739 -19.15922546 103.04457092 C-19.13745782 94.4812728 -19.14450962 85.91835567 -19.16653109 77.35506678 C-19.18470214 69.99348526 -19.18723509 62.63201821 -19.17677641 55.2704215 C-19.17055084 50.87773745 -19.16968 46.48523227 -19.18292236 42.09255981 C-19.19450514 37.96212047 -19.18641121 33.83217076 -19.16334534 29.70178413 C-19.15807115 28.18892287 -19.15954993 26.67602017 -19.168396 25.16317558 C-19.24426217 10.86701132 -19.24426217 10.86701132 -14.63774109 5.12025452 C-9.71485994 1.30250996 -6.15521263 -0.00555024 0 0 Z " fill="#1782C3" transform="translate(34.63774108886719,13.879745483398438)"/>
<path d="M0 0 C0.99 0 1.98 0 3 0 C5.43985462 3.7555053 5.29952715 7.51379033 5.30297852 11.83862305 C5.31141785 12.6245433 5.31985718 13.41046356 5.32855225 14.22019958 C5.35433035 16.8173789 5.36647625 19.41444424 5.37890625 22.01171875 C5.39508963 23.82291046 5.4122705 25.6340935 5.43040466 27.44526672 C5.47610552 32.21751877 5.51088718 36.98978275 5.54260254 41.762146 C5.59443414 49.38250371 5.66004444 57.0027318 5.73081779 64.62293434 C5.75349004 67.27552309 5.76987067 69.92809609 5.78553772 72.58073425 C5.79896135 74.2252926 5.81257757 75.86984939 5.82641602 77.5144043 C5.82902939 78.24252319 5.83164276 78.97064209 5.83433533 79.7208252 C5.87855923 84.1861809 6.21992596 88.54420045 6.77514553 92.97556782 C7.38382818 98.45572017 6.84077287 103.58168592 6 109 C5.74680021 111.29437965 5.50972264 113.5897527 5.28125 115.88671875 C5 118 5 118 4.49291992 119.74291992 C3.36694203 124.89877212 3.81521942 130.37107498 3.8125 135.625 C3.80025391 136.87796875 3.78800781 138.1309375 3.77539062 139.421875 C3.77345703 140.61554688 3.77152344 141.80921875 3.76953125 143.0390625 C3.76542236 144.13428223 3.76131348 145.22950195 3.75708008 146.35791016 C3.73047341 149.156738 3.73047341 149.156738 6 151 C5.505 151.99 5.505 151.99 5 153 C5.66 153 6.32 153 7 153 C7.495 152.01 7.495 152.01 8 151 C8.16834933 152.77067416 8.33461909 154.54154612 8.5 156.3125 C8.5928125 157.29863281 8.685625 158.28476563 8.78125 159.30078125 C9 162 9 162 9 165 C7.35 165.33 5.7 165.66 4 166 C-1.27594459 159.20817885 -0.53677139 151.80826365 -0.45410156 143.60961914 C-0.45297227 142.04210438 -0.45360855 140.47458751 -0.45587158 138.90707397 C-0.45701647 134.6657014 -0.43354395 130.42478383 -0.40557575 126.18351674 C-0.38052436 121.74593889 -0.37821716 117.30834993 -0.37347412 112.87071228 C-0.36105531 104.47371925 -0.32824857 96.07693522 -0.28807616 87.6800341 C-0.24332434 78.11780997 -0.22136284 68.55557573 -0.20129442 58.9932729 C-0.15951494 39.32873208 -0.08918421 19.66437922 0 0 Z " fill="#0F7AC4" transform="translate(16,26)"/>
<path d="M0 0 C1.13024597 -0.00137466 2.26049194 -0.00274933 3.42498779 -0.00416565 C5.29370041 0.00122726 5.29370041 0.00122726 7.20016479 0.00672913 C8.5074353 0.0065831 9.81470581 0.00643707 11.16159058 0.00628662 C14.75228038 0.00599901 18.34293696 0.01188985 21.93361902 0.01886058 C25.68391407 0.02510018 29.43420984 0.0256984 33.18450928 0.02688599 C40.28889308 0.02999751 47.39326154 0.03820849 54.49763858 0.04823548 C62.58459065 0.05940216 70.67154344 0.06490847 78.75850129 0.06993091 C95.3964541 0.08039124 112.03439148 0.09798723 128.67233276 0.12025452 C126.77848258 4.02060026 124.50426024 6.84118059 121.67233276 10.12025452 C118.67233276 6.49525452 118.67233276 6.49525452 118.67233276 3.12025452 C79.07233276 3.12025452 39.47233276 3.12025452 -1.32766724 3.12025452 C-1.32766724 4.11025452 -1.32766724 5.10025452 -1.32766724 6.12025452 C-2.64766724 6.45025452 -3.96766724 6.78025452 -5.32766724 7.12025452 C-4.33766724 7.78025452 -3.34766724 8.44025452 -2.32766724 9.12025452 C-2.70266724 11.05775452 -2.70266724 11.05775452 -3.32766724 13.12025452 C-4.31766724 13.61525452 -4.31766724 13.61525452 -5.32766724 14.12025452 C-6.31766724 13.79025452 -7.30766724 13.46025452 -8.32766724 13.12025452 C-10.79923832 16.82761114 -10.55465978 18.73173196 -10.32766724 23.12025452 C-10.16266724 23.84470764 -9.99766724 24.56916077 -9.82766724 25.31556702 C-9.15333785 29.09813342 -9.14347858 32.78571628 -9.14016724 36.62025452 C-9.12792114 37.3666217 -9.11567505 38.11298889 -9.10305786 38.88197327 C-9.09188706 43.08964285 -9.39822325 46.27661907 -11.32766724 50.12025452 C-11.65766724 50.12025452 -11.98766724 50.12025452 -12.32766724 50.12025452 C-12.4515438 44.10633305 -12.54213795 38.09315904 -12.60232544 32.07826233 C-12.62742307 30.03353432 -12.66150887 27.98889563 -12.7048645 25.94447327 C-12.76572539 23.0002384 -12.79392454 20.05719256 -12.81594849 17.11244202 C-12.84175491 16.20283722 -12.86756134 15.29323242 -12.89414978 14.35606384 C-12.89607359 9.97290928 -12.73956076 7.04251169 -9.92214966 3.5582428 C-6.34016841 0.1923197 -4.7944808 -0.00448082 0 0 Z " fill="#8FDCFC" transform="translate(33.327667236328125,18.879745483398438)"/>
<path d="M0 0 C0.99 0.495 0.99 0.495 2 1 C1.96519531 1.61746094 1.93039063 2.23492187 1.89453125 2.87109375 C1.72176991 8.27605566 2.24184569 12.46080464 4.13671875 17.5078125 C9.92444851 34.21628123 9 50.03790495 9 68 C-21.69 68 -52.38 68 -84 68 C-84.33 67.01 -84.66 66.02 -85 65 C-84.34 64.01 -83.68 63.02 -83 62 C-82.34 62.33 -81.68 62.66 -81 63 C-80.67 62.34 -80.34 61.68 -80 61 C-80 62.32 -80 63.64 -80 65 C-52.94 65 -25.88 65 2 65 C2 59.72 2 54.44 2 49 C2.66 48.67 3.32 48.34 4 48 C5.0317435 45.06699331 5.10790988 42.33787164 5.0625 39.25 C5.05347656 38.45078125 5.04445313 37.6515625 5.03515625 36.828125 C5.02355469 36.22484375 5.01195313 35.6215625 5 35 C4.34 34.67 3.68 34.34 3 34 C1.515 34.495 1.515 34.495 0 35 C0 23.45 0 11.9 0 0 Z " fill="#1782C9" transform="translate(112,127)"/>
<path d="M0 0 C2.34058637 2.12780579 3.70700306 4.11562221 5 7 C5.66 6.67 6.32 6.34 7 6 C7.33 8.97 7.66 11.94 8 15 C7.34 15 6.68 15 6 15 C5.67 16.32 5.34 17.64 5 19 C6.32 19 7.64 19 9 19 C10.32 19 11.64 19 13 19 C14.23922223 22.71766668 13.57018942 24.43889537 12.5625 28.1875 C12.13130859 29.81751953 12.13130859 29.81751953 11.69140625 31.48046875 C11.46324219 32.31191406 11.23507813 33.14335937 11 34 C10.34 33.67 9.68 33.34 9 33 C9.33 31.35 9.66 29.7 10 28 C9.34 28 8.68 28 8 28 C7.67 28.99 7.34 29.98 7 31 C7 29.68 7 28.36 7 27 C3.75267068 28.62366466 3.29844864 31.75387839 2 35 C1.34 35 0.68 35 0 35 C0 38.3 0 41.6 0 45 C-2.55309863 42.44690137 -2.75940885 40.49828188 -3.5625 37 C-4.46076773 32.88452085 -4.46076773 32.88452085 -6 29 C-6.2430836 24.05730019 -6.25495121 20.50990242 -4 16 C-2.68 17.65 -1.36 19.3 0 21 C0.20306923 18.0465367 0.20306923 18.0465367 -1 15.75 C-3.02601986 10.17844537 -2.10920336 5.4048336 0 0 Z M6 21 C7 23 7 23 7 23 Z " fill="#0A3F5A" transform="translate(119,109)"/>
<path d="M0 0 C2.64 0 5.28 0 8 0 C5.64247047 4.91151986 3.0720408 9.61412016 0.3125 14.3125 C-5.56434725 24.40290941 -10.82797143 35.08685157 -15 46 C-15.33 46 -15.66 46 -16 46 C-16 39.4 -16 32.8 -16 26 C-15.34 26 -14.68 26 -14 26 C-13.67 26.99 -13.34 27.98 -13 29 C-13 27.35 -13 25.7 -13 24 C-11.35 23.67 -9.7 23.34 -8 23 C-6.98888907 19.95086772 -6.98888907 19.95086772 -8 17 C-7.34 16.67 -6.68 16.34 -6 16 C-3.81509993 13.32357511 -3.81509993 13.32357511 -4 11 C-3.67 10.01 -3.34 9.02 -3 8 C-2.01 7.67 -1.02 7.34 0 7 C0 4.69 0 2.38 0 0 Z " fill="#73C0ED" transform="translate(144,32)"/>
<path d="M0 0 C2.375 -0.125 2.375 -0.125 5 0 C5.66 0.66 6.32 1.32 7 2 C9.98302129 2.18834927 12.87254254 2.25165839 15.85595703 2.22705078 C16.77308472 2.22734283 17.6902124 2.22763489 18.63513184 2.22793579 C21.67612059 2.22653893 24.71686638 2.21096101 27.7578125 2.1953125 C29.86245591 2.19158364 31.96710106 2.18873607 34.07174683 2.18673706 C39.61859914 2.17909064 45.16534717 2.1594335 50.7121582 2.1373291 C56.36928903 2.11689237 62.02643667 2.10774 67.68359375 2.09765625 C78.78910839 2.07618856 89.89454553 2.04204048 101 2 C101 2.99 101 3.98 101 5 C89.25598546 5.04638265 77.51199279 5.08189939 65.76790524 5.10362434 C60.3143941 5.1140523 54.86094572 5.12819356 49.4074707 5.15087891 C44.14254198 5.17264237 38.87767356 5.18457606 33.61270332 5.18975449 C31.60610569 5.19344394 29.59951128 5.20064851 27.59293938 5.21146011 C24.77795202 5.22602149 21.96321244 5.22797599 19.14819336 5.22705078 C18.32244308 5.23424133 17.49669281 5.24143188 16.6459198 5.24884033 C11.13535695 5.22929933 5.46454566 5.0670383 1.0625 1.375 C0.711875 0.92125 0.36125 0.4675 0 0 Z " fill="#5092C6" transform="translate(21,192)"/>
<path d="M0 0 C0.33 0 0.66 0 1 0 C1 1.65 1 3.3 1 5 C30.04 5 59.08 5 89 5 C89 5.66 89 6.32 89 7 C58.64 7 28.28 7 -3 7 C-3.33 6.01 -3.66 5.02 -4 4 C-3.34 3.01 -2.68 2.02 -2 1 C-1.34 1.33 -0.68 1.66 0 2 C0 1.34 0 0.68 0 0 Z " fill="#0A7BC8" transform="translate(31,188)"/>
<path d="M0 0 C1.0725 0.268125 2.145 0.53625 3.25 0.8125 C3.25 1.8025 3.25 2.7925 3.25 3.8125 C1.93 4.1425 0.61 4.4725 -0.75 4.8125 C0.24 5.4725 1.23 6.1325 2.25 6.8125 C1.875 8.75 1.875 8.75 1.25 10.8125 C0.26 11.3075 0.26 11.3075 -0.75 11.8125 C-1.74 11.4825 -2.73 11.1525 -3.75 10.8125 C-6.22157109 14.51985663 -5.97699255 16.42397745 -5.75 20.8125 C-5.585 21.53695312 -5.42 22.26140625 -5.25 23.0078125 C-4.57567061 26.7903789 -4.56581135 30.47796176 -4.5625 34.3125 C-4.55025391 35.05886719 -4.53800781 35.80523437 -4.52539062 36.57421875 C-4.51421982 40.78188833 -4.82055601 43.96886455 -6.75 47.8125 C-7.08 47.8125 -7.41 47.8125 -7.75 47.8125 C-7.84899561 41.78024061 -7.92152907 35.74845573 -7.96972656 29.71557617 C-7.98982199 27.66406007 -8.01710324 25.61260111 -8.05175781 23.5612793 C-8.10036669 20.60971975 -8.12298952 17.65891852 -8.140625 14.70703125 C-8.16127014 13.79226517 -8.18191528 12.87749908 -8.20318604 11.93501282 C-8.20465725 7.74466719 -8.07717513 5.38461025 -5.95996094 1.68237305 C-3.75 -0.1875 -3.75 -0.1875 0 0 Z " fill="#98D4F0" transform="translate(28.75,21.1875)"/>
<path d="M0 0 C2 2 2 2 2.125 5.125 C2.08375 6.07375 2.0425 7.0225 2 8 C2.99 8.33 3.98 8.66 5 9 C5 9.66 5 10.32 5 11 C8.68914747 10.55282671 8.68914747 10.55282671 11.5625 8.375 C12.036875 7.92125 12.51125 7.4675 13 7 C15.08984375 7.4140625 15.08984375 7.4140625 17 8 C16.34773438 8.44730469 15.69546875 8.89460937 15.0234375 9.35546875 C12.33360693 11.21613326 9.66278931 13.10086348 7 15 C6.40960938 15.41636719 5.81921875 15.83273438 5.2109375 16.26171875 C1.22754589 19.29719097 -1.19373266 23.01248851 -3.80078125 27.20703125 C-4.19652344 27.79871094 -4.59226563 28.39039063 -5 29 C-5.33 29 -5.66 29 -6 29 C-5.40390686 22.26483263 -4.14905977 15.97211055 -2.4375 9.4375 C-2.20353516 8.52419922 -1.96957031 7.61089844 -1.72851562 6.66992188 C-1.15776375 4.44515436 -0.58152522 2.22197103 0 0 Z " fill="#113950" transform="translate(136,136)"/>
<path d="M0 0 C5.78745008 4.78093702 9.35772649 8.94035979 10.875 16.375 C7.91324877 15.76222388 6.49441217 15.12127478 3.875 13.375 C3.215 13.705 2.555 14.035 1.875 14.375 C1.875 15.365 1.875 16.355 1.875 17.375 C0.885 16.385 -0.105 15.395 -1.125 14.375 C-3.105 15.365 -3.105 15.365 -5.125 16.375 C-5.125 13.375 -5.125 13.375 -4.125 10.375 C-1.485 10.375 1.155 10.375 3.875 10.375 C4.205 9.055 4.535 7.735 4.875 6.375 C4.09125 6.25125 3.3075 6.1275 2.5 6 C-0.125 5.375 -0.125 5.375 -2.125 3.375 C-3.115 3.045 -4.105 2.715 -5.125 2.375 C-5.125 1.715 -5.125 1.055 -5.125 0.375 C-7.765 0.045 -10.405 -0.285 -13.125 -0.625 C-13.455 0.035 -13.785 0.695 -14.125 1.375 C-17.90482142 4.04310924 -21.6645064 5.23801143 -26.125 6.375 C-25.125 3.375 -25.125 3.375 -22.98046875 2.0234375 C-22.10003906 1.60320313 -21.21960938 1.18296875 -20.3125 0.75 C-19.43980469 0.32460937 -18.56710938 -0.10078125 -17.66796875 -0.5390625 C-11.46967614 -3.18595243 -6.01171529 -3.12609195 0 0 Z " fill="#154157" transform="translate(197.125,6.625)"/>
<path d="M0 0 C1.76053711 -0.00412399 1.76053711 -0.00412399 3.55664062 -0.0083313 C5.49009087 0.00245453 5.49009087 0.00245453 7.46260071 0.01345825 C8.83248384 0.01402235 10.20236758 0.01370584 11.57225037 0.01257324 C15.29308126 0.01199866 19.01378359 0.02377 22.73458457 0.03772116 C26.62233567 0.05021095 30.5100896 0.05139763 34.39785767 0.05377197 C41.76076583 0.0599919 49.12361471 0.07640964 56.48649675 0.09647095 C64.86850249 0.11881401 73.25051105 0.12981937 81.63253915 0.13986182 C98.87581338 0.16077543 116.11902988 0.19596136 133.36225891 0.24050903 C130.88725891 2.71550903 130.88725891 2.71550903 128.36225891 5.24050903 C128.36225891 4.25050903 128.36225891 3.26050903 128.36225891 2.24050903 C83.15225891 2.24050903 37.94225891 2.24050903 -8.63774109 2.24050903 C-5.21674992 -0.04015175 -4.01797404 -0.00724612 0 0 Z " fill="#2175AE" transform="translate(34.63774108886719,13.759490966796875)"/>
<path d="M0 0 C0.99 0 1.98 0 3 0 C3.21446412 58.47429984 3.21446412 58.47429984 2 86 C1.67 86 1.34 86 1 86 C0.67 57.62 0.34 29.24 0 0 Z " fill="#0581D7" transform="translate(16,26)"/>
<path d="M0 0 C2.4294516 3.6441774 2.16179575 5.71241272 2 10 C2.99 10 3.98 10 5 10 C4.98428955 10.94617188 4.9685791 11.89234375 4.95239258 12.8671875 C4.89708087 16.46052138 4.8632921 20.05381995 4.83520508 23.64746094 C4.8203442 25.18723934 4.80004961 26.72697723 4.77368164 28.26660156 C4.59121036 39.21487844 5.57915271 49.31588478 8 60 C7.01 59.67 6.02 59.34 5 59 C4.51442129 56.7095344 4.03650591 54.41786582 3.5625 52.125 C3.29566406 50.84882813 3.02882813 49.57265625 2.75390625 48.2578125 C0.78183861 37.72621047 0.70997883 27.05394599 0.4375 16.375 C0.39421085 14.78254306 0.35059363 13.190095 0.30664062 11.59765625 C0.2006458 7.73186282 0.09908675 3.86597641 0 0 Z " fill="#1C425F" transform="translate(120,160)"/>
<path d="M0 0 C0.33 0 0.66 0 1 0 C1.01030746 1.00731674 1.02061493 2.01463348 1.03123474 3.05247498 C1.12922521 12.57107335 1.23198202 22.08961009 1.33933926 31.60810757 C1.39437386 36.50100513 1.44776138 41.39390884 1.49731445 46.28686523 C1.54524678 51.01368638 1.59759748 55.74044028 1.65294075 60.46718025 C1.6732343 62.26555761 1.69196767 64.06395331 1.70907402 65.86236382 C1.7334086 68.3919521 1.76341956 70.92141677 1.79467773 73.45092773 C1.8004332 74.18533081 1.80618866 74.91973389 1.81211853 75.6763916 C1.87442027 80.14644519 2.21786205 84.51674009 2.77015781 88.95338535 C3.67279006 96.99081491 3.67279006 96.99081491 1 101 C0.09200283 98.2760085 -0.12383582 96.71577694 -0.12025452 93.91877747 C-0.12162918 93.09006638 -0.12300385 92.26135529 -0.12442017 91.40753174 C-0.12082489 90.50194519 -0.11722961 89.59635864 -0.11352539 88.66333008 C-0.11367142 87.70704208 -0.11381744 86.75075409 -0.1139679 85.76548767 C-0.11327044 82.6001459 -0.1054858 79.43486276 -0.09765625 76.26953125 C-0.09579148 74.07663505 -0.09436785 71.88373844 -0.09336853 69.69084167 C-0.08954802 63.91552584 -0.07972168 58.14023511 -0.06866455 52.3649292 C-0.05844044 46.47310729 -0.05386876 40.58128134 -0.04882812 34.68945312 C-0.03809902 23.12629105 -0.02102815 11.56314761 0 0 Z " fill="#3696CF" transform="translate(20,30)"/>
<path d="M0 0 C0.66 0.33 1.32 0.66 2 1 C4.09821215 0.60061233 4.09821215 0.60061233 6 0 C6.33 0.99 6.66 1.98 7 3 C10.04561282 3 12.69825402 2.5626816 15.6875 2 C16.68136719 1.814375 17.67523438 1.62875 18.69921875 1.4375 C19.83810547 1.2209375 19.83810547 1.2209375 21 1 C19.55797524 5.15151338 17.4989562 8.29978445 14.875 11.8125 C13.78832031 13.27623047 13.78832031 13.27623047 12.6796875 14.76953125 C11.84824219 15.87361328 11.84824219 15.87361328 11 17 C9.77421465 13.32264395 10.53403272 12.44933477 12 9 C12 8.01 12 7.02 12 6 C11.43796875 6.16371094 10.8759375 6.32742187 10.296875 6.49609375 C7.86940944 7.02864997 5.73110319 7.09898681 3.25 7.0625 C2.45078125 7.05347656 1.6515625 7.04445313 0.828125 7.03515625 C0.22484375 7.02355469 -0.3784375 7.01195313 -1 7 C-0.67 4.69 -0.34 2.38 0 0 Z " fill="#1B3E50" transform="translate(153,114)"/>
<path d="M0 0 C0.99 0.33 1.98 0.66 3 1 C-9.3125 26.1875 -9.3125 26.1875 -14.375 28.625 C-15.24125 28.74875 -16.1075 28.8725 -17 29 C-17.33 28.01 -17.66 27.02 -18 26 C-17.195625 25.71125 -16.39125 25.4225 -15.5625 25.125 C-12.8673532 24.26737432 -12.8673532 24.26737432 -12 22 C-11.34 22 -10.68 22 -10 22 C-10 20.02 -10 18.04 -10 16 C-9.34 16 -8.68 16 -8 16 C-7.79503906 15.31292969 -7.59007812 14.62585938 -7.37890625 13.91796875 C-7.10949219 13.01691406 -6.84007812 12.11585937 -6.5625 11.1875 C-6.29566406 10.29417969 -6.02882812 9.40085937 -5.75390625 8.48046875 C-4.48251678 4.29739977 -3.85520527 2.2677678 0 0 Z " fill="#143C53" transform="translate(191,81)"/>
<path d="M0 0 C0.99 0.66 1.98 1.32 3 2 C2.67 2.66 2.34 3.32 2 4 C2.66 4 3.32 4 4 4 C4.33 3.34 4.66 2.68 5 2 C5.16834933 3.77067416 5.33461909 5.54154612 5.5 7.3125 C5.5928125 8.29863281 5.685625 9.28476563 5.78125 10.30078125 C6 13 6 13 6 16 C4.35 16.33 2.7 16.66 1 17 C-1.5534483 12.87941391 -3.42061757 9.50883637 -2.875 4.5625 C-2.441875 2.7990625 -2.441875 2.7990625 -2 1 C-1.34 0.67 -0.68 0.34 0 0 Z " fill="#1580CC" transform="translate(19,175)"/>
<path d="M0 0 C2.64 0 5.28 0 8 0 C4.87610705 6.62265306 1.38894066 13.11925192 -3 19 C-3.66 19 -4.32 19 -5 19 C-5.33 18.01 -5.66 17.02 -6 16 C-5.34 15.01 -4.68 14.02 -4 13 C-4 12.34 -4 11.68 -4 11 C-3.67 10.01 -3.34 9.02 -3 8 C-2.01 7.67 -1.02 7.34 0 7 C0 4.69 0 2.38 0 0 Z " fill="#88CCEC" transform="translate(144,32)"/>
<path d="M0 0 C2.35170044 2.13790949 3.88791835 4.00593401 5 7 C5.125 10.25 5.125 10.25 5 13 C4.34 13 3.68 13 3 13 C3 14.98 3 16.96 3 19 C2.34 19.33 1.68 19.66 1 20 C-2.00735242 13.85998881 -2.97419576 9.34879791 -1 2.5625 C-0.67 1.716875 -0.34 0.87125 0 0 Z " fill="#064261" transform="translate(119,109)"/>
<path d="M0 0 C0.66 0 1.32 0 2 0 C2 1.32 2 2.64 2 4 C2.66 4 3.32 4 4 4 C4.70045456 5.91197039 5.384919 7.82980435 6.0625 9.75 C6.44535156 10.81734375 6.82820313 11.8846875 7.22265625 12.984375 C7.98010011 15.92280042 8.07151741 17.22348948 7 20 C6.67386719 19.43410156 6.34773438 18.86820313 6.01171875 18.28515625 C5.57472656 17.55167969 5.13773437 16.81820312 4.6875 16.0625 C4.25824219 15.33160156 3.82898438 14.60070312 3.38671875 13.84765625 C2.04889746 11.70022588 2.04889746 11.70022588 -1 11 C-1.0270043 9.54176788 -1.04639787 8.08339325 -1.0625 6.625 C-1.07410156 5.81289062 -1.08570312 5.00078125 -1.09765625 4.1640625 C-1 2 -1 2 0 0 Z " fill="#2E96D4" transform="translate(113,114)"/>
<path d="M0 0 C0.66 0 1.32 0 2 0 C3.13916302 3.57474725 3.03150662 6.78539382 2.87890625 10.515625 C2.83056641 11.76601562 2.78222656 13.01640625 2.73242188 14.3046875 C2.67634766 15.60664063 2.62027344 16.90859375 2.5625 18.25 C2.51029297 19.56742188 2.45808594 20.88484375 2.40429688 22.2421875 C2.27465443 25.49503428 2.13968844 28.74757167 2 32 C1.34 32 0.68 32 0 32 C0 21.44 0 10.88 0 0 Z " fill="#0889DA" transform="translate(17,144)"/>
<path d="M0 0 C0.33 0 0.66 0 1 0 C1 2.31 1 4.62 1 7 C1.66 7 2.32 7 3 7 C4.45184478 11.53701494 5.23509196 15.18061476 5 20 C3.35 20.66 1.7 21.32 0 22 C0 14.74 0 7.48 0 0 Z " fill="#0A81D0" transform="translate(112,140)"/>
<path d="M0 0 C0.33 0 0.66 0 1 0 C1.06058594 1.05058594 1.12117188 2.10117188 1.18359375 3.18359375 C1.68763504 12.13855828 1.68763504 12.13855828 2.5625 21.0625 C3.66666667 31 3.66666667 31 1 35 C-0.1687481 31.4937557 -0.12514267 28.3522134 -0.09765625 24.70703125 C-0.0962413 24.00100266 -0.09482635 23.29497406 -0.09336853 22.56755066 C-0.08777764 20.31582374 -0.07522688 18.06419679 -0.0625 15.8125 C-0.05748382 14.28450665 -0.05292112 12.75651173 -0.04882812 11.22851562 C-0.0378112 7.48563865 -0.02055287 3.74283627 0 0 Z " fill="#248FD3" transform="translate(20,96)"/>
<path d="M0 0 C0.99 0 1.98 0 3 0 C3.5625 1.9375 3.5625 1.9375 4 4 C3.67 4.33 3.34 4.66 3 5 C5.97 5.495 5.97 5.495 9 6 C6.9375 8.5625 6.9375 8.5625 4 11 C0.1875 10.8125 0.1875 10.8125 -3 10 C-2.01 6.7 -1.02 3.4 0 0 Z " fill="#1F4965" transform="translate(143,115)"/>
<path d="M0 0 C0.928125 0.2784375 0.928125 0.2784375 1.875 0.5625 C4.04160178 1.23686176 4.04160178 1.23686176 6 0 C7.81975482 5.12839994 5.8599099 9.17684382 4 14 C3.34 14 2.68 14 2 14 C1.87625 13.030625 1.7525 12.06125 1.625 11.0625 C1.41875 10.051875 1.2125 9.04125 1 8 C0.34 7.67 -0.32 7.34 -1 7 C-0.01 7 0.98 7 2 7 C1.34 6.01 0.68 5.02 0 4 C0 2.68 0 1.36 0 0 Z " fill="#3E9AD6" transform="translate(113,104)"/>
<path d="M0 0 C0.99 0.66 1.98 1.32 3 2 C-0.96 5.96 -4.92 9.92 -9 14 C-9.99 13.67 -10.98 13.34 -12 13 C-12 12.34 -12 11.68 -12 11 C-11.34 11 -10.68 11 -10 11 C-10 10.01 -10 9.02 -10 8 C-8.35 7.67 -6.7 7.34 -5 7 C-4.67 5.68 -4.34 4.36 -4 3 C-2.68 3 -1.36 3 0 3 C0 2.01 0 1.02 0 0 Z " fill="#0B324C" transform="translate(191,19)"/>
<path d="M0 0 C0.33 0 0.66 0 1 0 C1.33 2.97 1.66 5.94 2 9 C1.34 9 0.68 9 0 9 C-1.59162079 14.57067277 -2.20674944 19.21101581 -2 25 C-5.10540628 21.89459372 -4.9652109 18.27210183 -5 14 C-4.55202345 11.51124137 -3.86466659 9.39054881 -3 7 C-2.34 7 -1.68 7 -1 7 C-0.67 4.69 -0.34 2.38 0 0 Z " fill="#104A71" transform="translate(125,115)"/>
<path d="M0 0 C-0.66 1.32 -1.32 2.64 -2 4 C-2 3.34 -2 2.68 -2 2 C-4.64 1.67 -7.28 1.34 -10 1 C-10.33 1.66 -10.66 2.32 -11 3 C-14.77982142 5.66810924 -18.5395064 6.86301143 -23 8 C-22 5 -22 5 -19.85546875 3.6484375 C-18.97503906 3.22820313 -18.09460938 2.80796875 -17.1875 2.375 C-16.31480469 1.94960937 -15.44210938 1.52421875 -14.54296875 1.0859375 C-9.17995098 -1.20426056 -5.70209995 -0.85531499 0 0 Z " fill="#1E3B4A" transform="translate(194,5)"/>
<path d="M0 0 C0.33 0 0.66 0 1 0 C1.33 2.31 1.66 4.62 2 7 C3.32 7 4.64 7 6 7 C4.35 11.29 2.7 15.58 1 20 C0.67 20 0.34 20 0 20 C0 13.4 0 6.8 0 0 Z " fill="#69B2D8" transform="translate(128,58)"/>
<path d="M0 0 C0.66 0.66 1.32 1.32 2 2 C0.98159209 3.97052892 -0.06573231 5.92613088 -1.125 7.875 C-1.99511719 9.51082031 -1.99511719 9.51082031 -2.8828125 11.1796875 C-5.35812639 14.47706135 -7.04148975 15.11410111 -11 16 C-11.33 15.01 -11.66 14.02 -12 13 C-11.195625 12.71125 -10.39125 12.4225 -9.5625 12.125 C-6.8673532 11.26737432 -6.8673532 11.26737432 -6 9 C-5.34 9 -4.68 9 -4 9 C-4 7.02 -4 5.04 -4 3 C-3.34 3 -2.68 3 -2 3 C-1.34 2.01 -0.68 1.02 0 0 Z " fill="#214255" transform="translate(185,94)"/>
<path d="M0 0 C2.43073376 2.43073376 2.25618601 3.06560276 2.265625 6.39453125 C2.26820312 7.26787109 2.27078125 8.14121094 2.2734375 9.04101562 C2.26570313 9.95560547 2.25796875 10.87019531 2.25 11.8125 C2.25773437 12.71548828 2.26546875 13.61847656 2.2734375 14.54882812 C2.25999768 19.12172794 2.18796636 22.85849224 0 27 C-0.33 27 -0.66 27 -1 27 C-1.13534286 17.94706663 -0.75741925 9.02140429 0 0 Z " fill="#70C0EE" transform="translate(22,42)"/>
<path d="M0 0 C0.99 0 1.98 0 3 0 C1.33248852 3.94139078 -1.22710649 6.7892812 -4 10 C-5.5625 8.25 -5.5625 8.25 -7 6 C-6.6875 3.75 -6.6875 3.75 -6 2 C-4.02 1.67 -2.04 1.34 0 1 C0 0.67 0 0.34 0 0 Z " fill="#96D4EF" transform="translate(159,19)"/>
<path d="M0 0 C2 2 2 2 2.4375 4.1875 C1.8107859 8.21637633 -0.33588516 10.96902344 -3 14 C-3.33 14 -3.66 14 -4 14 C-3.88490339 12.58249437 -3.75746342 11.16598831 -3.625 9.75 C-3.55539063 8.96109375 -3.48578125 8.1721875 -3.4140625 7.359375 C-2.9151578 4.51655952 -2.07250561 2.07250561 0 0 Z " fill="#254253" transform="translate(134,151)"/>
<path d="M0 0 C-0.28284018 1.77226453 -0.57660498 3.542788 -0.875 5.3125 C-1.03742188 6.29863281 -1.19984375 7.28476562 -1.3671875 8.30078125 C-2 11 -2 11 -4 14 C-4.92556607 11.22330178 -5.19295491 9.32303105 -5.25 6.4375 C-5.27578125 5.65246094 -5.3015625 4.86742187 -5.328125 4.05859375 C-5.21984375 3.37925781 -5.1115625 2.69992188 -5 2 C-2 0 -2 0 0 0 Z " fill="#194157" transform="translate(208,44)"/>
<path d="M0 0 C1.67542976 0.28604898 3.34385343 0.61781233 5 1 C5 3.64 5 6.28 5 9 C4.01 9.33 3.02 9.66 2 10 C1.34 9.34 0.68 8.68 0 8 C-0.33 8 -0.66 8 -1 8 C-1.04241723 5.66705225 -1.04092937 3.33297433 -1 1 C-0.67 0.67 -0.34 0.34 0 0 Z " fill="#03374F" transform="translate(124,136)"/>
<path d="M0 0 C0.66 0.33 1.32 0.66 2 1 C4.09821215 0.60061233 4.09821215 0.60061233 6 0 C7 3 7 3 7 4 C7.99 4.33 8.98 4.66 10 5 C10 5.66 10 6.32 10 7 C6.37 7 2.74 7 -1 7 C-0.67 4.69 -0.34 2.38 0 0 Z " fill="#36596B" transform="translate(153,114)"/>
<path d="M0 0 C0.99 0 1.98 0 3 0 C1.80100302 3.0831351 0.52299523 6.06279492 -1 9 C-1.66 9 -2.32 9 -3 9 C-3.33 10.65 -3.66 12.3 -4 14 C-4.66 13.67 -5.32 13.34 -6 13 C-4.58707905 8.1725201 -2.57025846 4.2837641 0 0 Z " fill="#1F4456" transform="translate(170,56)"/>
<path d="M0 0 C0.99 0 1.98 0 3 0 C2.53411505 5.70709064 1.06242216 9.15939723 -2 14 C-2.33 14 -2.66 14 -3 14 C-3.40652968 8.57960425 -2.03993514 4.92984325 0 0 Z " fill="#0E3452" transform="translate(153,67)"/>
<path d="M0 0 C0.99 0.33 1.98 0.66 3 1 C2.67854004 1.72018311 2.35708008 2.44036621 2.02587891 3.18237305 C1.00361571 5.99006926 0.69520443 8.11361299 0.5859375 11.08203125 C0.54726563 12.01337891 0.50859375 12.94472656 0.46875 13.90429688 C0.4378125 14.86400391 0.406875 15.82371094 0.375 16.8125 C0.33632813 17.79154297 0.29765625 18.77058594 0.2578125 19.77929688 C0.16389184 22.18601374 0.07821799 24.59273012 0 27 C-0.33 27 -0.66 27 -1 27 C-1.02886537 22.68751391 -1.04675255 18.37505238 -1.0625 14.0625 C-1.07087891 12.83080078 -1.07925781 11.59910156 -1.08789062 10.33007812 C-1.09111328 9.16025391 -1.09433594 7.99042969 -1.09765625 6.78515625 C-1.10289307 5.70113525 -1.10812988 4.61711426 -1.11352539 3.50024414 C-1 1 -1 1 0 0 Z " fill="#7ED2FB" transform="translate(22,29)"/>
<path d="M0 0 C0.66 0.33 1.32 0.66 2 1 C1.47462276 6.0302076 0.89405214 11.01885239 0 16 C-0.99 15.67 -1.98 15.34 -3 15 C-2.44854729 9.76119922 -1.57077907 5.02649303 0 0 Z " fill="#06426D" transform="translate(124,91)"/>
<path d="M0 0 C0.99 0 1.98 0 3 0 C3 0.66 3 1.32 3 2 C3.66 2.33 4.32 2.66 5 3 C3.35 6.3 1.7 9.6 0 13 C-0.33 12.34 -0.66 11.68 -1 11 C-1.66 11 -2.32 11 -3 11 C-2.71125 10.443125 -2.4225 9.88625 -2.125 9.3125 C-0.9506836 6.8986274 0.13061485 4.54127968 1 2 C0.67 1.34 0.34 0.68 0 0 Z " fill="#74B7DE" transform="translate(136,49)"/>
<path d="M0 0 C1.32 0.99 2.64 1.98 4 3 C3.34 3 2.68 3 2 3 C2 3.99 2 4.98 2 6 C1.34 6 0.68 6 0 6 C0.99 7.32 1.98 8.64 3 10 C1.02 10.99 1.02 10.99 -1 12 C-3 10 -3 10 -3.125 6.875 C-3.08375 5.92625 -3.0425 4.9775 -3 4 C-2.01 4 -1.02 4 0 4 C0 2.68 0 1.36 0 0 Z " fill="#0F4561" transform="translate(179,24)"/>
<path d="M0 0 C2 2 2 2 2.125 5.125 C2.08375 6.07375 2.0425 7.0225 2 8 C2.99 8.33 3.98 8.66 5 9 C5 9.66 5 10.32 5 11 C3.02 11.99 3.02 11.99 1 13 C-0.6290678 8.20862412 -1.20577428 4.94367454 0 0 Z " fill="#134362" transform="translate(136,136)"/>
<path d="M0 0 C1.40503535 2.59391142 2.57705808 5.26973914 3.6875 8 C3.95949219 8.66 4.23148437 9.32 4.51171875 10 C5.08433496 12.34543601 4.75352292 13.73437404 4 16 C3.18639005 14.70903219 2.37414954 13.41720125 1.5625 12.125 C1.11003906 11.40570313 0.65757813 10.68640625 0.19140625 9.9453125 C-1 8 -1 8 -2 6 C-1.34 6 -0.68 6 0 6 C0 4.02 0 2.04 0 0 Z " fill="#3585B9" transform="translate(116,118)"/>
<path d="M0 0 C0.99 0 1.98 0 3 0 C2.01 3.96 1.02 7.92 0 12 C-0.66 12 -1.32 12 -2 12 C-2.33 9.69 -2.66 7.38 -3 5 C-2.34 5 -1.68 5 -1 5 C-0.67 3.35 -0.34 1.7 0 0 Z " fill="#1C4053" transform="translate(134,115)"/>
<path d="M0 0 C0.66 0 1.32 0 2 0 C1.98839844 0.67546875 1.97679688 1.3509375 1.96484375 2.046875 C1.95582031 2.93890625 1.94679688 3.8309375 1.9375 4.75 C1.92589844 5.63171875 1.91429688 6.5134375 1.90234375 7.421875 C1.99201799 9.78927482 2.41091181 11.72219234 3 14 C2.5625 16.25 2.5625 16.25 2 18 C1.34 18 0.68 18 0 18 C0 12.06 0 6.12 0 0 Z " fill="#59B1EA" transform="translate(21,70)"/>
<path d="M0 0 C2.09749995 2.35968744 2.96905704 3.54616994 3.1875 6.75 C3.125625 7.4925 3.06375 8.235 3 9 C0.03 8.505 0.03 8.505 -3 8 C-2.01 5.36 -1.02 2.72 0 0 Z " fill="#1B4460" transform="translate(157,81)"/>
<path d="M0 0 C0.66 0 1.32 0 2 0 C2 1.65 2 3.3 2 5 C1.34 5 0.68 5 0 5 C0 6.98 0 8.96 0 11 C-0.99 11.495 -0.99 11.495 -2 12 C-3.6442351 7.06729471 -2.18615592 4.45975807 0 0 Z " fill="#023A55" transform="translate(122,117)"/>
<path d="M0 0 C3.91402949 1.26941497 5.79072873 2.51167694 8 6 C6.1875 6.6875 6.1875 6.6875 4 7 C2.375 5.625 2.375 5.625 1 4 C0.34 3.67 -0.32 3.34 -1 3 C-0.67 2.01 -0.34 1.02 0 0 Z " fill="#15364B" transform="translate(194,6)"/>
<path d="M0 0 C0.99 0.99 1.98 1.98 3 3 C-0.96 4.65 -4.92 6.3 -9 8 C-9.33 7.34 -9.66 6.68 -10 6 C-8.35 5.67 -6.7 5.34 -5 5 C-5 4.34 -5 3.68 -5 3 C-4.01 3 -3.02 3 -2 3 C-2 2.34 -2 1.68 -2 1 C-1.34 0.67 -0.68 0.34 0 0 Z " fill="#274854" transform="translate(170,108)"/>
<path d="M0 0 C0.66 0.99 1.32 1.98 2 3 C0.7260411 5.03833424 -0.61061923 7.03852126 -2 9 C-2.66 9 -3.32 9 -4 9 C-4.33 8.01 -4.66 7.02 -5 6 C-4.34 5.01 -3.68 4.02 -3 3 C-2.67 3 -2.34 3 -2 3 C-2 2.34 -2 1.68 -2 1 C-1.34 0.67 -0.68 0.34 0 0 Z " fill="#80C4EA" transform="translate(143,42)"/>
<path d="M0 0 C0.66 1.32 1.32 2.64 2 4 C1.505 4.598125 1.01 5.19625 0.5 5.8125 C-1.28276418 7.97029994 -1.28276418 7.97029994 -1 11 C-3 10 -3 10 -3.875 8.3125 C-4.06890753 4.72521067 -2.08770413 2.7836055 0 0 Z " fill="#1D4259" transform="translate(184,33)"/>
<path d="M0 0 C1.15957207 3.47871621 0.77456651 4.34219645 -0.4375 7.6875 C-0.86869141 8.89986328 -0.86869141 8.89986328 -1.30859375 10.13671875 C-1.53675781 10.75160156 -1.76492187 11.36648437 -2 12 C-2.66 11.67 -3.32 11.34 -4 11 C-3.71890887 9.35232753 -3.42481474 7.70686855 -3.125 6.0625 C-2.96257812 5.14597656 -2.80015625 4.22945313 -2.6328125 3.28515625 C-2.42398438 2.53105469 -2.21515625 1.77695313 -2 1 C-1.34 0.67 -0.68 0.34 0 0 Z " fill="#59A3CF" transform="translate(127,79)"/>
<path d="M0 0 C1.32 0.33 2.64 0.66 4 1 C-0.95 3.97 -0.95 3.97 -6 7 C-6 5.68 -6 4.36 -6 3 C-5.01 3 -4.02 3 -3 3 C-2.2884375 2.2265625 -2.2884375 2.2265625 -1.5625 1.4375 C-1.046875 0.963125 -0.53125 0.48875 0 0 Z " fill="#1B3C49" transform="translate(149,143)"/>
<path d="M0 0 C0.66 1.32 1.32 2.64 2 4 C2.66 4 3.32 4 4 4 C4 4.66 4 5.32 4 6 C3.34 6 2.68 6 2 6 C1.67 6.66 1.34 7.32 1 8 C0.01 8 -0.98 8 -2 8 C-1.125 2.25 -1.125 2.25 0 0 Z " fill="#103E59" transform="translate(139,128)"/>
<path d="M0 0 C0.99 0.99 1.98 1.98 3 3 C1.35 5.64 -0.3 8.28 -2 11 C-2.66 9.68 -3.32 8.36 -4 7 C-3.525625 6.5875 -3.05125 6.175 -2.5625 5.75 C-0.83733482 3.817815 -0.43415125 2.51807725 0 0 Z " fill="#1F4256" transform="translate(164,51)"/>
<path d="M0 0 C-0.66 1.32 -1.32 2.64 -2 4 C-2 3.34 -2 2.68 -2 2 C-4.64 1.67 -7.28 1.34 -10 1 C-10.33 1.66 -10.66 2.32 -11 3 C-11.33 2.01 -11.66 1.02 -12 0 C-7.91556885 -1.53166168 -4.20544343 -0.63081652 0 0 Z " fill="#2C4959" transform="translate(194,5)"/>
<path d="M0 0 C0.33 0 0.66 0 1 0 C1 2.31 1 4.62 1 7 C1.66 7 2.32 7 3 7 C2.45276317 10.37462715 1.9451 12.08235 0 15 C0 10.05 0 5.1 0 0 Z " fill="#0F7DC5" transform="translate(112,140)"/>
<path d="M0 0 C2.92965912 2.92965912 3.94133569 5.680053 4.125 9.8125 C4.08375 10.534375 4.0425 11.25625 4 12 C1.68033834 9.15314251 0.08418846 6.5236125 -1 3 C-0.67 2.01 -0.34 1.02 0 0 Z " fill="#4A91BE" transform="translate(121,106)"/>
<path d="M0 0 C1.98 0 3.96 0 6 0 C4.84826645 2.46800047 3.95216435 4.04783565 2 6 C1.34 5.34 0.68 4.68 0 4 C0 2.68 0 1.36 0 0 Z " fill="#194256" transform="translate(153,136)"/>
<path d="M0 0 C0.99 0.33 1.98 0.66 3 1 C3 2.65 3 4.3 3 6 C2.67 5.34 2.34 4.68 2 4 C-1.0745356 4.7763932 -1.0745356 4.7763932 -3 7 C-2.25 2.25 -2.25 2.25 0 0 Z " fill="#0F3549" transform="translate(188,28)"/>
<path d="M0 0 C0.99 0.99 1.98 1.98 3 3 C2.67 3.66 2.34 4.32 2 5 C1.34 4.67 0.68 4.34 0 4 C-0.33 6.97 -0.66 9.94 -1 13 C-1.33 13 -1.66 13 -2 13 C-2.16682272 8.07872966 -2.24828052 4.49656104 0 0 Z " fill="#054075" transform="translate(115,125)"/>
<path d="M0 0 C3.1875 -0.3125 3.1875 -0.3125 6 0 C6.33 0.66 6.66 1.32 7 2 C3.68885166 3.12880057 0.41021743 4.21302675 -3 5 C-1.875 2.5 -1.875 2.5 0 0 Z " fill="#073549" transform="translate(155,120)"/>
<path d="M0 0 C0.66 0.66 1.32 1.32 2 2 C1.9765625 4.1640625 1.9765625 4.1640625 1.625 6.625 C1.51414062 7.44226563 1.40328125 8.25953125 1.2890625 9.1015625 C1.19367188 9.72804687 1.09828125 10.35453125 1 11 C0.34 10.34 -0.32 9.68 -1 9 C-0.9765625 6.8359375 -0.9765625 6.8359375 -0.625 4.375 C-0.51414062 3.55773437 -0.40328125 2.74046875 -0.2890625 1.8984375 C-0.19367188 1.27195313 -0.09828125 0.64546875 0 0 Z " fill="#274C5A" transform="translate(126,148)"/>
<path d="M0 0 C0.33 0 0.66 0 1 0 C1.144375 1.0725 1.28875 2.145 1.4375 3.25 C1.83749442 5.91662949 2.27591924 8.41399729 3 11 C2.01 11.33 1.02 11.66 0 12 C0 8.04 0 4.08 0 0 Z " fill="#63BBE5" transform="translate(128,58)"/>
<path d="M0 0 C2 2 2 2 2.1953125 3.9453125 C2.13020833 5.96354167 2.06510417 7.98177083 2 10 C-0.77867692 7.22132308 -0.65193902 4.8286708 -1 1 C-0.67 0.67 -0.34 0.34 0 0 Z " fill="#024471" transform="translate(117,144)"/>
<path d="M0 0 C-0.66 1.65 -1.32 3.3 -2 5 C-3.32 4.67 -4.64 4.34 -6 4 C-6 3.01 -6 2.02 -6 1 C-3.92446352 0.4465236 -2.15634036 0 0 0 Z " fill="#304856" transform="translate(174,115)"/>
<path d="M0 0 C0.66 0.66 1.32 1.32 2 2 C1.625 5.125 1.625 5.125 1 8 C0.01 7.67 -0.98 7.34 -2 7 C-1.125 2.25 -1.125 2.25 0 0 Z " fill="#53B2E7" transform="translate(123,80)"/>
<path d="M0 0 C0 2.83967231 -0.40267181 5.23735711 -1 8 C-1.99 8.33 -2.98 8.66 -4 9 C-3.38461538 3.46153846 -3.38461538 3.46153846 -1.4375 1.125 C-0.963125 0.75375 -0.48875 0.3825 0 0 Z " fill="#8CD4F7" transform="translate(25,21)"/>
<path d="M0 0 C-0.33 1.65 -0.66 3.3 -1 5 C-1.99 5 -2.98 5 -4 5 C-4.33 4.01 -4.66 3.02 -5 2 C-2 0 -2 0 0 0 Z M-7 3 C-5 4 -5 4 -5 4 Z " fill="#164157" transform="translate(129,145)"/>
<path d="M0 0 C0.99 0 1.98 0 3 0 C3.33 1.32 3.66 2.64 4 4 C2.68 4.33 1.36 4.66 0 5 C-0.33 4.34 -0.66 3.68 -1 3 C-0.67 2.01 -0.34 1.02 0 0 Z " fill="#17445A" transform="translate(143,115)"/>
<path d="M0 0 C1.1875 1.6875 1.1875 1.6875 2 4 C0.625 6.75 0.625 6.75 -1 9 C-1.66 8.67 -2.32 8.34 -3 8 C-2.01 5.36 -1.02 2.72 0 0 Z " fill="#2C4957" transform="translate(149,99)"/>
<path d="M0 0 C0.99 0 1.98 0 3 0 C1.25 5.75 1.25 5.75 -1 8 C-0.67 5.36 -0.34 2.72 0 0 Z " fill="#1D384B" transform="translate(195,73)"/>
<path d="M0 0 C1.65 0.33 3.3 0.66 5 1 C4.34 2.98 3.68 4.96 3 7 C2.896875 6.360625 2.79375 5.72125 2.6875 5.0625 C2.460625 4.381875 2.23375 3.70125 2 3 C1.01 2.67 0.02 2.34 -1 2 C-0.67 1.34 -0.34 0.68 0 0 Z " fill="#244E5F" transform="translate(197,64)"/>
<path d="" fill="#8A8E91" transform="translate(0,0)"/>
</svg>
