<?xml version="1.0" encoding="UTF-8"?>
<svg version="1.1" xmlns="http://www.w3.org/2000/svg" width="224" height="224">
<path d="M0 0 C1.61841797 0.78890625 1.61841797 0.78890625 3.26953125 1.59375 C10.56874482 5.33257884 16.78710482 9.67142201 23 15 C24.06245359 15.8333925 25.12494675 16.66673456 26.1875 17.5 C42.91749485 32.37110654 54.71395531 55.74605476 57 78 C58.53649517 106.85196482 52.74214051 133.85478995 33 156 C15.6971068 175.21637486 -7.87452391 188.38696759 -34.10327148 190.140625 C-63.58950558 191.4191609 -88.74495944 182.63045581 -111 163 C-111.62261719 162.46117187 -112.24523437 161.92234375 -112.88671875 161.3671875 C-128.40329625 146.97185453 -137.30493249 126.47683243 -141 106 C-141.19078125 105.02160156 -141.3815625 104.04320313 -141.578125 103.03515625 C-145.11832196 77.5654059 -137.87155176 51.66637936 -122.83984375 31.03515625 C-120.6414964 28.27074415 -118.36497371 25.62289869 -116 23 C-115.25234375 22.15824219 -114.5046875 21.31648438 -113.734375 20.44921875 C-85.34076058 -9.77775819 -37.08169493 -18.21201934 0 0 Z " fill="#84E72E" transform="translate(155,22)"/>
<path d="M0 0 C1.61841797 0.78890625 1.61841797 0.78890625 3.26953125 1.59375 C10.56874482 5.33257884 16.78710482 9.67142201 23 15 C24.06245359 15.8333925 25.12494675 16.66673456 26.1875 17.5 C42.91749485 32.37110654 54.71395531 55.74605476 57 78 C58.53649517 106.85196482 52.74214051 133.85478995 33 156 C15.6971068 175.21637486 -7.87452391 188.38696759 -34.10327148 190.140625 C-63.58950558 191.4191609 -88.74495944 182.63045581 -111 163 C-111.62261719 162.46117187 -112.24523437 161.92234375 -112.88671875 161.3671875 C-128.40329625 146.97185453 -137.30493249 126.47683243 -141 106 C-141.19078125 105.02160156 -141.3815625 104.04320313 -141.578125 103.03515625 C-145.11832196 77.5654059 -137.87155176 51.66637936 -122.83984375 31.03515625 C-120.6414964 28.27074415 -118.36497371 25.62289869 -116 23 C-115.25234375 22.15824219 -114.5046875 21.31648438 -113.734375 20.44921875 C-85.34076058 -9.77775819 -37.08169493 -18.21201934 0 0 Z M-87 12 C-88.20849609 12.70189453 -88.20849609 12.70189453 -89.44140625 13.41796875 C-110.14163767 25.81455115 -123.64432435 45.12165807 -130.30859375 68.1328125 C-136.27646917 92.88095126 -131.11202471 117.32544302 -118.5 138.875 C-118.13237549 139.50623779 -117.76475098 140.13747559 -117.38598633 140.7878418 C-115.00332732 144.7333145 -112.39630383 147.83385891 -109 151 C-107.8553125 152.175625 -107.8553125 152.175625 -106.6875 153.375 C-101.08831891 159.74759177 -101.08831891 159.74759177 -94 163 C-94 163.66 -94 164.32 -94 165 C-76.2210392 178.88850585 -52.70664306 181.5928565 -31 180 C-25.15634103 179.23821007 -19.61040004 177.77298356 -14 176 C-12.93265625 175.66484375 -11.8653125 175.3296875 -10.765625 174.984375 C9.50297914 168.08209359 28.06238875 151.76106746 37.9375 132.75 C39.67111147 128.98471754 41.09377733 125.16397369 42.3125 121.203125 C42.7688121 119.74085213 43.26891958 118.29150034 43.8125 116.859375 C46.16236528 110.57800434 46.76503606 104.67968906 47 98 C47.03786621 97.1332666 47.07573242 96.2665332 47.11474609 95.37353516 C47.64803379 81.93333519 47.1652433 70.48887356 42 58 C41.66613281 57.13503906 41.33226562 56.27007812 40.98828125 55.37890625 C38.15776679 48.48773814 34.12138388 42.18207581 30 36 C29.34 36 28.68 36 28 36 C27.92394531 35.43667969 27.84789062 34.87335937 27.76953125 34.29296875 C24.54573019 24.68702347 10.35715595 15.94643577 1.875 11.28125 C-26.40147665 -2.30254761 -59.52742269 -5.29754867 -87 12 Z " fill="#1A3A47" transform="translate(155,22)"/>
<path d="M0 0 C1.09570312 0.00902344 2.19140625 0.01804688 3.3203125 0.02734375 C4.58488281 0.04474609 4.58488281 0.04474609 5.875 0.0625 C5.875 3.6925 5.875 7.3225 5.875 11.0625 C3.82421875 11.29036458 1.7734375 11.51822917 -0.27734375 11.74609375 C-2.13640229 11.88136614 -2.13640229 11.88136614 -3.125 13.0625 C-3.2459117 14.50576642 -3.30457533 15.95436101 -3.3359375 17.40234375 C-3.37847656 18.75102539 -3.37847656 18.75102539 -3.421875 20.12695312 C-3.47299762 22.00698764 -3.51753143 23.88721574 -3.5546875 25.76757812 C-3.87639627 35.23788 -5.38356824 43.13886739 -12.125 50.0625 C-11.34125 50.949375 -10.5575 51.83625 -9.75 52.75 C-3.08847998 60.82285901 -3.92260621 71.63149077 -3.51953125 81.61132812 C-3.73244046 85.66410602 -3.73244046 85.66410602 -2.125 89.0625 C-0.77752916 89.29325082 0.57877565 89.47403063 1.9375 89.625 C3.236875 89.769375 4.53625 89.91375 5.875 90.0625 C5.875 93.6925 5.875 97.3225 5.875 101.0625 C-0.70429314 101.33288191 -5.41821195 101.48657283 -11.125 98.0625 C-15.08617786 93.16314844 -16.19774666 89.29707302 -16.37109375 83.140625 C-16.40396484 82.19703125 -16.43683594 81.2534375 -16.47070312 80.28125 C-16.53141472 78.3178111 -16.58876179 76.35426499 -16.64257812 74.390625 C-16.84914989 68.65338644 -17.51123553 63.57673974 -19.125 58.0625 C-22.095 57.7325 -25.065 57.4025 -28.125 57.0625 C-28.125 52.7725 -28.125 48.4825 -28.125 44.0625 C-26.13932292 43.80208333 -24.15364583 43.54166667 -22.16796875 43.28125 C-19.36929791 41.61167963 -18.67519124 39.46925009 -17.68139648 36.45166016 C-16.68291348 32.16418552 -16.62824565 27.88617383 -16.5625 23.5 C-16.27794997 8.67178176 -16.27794997 8.67178176 -12.6875 4.3203125 C-7.94613169 0.88282048 -5.84109605 -0.06213932 0 0 Z " fill="#173846" transform="translate(80.125,61.9375)"/>
<path d="M0 0 C2.06183633 -0.08150744 4.12461349 -0.1394194 6.1875 -0.1875 C7.33605469 -0.22230469 8.48460937 -0.25710937 9.66796875 -0.29296875 C13.45657302 0.04014417 15.07957593 0.58022005 18 3 C22.79949311 9.15641787 22.80966424 15.45908601 23.1875 23.0625 C23.32465978 25.36601524 23.46391351 27.66940694 23.60546875 29.97265625 C23.65856201 30.98593994 23.71165527 31.99922363 23.76635742 33.04321289 C24.00575725 36.07285901 24.45836829 39.01087175 25 42 C27.97 42.66 30.94 43.32 34 44 C34 48.29 34 52.58 34 57 C32.329375 57.185625 32.329375 57.185625 30.625 57.375 C26.96896323 57.6465813 26.96896323 57.6465813 25 60 C23.89982091 63.23407748 23.76620938 66.4732343 23.5703125 69.8671875 C23.49683594 71.00027344 23.42335937 72.13335937 23.34765625 73.30078125 C23.19973305 75.67533786 23.05905585 78.05035744 22.92578125 80.42578125 C22.4207599 87.96686276 21.53747162 92.92832382 16.625 98.875 C11.99670554 102.57055144 5.56553272 101.37158601 0 101 C0 97.37 0 93.74 0 90 C4.455 89.505 4.455 89.505 9 89 C9.91009831 86.26970508 10.15769853 84.4741082 10.24609375 81.6484375 C10.27896484 80.79636719 10.31183594 79.94429688 10.34570312 79.06640625 C10.40609813 77.29567604 10.4634736 75.52483983 10.51757812 73.75390625 C11.15776699 57.6404733 11.15776699 57.6404733 16 53 C16.66 53 17.32 53 18 53 C18 51.68 18 50.36 18 49 C17.21109375 48.2678125 16.4221875 47.535625 15.609375 46.78125 C12.1957352 43.14275967 11.86325739 40.32077164 11.25 35.5 C11.13205078 34.70916016 11.01410156 33.91832031 10.89257812 33.10351562 C10.05019611 27.21635994 9.58641256 21.35161438 9.40625 15.40625 C9.2721875 14.6121875 9.138125 13.818125 9 13 C5.81237635 10.87491756 3.73487777 10.4979837 0 10 C0 6.7 0 3.4 0 0 Z " fill="#183945" transform="translate(139,62)"/>
<path d="M0 0 C0.721875 0.309375 1.44375 0.61875 2.1875 0.9375 C4.80307309 1.92560539 7.25118982 2.5287754 10 3 C10 2.34 10 1.68 10 1 C11.32 1 12.64 1 14 1 C14 1.66 14 2.32 14 3 C16.64 2.67 19.28 2.34 22 2 C22 1.34 22 0.68 22 0 C32.56 0 43.12 0 54 0 C54 0.66 54 1.32 54 2 C52.70449219 1.96519531 51.40898438 1.93039063 50.07421875 1.89453125 C32.7586125 1.57125846 16.95630711 2.91090754 1 10 C-3.72253681 12.03171008 -3.72253681 12.03171008 -6.1875 11.75 C-8 11 -8 11 -10 9 C-9.67 8.67 -9.34 8.34 -9 8 C-9.66 7.34 -10.32 6.68 -11 6 C-9.35 6 -7.7 6 -6 6 C-6 5.34 -6 4.68 -6 4 C-5.01 4 -4.02 4 -3 4 C-3 3.34 -3 2.68 -3 2 C-2.01 2 -1.02 2 0 2 C0 1.34 0 0.68 0 0 Z " fill="#173646" transform="translate(74,21)"/>
<path d="M0 0 C1.09570312 0.00902344 2.19140625 0.01804688 3.3203125 0.02734375 C4.16335937 0.03894531 5.00640625 0.05054688 5.875 0.0625 C5.875 3.6925 5.875 7.3225 5.875 11.0625 C3.82421875 11.29036458 1.7734375 11.51822917 -0.27734375 11.74609375 C-2.13640229 11.88136614 -2.13640229 11.88136614 -3.125 13.0625 C-3.28186249 14.62198542 -3.37576639 16.18792668 -3.44140625 17.75390625 C-3.48330078 18.69814453 -3.52519531 19.64238281 -3.56835938 20.61523438 C-3.60767578 21.60845703 -3.64699219 22.60167969 -3.6875 23.625 C-3.73068359 24.62208984 -3.77386719 25.61917969 -3.81835938 26.64648438 C-3.92480298 29.1183415 -4.02681928 31.5903031 -4.125 34.0625 C-4.455 34.0625 -4.785 34.0625 -5.125 34.0625 C-5.125 26.4725 -5.125 18.8825 -5.125 11.0625 C-5.785 11.0625 -6.445 11.0625 -7.125 11.0625 C-7.455 11.7225 -7.785 12.3825 -8.125 13.0625 C-8.2075 12.299375 -8.29 11.53625 -8.375 10.75 C-9.27115794 7.53876739 -10.34111025 6.76875501 -13.125 5.0625 C-8.29048428 1.11855297 -6.25284952 -0.06651968 0 0 Z " fill="#1C3E45" transform="translate(80.125,61.9375)"/>
<path d="M0 0 C1.58158962 3.00887781 2.43945339 5.63672037 3 9 C0.92446352 9.5534764 -0.84365964 10 -3 10 C-2.505 12.97 -2.505 12.97 -2 16 C-2.99 16.495 -2.99 16.495 -4 17 C-4.495 16.01 -4.495 16.01 -5 15 C-5.66 17.31 -6.32 19.62 -7 22 C-7.66 22 -8.32 22 -9 22 C-9 22.66 -9 23.32 -9 24 C-8.34 24 -7.68 24 -7 24 C-7 25.32 -7 26.64 -7 28 C-7.99 27.67 -8.98 27.34 -10 27 C-10 26.01 -10 25.02 -10 24 C-10.99 24 -11.98 24 -13 24 C-12.34 24.99 -11.68 25.98 -11 27 C-15.75 28.125 -15.75 28.125 -18 27 C-17.67 28.32 -17.34 29.64 -17 31 C-17.99 31.33 -18.98 31.66 -20 32 C-20 31.34 -20 30.68 -20 30 C-20.66 30.33 -21.32 30.66 -22 31 C-22 31.99 -22 32.98 -22 34 C-27.24175152 36.34205919 -32.53262809 38.25192871 -38 40 C-37 38 -37 38 -33.75 36.5625 C-23.96370811 31.77420718 -16.1884597 23.69448652 -9.4375 15.3125 C-8.94926758 14.70752686 -8.46103516 14.10255371 -7.95800781 13.47924805 C-4.65959635 9.22848645 -2.28247317 4.87106627 0 0 Z " fill="#19403C" transform="translate(193,152)"/>
<path d="M0 0 C2.125 0.9375 2.125 0.9375 4 2 C-8.37151703 26.68575851 -8.37151703 26.68575851 -15 30 C-15 29.01 -15 28.02 -15 27 C-15.66 27 -16.32 27 -17 27 C-17 26.34 -17 25.68 -17 25 C-16.34 25 -15.68 25 -15 25 C-14.67 22.36 -14.34 19.72 -14 17 C-13.01 17.33 -12.02 17.66 -11 18 C-11.33 16.35 -11.66 14.7 -12 13 C-9 11 -9 11 -6 11 C-6.33 7.7 -6.66 4.4 -7 1 C-6.34 1.33 -5.68 1.66 -5 2 C-5 3.65 -5 5.3 -5 7 C-4.34 7 -3.68 7 -3 7 C-2.87625 6.030625 -2.7525 5.06125 -2.625 4.0625 C-2.41875 3.051875 -2.2125 2.04125 -2 1 C-1.34 0.67 -0.68 0.34 0 0 Z " fill="#213F4F" transform="translate(201,149)"/>
<path d="M0 0 C0.99 0.33 1.98 0.66 3 1 C3 1.66 3 2.32 3 3 C3.66 3.33 4.32 3.66 5 4 C3.14703165 4.48377991 1.29255559 4.96178636 -0.5625 5.4375 C-1.59503906 5.70433594 -2.62757813 5.97117188 -3.69140625 6.24609375 C-10.58460031 7.81679794 -17.21327544 8.1823562 -24.25 8.1875 C-25.59578125 8.20586914 -25.59578125 8.20586914 -26.96875 8.22460938 C-27.82984375 8.22654297 -28.6909375 8.22847656 -29.578125 8.23046875 C-30.35575195 8.23457764 -31.13337891 8.23868652 -31.93457031 8.24291992 C-34 8 -34 8 -37 6 C-35.56570999 5.32645501 -34.12742943 4.66140299 -32.6875 4 C-31.48673828 3.443125 -31.48673828 3.443125 -30.26171875 2.875 C-28 2 -28 2 -25 2 C-25 2.99 -25 3.98 -25 5 C-23.01508358 4.73323796 -23.01508358 4.73323796 -21 4 C-20.67 3.01 -20.34 2.02 -20 1 C-19.42967041 1.00523682 -18.85934082 1.01047363 -18.27172852 1.01586914 C-15.70199677 1.03658221 -13.13228253 1.0496419 -10.5625 1.0625 C-9.66466797 1.07087891 -8.76683594 1.07925781 -7.84179688 1.08789062 C-6.56079102 1.09272461 -6.56079102 1.09272461 -5.25390625 1.09765625 C-4.06776733 1.10551147 -4.06776733 1.10551147 -2.85766602 1.11352539 C-0.98407311 1.20495909 -0.98407311 1.20495909 0 0 Z " fill="#284252" transform="translate(137,204)"/>
<path d="M0 0 C6.39073332 9.58609998 6.53494795 20.02178531 5 31 C4.67 30.01 4.34 29.02 4 28 C3.34 28 2.68 28 2 28 C2 26.68 2 25.36 2 24 C1.34 24 0.68 24 0 24 C-0.34158347 27.6034331 -0.67169816 31.20783452 -1 34.8125 C-1.09539062 35.81732422 -1.19078125 36.82214844 -1.2890625 37.85742188 C-1.82515452 43.81187254 -2.07480857 49.64730904 -1.90698242 55.62548828 C-2.05359638 59.36818488 -3.13972932 61.76175103 -5 65 C-6.485 65.99 -6.485 65.99 -8 67 C-7.69473389 66.06341553 -7.69473389 66.06341553 -7.38330078 65.10791016 C-5.00036193 57.21201009 -4.31070826 49.58511051 -3.875 41.375 C-3.73044391 38.86175291 -3.5822202 36.34871309 -3.4296875 33.8359375 C-3.37022949 32.73813965 -3.31077148 31.6403418 -3.24951172 30.50927734 C-3 28 -3 28 -2 27 C-1.46309089 23.64319011 -1.03372615 20.27754672 -0.59765625 16.90625 C-0.40042969 15.9471875 -0.20320312 14.988125 0 14 C0.66 13.67 1.32 13.34 2 13 C2 11.35 2 9.7 2 8 C1.34 8 0.68 8 0 8 C0 5.36 0 2.72 0 0 Z " fill="#1F3C50" transform="translate(205,76)"/>
<path d="M0 0 C2.0625 1.5625 2.0625 1.5625 3 4 C2.67272727 10.32727273 2.67272727 10.32727273 0 13 C-6.96019496 13.55239643 -6.96019496 13.55239643 -10 11.9375 C-11.58433618 8.86784865 -11.36248449 6.38318857 -11 3 C-8.85023976 -1.16516046 -4.12934638 -0.75547293 0 0 Z " fill="#1E4B39" transform="translate(117,106)"/>
<path d="M0 0 C0.99 0.66 1.98 1.32 3 2 C3.64608076 8.78384798 3.64608076 8.78384798 1.9375 12 C-1.17909511 13.60856522 -3.56262469 13.42213381 -7 13 C-9.4375 11.375 -9.4375 11.375 -11 9 C-11.5 5.9375 -11.5 5.9375 -11 3 C-7.92792827 -0.68648607 -4.54868482 -0.4135168 0 0 Z " fill="#163942" transform="translate(92,106)"/>
<path d="M0 0 C0 0.33 0 0.66 0 1 C-4.04331568 0.56678761 -7.72261161 0.0758264 -11.65820312 -1 C-15.76521855 -2.03478583 -19.77496341 -2.34234892 -24 -2.4140625 C-24.7211499 -2.43342865 -25.4422998 -2.4527948 -26.18530273 -2.4727478 C-28.45675353 -2.53185263 -30.72825695 -2.57864775 -33 -2.625 C-34.55340579 -2.66324366 -36.10679183 -2.70229896 -37.66015625 -2.7421875 C-41.43994099 -2.83749566 -45.21982468 -2.92177632 -49 -3 C-49.33 -1.35 -49.66 0.3 -50 2 C-54.8333472 2.08333357 -59.23692563 1.95261487 -64 1 C-50.71837477 -12.28162523 -15.59960889 -6.82482889 0 0 Z " fill="#7ACF42" transform="translate(144,28)"/>
<path d="M0 0 C0 0.66 0 1.32 0 2 C0.66 2 1.32 2 2 2 C2.75 5.25 2.75 5.25 3 9 C1.4375 11.4375 1.4375 11.4375 -1 13 C-4.58110811 13.52224493 -6.29889257 13.44280469 -9.375 11.5 C-9.91125 11.005 -10.4475 10.51 -11 10 C-10.51171875 3.9453125 -10.51171875 3.9453125 -10 2 C-6.3558226 -0.4294516 -4.28758728 -0.16179575 0 0 Z " fill="#183B42" transform="translate(141,106)"/>
<path d="M0 0 C0.33 0 0.66 0 1 0 C1.09796875 1.05960937 1.1959375 2.11921875 1.296875 3.2109375 C1.44694273 4.59906397 1.59803792 5.98707963 1.75 7.375 C1.811875 8.07367188 1.87375 8.77234375 1.9375 9.4921875 C2.16118253 11.78363782 2.16118253 11.78363782 3 15 C4.88609687 16.36002373 4.88609687 16.36002373 7 17 C7.66 17.99 8.32 18.98 9 20 C8.34 20 7.68 20 7 20 C7 20.66 7 21.32 7 22 C5 23.625 5 23.625 3 25 C2.34 23.35 1.68 21.7 1 20 C-0.32 20 -1.64 20 -3 20 C-3.66 21.32 -4.32 22.64 -5 24 C-5.66 24 -6.32 24 -7 24 C-7 21.03 -7 18.06 -7 15 C-7.66 15 -8.32 15 -9 15 C-8.67 13.68 -8.34 12.36 -8 11 C-7.34 11 -6.68 11 -6 11 C-5.67 10.34 -5.34 9.68 -5 9 C-5 9.66 -5 10.32 -5 11 C-4.34 11 -3.68 11 -3 11 C-0.87953208 7.46588679 -0.46800711 4.05606165 0 0 Z " fill="#7FE02D" transform="translate(150,93)"/>
<path d="M0 0 C-0.33 0.66 -0.66 1.32 -1 2 C-0.34 2.66 0.32 3.32 1 4 C0.34 4.99 -0.32 5.98 -1 7 C-1.66 7 -2.32 7 -3 7 C-3 6.34 -3 5.68 -3 5 C-3.49371094 5.16242188 -3.98742187 5.32484375 -4.49609375 5.4921875 C-8.01216914 6.20527611 -11.4914815 6.14428543 -15.0625 6.125 C-15.78244141 6.12886719 -16.50238281 6.13273438 -17.24414062 6.13671875 C-20.42708639 6.13080799 -22.95947862 6.01350713 -26 5 C-25.67 5.99 -25.34 6.98 -25 8 C-25.33 8.66 -25.66 9.32 -26 10 C-27.65 9.67 -29.3 9.34 -31 9 C-31 8.01 -31 7.02 -31 6 C-33.64 6.33 -36.28 6.66 -39 7 C-38.67 6.01 -38.34 5.02 -38 4 C-36.989375 4.061875 -35.97875 4.12375 -34.9375 4.1875 C-30.01673465 4.20501162 -25.37960585 3.15773168 -20.58203125 2.14404297 C-13.70910912 0.69955858 -7.04430053 -0.18062309 0 0 Z " fill="#173643" transform="translate(143,200)"/>
<path d="M0 0 C6.58384834 1.04470982 13.10133509 3.37890256 19.1875 6.0625 C19.5175 6.7225 19.8475 7.3825 20.1875 8.0625 C19.48625 7.918125 18.785 7.77375 18.0625 7.625 C16.04904162 7.23106249 14.02684913 6.88043712 12 6.5625 C9.1875 6.0625 9.1875 6.0625 7.1875 5.0625 C5.17949544 5.34362064 3.17735949 5.67317967 1.1875 6.0625 C1.1875 6.7225 1.1875 7.3825 1.1875 8.0625 C3.1675 9.0525 5.1475 10.0425 7.1875 11.0625 C3.64082822 12.31377906 1.46496562 11.78535053 -2.0625 10.625 C-3.40054688 10.19380859 -3.40054688 10.19380859 -4.765625 9.75390625 C-5.44109375 9.52574219 -6.1165625 9.29757813 -6.8125 9.0625 C-6.8125 8.0725 -6.8125 7.0825 -6.8125 6.0625 C-7.8025 5.7325 -8.7925 5.4025 -9.8125 5.0625 C-8.8225 4.7325 -7.8325 4.4025 -6.8125 4.0625 C-6.44125 3.36125 -6.07 2.66 -5.6875 1.9375 C-3.8125 0.0625 -3.8125 0.0625 0 0 Z " fill="#28474C" transform="translate(134.8125,14.9375)"/>
<path d="M0 0 C0.33 0.99 0.66 1.98 1 3 C1.66 3 2.32 3 3 3 C2.67 13.56 2.34 24.12 2 35 C1.34 35 0.68 35 0 35 C-0.33 35.66 -0.66 36.32 -1 37 C-1.97074316 32.09968851 -2.1917371 27.41079452 -2.1875 22.4375 C-2.18814453 21.65262207 -2.18878906 20.86774414 -2.18945312 20.05908203 C-2.12825917 13.22622025 -1.32786256 6.71044828 0 0 Z " fill="#2E485A" transform="translate(15,91)"/>
<path d="M0 0 C0.66 0 1.32 0 2 0 C2.33 1.65 2.66 3.3 3 5 C4.32 4.67 5.64 4.34 7 4 C11.76849603 14.18018456 11.76849603 14.18018456 12 18 C11.34 18.66 10.68 19.32 10 20 C10.165 20.66 10.33 21.32 10.5 22 C10.665 22.66 10.83 23.32 11 24 C10.34 24.66 9.68 25.32 9 26 C9 25.34 9 24.68 9 24 C8.34 24 7.68 24 7 24 C7 23.34 7 22.68 7 22 C6.34 22 5.68 22 5 22 C5.04125 21.13375 5.0825 20.2675 5.125 19.375 C4.99444757 15.85008449 4.24018767 13.28284973 3 10 C2.67 9.01 2.34 8.02 2 7 C1.46375 6.34 0.9275 5.68 0.375 5 C-0.07875 4.34 -0.5325 3.68 -1 3 C-0.67 2.01 -0.34 1.02 0 0 Z " fill="#163446" transform="translate(23,142)"/>
<path d="M0 0 C1.6960258 1.64302499 3.35405271 3.30724852 5 5 C5.70898438 5.72445312 6.41796875 6.44890625 7.1484375 7.1953125 C7.88320312 7.97648437 8.61796875 8.75765625 9.375 9.5625 C10.08398438 10.30628906 10.79296875 11.05007812 11.5234375 11.81640625 C13 14 13 14 12.7265625 16.27734375 C12.48679688 16.84582031 12.24703125 17.41429688 12 18 C11.34 18 10.68 18 10 18 C10 17.34 10 16.68 10 16 C9.34 16 8.68 16 8 16 C8 18.64 8 21.28 8 24 C6.62437146 22.71034824 5.29233607 21.37310707 4 20 C4 19.34 4 18.68 4 18 C3.34 18 2.68 18 2 18 C0.79422572 13.05632546 1.3709322 9.79137588 3 5 C2.34 5 1.68 5 1 5 C0.67 3.35 0.34 1.7 0 0 Z " fill="#214448" transform="translate(181,40)"/>
<path d="M0 0 C1.79508501 0.42325583 3.5860283 0.86410735 5.375 1.3125 C6.37273437 1.55613281 7.37046875 1.79976562 8.3984375 2.05078125 C11 3 11 3 13 6 C13.99 6.66 14.98 7.32 16 8 C14.02 8.99 14.02 8.99 12 10 C12 10.66 12 11.32 12 12 C9.69 11.67 7.38 11.34 5 11 C5 10.34 5 9.68 5 9 C4.01 8.67 3.02 8.34 2 8 C1.25 6.0625 1.25 6.0625 1 4 C1.33 3.34 1.66 2.68 2 2 C1.34 2 0.68 2 0 2 C0 1.34 0 0.68 0 0 Z " fill="#153446" transform="translate(82,197)"/>
<path d="M0 0 C0 0.66 0 1.32 0 2 C-0.99 2 -1.98 2 -3 2 C-3 2.66 -3 3.32 -3 4 C-3.99 4 -4.98 4 -6 4 C-6 4.66 -6 5.32 -6 6 C-6.99 6.33 -7.98 6.66 -9 7 C-8.01 7.66 -7.02 8.32 -6 9 C-6.99 9.495 -6.99 9.495 -8 10 C-8 10.99 -8 11.98 -8 13 C-11.69541586 13.95024979 -14.30458414 13.95024979 -18 13 C-18.33 12.01 -18.66 11.02 -19 10 C-3.60273973 0 -3.60273973 0 0 0 Z " fill="#203D4E" transform="translate(74,21)"/>
<path d="M0 0 C0.33 0.99 0.66 1.98 1 3 C0.01 4.485 0.01 4.485 -1 6 C-0.01 7.485 -0.01 7.485 1 9 C-3.75 10.125 -3.75 10.125 -6 9 C-5.67 10.32 -5.34 11.64 -5 13 C-5.99 13.33 -6.98 13.66 -8 14 C-8 13.34 -8 12.68 -8 12 C-8.99 12.495 -8.99 12.495 -10 13 C-10 13.99 -10 14.98 -10 16 C-15.24175152 18.34205919 -20.53262809 20.25192871 -26 22 C-25 20 -25 20 -21.75 18.5625 C-17.39500816 16.47967782 -13.90875912 13.66276817 -10.25 10.5625 C-9.41807129 9.86265991 -9.41807129 9.86265991 -8.56933594 9.14868164 C-5.32032437 6.34481411 -2.5828707 3.45427611 0 0 Z " fill="#163D3B" transform="translate(181,170)"/>
<path d="M0 0 C3.94139078 1.66751148 6.7892812 4.22710649 10 7 C9.01 8.485 9.01 8.485 8 10 C8.99 10 9.98 10 11 10 C11 10.66 11 11.32 11 12 C10.34 12 9.68 12 9 12 C8.67 12.99 8.34 13.98 8 15 C7.01 14.67 6.02 14.34 5 14 C5 13.34 5 12.68 5 12 C4.01 12 3.02 12 2 12 C2.04125 11.236875 2.0825 10.47375 2.125 9.6875 C2.22080824 6.77281584 2.22080824 6.77281584 0 4 C0 2.68 0 1.36 0 0 Z " fill="#1B394A" transform="translate(169,31)"/>
<path d="M0 0 C-2.50058918 2.91024202 -5.19655377 4.16791164 -8.6875 5.6875 C-9.68136719 6.12449219 -10.67523438 6.56148437 -11.69921875 7.01171875 C-12.45847656 7.33785156 -13.21773437 7.66398438 -14 8 C-16 6 -16 6 -16.125 2.875 C-16.08375 1.92625 -16.0425 0.9775 -16 0 C-10.47032059 -0.71033431 -5.50016964 -1.30267176 0 0 Z " fill="#274252" transform="translate(164,197)"/>
<path d="M0 0 C0.33 0.66 0.66 1.32 1 2 C1.66 2 2.32 2 3 2 C2.67 11.24 2.34 20.48 2 30 C1.34 30.33 0.68 30.66 0 31 C-0.33 28.03 -0.66 25.06 -1 22 C-0.67 22 -0.34 22 0 22 C0.33 18.04 0.66 14.08 1 10 C-0.32 10 -1.64 10 -3 10 C-2.39009109 6.44219804 -1.4216319 3.3171411 0 0 Z " fill="#7CD732" transform="translate(148,118)"/>
<path d="M0 0 C0.33 0 0.66 0 1 0 C1.05893685 3.9374352 1.09390669 7.87475427 1.125 11.8125 C1.14175781 12.91271484 1.15851563 14.01292969 1.17578125 15.14648438 C1.21813455 22.32536862 0.56258545 28.99126695 -1 36 C-2.73252349 32.78832601 -3.2984943 30.68142974 -3 27 C-2.67 26.67 -2.34 26.34 -2 26 C-1.97898837 23.89583511 -2.00962249 21.79110532 -2.0625 19.6875 C-2.12495371 12.92168151 -1.35714561 6.61608483 0 0 Z " fill="#2C4655" transform="translate(211,100)"/>
<path d="M0 0 C3.64214008 3.20701715 5.6773957 6.81078074 7.75 11.125 C8.06582031 11.75792969 8.38164062 12.39085938 8.70703125 13.04296875 C11 17.71824269 11 17.71824269 11 20 C10.01 20.33 9.02 20.66 8 21 C8 18.69 8 16.38 8 14 C7.0409375 13.8453125 7.0409375 13.8453125 6.0625 13.6875 C5.0415625 13.3471875 5.0415625 13.3471875 4 13 C3.67 12.01 3.34 11.02 3 10 C2.34 10 1.68 10 1 10 C1 9.34 1 8.68 1 8 C0.34 8 -0.32 8 -1 8 C-1 7.34 -1 6.68 -1 6 C-1.66 6 -2.32 6 -3 6 C-3 5.34 -3 4.68 -3 4 C-2.01 3.34 -1.02 2.68 0 2 C0 1.34 0 0.68 0 0 Z " fill="#2B4553" transform="translate(194,56)"/>
<path d="M0 0 C2.5 1.8125 2.5 1.8125 5 4 C5 4.99 5 5.98 5 7 C5.66 7 6.32 7 7 7 C8.2890625 8.53125 8.2890625 8.53125 9.625 10.5 C10.07101563 11.1496875 10.51703125 11.799375 10.9765625 12.46875 C11.48316406 13.22671875 11.48316406 13.22671875 12 14 C11.67 14.66 11.34 15.32 11 16 C9.68 15.67 8.36 15.34 7 15 C7 14.34 7 13.68 7 13 C5.35 12.67 3.7 12.34 2 12 C0.85110867 8.06094403 0.47417305 4.06434042 0 0 Z " fill="#7EDB37" transform="translate(178,51)"/>
<path d="M0 0 C0.99 0 1.98 0 3 0 C3 0.66 3 1.32 3 2 C3.66 2 4.32 2 5 2 C5 3.32 5 4.64 5 6 C6.45833358 7.62514468 6.45833358 7.62514468 8 9 C8 9.66 8 10.32 8 11 C8.99 11.33 9.98 11.66 11 12 C6.428721 11.45144652 2.32564205 10.58255197 -2 9 C-2 7.35 -2 5.7 -2 4 C-1.34 4 -0.68 4 0 4 C0 2.68 0 1.36 0 0 Z " fill="#294451" transform="translate(79,197)"/>
<path d="M0 0 C10.56 0 21.12 0 32 0 C32 0.66 32 1.32 32 2 C31.43192627 1.98952637 30.86385254 1.97905273 30.27856445 1.96826172 C15.40975582 1.72006724 15.40975582 1.72006724 0.69140625 3.5625 C-2.24526174 4.03986838 -5.02989092 4.06998784 -8 4 C-4.77208445 1.8480563 -3.71599191 1.79913557 0 2 C0 1.34 0 0.68 0 0 Z " fill="#113D2C" transform="translate(96,21)"/>
<path d="M0 0 C0.33 0 0.66 0 1 0 C1.02685095 2.47923801 1.04676547 4.9581884 1.0625 7.4375 C1.07087891 8.14455078 1.07925781 8.85160156 1.08789062 9.58007812 C1.09653588 11.38693559 1.05220011 13.19387603 1 15 C0.67 15.33 0.34 15.66 0 16 C0.66 16.33 1.32 16.66 2 17 C2.28875 17.804375 2.5775 18.60875 2.875 19.4375 C3.77050152 22.13605515 3.77050152 22.13605515 6.125 23.3125 C6.74375 23.539375 7.3625 23.76625 8 24 C1.25 23.125 1.25 23.125 -1 22 C-3.11596899 17.18029285 -3.17786056 13.15795631 -3 8 C-2.01 8.495 -2.01 8.495 -1 9 C-1.020625 7.88625 -1.04125 6.7725 -1.0625 5.625 C-1 2 -1 2 0 0 Z " fill="#82DF36" transform="translate(165,82)"/>
<path d="M0 0 C11.55 0 23.1 0 35 0 C27.56096633 4.95935578 16.72088822 4.32217111 8.125 3.25 C7.42930908 3.16395508 6.73361816 3.07791016 6.0168457 2.98925781 C4.3304843 2.74136924 2.66147253 2.38048989 1 2 C0.67 1.34 0.34 0.68 0 0 Z " fill="#205033" transform="translate(93,201)"/>
<path d="M0 0 C0.33 0.66 0.66 1.32 1 2 C3.01669827 3.13350534 3.01669827 3.13350534 5 4 C5 3.34 5 2.68 5 2 C6.32 2.33 7.64 2.66 9 3 C9 3.66 9 4.32 9 5 C9.99 5 10.98 5 12 5 C12 5.66 12 6.32 12 7 C12.66 7.66 13.32 8.32 14 9 C12.3603125 9.2165625 12.3603125 9.2165625 10.6875 9.4375 C7.06877013 9.88288104 7.06877013 9.88288104 4 11 C4 10.34 4 9.68 4 9 C4.66 9 5.32 9 6 9 C6 8.01 6 7.02 6 6 C4.35 6 2.7 6 1 6 C1 5.34 1 4.68 1 4 C0.34 4 -0.32 4 -1 4 C-1.33 5.32 -1.66 6.64 -2 8 C-2.99 8 -3.98 8 -5 8 C-4.67 7.01 -4.34 6.02 -4 5 C-3.34 5 -2.68 5 -2 5 C-1.34 3.35 -0.68 1.7 0 0 Z " fill="#1E4442" transform="translate(159,110)"/>
<path d="M0 0 C0.66 0 1.32 0 2 0 C2.28875 0.639375 2.5775 1.27875 2.875 1.9375 C3.82823451 4.15206079 3.82823451 4.15206079 6 5 C6 4.34 6 3.68 6 3 C6.66 3 7.32 3 8 3 C6.60667426 6.36720387 5.0210714 7.9859524 2 10 C1.01 9.34 0.02 8.68 -1 8 C-0.67 8.99 -0.34 9.98 0 11 C-0.99 11.495 -0.99 11.495 -2 12 C-2.33 10.68 -2.66 9.36 -3 8 C-3.66 8 -4.32 8 -5 8 C-4.67 7.01 -4.34 6.02 -4 5 C-1.9375 4.3125 -1.9375 4.3125 0 4 C0 2.68 0 1.36 0 0 Z " fill="#153546" transform="translate(43,42)"/>
<path d="M0 0 C1.1875 3.0625 1.1875 3.0625 2 6 C-0.60482949 6.94721072 -2.30674701 7.30222393 -4.890625 6.17578125 C-6.62582873 5.17063275 -8.31640423 4.0893855 -10 3 C-9.67 2.01 -9.34 1.02 -9 0 C-3.375 -1.125 -3.375 -1.125 0 0 Z " fill="#143543" transform="translate(145,20)"/>
<path d="M0 0 C0.33 0 0.66 0 1 0 C1 3.3 1 6.6 1 10 C3.0839403 9.88556397 5.16716493 9.75804453 7.25 9.625 C8.99023438 9.52058594 8.99023438 9.52058594 10.765625 9.4140625 C13.77547812 9.02874314 15.38013089 8.37711069 18 7 C19.32 7 20.64 7 22 7 C20.79180633 10.624581 20.19658087 10.40170957 17 12 C14.11629667 12.07194869 11.25760336 12.09291708 8.375 12.0625 C7.57320312 12.05798828 6.77140625 12.05347656 5.9453125 12.04882812 C3.96350994 12.03703168 1.98174567 12.01909605 0 12 C0 8.04 0 4.08 0 0 Z " fill="#80D840" transform="translate(138,153)"/>
<path d="M0 0 C0.33 0 0.66 0 1 0 C1.07465394 4.14425088 1.12883721 8.28813624 1.16479492 12.43286133 C1.17979877 13.84015734 1.20020863 15.24740724 1.22631836 16.65454102 C1.26307665 18.68777907 1.27980984 20.72039432 1.29296875 22.75390625 C1.3086792 23.97408447 1.32438965 25.1942627 1.34057617 26.45141602 C0.93440538 30.68345364 -0.02431112 33.24541091 -2 37 C-2.99 37.66 -3.98 38.32 -5 39 C-4.79721436 38.37633545 -4.59442871 37.7526709 -4.38549805 37.11010742 C-2.0015939 29.19939089 -1.27722018 21.53676814 -0.8125 13.3125 C-0.73064453 12.02666016 -0.64878906 10.74082031 -0.56445312 9.41601562 C-0.36612879 6.27782468 -0.17819613 3.13938714 0 0 Z " fill="#3A7141" transform="translate(202,104)"/>
<path d="M0 0 C3.59634744 3.49359465 6.83451967 7.11098131 10 11 C8.68 11.33 7.36 11.66 6 12 C6 14.31 6 16.62 6 19 C5.67 18.34 5.34 17.68 5 17 C4.01 16.67 3.02 16.34 2 16 C0.10536439 12.21072879 1.75571323 8.80605364 3 5 C2.34 5 1.68 5 1 5 C0.67 3.35 0.34 1.7 0 0 Z " fill="#2A4454" transform="translate(181,40)"/>
<path d="M0 0 C0 2.64 0 5.28 0 8 C-1.98 8 -3.96 8 -6 8 C-6.33 7.34 -6.66 6.68 -7 6 C-6.34 5.34 -5.68 4.68 -5 4 C-5.928125 3.7834375 -5.928125 3.7834375 -6.875 3.5625 C-9 3 -9 3 -11 2 C-7.374967 -1.625033 -4.81746234 -1.01907857 0 0 Z " fill="#17354A" transform="translate(118,108)"/>
<path d="M0 0 C0.33 1.32 0.66 2.64 1 4 C0.34 4 -0.32 4 -1 4 C-0.67 4.99 -0.34 5.98 0 7 C0.99 7.33 1.98 7.66 3 8 C3 8.66 3 9.32 3 10 C2.01 10 1.02 10 0 10 C0.33 12.31 0.66 14.62 1 17 C-1.38882821 14.03455808 -3.71436149 11.04751801 -6 8 C-4.02 5.36 -2.04 2.72 0 0 Z " fill="#85E338" transform="translate(73,104)"/>
<path d="M0 0 C-0.66 0.66 -1.32 1.32 -2 2 C-1.67958603 4.60280568 -1.67958603 4.60280568 -1 7 C-0.01 7.33 0.98 7.66 2 8 C1.01 8.66 0.02 9.32 -1 10 C-1.99 9.67 -2.98 9.34 -4 9 C-4.75 7 -4.75 7 -5 5 C-4.67 4.67 -4.34 4.34 -4 4 C-7.96 4 -11.92 4 -16 4 C-13.03476487 2.02317658 -10.84158175 1.24171007 -7.4375 0.3125 C-6.46683594 0.04050781 -5.49617187 -0.23148438 -4.49609375 -0.51171875 C-2 -1 -2 -1 0 0 Z " fill="#2A5340" transform="translate(146,197)"/>
<path d="M0 0 C0.66 0 1.32 0 2 0 C3.25 2 3.25 2 4 5 C3.00207398 7.86336726 1.51831506 10.38454632 0 13 C-0.6749753 14.32914656 -1.34408804 15.66134331 -2 17 C-3.21359279 10.71138281 -2.85189912 7.70379823 0 2 C0 1.34 0 0.68 0 0 Z " fill="#1A3E42" transform="translate(28,69)"/>
<path d="M0 0 C1.09570312 0.00902344 2.19140625 0.01804688 3.3203125 0.02734375 C4.16335937 0.03894531 5.00640625 0.05054688 5.875 0.0625 C5.875 3.6925 5.875 7.3225 5.875 11.0625 C3.235 11.0625 0.595 11.0625 -2.125 11.0625 C-2.125 10.4025 -2.125 9.7425 -2.125 9.0625 C0.185 9.0625 2.495 9.0625 4.875 9.0625 C4.875 6.4225 4.875 3.7825 4.875 1.0625 C-0.69390517 1.54236031 -5.79567568 2.36165181 -11.125 4.0625 C-7.43175139 0.20137645 -5.34502415 -0.05686196 0 0 Z " fill="#18472E" transform="translate(80.125,61.9375)"/>
<path d="M0 0 C0.103125 0.639375 0.20625 1.27875 0.3125 1.9375 C0.539375 2.618125 0.76625 3.29875 1 4 C1.99 4.33 2.98 4.66 4 5 C2.68 7.64 1.36 10.28 0 13 C-0.99 13 -1.98 13 -3 13 C-3.33 13.66 -3.66 14.32 -4 15 C-3.43179252 9.54520815 -2.05362055 5.08940744 0 0 Z " fill="#304957" transform="translate(20,75)"/>
<path d="M0 0 C4.875 4.75 4.875 4.75 6 7 C5.01 7.33 4.02 7.66 3 8 C2.67 7.67 2.34 7.34 2 7 C1.67 7.66 1.34 8.32 1 9 C0.34 9 -0.32 9 -1 9 C-1.33 9.99 -1.66 10.98 -2 12 C-3.65 10.35 -5.3 8.7 -7 7 C-3.86650268 5.95550089 -3.01031744 6.06576355 0 7 C0 4.69 0 2.38 0 0 Z " fill="#2B4F4A" transform="translate(42,168)"/>
<path d="M0 0 C0.33 0 0.66 0 1 0 C1 3.96 1 7.92 1 12 C-1.64 12 -4.28 12 -7 12 C-6.67 12.99 -6.34 13.98 -6 15 C-5.93197033 16.72795352 -5.91504355 18.45835365 -5.9375 20.1875 C-5.94652344 21.08855469 -5.95554687 21.98960938 -5.96484375 22.91796875 C-5.97644531 23.60503906 -5.98804687 24.29210937 -6 25 C-6.33 25 -6.66 25 -7 25 C-7 22.03 -7 19.06 -7 16 C-7.66 16 -8.32 16 -9 16 C-9.33 17.32 -9.66 18.64 -10 20 C-10.125 16.625 -10.125 16.625 -10 13 C-8 11 -8 11 -6.0546875 10.8046875 C-4.03645833 10.86979167 -2.01822917 10.93489583 0 11 C0 7.37 0 3.74 0 0 Z " fill="#73C63D" transform="translate(86,62)"/>
<path d="M0 0 C0.66 0.33 1.32 0.66 2 1 C1.67 2.32 1.34 3.64 1 5 C-0.32 5 -1.64 5 -3 5 C-4.80411967 7.75924185 -5.0127245 8.88972103 -4.625 12.25 C-4.315625 13.61125 -4.315625 13.61125 -4 15 C-4.99 14.67 -5.98 14.34 -7 14 C-7.3721042 12.67696283 -7.70630173 11.34262065 -8 10 C-8.66 9.67 -9.32 9.34 -10 9 C-6.7 6.03 -3.4 3.06 0 0 Z " fill="#243E50" transform="translate(53,32)"/>
<path d="M0 0 C0 0.66 0 1.32 0 2 C-2.64 2 -5.28 2 -8 2 C-8 3.98 -8 5.96 -8 8 C-7.01 8 -6.02 8 -5 8 C-4.67 8.66 -4.34 9.32 -4 10 C-2.10466658 10.46523063 -2.10466658 10.46523063 0.0625 10.625 C1.361875 10.74875 2.66125 10.8725 4 11 C4 11.33 4 11.66 4 12 C-0.29 12 -4.58 12 -9 12 C-9 8.37 -9 4.74 -9 1 C-2.25 0 -2.25 0 0 0 Z " fill="#295D2D" transform="translate(148,151)"/>
<path d="M0 0 C1.65 0.33 3.3 0.66 5 1 C4.649375 1.763125 4.29875 2.52625 3.9375 3.3125 C2.67639116 6.04759379 2.67639116 6.04759379 4 9 C0.22454612 7.90931332 -2.47043472 7.0916909 -5 4 C-3.35 3.67 -1.7 3.34 0 3 C0 2.01 0 1.02 0 0 Z " fill="#2F4957" transform="translate(70,195)"/>
<path d="M0 0 C0.33 0.66 0.66 1.32 1 2 C-0.11375 1.95875 -1.2275 1.9175 -2.375 1.875 C-6.04366025 1.58878141 -6.04366025 1.58878141 -8 4 C-6.68 4.33 -5.36 4.66 -4 5 C-4 8 -4 8 -5 10 C-5.66 10 -6.32 10 -7 10 C-7 8.68 -7 7.36 -7 6 C-8.32 6.33 -9.64 6.66 -11 7 C-10.625 4.0625 -10.625 4.0625 -10 1 C-6.78548731 -0.60725635 -3.56387464 -0.05748185 0 0 Z " fill="#163E38" transform="translate(117,106)"/>
<path d="M0 0 C2.09972674 3.41205596 2.33083127 6.0300247 2 10 C1.36729133 11.34977849 0.69937532 12.68352881 0 14 C-0.38290462 15.99110401 -0.72604615 17.99100513 -1 20 C-1.33 20 -1.66 20 -2 20 C-2.3690205 6.3667426 -2.3690205 6.3667426 0 0 Z " fill="#234B45" transform="translate(66,68)"/>
<path d="M0 0 C2 3.75 2 3.75 2 6 C1.34 6 0.68 6 0 6 C0 6.66 0 7.32 0 8 C-2.97 8 -5.94 8 -9 8 C-9 11.63 -9 15.26 -9 19 C-8.01 19.33 -7.02 19.66 -6 20 C-7.32 20 -8.64 20 -10 20 C-10 15.71 -10 11.42 -10 7 C-8.72125 6.773125 -7.4425 6.54625 -6.125 6.3125 C-3.93067868 5.83899916 -3.93067868 5.83899916 -2 5 C-0.40311361 2.51686936 -0.40311361 2.51686936 0 0 Z " fill="#295C39" transform="translate(62,99)"/>
<path d="M0 0 C0.556875 0.309375 1.11375 0.61875 1.6875 0.9375 C7.05353987 3.40297778 11.30605256 2.86856825 17 2 C14.31998165 3.7866789 11.96871256 4.9322137 9 6.125 C7.700625 6.65480469 7.700625 6.65480469 6.375 7.1953125 C4 8 4 8 1 8 C1.33 7.34 1.66 6.68 2 6 C2.66 6 3.32 6 4 6 C4 5.34 4 4.68 4 4 C3.01 3.67 2.02 3.34 1 3 C0.67 2.01 0.34 1.02 0 0 Z " fill="#153F35" transform="translate(71,23)"/>
<path d="M0 0 C0.33 0 0.66 0 1 0 C1.33 4.62 1.66 9.24 2 14 C1.67 13.34 1.34 12.68 1 12 C0.01 12.33 -0.98 12.66 -2 13 C-3.46845421 7.52667068 -2.44038726 4.88077452 0 0 Z " fill="#1C3B4B" transform="translate(207,125)"/>
<path d="M0 0 C0.33 0 0.66 0 1 0 C1.33 1.98 1.66 3.96 2 6 C2.33 6 2.66 6 3 6 C3 8.64 3 11.28 3 14 C2.34 14 1.68 14 1 14 C0.34 15.98 -0.32 17.96 -1 20 C-0.34 20 0.32 20 1 20 C1 20.66 1 21.32 1 22 C0.01 21.67 -0.98 21.34 -2 21 C-1.01 10.605 -1.01 10.605 0 0 Z " fill="#7EDD2B" transform="translate(76,82)"/>
<path d="M0 0 C1.32 0.66 2.64 1.32 4 2 C4 2.99 4 3.98 4 5 C3.34 5 2.68 5 2 5 C2.33 5.99 2.66 6.98 3 8 C1.68 8 0.36 8 -1 8 C-1.66 6.35 -2.32 4.7 -3 3 C-2.01 2.01 -1.02 1.02 0 0 Z " fill="#1B3748" transform="translate(75,196)"/>
<path d="M0 0 C0.66 0 1.32 0 2 0 C2.33 1.65 2.66 3.3 3 5 C3.99 4.67 4.98 4.34 6 4 C6.33 5.98 6.66 7.96 7 10 C6.34 10 5.68 10 5 10 C4.67 11.32 4.34 12.64 4 14 C3.731875 12.9275 3.46375 11.855 3.1875 10.75 C2.25184124 7.07759146 2.25184124 7.07759146 0.3125 4.75 C-0.120625 4.1725 -0.55375 3.595 -1 3 C-0.67 2.01 -0.34 1.02 0 0 Z " fill="#133142" transform="translate(23,142)"/>
<path d="M0 0 C0.99 0.33 1.98 0.66 3 1 C2.67 2.32 2.34 3.64 2 5 C1.34 5 0.68 5 0 5 C0 5.66 0 6.32 0 7 C0.66 7 1.32 7 2 7 C2 8.32 2 9.64 2 11 C1.01 10.67 0.02 10.34 -1 10 C-1 9.01 -1 8.02 -1 7 C-1.66 7 -2.32 7 -3 7 C-2.625 4.0625 -2.625 4.0625 -2 1 C-1.34 0.67 -0.68 0.34 0 0 Z " fill="#173547" transform="translate(184,169)"/>
<path d="M0 0 C4.95 0 9.9 0 15 0 C15 0.66 15 1.32 15 2 C14.34 2 13.68 2 13 2 C13 2.66 13 3.32 13 4 C14.65 4 16.3 4 18 4 C18 4.33 18 4.66 18 5 C11.56318772 4.48914188 6.04057576 3.27057103 0 1 C0 0.67 0 0.34 0 0 Z " fill="#7CCF42" transform="translate(81,196)"/>
<path d="M0 0 C0.66 0.33 1.32 0.66 2 1 C0.5844966 4.53875851 -0.60369794 5.43202083 -4 7 C-5.24136719 7.65548828 -5.24136719 7.65548828 -6.5078125 8.32421875 C-7.37148437 8.77410156 -8.23515625 9.22398437 -9.125 9.6875 C-10.42824219 10.37392578 -10.42824219 10.37392578 -11.7578125 11.07421875 C-12.49773437 11.37972656 -13.23765625 11.68523437 -14 12 C-14.66 11.67 -15.32 11.34 -16 11 C-15.34773437 10.62488281 -14.69546875 10.24976563 -14.0234375 9.86328125 C-8.9650181 6.90134541 -4.36959219 3.90963511 0 0 Z " fill="#255233" transform="translate(171,180)"/>
<path d="M0 0 C0.66 0 1.32 0 2 0 C3.59412284 3.18824568 3.10174735 6.62896662 3.0625 10.125 C3.05798828 10.87910156 3.05347656 11.63320312 3.04882812 12.41015625 C3.03703499 14.27347127 3.01909942 16.13674555 3 18 C2.67 18 2.34 18 2 18 C1.814375 16.14375 1.814375 16.14375 1.625 14.25 C1.23751725 11.05467127 0.47890276 8.85921201 -1 6 C-1.1875 3.3125 -1.1875 3.3125 -1 1 C-0.67 0.67 -0.34 0.34 0 0 Z " fill="#6EC634" transform="translate(61,126)"/>
<path d="M0 0 C0.33 0 0.66 0 1 0 C1.38855926 2.4568901 1.76130088 4.91441833 2.125 7.375 C2.23714844 8.07367188 2.34929687 8.77234375 2.46484375 9.4921875 C2.72816466 11.31787914 2.8718116 13.1598762 3 15 C2.34 15.66 1.68 16.32 1 17 C-1.40814077 13.48812804 -2.36629408 11.27343092 -2 7 C-1.67 7 -1.34 7 -1 7 C-0.67 4.69 -0.34 2.38 0 0 Z " fill="#77D236" transform="translate(150,93)"/>
<path d="M0 0 C0.33 0 0.66 0 1 0 C0.98839844 0.75925781 0.97679687 1.51851563 0.96484375 2.30078125 C0.95582031 3.29464844 0.94679688 4.28851563 0.9375 5.3125 C0.92589844 6.29863281 0.91429687 7.28476563 0.90234375 8.30078125 C0.87670138 11.09963849 0.87670138 11.09963849 2 14 C0.68 15.32 -0.64 16.64 -2 18 C-2.99 17.67 -3.98 17.34 -5 17 C-4.01 15.515 -4.01 15.515 -3 14 C-3 14.66 -3 15.32 -3 16 C-2.34 16 -1.68 16 -1 16 C-1.185625 15.21625 -1.37125 14.4325 -1.5625 13.625 C-2 11 -2 11 -1 9 C-0.77532169 7.46331135 -0.59203195 5.92031946 -0.4375 4.375 C-0.35371094 3.55773437 -0.26992188 2.74046875 -0.18359375 1.8984375 C-0.12300781 1.27195312 -0.06242187 0.64546875 0 0 Z " fill="#84DF3C" transform="translate(60,88)"/>
<path d="M0 0 C0.99 0.66 1.98 1.32 3 2 C3.66 2 4.32 2 5 2 C5 2.99 5 3.98 5 5 C4.34 5 3.68 5 3 5 C3 5.66 3 6.32 3 7 C2.34 7 1.68 7 1 7 C0.67 7.66 0.34 8.32 0 9 C-0.66 8.67 -1.32 8.34 -2 8 C-2 7.34 -2 6.68 -2 6 C-2.99 5.67 -3.98 5.34 -5 5 C-3.68 4.67 -2.36 4.34 -1 4 C-0.67 2.68 -0.34 1.36 0 0 Z " fill="#153246" transform="translate(55,32)"/>
<path d="M0 0 C6.93 0.495 6.93 0.495 14 1 C14.33 2.32 14.66 3.64 15 5 C11.01508155 6.32830615 9.59951452 5.23204404 5.8125 3.5625 C4.72582031 3.08941406 3.63914063 2.61632812 2.51953125 2.12890625 C1.68808594 1.75636719 0.85664063 1.38382813 0 1 C0 0.67 0 0.34 0 0 Z " fill="#1E4C37" transform="translate(142,27)"/>
<path d="M0 0 C3.16115776 1.36983503 3.9927092 1.9890638 6 5 C5.34 5 4.68 5 4 5 C4 5.66 4 6.32 4 7 C2 8.625 2 8.625 0 10 C-0.74926071 6.33694766 -1.2380014 3.57644848 0 0 Z " fill="#82D93B" transform="translate(153,108)"/>
<path d="M0 0 C0.99 0.33 1.98 0.66 3 1 C3 2.65 3 4.3 3 6 C3.66 6 4.32 6 5 6 C5.33 5.34 5.66 4.68 6 4 C5.67 6.64 5.34 9.28 5 12 C3.68 12 2.36 12 1 12 C1.020625 10.7625 1.04125 9.525 1.0625 8.25 C1.06766681 5.3359175 0.93015558 2.79046673 0 0 Z " fill="#7DE227" transform="translate(194,84)"/>
<path d="M0 0 C-0.75925781 0.40992188 -1.51851562 0.81984375 -2.30078125 1.2421875 C-3.29464844 1.78101563 -4.28851563 2.31984375 -5.3125 2.875 C-6.79169922 3.67550781 -6.79169922 3.67550781 -8.30078125 4.4921875 C-11.09586458 6.00722126 -11.09586458 6.00722126 -14 8 C-14 6.68 -14 5.36 -14 4 C-13.34 4 -12.68 4 -12 4 C-11.67 3.01 -11.34 2.02 -11 1 C-9.00390625 0.234375 -9.00390625 0.234375 -6.5625 -0.25 C-5.75941406 -0.42015625 -4.95632812 -0.5903125 -4.12890625 -0.765625 C-2 -1 -2 -1 0 0 Z " fill="#1F4E34" transform="translate(72,33)"/>
<path d="M0 0 C2.76276177 0.52268466 5.3260876 1.10869587 8 2 C8.33 2.66 8.66 3.32 9 4 C10.88263881 4.90343684 10.88263881 4.90343684 13.0625 5.625 C13.79597656 5.88539063 14.52945313 6.14578125 15.28515625 6.4140625 C16.13400391 6.70410156 16.13400391 6.70410156 17 7 C16.67 7.66 16.34 8.32 16 9 C10.45191827 6.63483137 5.18283647 4.08764726 0 1 C0 0.67 0 0.34 0 0 Z " fill="#79CA45" transform="translate(63,187)"/>
<path d="M0 0 C0.33 0.99 0.66 1.98 1 3 C6.3212615 4.08318169 11.63486869 5.152874 17 6 C17 6.33 17 6.66 17 7 C10.53291985 7.35133031 5.7113835 7.21265322 0 4 C-0.66 3.01 -1.32 2.02 -2 1 C-1.34 0.67 -0.68 0.34 0 0 Z " fill="#1D4E2C" transform="translate(69,156)"/>
<path d="M0 0 C3.28670403 3.28670403 5 7.35868331 5 12 C4.01 12 3.02 12 2 12 C-1 8.66666667 -1 8.66666667 -1 6 C-0.34 6 0.32 6 1 6 C0.67 4.02 0.34 2.04 0 0 Z " fill="#224C3F" transform="translate(29,146)"/>
<path d="M0 0 C0.33 0 0.66 0 1 0 C1 3.3 1 6.6 1 10 C1.66 10 2.32 10 3 10 C3.33 10.99 3.66 11.98 4 13 C6.64 13.33 9.28 13.66 12 14 C12 14.33 12 14.66 12 15 C10.56260487 15.02712066 9.12506137 15.04645067 7.6875 15.0625 C6.48673828 15.07990234 6.48673828 15.07990234 5.26171875 15.09765625 C3 15 3 15 0 14 C0 9.38 0 4.76 0 0 Z " fill="#7BD238" transform="translate(76,136)"/>
<path d="M0 0 C2.91589609 4.37384413 4.30254716 7.70542471 4 13 C3.34 13 2.68 13 2 13 C1.67 11.35 1.34 9.7 1 8 C0.01 8 -0.98 8 -2 8 C-1.47731534 5.23723823 -0.89130413 2.6739124 0 0 Z " fill="#83DD3C" transform="translate(195,77)"/>
<path d="M0 0 C0 0.66 0 1.32 0 2 C0.66 2 1.32 2 2 2 C1.67 2.66 1.34 3.32 1 4 C1 4.99 1 5.98 1 7 C-1.66666667 5.66666667 -4.33333333 4.33333333 -7 3 C-4.49955934 -0.00052879 -4.2621484 0 0 0 Z " fill="#1C423C" transform="translate(163,31)"/>
<path d="M0 0 C1.11375 0.309375 2.2275 0.61875 3.375 0.9375 C8.20509012 2.15800664 13.04290069 2.61399637 18 3 C18 3.33 18 3.66 18 4 C12.06 4 6.12 4 0 4 C-0.33 3.34 -0.66 2.68 -1 2 C-0.67 1.34 -0.34 0.68 0 0 Z " fill="#80D448" transform="translate(68,160)"/>
<path d="M0 0 C3.63 0.33 7.26 0.66 11 1 C11 1.33 11 1.66 11 2 C8.95928485 2.33910994 6.91737379 2.67102704 4.875 3 C3.16957031 3.2784375 3.16957031 3.2784375 1.4296875 3.5625 C-1.76137602 3.96956049 -4.78817791 4.07809902 -8 4 C-4.77208445 1.8480563 -3.71599191 1.79913557 0 2 C0 1.34 0 0.68 0 0 Z " fill="#1A4C2C" transform="translate(96,21)"/>
<path d="M0 0 C-0.75 1.9375 -0.75 1.9375 -2 4 C-4.125 4.75 -4.125 4.75 -6 5 C-6 4.34 -6 3.68 -6 3 C-8.31 3.33 -10.62 3.66 -13 4 C-8.68630028 1.12420019 -5.19265239 0 0 0 Z " fill="#334D59" transform="translate(90,16)"/>
<path d="M0 0 C2.3125 -0.3125 2.3125 -0.3125 5 0 C6.6875 2.25 6.6875 2.25 8 5 C8.391875 5.763125 8.78375 6.52625 9.1875 7.3125 C9.455625 7.869375 9.72375 8.42625 10 9 C5.49115974 6.68116787 3.06093224 3.93548431 0 0 Z " fill="#3E5765" transform="translate(40,180)"/>
<path d="M0 0 C0 1.98 0 3.96 0 6 C-0.99 6 -1.98 6 -3 6 C-3 7.65 -3 9.3 -3 11 C-3.33 11 -3.66 11 -4 11 C-4.33 7.7 -4.66 4.4 -5 1 C-3 0 -3 0 0 0 Z " fill="#7DDC34" transform="translate(79,120)"/>
<path d="M0 0 C1.24546405 2.49092811 0.7767578 3.41080733 0 6 C1.32 6 2.64 6 4 6 C4.33 6.99 4.66 7.98 5 9 C6.65 9.33 8.3 9.66 10 10 C10 10.33 10 10.66 10 11 C3.72413793 11.48275862 3.72413793 11.48275862 0.5625 9.375 C-1.41041808 6.37616451 -1.39152344 4.52371092 -1 1 C-0.67 0.67 -0.34 0.34 0 0 Z " fill="#1F5132" transform="translate(82,108)"/>
<path d="M0 0 C0.99 0.33 1.98 0.66 3 1 C2.01 1 1.02 1 0 1 C0 0.67 0 0.34 0 0 Z M-3 2 C-1.68 2 -0.36 2 1 2 C0.67 2.99 0.34 3.98 0 5 C-2.75078884 5.91692961 -4.35948913 6.10886083 -7.1875 6.0625 C-9.0746875 6.0315625 -9.0746875 6.0315625 -11 6 C-10.67 5.34 -10.34 4.68 -10 4 C-7.67843403 3.59270772 -5.3431213 3.25561323 -3 3 C-3 2.67 -3 2.34 -3 2 Z " fill="#153342" transform="translate(128,15)"/>
<path d="M0 0 C0.66 0.66 1.32 1.32 2 2 C0.35 3.98 -1.3 5.96 -3 8 C-3.33 7.01 -3.66 6.02 -4 5 C-4.66 5 -5.32 5 -6 5 C-6 4.34 -6 3.68 -6 3 C-5.34 3 -4.68 3 -4 3 C-4 2.34 -4 1.68 -4 1 C-3.34 1 -2.68 1 -2 1 C-1.67 1.33 -1.34 1.66 -1 2 C-0.67 1.34 -0.34 0.68 0 0 Z " fill="#304A57" transform="translate(190,171)"/>
<path d="M0 0 C0.33 0.99 0.66 1.98 1 3 C0.01 3.33 -0.98 3.66 -2 4 C-1.7215625 4.928125 -1.7215625 4.928125 -1.4375 5.875 C-1 8 -1 8 -2 10 C-3.65 9.67 -5.3 9.34 -7 9 C-6.02180976 7.68677212 -5.0424189 6.37443848 -4.0625 5.0625 C-3.51722656 4.33160156 -2.97195312 3.60070313 -2.41015625 2.84765625 C-1 1 -1 1 0 0 Z " fill="#78D039" transform="translate(49,48)"/>
<path d="M0 0 C1.98 0 3.96 0 6 0 C6.33 1.65 6.66 3.3 7 5 C7.99 5 8.98 5 10 5 C10.33 6.32 10.66 7.64 11 9 C9.72689688 8.06558465 8.456612 7.12732889 7.1875 6.1875 C6.47980469 5.66542969 5.77210938 5.14335938 5.04296875 4.60546875 C3.21468607 3.16871123 1.60103312 1.68184237 0 0 Z " fill="#1D4A35" transform="translate(164,38)"/>
<path d="M0 0 C0.33 0.66 0.66 1.32 1 2 C0.67 2.99 0.34 3.98 0 5 C0.99 5 1.98 5 3 5 C3.33 4.01 3.66 3.02 4 2 C4.33 2 4.66 2 5 2 C5 3.65 5 5.3 5 7 C2.125 6.8125 2.125 6.8125 -1 6 C-2.375 3.4375 -2.375 3.4375 -3 1 C-2.01 0.67 -1.02 0.34 0 0 Z " fill="#83DF37" transform="translate(42,162)"/>
<path d="M0 0 C1.34110539 2.20887947 2.06609767 3.45469419 1.75 6.0625 C1 8 1 8 -1 11 C-1.66 10.67 -2.32 10.34 -3 10 C-2.49287967 6.28111761 -1.88391785 3.26545761 0 0 Z " fill="#76CF36" transform="translate(30,76)"/>
<path d="M0 0 C1.32 0.33 2.64 0.66 4 1 C3.01 1.495 3.01 1.495 2 2 C2 2.66 2 3.32 2 4 C4.64 4 7.28 4 10 4 C10 4.33 10 4.66 10 5 C5.38 5.33 0.76 5.66 -4 6 C-4 5.34 -4 4.68 -4 4 C-2.68 3.34 -1.36 2.68 0 2 C0 1.34 0 0.68 0 0 Z " fill="#76CB3B" transform="translate(76,57)"/>
<path d="M0 0 C4 0 4 0 5.75 1.375 C7 3 7 3 7 5 C7.99 5.33 8.98 5.66 10 6 C10 6.66 10 7.32 10 8 C10.66 8 11.32 8 12 8 C11.67 8.66 11.34 9.32 11 10 C9.16375669 8.52444734 7.3310715 7.04446569 5.5 5.5625 C4.4790625 4.73878906 3.458125 3.91507813 2.40625 3.06640625 C1.6121875 2.38449219 0.818125 1.70257813 0 1 C0 0.67 0 0.34 0 0 Z " fill="#78CE40" transform="translate(48,175)"/>
<path d="M0 0 C0 0.66 0 1.32 0 2 C-0.99 2 -1.98 2 -3 2 C-3 2.66 -3 3.32 -3 4 C-3.99 4 -4.98 4 -6 4 C-6 4.66 -6 5.32 -6 6 C-8.31 6.33 -10.62 6.66 -13 7 C-10.84545751 4.64283596 -8.80280126 3.21033856 -5.9375 1.8125 C-5.24527344 1.46832031 -4.55304688 1.12414062 -3.83984375 0.76953125 C-2 0 -2 0 0 0 Z " fill="#425762" transform="translate(74,21)"/>
<path d="M0 0 C2 3 2 3 2 6 C6.455 6.99 6.455 6.99 11 8 C11 8.66 11 9.32 11 10 C8.03 9.67 5.06 9.34 2 9 C0.50178941 5.62902617 0 3.79557881 0 0 Z " fill="#1B4D30" transform="translate(162,98)"/>
<path d="M0 0 C0 0.33 0 0.66 0 1 C-4.29 1 -8.58 1 -13 1 C-13 0.34 -13 -0.32 -13 -1 C-8.15507803 -2.51403812 -4.7408989 -1.36602172 0 0 Z " fill="#82D540" transform="translate(152,61)"/>
<path d="M0 0 C2.99220268 1.36370299 5.29026529 2.94908083 7.75 5.125 C8.67039063 5.93324219 8.67039063 5.93324219 9.609375 6.7578125 C10.06828125 7.16773438 10.5271875 7.57765625 11 8 C10.01 8.33 9.02 8.66 8 9 C7.67 8.01 7.34 7.02 7 6 C4.71108972 4.62665383 2.54247553 3.84749184 0 3 C0 2.01 0 1.02 0 0 Z " fill="#7DD53E" transform="translate(165,40)"/>
<path d="M0 0 C5.445 1.485 5.445 1.485 11 3 C11 3.33 11 3.66 11 4 C7.7 4.33 4.4 4.66 1 5 C1.33 4.01 1.66 3.02 2 2 C1.34 2 0.68 2 0 2 C0 1.34 0 0.68 0 0 Z " fill="#184330" transform="translate(82,197)"/>
<path d="M0 0 C0.33 0.66 0.66 1.32 1 2 C3.02463255 2.65213292 3.02463255 2.65213292 5 3 C-0.75 7 -0.75 7 -3 7 C-3 5.35 -3 3.7 -3 2 C-2.34 2 -1.68 2 -1 2 C-0.67 1.34 -0.34 0.68 0 0 Z " fill="#344D57" transform="translate(167,190)"/>
<path d="M0 0 C2.97 0.495 2.97 0.495 6 1 C6 1.99 6 2.98 6 4 C5.01 4.66 4.02 5.32 3 6 C3 5.34 3 4.68 3 4 C2.01 4.33 1.02 4.66 0 5 C0 3.35 0 1.7 0 0 Z " fill="#304C5B" transform="translate(171,185)"/>
<path d="M0 0 C2.31 0.66 4.62 1.32 7 2 C6.67 2.99 6.34 3.98 6 5 C4.02 5.33 2.04 5.66 0 6 C0 4.02 0 2.04 0 0 Z " fill="#153143" transform="translate(148,21)"/>
<path d="M0 0 C0.66 0 1.32 0 2 0 C2 0.66 2 1.32 2 2 C2.66 2 3.32 2 4 2 C4.33 3.98 4.66 5.96 5 8 C4.01 8.495 4.01 8.495 3 9 C0 3.375 0 3.375 0 0 Z " fill="#344A59" transform="translate(19,145)"/>
<path d="M0 0 C0.66 0 1.32 0 2 0 C2.33 1.98 2.66 3.96 3 6 C2.34 6 1.68 6 1 6 C0.67 7.98 0.34 9.96 0 12 C-0.33 12 -0.66 12 -1 12 C-1.14285714 3.42857143 -1.14285714 3.42857143 0 0 Z " fill="#133143" transform="translate(205,84)"/>
<path d="M0 0 C1.32 0.33 2.64 0.66 4 1 C4 1.66 4 2.32 4 3 C5.65 2.67 7.3 2.34 9 2 C8.67 3.98 8.34 5.96 8 8 C6.85073734 7.04578192 5.70569459 6.08647955 4.5625 5.125 C3.92441406 4.59132813 3.28632813 4.05765625 2.62890625 3.5078125 C1 2 1 2 0 0 Z " fill="#153F36" transform="translate(175,47)"/>
<path d="M0 0 C0.33 0.66 0.66 1.32 1 2 C1.99 2.33 2.98 2.66 4 3 C1.36 4.98 -1.28 6.96 -4 9 C-4.33 8.34 -4.66 7.68 -5 7 C-4.34 7 -3.68 7 -3 7 C-3 6.34 -3 5.68 -3 5 C-2.34 5 -1.68 5 -1 5 C-0.67 3.35 -0.34 1.7 0 0 Z " fill="#7FD63F" transform="translate(170,176)"/>
<path d="M0 0 C0.66 0 1.32 0 2 0 C2.3125 2.25 2.3125 2.25 2 5 C-0.5 7.3125 -0.5 7.3125 -3 9 C-3.33 7.02 -3.66 5.04 -4 3 C-3.34 3 -2.68 3 -2 3 C-2 3.66 -2 4.32 -2 5 C-1.34 5 -0.68 5 0 5 C0 3.35 0 1.7 0 0 Z " fill="#163E38" transform="translate(157,152)"/>
<path d="M0 0 C0.66 0.66 1.32 1.32 2 2 C1.7578125 3.9453125 1.7578125 3.9453125 1.125 6.125 C0.92132812 6.84945312 0.71765625 7.57390625 0.5078125 8.3203125 C0.34023438 8.87460938 0.17265625 9.42890625 0 10 C-2.5654594 7.4345406 -2.54046087 5.52313332 -3 2 C-2.01 1.34 -1.02 0.68 0 0 Z " fill="#7DD831" transform="translate(29,134)"/>
<path d="M0 0 C1.485 0.99 1.485 0.99 3 2 C5.32387947 2.39387788 7.65793749 2.73486085 10 3 C10 3.66 10 4.32 10 5 C7.36 5 4.72 5 2 5 C1.34 3.35 0.68 1.7 0 0 Z " fill="#77CA44" transform="translate(82,116)"/>
<path d="M0 0 C0.33 0.66 0.66 1.32 1 2 C-0.98 2.66 -2.96 3.32 -5 4 C-5 3.34 -5 2.68 -5 2 C-5.99 2 -6.98 2 -8 2 C-8.33 2.66 -8.66 3.32 -9 4 C-9 3.01 -9 2.02 -9 1 C-6.04335481 -0.4783226 -3.25770263 -0.06032783 0 0 Z " fill="#123B31" transform="translate(92,106)"/>
<path d="M0 0 C2.475 0.99 2.475 0.99 5 2 C4.34 3.98 3.68 5.96 3 8 C2.67 6.68 2.34 5.36 2 4 C1.34 4 0.68 4 0 4 C0 2.68 0 1.36 0 0 Z " fill="#143343" transform="translate(67,68)"/>
<path d="M0 0 C0.66 0.66 1.32 1.32 2 2 C1.60467975 4.45098556 0.78698574 6.63904279 0 9 C-0.99 9 -1.98 9 -3 9 C-2.44271087 5.65626525 -1.64826111 2.96687001 0 0 Z " fill="#3E5565" transform="translate(24,66)"/>
<path d="M0 0 C0.66 0.33 1.32 0.66 2 1 C1.67 2.32 1.34 3.64 1 5 C-1.76264289 5.59732819 -4.16032769 6 -7 6 C-4.69 4.02 -2.38 2.04 0 0 Z " fill="#445D67" transform="translate(53,32)"/>
<path d="M0 0 C0.66 0 1.32 0 2 0 C2.33 0.99 2.66 1.98 3 3 C3.99 3 4.98 3 6 3 C5.67 3.99 5.34 4.98 5 6 C3.35 6 1.7 6 0 6 C0 5.01 0 4.02 0 3 C-0.66 2.67 -1.32 2.34 -2 2 C-1.34 2 -0.68 2 0 2 C0 1.34 0 0.68 0 0 Z " fill="#1B3A4B" transform="translate(159,191)"/>
<path d="M0 0 C0.33 0.66 0.66 1.32 1 2 C1.99 2.33 2.98 2.66 4 3 C3.34 3.66 2.68 4.32 2 5 C1.34 5 0.68 5 0 5 C-0.33 6.98 -0.66 8.96 -1 11 C-1.33 11 -1.66 11 -2 11 C-2.25 3.375 -2.25 3.375 0 0 Z " fill="#81D931" transform="translate(164,123)"/>
<path d="M0 0 C-0.33 1.65 -0.66 3.3 -1 5 C-1.66 4.67 -2.32 4.34 -3 4 C-3 3.34 -3 2.68 -3 2 C-5.31 2.33 -7.62 2.66 -10 3 C-7.29536552 -0.8183075 -4.37912428 -0.24787496 0 0 Z " fill="#133B32" transform="translate(141,106)"/>
<path d="M0 0 C-1.04874998 2.62187494 -1.64931313 3.79371361 -4.125 5.25 C-4.74375 5.4975 -5.3625 5.745 -6 6 C-6.33 4.68 -6.66 3.36 -7 2 C-2.25 0 -2.25 0 0 0 Z " fill="#183C38" transform="translate(58,39)"/>
<path d="M0 0 C3.96 1.98 3.96 1.98 8 4 C8 4.99 8 5.98 8 7 C6.02 6.34 4.04 5.68 2 5 C2 4.01 2 3.02 2 2 C1.34 2 0.68 2 0 2 C0 1.34 0 0.68 0 0 Z " fill="#3D525D" transform="translate(160,25)"/>
<path d="M0 0 C4.75 0.875 4.75 0.875 7 2 C7 2.66 7 3.32 7 4 C4.03 3.67 1.06 3.34 -2 3 C-1.34 2.01 -0.68 1.02 0 0 Z " fill="#354C5B" transform="translate(93,207)"/>
<path d="M0 0 C2.475 0.99 2.475 0.99 5 2 C5 3.32 5 4.64 5 6 C3.68 5.67 2.36 5.34 1 5 C0.67 3.35 0.34 1.7 0 0 Z " fill="#183448" transform="translate(144,199)"/>
<path d="M0 0 C1.5 1.375 1.5 1.375 3 3 C3 3.66 3 4.32 3 5 C1.35 5.33 -0.3 5.66 -2 6 C-2.33 5.01 -2.66 4.02 -3 3 C-2.01 2.67 -1.02 2.34 0 2 C0 1.34 0 0.68 0 0 Z " fill="#214640" transform="translate(35,158)"/>
<path d="M0 0 C1.25541557 3.76624671 0.37061958 5.37188934 -1 9 C-1.99 7.68 -2.98 6.36 -4 5 C-3.34 5 -2.68 5 -2 5 C-2.33 3.68 -2.66 2.36 -3 1 C-2.01 0.67 -1.02 0.34 0 0 Z " fill="#405562" transform="translate(207,140)"/>
<path d="M0 0 C1.9955516 3.99110319 2.19546065 5.69986566 2 10 C1.34 9.34 0.68 8.68 0 8 C-0.66 8.66 -1.32 9.32 -2 10 C-1.34 6.7 -0.68 3.4 0 0 Z " fill="#71C73B" transform="translate(26,86)"/>
<path d="M0 0 C1.32 0.66 2.64 1.32 4 2 C-0.75 6 -0.75 6 -3 6 C-3.33 5.01 -3.66 4.02 -4 3 C-3.01 2.67 -2.02 2.34 -1 2 C-0.67 1.34 -0.34 0.68 0 0 Z " fill="#23404F" transform="translate(155,23)"/>
<path d="M0 0 C0.99 0 1.98 0 3 0 C3.33 0.66 3.66 1.32 4 2 C5.89533342 2.46523063 5.89533342 2.46523063 8.0625 2.625 C9.361875 2.74875 10.66125 2.8725 12 3 C12 3.33 12 3.66 12 4 C10.56260487 4.02712066 9.12506137 4.04645067 7.6875 4.0625 C6.48673828 4.07990234 6.48673828 4.07990234 5.26171875 4.09765625 C3 4 3 4 0 3 C0 2.01 0 1.02 0 0 Z " fill="#1F4A30" transform="translate(140,159)"/>
<path d="M0 0 C0.66 0 1.32 0 2 0 C2 2.64 2 5.28 2 8 C1.34 8 0.68 8 0 8 C-0.38063221 5.6739143 -0.71269945 3.33944736 -1 1 C-0.67 0.67 -0.34 0.34 0 0 Z " fill="#1B4040" transform="translate(196,146)"/>
<path d="M0 0 C0.33 1.32 0.66 2.64 1 4 C0.34 4 -0.32 4 -1 4 C-1 5.98 -1 7.96 -1 10 C-1.33 9.01 -1.66 8.02 -2 7 C-2.99 6.67 -3.98 6.34 -5 6 C-3.35 4.02 -1.7 2.04 0 0 Z " fill="#75CA3C" transform="translate(73,104)"/>
<path d="M0 0 C2.45823172 3.68734758 3.01242616 6.69699971 4 11 C3.34 10.67 2.68 10.34 2 10 C2 9.34 2 8.68 2 8 C1.34 8 0.68 8 0 8 C0 5.36 0 2.72 0 0 Z " fill="#4A5B66" transform="translate(205,76)"/>
<path d="M0 0 C0.33 1.32 0.66 2.64 1 4 C0.360625 4.28875 -0.27875 4.5775 -0.9375 4.875 C-3.15206079 5.82823451 -3.15206079 5.82823451 -4 8 C-4.66 8 -5.32 8 -6 8 C-4.55746343 4.63408134 -2.66735273 2.48952921 0 0 Z " fill="#415461" transform="translate(42,42)"/>
<path d="M0 0 C2.88437779 1.29299694 4.87219421 2.65941363 7 5 C5.02 5 3.04 5 1 5 C0.67 3.35 0.34 1.7 0 0 Z " fill="#39505D" transform="translate(169,31)"/>
<path d="M0 0 C0.66 0.33 1.32 0.66 2 1 C2 1.99 2 2.98 2 4 C0.02 4.33 -1.96 4.66 -4 5 C-4 4.34 -4 3.68 -4 3 C-2 1.375 -2 1.375 0 0 Z " fill="#133342" transform="translate(68,194)"/>
<path d="M0 0 C0.66 0.33 1.32 0.66 2 1 C1.34 2.32 0.68 3.64 0 5 C-1.65 4.01 -3.3 3.02 -5 2 C-4.360625 1.855625 -3.72125 1.71125 -3.0625 1.5625 C-1.02454854 1.18992819 -1.02454854 1.18992819 0 0 Z " fill="#304A57" transform="translate(55,188)"/>
<path d="M0 0 C0.66 0 1.32 0 2 0 C2.66 2.64 3.32 5.28 4 8 C3.01 8.495 3.01 8.495 2 9 C1.34 6.03 0.68 3.06 0 0 Z " fill="#83DC36" transform="translate(193,138)"/>
<path d="M0 0 C0.66 0.66 1.32 1.32 2 2 C1.96712417 4.72869407 1.43602229 7.2966618 1 10 C-0.85064319 6.87703962 -1.29356154 4.62059232 -1 1 C-0.67 0.67 -0.34 0.34 0 0 Z " fill="#375162" transform="translate(209,126)"/>
<path d="M0 0 C0.66 0 1.32 0 2 0 C3.09658936 3.28976808 2.79953138 4.71303767 2 8 C1.34 7.67 0.68 7.34 0 7 C-0.6875 4 -0.6875 4 -1 1 C-0.67 0.67 -0.34 0.34 0 0 Z " fill="#1C3A4E" transform="translate(86,110)"/>
<path d="M0 0 C2.475 0.99 2.475 0.99 5 2 C5 2.66 5 3.32 5 4 C5.66 4.33 6.32 4.66 7 5 C4.69 4.67 2.38 4.34 0 4 C0 2.68 0 1.36 0 0 Z " fill="#184734" transform="translate(56,183)"/>
<path d="M0 0 C2.97 0.495 2.97 0.495 6 1 C3.63707344 3.52588702 2.33537489 4.88820837 -1 6 C-1 5.34 -1 4.68 -1 4 C-0.34 4 0.32 4 1 4 C0.67 2.68 0.34 1.36 0 0 Z " fill="#7DD142" transform="translate(159,184)"/>
<path d="M0 0 C0.33 0 0.66 0 1 0 C1 3.63 1 7.26 1 11 C0.01 11.33 -0.98 11.66 -2 12 C-1.34 8.04 -0.68 4.08 0 0 Z " fill="#72C735" transform="translate(161,144)"/>
<path d="M0 0 C0.66 0.66 1.32 1.32 2 2 C1.34 3.98 0.68 5.96 0 8 C-2 5 -2 5 -2 1 C-1.34 0.67 -0.68 0.34 0 0 Z " fill="#36515C" transform="translate(19,137)"/>
<path d="M0 0 C0.66 0 1.32 0 2 0 C0.60667426 3.36720387 -0.9789286 4.9859524 -4 7 C-4 5.68 -4 4.36 -4 3 C-2.68 2.67 -1.36 2.34 0 2 C0 1.34 0 0.68 0 0 Z " fill="#123A39" transform="translate(49,45)"/>
</svg>
