<?xml version="1.0" encoding="UTF-8"?>
<!DOCTYPE svg PUBLIC "-//W3C//DTD SVG 1.1//EN" "http://www.w3.org/Graphics/SVG/1.1/DTD/svg11.dtd">
<svg xmlns="http://www.w3.org/2000/svg" version="1.1" width="256px" height="256px" style="shape-rendering:geometricPrecision; text-rendering:geometricPrecision; image-rendering:optimizeQuality; fill-rule:evenodd; clip-rule:evenodd" xmlns:xlink="http://www.w3.org/1999/xlink">
<g><path style="opacity:0.977" fill="#0095fe" d="M 133.5,-0.5 C 137.167,-0.5 140.833,-0.5 144.5,-0.5C 206.845,12.013 243.345,49.6796 254,112.5C 254.5,121.494 254.666,130.494 254.5,139.5C 244.077,128.144 233.077,117.477 221.5,107.5C 210.974,68.6403 186.308,43.6403 147.5,32.5C 142.806,27.8063 138.14,23.1396 133.5,18.5C 133.5,12.1667 133.5,5.83333 133.5,-0.5 Z"/></g>
<g><path style="opacity:0.965" fill="#0a90f8" d="M 133.5,18.5 C 138.14,23.1396 142.806,27.8063 147.5,32.5C 143.121,32.0779 138.788,31.4112 134.5,30.5C 133.509,26.5546 133.176,22.5546 133.5,18.5 Z"/></g>
<g><path style="opacity:0.976" fill="#000000" d="M 118.5,43.5 C 164.347,42.6561 194.18,63.9894 208,107.5C 214.515,142.63 204.015,171.463 176.5,194C 142.016,216.388 108.016,215.722 74.5,192C 46.4184,166.748 37.5851,135.915 48,99.5C 60.7629,67.2297 84.2629,48.563 118.5,43.5 Z M 120.5,84.5 C 149.387,84.2218 165.72,98.3885 169.5,127C 165.004,157.743 147.338,171.41 116.5,168C 93.507,159.997 83.007,143.831 85,119.5C 89.4639,100.202 101.297,88.5351 120.5,84.5 Z"/></g>
<g><path style="opacity:0.998" fill="#0991f8" d="M 221.5,107.5 C 233.077,117.477 244.077,128.144 254.5,139.5C 253.962,141.117 253.629,142.784 253.5,144.5C 242.552,134.218 232.218,123.885 222.5,113.5C 221.659,111.621 221.325,109.621 221.5,107.5 Z"/></g>
<g><path style="opacity:0.982" fill="#0f8ef4" d="M 222.5,113.5 C 232.218,123.885 242.552,134.218 253.5,144.5C 253.768,146.099 253.434,147.432 252.5,148.5C 242.373,138.702 232.373,129.035 222.5,119.5C 222.5,117.5 222.5,115.5 222.5,113.5 Z"/></g>
<g><path style="opacity:0.992" fill="#158bf0" d="M 222.5,119.5 C 232.373,129.035 242.373,138.702 252.5,148.5C 252.784,150.415 252.451,152.081 251.5,153.5C 248.305,150.148 244.638,147.315 240.5,145C 238.513,143.681 237.346,141.848 237,139.5C 232.605,134.936 228.105,130.602 223.5,126.5C 223.326,124.139 222.993,121.806 222.5,119.5 Z"/></g>
<g><path style="opacity:0.99" fill="#1c88ec" d="M 223.5,126.5 C 228.105,130.602 232.605,134.936 237,139.5C 237.346,141.848 238.513,143.681 240.5,145C 244.638,147.315 248.305,150.148 251.5,153.5C 251.675,155.621 251.341,157.621 250.5,159.5C 241.473,150.472 232.14,141.806 222.5,133.5C 222.993,131.194 223.326,128.861 223.5,126.5 Z"/></g>
<g><path style="opacity:0.983" fill="#fe1e55" d="M -0.5,133.5 C 1.83333,133.5 4.16667,133.5 6.5,133.5C 9.97086,136.14 12.9709,139.306 15.5,143C 21.9272,148.249 28.2605,154.415 34.5,161.5C 35.4168,162.127 36.4168,162.461 37.5,162.5C 41.5136,172.695 47.1802,181.861 54.5,190C 47,197.5 39.5,205 32,212.5C 14.4326,193.033 3.59926,170.366 -0.5,144.5C -0.5,140.833 -0.5,137.167 -0.5,133.5 Z"/></g>
<g><path style="opacity:0.99" fill="#fb1f58" d="M 6.5,133.5 C 8.16667,133.5 9.83333,133.5 11.5,133.5C 11.3893,134.117 11.056,134.617 10.5,135C 19.0308,142.7 27.3642,150.533 35.5,158.5C 36.3446,159.671 37.0113,161.005 37.5,162.5C 36.4168,162.461 35.4168,162.127 34.5,161.5C 28.2605,154.415 21.9272,148.249 15.5,143C 12.9709,139.306 9.97086,136.14 6.5,133.5 Z"/></g>
<g><path style="opacity:0.97" fill="#f7215b" d="M 11.5,133.5 C 13.1667,133.5 14.8333,133.5 16.5,133.5C 16.369,134.239 16.5357,134.906 17,135.5C 22.0655,141.07 27.5655,146.07 33.5,150.5C 34.475,153.067 35.1417,155.733 35.5,158.5C 27.3642,150.533 19.0308,142.7 10.5,135C 11.056,134.617 11.3893,134.117 11.5,133.5 Z"/></g>
<g><path style="opacity:0.931" fill="#f1245f" d="M 16.5,133.5 C 18.5,133.5 20.5,133.5 22.5,133.5C 22.3893,134.117 22.056,134.617 21.5,135C 23.1558,136.829 25.1558,138.163 27.5,139C 29.0414,140.77 30.3748,141.937 31.5,142.5C 32.531,144.961 33.1977,147.627 33.5,150.5C 27.5655,146.07 22.0655,141.07 17,135.5C 16.5357,134.906 16.369,134.239 16.5,133.5 Z"/></g>
<g><path style="opacity:0.94" fill="#eb2762" d="M 22.5,133.5 C 24.1667,133.5 25.8333,133.5 27.5,133.5C 28.5,135.167 29.8333,136.5 31.5,137.5C 31.5,139.167 31.5,140.833 31.5,142.5C 30.3748,141.937 29.0414,140.77 27.5,139C 25.1558,138.163 23.1558,136.829 21.5,135C 22.056,134.617 22.3893,134.117 22.5,133.5 Z"/></g>
<g><path style="opacity:0.695" fill="#e62966" d="M 27.5,133.5 C 30.142,133.488 31.4754,134.821 31.5,137.5C 29.8333,136.5 28.5,135.167 27.5,133.5 Z"/></g>
<g><path style="opacity:0.981" fill="#2882e3" d="M 222.5,140.5 C 223.397,141.598 224.23,141.598 225,140.5C 225.667,141.833 226.333,143.167 227,144.5C 227.914,143.346 228.747,143.513 229.5,145C 233.966,149.466 238.799,154.299 244,159.5C 244.307,162.876 246.14,164.21 249.5,163.5C 249.204,165.403 248.537,167.07 247.5,168.5C 238.5,160.167 229.833,151.5 221.5,142.5C 221.833,141.833 222.167,141.167 222.5,140.5 Z"/></g>
<g><path style="opacity:0.963" fill="#2e7fdf" d="M 221.5,142.5 C 229.833,151.5 238.5,160.167 247.5,168.5C 247.598,170.553 246.931,172.22 245.5,173.5C 237.473,164.806 229.14,156.473 220.5,148.5C 221.15,146.565 221.483,144.565 221.5,142.5 Z"/></g>
<g><path style="opacity:0.977" fill="#347ddc" d="M 220.5,148.5 C 229.14,156.473 237.473,164.806 245.5,173.5C 245.567,174.959 245.234,176.292 244.5,177.5C 235.887,170.223 227.553,162.557 219.5,154.5C 219.517,152.435 219.85,150.435 220.5,148.5 Z"/></g>
<g><path style="opacity:1" fill="#2384e7" d="M 222.5,133.5 C 232.14,141.806 241.473,150.472 250.5,159.5C 250.167,160.833 249.833,162.167 249.5,163.5C 246.14,164.21 244.307,162.876 244,159.5C 238.799,154.299 233.966,149.466 229.5,145C 228.747,143.513 227.914,143.346 227,144.5C 226.333,143.167 225.667,141.833 225,140.5C 224.23,141.598 223.397,141.598 222.5,140.5C 222.5,138.167 222.5,135.833 222.5,133.5 Z"/></g>
<g><path style="opacity:0.987" fill="#3b79d7" d="M 219.5,154.5 C 227.553,162.557 235.887,170.223 244.5,177.5C 243.833,178.833 243.167,180.167 242.5,181.5C 234.374,173.548 226.04,165.881 217.5,158.5C 217.989,157.005 218.655,155.671 219.5,154.5 Z"/></g>
<g><path style="opacity:0.985" fill="#4674d0" d="M 216.5,162.5 C 224.194,170.526 231.861,178.526 239.5,186.5C 239.672,187.492 239.338,188.158 238.5,188.5C 230.243,181.515 222.576,173.849 215.5,165.5C 215.263,164.209 215.596,163.209 216.5,162.5 Z"/></g>
<g><path style="opacity:0.984" fill="#4c71cc" d="M 215.5,165.5 C 222.576,173.849 230.243,181.515 238.5,188.5C 238.34,190.153 237.674,191.486 236.5,192.5C 235.685,191.571 234.852,190.571 234,189.5C 233.667,189.833 233.333,190.167 233,190.5C 227.312,182.649 220.812,175.649 213.5,169.5C 213.66,167.847 214.326,166.514 215.5,165.5 Z"/></g>
<g><path style="opacity:0.989" fill="#516fc9" d="M 213.5,169.5 C 220.812,175.649 227.312,182.649 233,190.5C 233.333,190.167 233.667,189.833 234,189.5C 234.852,190.571 235.685,191.571 236.5,192.5C 236.068,193.71 235.401,194.71 234.5,195.5C 227.076,187.947 219.41,180.614 211.5,173.5C 211.66,171.847 212.326,170.514 213.5,169.5 Z"/></g>
<g><path style="opacity:0.983" fill="#556dc6" d="M 211.5,173.5 C 219.41,180.614 227.076,187.947 234.5,195.5C 234.167,196.167 233.833,196.833 233.5,197.5C 225.807,190.139 218.14,182.806 210.5,175.5C 210.328,174.508 210.662,173.842 211.5,173.5 Z"/></g>
<g><path style="opacity:0.985" fill="#5a6bc2" d="M 210.5,175.5 C 218.14,182.806 225.807,190.139 233.5,197.5C 232.488,198.872 231.488,200.205 230.5,201.5C 223.472,193.471 215.805,186.138 207.5,179.5C 208.026,177.77 209.026,176.436 210.5,175.5 Z"/></g>
<g><path style="opacity:0.977" fill="#6068be" d="M 207.5,179.5 C 215.805,186.138 223.472,193.471 230.5,201.5C 229.974,203.23 228.974,204.564 227.5,205.5C 220.89,197.221 213.556,189.555 205.5,182.5C 205.932,181.29 206.599,180.29 207.5,179.5 Z"/></g>
<g><path style="opacity:0.844" fill="#4077d4" d="M 217.5,158.5 C 226.04,165.881 234.374,173.548 242.5,181.5C 241.737,183.368 240.737,185.035 239.5,186.5C 231.861,178.526 224.194,170.526 216.5,162.5C 216.833,161.167 217.167,159.833 217.5,158.5 Z"/></g>
<g><path style="opacity:0.98" fill="#6764ba" d="M 205.5,182.5 C 213.556,189.555 220.89,197.221 227.5,205.5C 226.833,206.5 226.167,207.5 225.5,208.5C 217.833,201.167 210.167,193.833 202.5,186.5C 203.512,185.128 204.512,183.795 205.5,182.5 Z"/></g>
<g><path style="opacity:0.964" fill="#6d61b6" d="M 202.5,186.5 C 210.167,193.833 217.833,201.167 225.5,208.5C 224.5,210.167 223.167,211.5 221.5,212.5C 220.611,210.264 219.278,208.264 217.5,206.5C 211.143,201.381 205.476,195.714 200.5,189.5C 200.427,187.973 201.094,186.973 202.5,186.5 Z"/></g>
<g><path style="opacity:0.98" fill="#735fb2" d="M 200.5,189.5 C 205.476,195.714 211.143,201.381 217.5,206.5C 219.278,208.264 220.611,210.264 221.5,212.5C 221.167,213.5 220.5,214.167 219.5,214.5C 212.175,207.209 204.842,199.876 197.5,192.5C 198.167,191.167 199.167,190.167 200.5,189.5 Z"/></g>
<g><path style="opacity:0.985" fill="#7a5cad" d="M 197.5,192.5 C 204.842,199.876 212.175,207.209 219.5,214.5C 218.833,215.833 217.833,216.833 216.5,217.5C 209.554,209.887 202.221,202.554 194.5,195.5C 195.167,194.167 196.167,193.167 197.5,192.5 Z"/></g>
<g><path style="opacity:0.983" fill="#7f59aa" d="M 194.5,195.5 C 202.221,202.554 209.554,209.887 216.5,217.5C 215.833,218.833 214.833,219.833 213.5,220.5C 212.229,218.066 210.229,216.566 207.5,216C 203.007,209.343 197.674,203.51 191.5,198.5C 192.167,197.167 193.167,196.167 194.5,195.5 Z"/></g>
<g><path style="opacity:0.984" fill="#fe1e55" d="M 88.5,215.5 C 99.6871,225.942 110.354,236.276 120.5,246.5C 120.5,249.167 120.5,251.833 120.5,254.5C 90.5135,252.901 64.3468,242.234 42,222.5C 41.3333,221.833 41.3333,221.167 42,220.5C 49.0144,213.319 56.181,206.319 63.5,199.5C 71.3373,205.683 79.6707,211.016 88.5,215.5 Z"/></g>
<g><path style="opacity:0.993" fill="#8556a6" d="M 191.5,198.5 C 197.674,203.51 203.007,209.343 207.5,216C 210.229,216.566 212.229,218.066 213.5,220.5C 212.5,222.167 211.167,223.5 209.5,224.5C 202.862,216.195 195.529,208.528 187.5,201.5C 188.795,200.512 190.128,199.512 191.5,198.5 Z"/></g>
<g><path style="opacity:0.981" fill="#8c53a1" d="M 187.5,201.5 C 195.529,208.528 202.862,216.195 209.5,224.5C 208.71,225.401 207.71,226.068 206.5,226.5C 202.226,222.402 197.726,218.402 193,214.5C 192.563,211.228 190.73,209.561 187.5,209.5C 187.5,208.5 187.5,207.5 187.5,206.5C 185.821,206.715 184.821,206.048 184.5,204.5C 185.167,203.167 186.167,202.167 187.5,201.5 Z"/></g>
<g><path style="opacity:0.994" fill="#92509d" d="M 184.5,204.5 C 184.821,206.048 185.821,206.715 187.5,206.5C 187.5,207.5 187.5,208.5 187.5,209.5C 190.73,209.561 192.563,211.228 193,214.5C 197.726,218.402 202.226,222.402 206.5,226.5C 206.167,227.5 205.5,228.167 204.5,228.5C 196.194,221.529 188.194,214.196 180.5,206.5C 181.605,205.4 182.938,204.733 184.5,204.5 Z"/></g>
<g><path style="opacity:0.974" fill="#994d99" d="M 180.5,206.5 C 188.194,214.196 196.194,221.529 204.5,228.5C 202.795,230.192 200.795,231.525 198.5,232.5C 198.649,231.448 198.483,230.448 198,229.5C 190.663,222.995 183.496,216.328 176.5,209.5C 177.795,208.512 179.128,207.512 180.5,206.5 Z"/></g>
<g><path style="opacity:0.991" fill="#9e4b96" d="M 175.5,210.5 C 175.5,209.833 175.833,209.5 176.5,209.5C 183.496,216.328 190.663,222.995 198,229.5C 198.483,230.448 198.649,231.448 198.5,232.5C 198.158,233.338 197.492,233.672 196.5,233.5C 195.952,231.606 194.952,229.94 193.5,228.5C 187.452,222.452 181.452,216.452 175.5,210.5 Z"/></g>
<g><path style="opacity:0.987" fill="#a54791" d="M 173.5,211.5 C 180.861,219.193 188.194,226.86 195.5,234.5C 194.205,235.488 192.872,236.488 191.5,237.5C 190.928,235.745 190.094,234.078 189,232.5C 182.776,227.029 176.776,221.363 171,215.5C 170.517,214.552 170.351,213.552 170.5,212.5C 171.391,211.89 172.391,211.557 173.5,211.5 Z"/></g>
<g><path style="opacity:1" fill="#a04994" d="M 175.5,210.5 C 181.452,216.452 187.452,222.452 193.5,228.5C 194.952,229.94 195.952,231.606 196.5,233.5C 196.5,234.167 196.167,234.5 195.5,234.5C 188.194,226.86 180.861,219.193 173.5,211.5C 173.842,210.662 174.508,210.328 175.5,210.5 Z"/></g>
<g><path style="opacity:0.988" fill="#aa458d" d="M 170.5,212.5 C 170.351,213.552 170.517,214.552 171,215.5C 176.776,221.363 182.776,227.029 189,232.5C 190.094,234.078 190.928,235.745 191.5,237.5C 190.833,237.833 190.167,238.167 189.5,238.5C 187.352,234.519 184.352,231.352 180.5,229C 180.833,228.667 181.167,228.333 181.5,228C 175.705,223.671 170.705,219.171 166.5,214.5C 167.833,213.833 169.167,213.167 170.5,212.5 Z"/></g>
<g><path style="opacity:0.978" fill="#b34187" d="M 163.5,215.5 C 165.899,218.902 168.899,221.569 172.5,223.5C 174.856,227.715 178.523,231.548 183.5,235C 183.167,235.333 182.833,235.667 182.5,236C 184.033,237.14 185.7,238.307 187.5,239.5C 186.167,240.167 184.833,240.833 183.5,241.5C 175.951,233.436 168.618,225.102 161.5,216.5C 162.167,216.167 162.833,215.833 163.5,215.5 Z"/></g>
<g><path style="opacity:0.99" fill="#b83f84" d="M 161.5,216.5 C 168.618,225.102 175.951,233.436 183.5,241.5C 182.167,242.167 180.833,242.833 179.5,243.5C 172.195,234.861 164.529,226.527 156.5,218.5C 158.167,217.833 159.833,217.167 161.5,216.5 Z"/></g>
<g><path style="opacity:0.964" fill="#f6215b" d="M 95.5,217.5 C 97.9872,218.323 100.321,219.323 102.5,220.5C 108.372,226.474 114.372,232.474 120.5,238.5C 120.5,239.833 120.5,241.167 120.5,242.5C 111.07,235.281 102.737,226.947 95.5,217.5 Z"/></g>
<g><path style="opacity:0.976" fill="#be3c80" d="M 156.5,218.5 C 164.529,226.527 172.195,234.861 179.5,243.5C 177.95,244.441 176.284,245.107 174.5,245.5C 174.649,244.448 174.483,243.448 174,242.5C 166.178,235.869 159.011,228.702 152.5,221C 151.906,220.536 151.239,220.369 150.5,220.5C 152.302,219.542 154.302,218.875 156.5,218.5 Z"/></g>
<g><path style="opacity:0.965" fill="#f1245e" d="M 102.5,220.5 C 105.206,220.575 107.873,220.908 110.5,221.5C 110.351,222.552 110.517,223.552 111,224.5C 114.435,228.089 117.601,231.756 120.5,235.5C 120.5,236.5 120.5,237.5 120.5,238.5C 114.372,232.474 108.372,226.474 102.5,220.5 Z"/></g>
<g><path style="opacity:0.991" fill="#c3397d" d="M 148.5,220.5 C 149.167,220.5 149.833,220.5 150.5,220.5C 151.239,220.369 151.906,220.536 152.5,221C 159.011,228.702 166.178,235.869 174,242.5C 174.483,243.448 174.649,244.448 174.5,245.5C 173.833,245.833 173.167,246.167 172.5,246.5C 164.868,237.533 156.868,228.866 148.5,220.5 Z"/></g>
<g><path style="opacity:1" fill="#fb1f58" d="M 88.5,215.5 C 90.8333,216.167 93.1667,216.833 95.5,217.5C 102.737,226.947 111.07,235.281 120.5,242.5C 120.5,243.833 120.5,245.167 120.5,246.5C 110.354,236.276 99.6871,225.942 88.5,215.5 Z"/></g>
<g><path style="opacity:0.842" fill="#ec2661" d="M 110.5,221.5 C 111.833,221.833 113.167,222.167 114.5,222.5C 116.112,224.298 117.612,226.298 119,228.5C 119.383,227.944 119.883,227.611 120.5,227.5C 120.5,230.167 120.5,232.833 120.5,235.5C 117.601,231.756 114.435,228.089 111,224.5C 110.517,223.552 110.351,222.552 110.5,221.5 Z"/></g>
<g><path style="opacity:0.989" fill="#ca3678" d="M 140.5,222.5 C 142.265,221.539 144.265,221.205 146.5,221.5C 154.465,228.964 162.298,236.631 170,244.5C 170.483,245.448 170.649,246.448 170.5,247.5C 169.391,247.557 168.391,247.89 167.5,248.5C 159.134,239.133 150.134,230.466 140.5,222.5 Z"/></g>
<g><path style="opacity:0.494" fill="#e72865" d="M 114.5,222.5 C 116.5,222.5 118.5,222.5 120.5,222.5C 120.5,224.167 120.5,225.833 120.5,227.5C 119.883,227.611 119.383,227.944 119,228.5C 117.612,226.298 116.112,224.298 114.5,222.5 Z"/></g>
<g><path style="opacity:0.965" fill="#d8306f" d="M 136.5,222.5 C 136.5,223.167 136.5,223.833 136.5,224.5C 138.391,227.58 140.558,230.58 143,233.5C 145.988,235.297 148.821,237.963 151.5,241.5C 152.325,242.386 153.325,242.719 154.5,242.5C 157.167,244.5 159.5,246.833 161.5,249.5C 160.791,250.404 159.791,250.737 158.5,250.5C 150.167,242.833 141.833,235.167 133.5,227.5C 133.5,225.833 133.5,224.167 133.5,222.5C 134.5,222.5 135.5,222.5 136.5,222.5 Z"/></g>
<g><path style="opacity:0.985" fill="#d13374" d="M 136.5,222.5 C 137.833,222.5 139.167,222.5 140.5,222.5C 150.134,230.466 159.134,239.133 167.5,248.5C 165.565,249.15 163.565,249.483 161.5,249.5C 159.5,246.833 157.167,244.5 154.5,242.5C 149.118,235.785 143.118,229.785 136.5,224.5C 136.5,223.833 136.5,223.167 136.5,222.5 Z"/></g>
<g><path style="opacity:0.969" fill="#dd2e6c" d="M 133.5,227.5 C 141.833,235.167 150.167,242.833 158.5,250.5C 156.343,251.407 154.01,252.073 151.5,252.5C 151.649,251.448 151.483,250.448 151,249.5C 148.317,246.984 145.817,244.317 143.5,241.5C 142.15,240.05 140.484,239.383 138.5,239.5C 138.031,236.357 136.364,234.023 133.5,232.5C 133.5,230.833 133.5,229.167 133.5,227.5 Z"/></g>
<g><path style="opacity:1" fill="#d53171" d="M 136.5,224.5 C 143.118,229.785 149.118,235.785 154.5,242.5C 153.325,242.719 152.325,242.386 151.5,241.5C 148.821,237.963 145.988,235.297 143,233.5C 140.558,230.58 138.391,227.58 136.5,224.5 Z"/></g>
<g><path style="opacity:0.987" fill="#ae438b" d="M 166.5,214.5 C 170.705,219.171 175.705,223.671 181.5,228C 181.167,228.333 180.833,228.667 180.5,229C 184.352,231.352 187.352,234.519 189.5,238.5C 188.833,238.833 188.167,239.167 187.5,239.5C 185.7,238.307 184.033,237.14 182.5,236C 182.833,235.667 183.167,235.333 183.5,235C 178.523,231.548 174.856,227.715 172.5,223.5C 168.899,221.569 165.899,218.902 163.5,215.5C 164.609,215.443 165.609,215.11 166.5,214.5 Z"/></g>
<g><path style="opacity:1" fill="#c6387b" d="M 146.5,221.5 C 146.842,220.662 147.508,220.328 148.5,220.5C 156.868,228.866 164.868,237.533 172.5,246.5C 171.833,246.833 171.167,247.167 170.5,247.5C 170.649,246.448 170.483,245.448 170,244.5C 162.298,236.631 154.465,228.964 146.5,221.5 Z"/></g>
<g><path style="opacity:0.969" fill="#e32a68" d="M 133.5,232.5 C 136.364,234.023 138.031,236.357 138.5,239.5C 140.484,239.383 142.15,240.05 143.5,241.5C 145.817,244.317 148.317,246.984 151,249.5C 151.483,250.448 151.649,251.448 151.5,252.5C 150.041,252.433 148.708,252.766 147.5,253.5C 142.833,249.167 138.167,244.833 133.5,240.5C 133.5,237.833 133.5,235.167 133.5,232.5 Z"/></g>
<g><path style="opacity:0.946" fill="#e92864" d="M 133.5,240.5 C 138.167,244.833 142.833,249.167 147.5,253.5C 146.167,253.5 144.833,253.5 143.5,253.5C 140.785,249.451 137.452,246.118 133.5,243.5C 133.5,242.5 133.5,241.5 133.5,240.5 Z"/></g>
<g><path style="opacity:0.983" fill="#ec2762" d="M 133.5,243.5 C 137.452,246.118 140.785,249.451 143.5,253.5C 142.833,253.5 142.167,253.5 141.5,253.5C 139.23,251.025 136.563,249.025 133.5,247.5C 133.5,246.167 133.5,244.833 133.5,243.5 Z"/></g>
<g><path style="opacity:0.793" fill="#f1245f" d="M 133.5,247.5 C 136.563,249.025 139.23,251.025 141.5,253.5C 139.052,254.473 136.385,254.806 133.5,254.5C 133.5,252.167 133.5,249.833 133.5,247.5 Z"/></g>
</svg>
