<svg version="1.1" id="Layer_1" xmlns="http://www.w3.org/2000/svg" xmlns:xlink="http://www.w3.org/1999/xlink" x="0px" y="0px"
	 width="100%" viewBox="0 0 200 200" enable-background="new 0 0 200 200" xml:space="preserve">
<path fill="#141414" opacity="1.000000" stroke="none" 
	d="
M112.000000,201.000000 
	C74.689697,201.000000 37.879398,201.000000 1.034549,201.000000 
	C1.034549,134.398071 1.034549,67.796112 1.034549,1.097080 
	C67.560135,1.097080 134.120453,1.097080 200.840393,1.097080 
	C200.840393,67.666359 200.840393,134.333145 200.840393,201.000000 
	C171.463058,201.000000 141.981537,201.000000 112.000000,201.000000 
M26.192825,102.573273 
	C26.788218,103.055290 27.383612,103.537300 28.268206,104.652870 
	C30.172592,106.442017 32.076981,108.231163 34.200966,110.571022 
	C34.792828,111.054520 35.384689,111.538010 36.281605,112.617592 
	C37.848061,114.084961 39.414516,115.552322 41.102295,117.718460 
	C42.395649,118.484879 43.689003,119.251305 45.053638,120.747955 
	C46.791706,122.136787 48.529770,123.525620 50.736866,125.238045 
	C51.522594,126.057327 52.308323,126.876617 53.091846,128.429733 
	C53.739231,129.624939 54.386616,130.820129 55.495270,132.455826 
	C56.345055,133.631393 57.194839,134.806961 57.357430,135.865143 
	C56.004131,136.346756 54.380062,136.541656 53.424358,137.444260 
	C53.014301,137.831512 53.661880,140.353775 54.415665,140.729797 
	C55.671642,141.356323 57.446022,141.285294 58.910820,141.014359 
	C59.699955,140.868393 60.299435,139.697067 61.592133,139.297485 
	C64.339722,141.865616 67.022408,144.507828 69.849556,146.985153 
	C74.509163,151.068192 79.262192,155.044601 84.167793,159.721985 
	C87.571205,165.424896 91.167191,171.206558 97.608742,173.645660 
	C100.215744,174.632782 104.355316,174.438187 106.554405,172.947510 
	C109.649246,170.849640 111.587204,167.045090 114.678215,163.799255 
	C117.142479,161.392288 119.575333,158.952118 122.076881,156.584564 
	C129.772415,149.301178 137.626205,142.179321 145.166046,134.738861 
	C151.771011,128.220947 158.131454,121.445541 164.389374,114.591667 
	C166.221558,112.584999 167.333832,109.921013 168.944366,107.231018 
	C168.944366,107.231018 169.211639,106.978012 169.500641,106.790993 
	C169.684418,106.649940 169.839462,106.482300 170.292877,105.867683 
	C170.700363,105.531830 171.107834,105.195976 172.264282,104.780304 
	C174.629990,103.093979 177.362473,101.744629 179.285461,99.651543 
	C183.355820,95.221130 181.924530,87.706383 176.629379,85.333618 
	C172.287659,83.217072 168.200394,82.847298 164.569290,86.826057 
	C163.582382,87.907463 162.410873,89.225121 161.106415,89.544106 
	C154.327957,91.201706 153.434677,97.277451 150.955627,102.675102 
	C150.793961,102.907043 150.574890,103.052605 149.554245,103.027634 
	C148.290085,103.062027 146.489975,102.566772 145.848160,103.216209 
	C141.471542,107.644844 137.039352,112.104561 134.958664,118.673363 
	C134.794357,118.902122 134.575546,119.050468 133.584961,119.226883 
	C128.554504,122.089127 122.367577,123.847458 121.920616,131.634003 
	C121.743935,131.864456 121.514969,132.015778 120.541199,132.207031 
	C119.008980,133.784012 117.476761,135.360992 115.218681,137.126648 
	C110.464264,137.612717 107.684685,140.411880 105.654640,144.590759 
	C103.422333,149.186005 100.755867,149.570175 96.821564,146.228531 
	C95.451286,145.064667 94.468582,143.448029 93.111603,142.264313 
	C89.477280,139.094009 85.736176,136.046127 81.730064,132.596008 
	C81.515236,132.367508 81.281303,132.160599 80.857628,131.293427 
	C78.145073,125.547539 73.747147,121.558197 67.730743,118.358376 
	C67.044838,117.652054 66.327454,116.973412 65.678062,116.234985 
	C60.820869,110.711823 56.075340,105.085175 51.059288,99.710785 
	C49.823101,98.386276 47.719940,97.870941 45.828629,96.316414 
	C44.221653,94.871826 42.614674,93.427238 40.830456,91.317650 
	C39.308804,89.362648 38.008419,87.169487 36.216873,85.504982 
	C33.032528,82.546440 29.504765,82.950096 25.553082,84.486893 
	C21.420887,86.093880 19.477098,89.583328 19.742474,92.906006 
	C19.968061,95.730499 23.126759,98.320747 25.290228,101.375336 
	C25.502115,101.607880 25.731153,101.822083 26.192825,102.573273 
M105.147453,27.644175 
	C105.434418,28.762197 105.721382,29.880220 105.641937,31.554892 
	C102.871803,33.616245 100.793060,35.996857 101.211166,40.096043 
	C99.407875,43.009113 97.604584,45.922184 95.080765,48.915768 
	C93.580261,49.902058 91.732407,50.608841 90.660950,51.940376 
	C89.067879,53.920155 88.251175,56.517002 86.694771,58.535660 
	C84.105980,61.893314 80.730064,64.713295 78.516464,68.275932 
	C74.480530,74.771477 71.052559,81.644768 67.210922,88.652390 
	C69.249153,88.857132 71.035332,89.036568 73.116234,89.861137 
	C78.661095,91.663986 84.255974,93.330460 89.726311,95.336533 
	C91.928032,96.143929 95.582748,97.664116 95.605759,98.914589 
	C95.697121,103.877296 94.355431,108.845467 94.044281,113.842705 
	C93.764153,118.341713 93.321541,123.148033 94.665306,127.258202 
	C95.134315,128.692749 100.720047,128.454453 104.649719,128.937881 
	C106.062813,128.559952 107.491081,128.230118 108.884590,127.790138 
	C110.194977,127.376404 111.468674,126.846451 112.758514,126.367638 
	C111.816254,125.228867 110.873993,124.090096 110.115417,122.299538 
	C110.456528,119.901070 110.797646,117.502609 111.492424,114.815079 
	C111.718307,114.608307 111.916771,114.377914 112.773880,113.922966 
	C115.507278,111.270897 118.240677,108.618828 121.538338,106.337952 
	C123.972519,108.688240 126.406708,111.038528 128.840897,113.388809 
	C129.123688,113.152191 129.406479,112.915573 129.689285,112.678963 
	C128.458069,110.115784 127.226868,107.552605 126.332275,104.450798 
	C124.077805,99.742683 126.150925,96.048935 129.009735,92.436913 
	C133.058685,87.321159 136.984390,82.107857 141.336029,76.660721 
	C141.572708,76.458847 141.780853,76.230911 142.115387,75.262680 
	C142.946671,72.963211 143.777954,70.663734 144.581177,68.441849 
	C138.958374,64.443604 138.082062,64.193283 128.655167,63.287628 
	C125.628700,61.684628 122.591980,60.640179 120.027191,57.695705 
	C116.056839,53.137581 115.683868,50.538559 121.596466,46.750195 
	C122.726395,45.828529 123.856316,44.906864 124.824738,44.719681 
	C124.479469,45.654743 123.913612,46.572647 123.839249,47.528782 
	C123.719604,49.067020 123.887901,50.634415 124.052895,52.176834 
	C124.068207,52.319942 125.308624,52.532898 125.347290,52.442558 
	C125.955757,51.020817 126.802971,49.582706 126.925079,48.093399 
	C127.304520,43.465630 127.727936,38.795727 127.463249,34.180660 
	C127.335693,31.956430 125.704155,29.818459 124.753647,27.641426 
	C124.299492,27.812937 123.845337,27.984447 123.391190,28.155956 
	C123.260689,29.442629 123.130196,30.729300 122.388000,31.738152 
	C120.595169,30.488369 118.802338,29.238585 116.690468,27.406351 
	C114.318611,23.714415 110.952072,26.224333 107.312958,26.019070 
	C106.839607,26.034525 106.366264,26.049978 105.414963,25.601103 
	C101.386307,23.683828 100.977043,23.930674 101.011917,28.634647 
	C102.435081,28.040289 103.729187,27.499830 105.147453,27.644175 
z"/>
<path fill="#241A08" opacity="1.000000" stroke="none" 
	d="
M111.138763,115.104141 
	C110.797646,117.502609 110.456528,119.901070 109.702034,122.717148 
	C107.515457,125.083221 105.742264,127.031670 103.969063,128.980118 
	C100.720047,128.454453 95.134315,128.692749 94.665306,127.258202 
	C93.321541,123.148033 93.764153,118.341713 94.044281,113.842705 
	C94.355431,108.845467 95.697121,103.877296 95.605759,98.914589 
	C95.582748,97.664116 91.928032,96.143929 89.726311,95.336533 
	C84.255974,93.330460 78.661095,91.663986 73.039444,89.453163 
	C72.962646,89.045189 73.106781,88.876907 73.495499,88.938034 
	C76.224648,89.395088 78.565071,89.791023 81.103653,90.387009 
	C81.854355,90.638702 82.406906,90.690331 83.331551,90.888702 
	C88.493294,92.150261 93.282944,93.265076 98.094521,94.385002 
	C98.094521,96.015854 98.135429,97.166504 98.087975,98.313484 
	C97.744606,106.611801 97.279793,114.907509 97.130836,123.209023 
	C97.106293,124.576492 98.134827,126.584518 99.252808,127.142838 
	C100.063309,127.547592 102.196617,126.366005 103.088478,125.330566 
	C105.125671,122.965424 106.763000,120.255852 108.620689,117.662086 
	C108.678619,117.637985 108.643570,117.517494 108.886009,117.332153 
	C109.494942,116.449951 109.861435,115.753082 110.165428,115.075027 
	C110.102928,115.093842 110.142570,115.218231 110.348351,115.160416 
	C110.554131,115.102600 110.954597,114.953011 110.999908,114.991684 
	C111.045219,115.030357 111.138763,115.104141 111.138763,115.104141 
z"/>
<path fill="#241A08" opacity="1.000000" stroke="none" 
	d="
M140.962769,76.936249 
	C136.984390,82.107857 133.058685,87.321159 129.009735,92.436913 
	C126.150925,96.048935 124.077805,99.742683 125.850876,104.583099 
	C123.904343,105.132515 122.439217,105.549644 120.974075,105.966759 
	C118.240677,108.618828 115.507278,111.270897 112.365791,113.952011 
	C111.957703,113.981049 111.822304,113.843185 111.866318,113.577255 
	C111.958565,112.965111 112.006798,112.618889 112.223938,111.952728 
	C115.118385,107.856071 117.843925,104.079353 120.809998,100.077423 
	C127.110298,91.136665 133.218842,82.454475 139.208817,73.691231 
	C142.119644,69.432716 141.337952,67.656219 136.295502,66.424759 
	C133.117035,65.648521 129.929916,64.907654 127.126099,64.102203 
	C128.013077,64.001808 128.520630,63.950130 129.028183,63.898453 
	C138.082062,64.193283 138.958374,64.443604 144.581177,68.441849 
	C143.777954,70.663734 142.946671,72.963211 141.858658,75.765732 
	C141.370773,76.473930 141.157715,76.696419 140.962769,76.936249 
z"/>
<path fill="#1B2507" opacity="1.000000" stroke="none" 
	d="
M168.776047,107.558304 
	C167.333832,109.921013 166.221558,112.584999 164.389374,114.591667 
	C158.131454,121.445541 151.771011,128.220947 145.166046,134.738861 
	C137.626205,142.179321 129.772415,149.301178 122.076881,156.584564 
	C119.575333,158.952118 117.142479,161.392288 114.231026,163.718002 
	C113.617226,163.420181 113.437271,163.215347 113.307343,162.779572 
	C113.412750,162.375092 113.454788,162.213257 113.761871,161.884766 
	C117.970284,157.688828 121.913651,153.659531 126.095970,149.489899 
	C127.274635,148.370895 128.214355,147.392227 129.443176,146.226562 
	C134.612946,141.090332 139.493622,136.141129 144.616898,131.030319 
	C145.451523,130.123367 146.043549,129.378006 146.874832,128.434418 
	C148.162430,127.236664 149.210770,126.237175 150.484131,125.097130 
	C151.018402,124.539948 151.327682,124.123329 151.922470,123.593918 
	C152.895248,122.738991 153.582504,121.996857 154.507690,121.097610 
	C155.232269,120.365639 155.718918,119.790794 156.498169,119.054092 
	C160.785858,115.114258 164.780960,111.336273 168.776047,107.558304 
z"/>
<path fill="#729527" opacity="1.000000" stroke="none" 
	d="
M168.860199,107.394653 
	C164.780960,111.336273 160.785858,115.114258 156.430664,118.984879 
	C156.070572,119.077515 155.935516,118.939102 156.011536,118.630920 
	C155.730072,116.881462 155.372589,115.440178 155.251862,113.766617 
	C158.323685,111.359337 161.158722,109.184341 164.020599,107.052368 
	C164.047409,107.095390 164.009293,106.993683 164.040527,106.635376 
	C166.855927,102.922852 169.555176,99.492767 172.457550,96.244164 
	C174.079590,94.428642 176.830032,93.004669 173.710312,90.370026 
	C170.830856,87.938271 169.560074,89.957497 168.064972,92.329971 
	C167.356308,93.454506 166.663742,96.893448 164.150208,93.687988 
	C164.740326,92.143867 165.149918,90.885170 165.578827,89.609055 
	C165.598145,89.591644 165.643539,89.616989 165.970596,89.597733 
	C166.743195,88.928337 167.188721,88.278214 167.672638,87.600052 
	C167.711029,87.572006 167.771942,87.645004 168.214325,87.730545 
	C174.613953,86.610245 176.667328,91.054428 179.048859,95.284348 
	C178.802292,96.058174 178.568375,96.552994 178.090393,97.184143 
	C177.571869,97.570358 177.297424,97.820244 177.045837,98.034592 
	C177.068710,97.999046 177.139664,98.044952 176.954468,98.210114 
	C176.518936,98.794395 176.268600,99.213524 175.804047,99.903366 
	C174.231644,101.736099 172.873489,103.298111 171.515320,104.860123 
	C171.107834,105.195976 170.700363,105.531830 169.951355,106.124710 
	C169.382095,106.517014 169.249359,106.715775 169.211639,106.978012 
	C169.211639,106.978012 168.944366,107.231018 168.860199,107.394653 
z"/>
<path fill="#241A08" opacity="1.000000" stroke="none" 
	d="
M72.892082,89.130592 
	C71.035332,89.036568 69.249153,88.857132 67.210922,88.652390 
	C71.052559,81.644768 74.480530,74.771477 78.516464,68.275932 
	C80.730064,64.713295 84.105980,61.893314 86.694771,58.535660 
	C88.251175,56.517002 89.067879,53.920155 90.660950,51.940376 
	C91.732407,50.608841 93.580261,49.902058 95.524216,48.952175 
	C95.967667,48.988583 96.130859,49.145283 96.024582,49.468254 
	C93.538559,53.474628 91.158813,57.158039 88.832794,60.888493 
	C88.886513,60.935539 88.813171,60.812988 88.517105,60.977951 
	C85.762123,65.061317 83.303200,68.979721 80.880554,72.911461 
	C80.916824,72.924797 80.891068,72.851921 80.569656,72.992203 
	C78.194130,76.419518 76.140030,79.706535 73.980156,83.171898 
	C73.874390,83.350235 73.793091,83.756866 73.426239,83.792389 
	C73.075188,85.510902 73.090981,87.193909 73.106781,88.876907 
	C73.106781,88.876907 72.962646,89.045189 72.892082,89.130592 
z"/>
<path fill="#17150A" opacity="1.000000" stroke="none" 
	d="
M128.841675,63.593040 
	C128.520630,63.950130 128.013077,64.001808 126.722389,64.098694 
	C124.031731,63.765663 122.132668,63.336151 120.214966,63.019516 
	C115.761032,62.284130 113.959114,59.384399 114.127945,55.207767 
	C114.279236,51.465271 114.818924,47.738476 115.495880,43.801487 
	C116.530746,40.056316 117.256996,36.514416 118.307617,33.157173 
	C119.424515,37.891422 120.217033,42.441013 121.009560,46.990604 
	C115.683868,50.538559 116.056839,53.137581 120.027191,57.695705 
	C122.591980,60.640179 125.628700,61.684628 128.841675,63.593040 
z"/>
<path fill="#182105" opacity="1.000000" stroke="none" 
	d="
M82.037498,132.949600 
	C85.736176,136.046127 89.477280,139.094009 93.111603,142.264313 
	C94.468582,143.448029 95.451286,145.064667 96.821564,146.228531 
	C100.755867,149.570175 103.422333,149.186005 105.654640,144.590759 
	C107.684685,140.411880 110.464264,137.612717 115.631577,137.084488 
	C116.044464,137.042328 116.144447,137.144821 116.070938,137.462555 
	C114.956261,139.149017 113.915085,140.517746 112.594864,142.036011 
	C111.185822,143.428680 110.055817,144.671814 108.643936,146.088257 
	C106.205956,148.480896 104.049850,150.700241 101.561867,152.868881 
	C94.652878,146.360718 88.075783,139.903244 81.633858,133.322250 
	C81.769035,133.198715 82.037498,132.949600 82.037498,132.949600 
z"/>
<path fill="#1B2807" opacity="1.000000" stroke="none" 
	d="
M83.975845,159.065948 
	C79.262192,155.044601 74.509163,151.068192 69.849556,146.985153 
	C67.022408,144.507828 64.339722,141.865616 61.206612,138.830444 
	C59.895603,137.569794 58.970116,136.776154 58.044624,135.982529 
	C57.194839,134.806961 56.345055,133.631393 55.375610,131.998810 
	C55.487823,131.073364 55.719704,130.604904 56.205437,130.232910 
	C56.948414,130.565521 57.437531,130.801697 58.110477,131.316467 
	C62.858646,136.074036 67.422989,140.552994 72.279694,145.183960 
	C74.276321,146.596222 75.980598,147.856491 77.754501,149.445312 
	C79.038872,151.539963 80.253624,153.306061 81.676857,155.334732 
	C82.695358,156.604202 83.505379,157.611115 84.232475,158.731491 
	C84.149551,158.844955 83.975845,159.065948 83.975845,159.065948 
z"/>
<path fill="#152104" opacity="1.000000" stroke="none" 
	d="
M113.243965,163.022217 
	C113.437271,163.215347 113.617226,163.420181 113.901855,163.803558 
	C111.587204,167.045090 109.649246,170.849640 106.554405,172.947510 
	C104.355316,174.438187 100.215744,174.632782 97.608742,173.645660 
	C91.167191,171.206558 87.571205,165.424896 84.071823,159.393967 
	C83.975845,159.065948 84.149551,158.844955 84.504135,158.887848 
	C85.874718,159.658340 86.890724,160.385956 87.934448,161.091156 
	C87.962173,161.068710 87.916931,161.013580 87.972015,161.289352 
	C88.345886,161.731583 88.664665,161.898026 88.969078,162.036926 
	C88.954704,162.009384 88.916092,162.058075 88.990288,162.386902 
	C89.961761,163.259857 90.859032,163.803986 91.648666,164.361694 
	C91.541031,164.375259 91.566132,164.590775 91.627167,164.898514 
	C98.018066,172.748505 100.958054,173.520645 106.589966,168.954254 
	C106.854469,168.612061 106.951889,168.385895 107.312477,167.989288 
	C109.488045,166.229858 111.366005,164.626038 113.243965,163.022217 
z"/>
<path fill="#121808" opacity="1.000000" stroke="none" 
	d="
M24.987713,101.014633 
	C23.126759,98.320747 19.968061,95.730499 19.742474,92.906006 
	C19.477098,89.583328 21.420887,86.093880 25.553082,84.486893 
	C29.504765,82.950096 33.032528,82.546440 36.216873,85.504982 
	C38.008419,87.169487 39.308804,89.362648 40.847229,91.754868 
	C40.864006,92.192078 40.723373,92.403572 40.420246,92.253677 
	C37.756115,90.358147 35.395107,88.612511 32.821915,86.684692 
	C32.078640,86.347443 31.547554,86.192368 30.614525,86.002106 
	C24.260883,86.622696 21.578897,90.258049 23.217600,95.696976 
	C23.733606,97.409615 24.747931,98.972107 25.397427,100.705963 
	C25.260670,100.808609 24.987715,101.014633 24.987713,101.014633 
z"/>
<path fill="#182105" opacity="1.000000" stroke="none" 
	d="
M151.113007,102.305389 
	C153.434677,97.277451 154.327957,91.201706 161.106415,89.544106 
	C162.410873,89.225121 163.582382,87.907463 164.569290,86.826057 
	C168.200394,82.847298 172.287659,83.217072 176.654602,85.837730 
	C176.679840,86.341843 176.347534,86.695969 175.975723,86.572533 
	C172.993256,86.847733 170.382599,87.246368 167.771942,87.645004 
	C167.771942,87.645004 167.711029,87.572006 167.394302,87.699814 
	C166.599564,88.424080 166.121552,89.020538 165.643539,89.616989 
	C165.643539,89.616989 165.598145,89.591644 165.283661,89.709290 
	C163.858414,91.062698 162.747665,92.298454 161.608276,93.547836 
	C161.579620,93.561447 161.597641,93.622269 161.294525,93.724075 
	C159.581543,95.182358 158.171661,96.538841 156.479034,98.055984 
	C154.501862,99.579559 152.807434,100.942474 151.113007,102.305389 
z"/>
<path fill="#241A08" opacity="1.000000" stroke="none" 
	d="
M117.983238,32.972511 
	C117.256996,36.514416 116.530746,40.056316 115.430916,43.338715 
	C115.084145,39.917461 115.349747,36.732273 115.042625,33.603302 
	C114.875145,31.896999 113.736732,30.285995 113.036217,28.632011 
	C111.359329,29.617672 109.287300,30.264954 108.090881,31.662067 
	C105.858727,34.268650 104.135513,37.311066 102.106918,40.083252 
	C102.013329,39.994392 101.827652,39.815102 101.827652,39.815102 
	C100.793060,35.996857 102.871803,33.616245 106.053200,31.022505 
	C106.983475,28.998737 107.502487,27.507357 108.021500,26.015978 
	C110.952072,26.224333 114.318611,23.714415 116.986984,28.037031 
	C117.516747,30.102644 117.749992,31.537579 117.983238,32.972511 
z"/>
<path fill="#191E0B" opacity="1.000000" stroke="none" 
	d="
M46.015335,96.983627 
	C47.719940,97.870941 49.823101,98.386276 51.059288,99.710785 
	C56.075340,105.085175 60.820869,110.711823 65.678062,116.234985 
	C66.327454,116.973412 67.044838,117.652054 67.859612,118.926407 
	C67.982513,119.670494 67.976547,119.846550 67.669044,119.858696 
	C64.608246,117.119133 61.848988,114.543480 58.907085,111.686859 
	C55.849899,108.590370 52.975365,105.774864 49.919586,102.683220 
	C48.391953,100.705482 47.045567,99.003876 45.778252,97.222649 
	C45.857327,97.143021 46.015335,96.983627 46.015335,96.983627 
z"/>
<path fill="#17150A" opacity="1.000000" stroke="none" 
	d="
M122.999702,32.015972 
	C123.130196,30.729300 123.260689,29.442629 123.391190,28.155956 
	C123.845337,27.984447 124.299492,27.812937 124.753647,27.641426 
	C125.704155,29.818459 127.335693,31.956430 127.463249,34.180660 
	C127.727936,38.795727 127.304520,43.465630 126.925079,48.093399 
	C126.802971,49.582706 125.955757,51.020817 125.347290,52.442558 
	C125.308624,52.532898 124.068207,52.319942 124.052895,52.176834 
	C123.887901,50.634415 123.719604,49.067020 123.839249,47.528782 
	C123.913612,46.572647 124.479469,45.654743 124.906815,43.928005 
	C124.325829,39.429546 123.662766,35.722759 122.999702,32.015972 
z"/>
<path fill="#182105" opacity="1.000000" stroke="none" 
	d="
M135.126251,118.307060 
	C137.039352,112.104561 141.471542,107.644844 145.848160,103.216209 
	C146.489975,102.566772 148.290085,103.062027 149.818298,103.395172 
	C148.369125,105.828499 146.655914,107.894279 144.693604,110.085548 
	C144.085526,110.632401 143.726532,111.053764 143.191406,111.587692 
	C142.790955,111.875816 142.610336,112.088486 142.270599,112.476746 
	C141.824249,112.837738 141.625244,113.094711 141.191559,113.553696 
	C139.846985,115.012527 138.781647,116.303833 137.709473,117.579849 
	C137.702637,117.564545 137.679581,117.539696 137.354889,117.618530 
	C136.395554,117.900597 135.760895,118.103828 135.126251,118.307060 
z"/>
<path fill="#1C1213" opacity="1.000000" stroke="none" 
	d="
M122.693848,31.877062 
	C123.662766,35.722759 124.325829,39.429546 124.987572,43.560764 
	C123.856316,44.906864 122.726395,45.828529 121.303009,46.870399 
	C120.217033,42.441013 119.424515,37.891422 118.307617,33.157173 
	C117.749992,31.537579 117.516747,30.102644 117.146500,28.328257 
	C118.802338,29.238585 120.595169,30.488369 122.693848,31.877062 
z"/>
<path fill="#182105" opacity="1.000000" stroke="none" 
	d="
M171.889801,104.820213 
	C172.873489,103.298111 174.231644,101.736099 176.042877,99.795013 
	C176.710510,98.958939 176.925079,98.501945 177.139664,98.044952 
	C177.139664,98.044952 177.068710,97.999046 177.340439,97.987274 
	C177.852936,97.666275 178.093704,97.357040 178.334473,97.047806 
	C178.568375,96.552994 178.802292,96.058174 179.218872,94.995895 
	C178.383530,91.850945 177.365524,89.273453 176.347534,86.695969 
	C176.347534,86.695969 176.679840,86.341843 176.846191,86.164703 
	C181.924530,87.706383 183.355820,95.221130 179.285461,99.651543 
	C177.362473,101.744629 174.629990,103.093979 171.889801,104.820213 
z"/>
<path fill="#182105" opacity="1.000000" stroke="none" 
	d="
M122.101128,131.257278 
	C122.367577,123.847458 128.554504,122.089127 133.857971,119.489479 
	C133.955444,120.383247 133.779877,121.014420 133.616425,121.664436 
	C133.628540,121.683281 133.675522,121.689644 133.359421,121.748604 
	C131.658951,123.171486 130.274582,124.535416 128.621994,126.046783 
	C127.528801,127.085892 126.703819,127.977554 125.592361,129.019699 
	C124.237625,129.865875 123.169373,130.561569 122.101128,131.257278 
z"/>
<path fill="#182105" opacity="1.000000" stroke="none" 
	d="
M67.970589,120.022606 
	C67.976547,119.846550 67.982513,119.670494 67.998795,119.229996 
	C73.747147,121.558197 78.145073,125.547539 80.823601,131.770569 
	C80.789574,132.247696 80.551811,132.520935 80.262604,132.353210 
	C75.924629,128.506378 71.875877,124.827286 67.872559,120.868004 
	C67.935532,120.399414 67.953064,120.211006 67.970589,120.022606 
z"/>
<path fill="#17111D" opacity="1.000000" stroke="none" 
	d="
M57.701027,135.923828 
	C58.970116,136.776154 59.895603,137.569794 60.902786,138.675903 
	C60.299435,139.697067 59.699955,140.868393 58.910820,141.014359 
	C57.446022,141.285294 55.671642,141.356323 54.415665,140.729797 
	C53.661880,140.353775 53.014301,137.831512 53.424358,137.444260 
	C54.380062,136.541656 56.004131,136.346756 57.701027,135.923828 
z"/>
<path fill="#748B38" opacity="1.000000" stroke="none" 
	d="
M144.942703,109.960060 
	C146.655914,107.894279 148.369125,105.828499 150.190369,103.437248 
	C150.574890,103.052605 150.793961,102.907043 151.034317,102.490250 
	C152.807434,100.942474 154.501862,99.579559 156.812347,98.094276 
	C157.650604,97.996307 157.872803,98.020706 158.003784,98.375229 
	C155.266388,101.794174 152.620193,104.882996 149.691177,108.151337 
	C147.997528,108.932365 146.586700,109.533852 145.119141,110.089432 
	C145.062424,110.043510 144.942703,109.960060 144.942703,109.960060 
z"/>
<path fill="#181420" opacity="1.000000" stroke="none" 
	d="
M104.309387,128.959000 
	C105.742264,127.031670 107.515457,125.083221 109.610191,123.043045 
	C110.873993,124.090096 111.816254,125.228867 112.758514,126.367630 
	C111.468674,126.846451 110.194977,127.376404 108.884590,127.790138 
	C107.491081,128.230118 106.062813,128.559952 104.309387,128.959000 
z"/>
<path fill="#12131F" opacity="1.000000" stroke="none" 
	d="
M121.256210,106.152359 
	C122.439217,105.549644 123.904343,105.132515 125.682564,104.852409 
	C127.226868,107.552605 128.458069,110.115784 129.689285,112.678963 
	C129.406479,112.915573 129.123688,113.152191 128.840897,113.388809 
	C126.406708,111.038528 123.972519,108.688240 121.256210,106.152359 
z"/>
<path fill="#718639" opacity="1.000000" stroke="none" 
	d="
M122.010872,131.445648 
	C123.169373,130.561569 124.237625,129.865875 125.656662,129.086517 
	C126.007454,129.002869 126.136444,129.136154 126.069160,129.497635 
	C125.635178,131.538895 125.268486,133.218658 124.589340,135.038177 
	C123.174553,135.442856 122.072212,135.707794 120.653732,135.988525 
	C119.916893,136.042709 119.496216,136.081116 119.027344,136.061340 
	C118.979156,136.003174 118.888504,135.882339 119.056686,135.605255 
	C119.894470,134.248108 120.564087,133.168045 121.233704,132.087982 
	C121.514969,132.015778 121.743935,131.864456 122.010872,131.445648 
z"/>
<path fill="#241A08" opacity="1.000000" stroke="none" 
	d="
M105.023293,26.959373 
	C103.729187,27.499830 102.435081,28.040289 101.011917,28.634647 
	C100.977043,23.930674 101.386307,23.683828 105.524155,25.994600 
	C105.446381,26.596008 105.243027,26.786434 105.023293,26.959373 
z"/>
<path fill="#241A08" opacity="1.000000" stroke="none" 
	d="
M95.884483,48.911919 
	C97.604584,45.922184 99.407875,43.009113 101.519409,39.955574 
	C101.827652,39.815102 102.013329,39.994392 102.028229,40.418186 
	C100.349564,43.550262 98.655998,46.258541 96.981369,48.983185 
	C97.000305,48.999542 96.963821,48.964058 96.755447,49.008774 
	C96.547081,49.053486 96.130859,49.145283 96.130859,49.145283 
	C96.130859,49.145283 95.967667,48.988583 95.884483,48.911919 
z"/>
<path fill="#121808" opacity="1.000000" stroke="none" 
	d="
M33.981365,110.020317 
	C32.076981,108.231163 30.172592,106.442017 28.241295,104.216293 
	C28.214382,103.779716 28.449434,103.539787 28.730034,103.702103 
	C30.826317,105.760849 32.642002,107.657295 34.338524,109.670303 
	C34.219368,109.786865 33.981365,110.020317 33.981365,110.020317 
z"/>
<path fill="#191E0B" opacity="1.000000" stroke="none" 
	d="
M40.935852,92.087364 
	C42.614674,93.427238 44.221653,94.871826 45.921982,96.650024 
	C46.015335,96.983627 45.857327,97.143021 45.515892,97.091293 
	C44.479271,96.662079 43.784088,96.284599 42.951027,95.725769 
	C42.609291,95.315193 42.374050,95.124718 41.968075,94.712402 
	C41.460274,93.769073 41.091824,93.086319 40.723373,92.403572 
	C40.723373,92.403572 40.864006,92.192078 40.935852,92.087364 
z"/>
<path fill="#3E4B26" opacity="1.000000" stroke="none" 
	d="
M53.094055,127.695908 
	C52.308323,126.876617 51.522594,126.057327 50.372665,124.834335 
	C49.763718,123.943626 49.518974,123.456612 49.606133,123.013008 
	C51.588814,124.793625 53.239586,126.530838 54.586365,128.188721 
	C53.886261,127.971573 53.490154,127.833740 53.094055,127.695908 
z"/>
<path fill="#182105" opacity="1.000000" stroke="none" 
	d="
M120.887451,132.147507 
	C120.564087,133.168045 119.894470,134.248108 118.786407,135.747513 
	C117.613457,136.492844 116.878952,136.818832 116.144447,137.144821 
	C116.144447,137.144821 116.044464,137.042328 115.994507,136.990143 
	C117.476761,135.360992 119.008980,133.784012 120.887451,132.147507 
z"/>
<path fill="#121808" opacity="1.000000" stroke="none" 
	d="
M49.274227,122.969604 
	C49.518974,123.456612 49.763718,123.943626 50.138153,124.672546 
	C48.529770,123.525620 46.791706,122.136787 45.063950,120.337357 
	C45.074257,119.926750 45.166168,119.835785 45.431351,120.011017 
	C46.760902,120.890053 47.825275,121.593857 48.968903,122.475304 
	C49.048164,122.652954 49.274227,122.969604 49.274227,122.969604 
z"/>
<path fill="#121808" opacity="1.000000" stroke="none" 
	d="
M40.980972,117.019691 
	C39.414516,115.552322 37.848061,114.084961 36.256989,112.188644 
	C36.232376,111.759689 36.487816,111.497513 36.757896,111.669418 
	C38.537422,113.374832 40.046867,114.908333 41.412445,116.586258 
	C41.268578,116.730690 40.980972,117.019691 40.980972,117.019691 
z"/>
<path fill="#718639" opacity="1.000000" stroke="none" 
	d="
M133.604309,121.645592 
	C133.779877,121.014420 133.955444,120.383247 134.216614,119.435234 
	C134.575546,119.050468 134.794357,118.902122 135.042450,118.490211 
	C135.760895,118.103828 136.395554,117.900597 137.300446,117.981705 
	C136.248550,119.392563 134.926437,120.519081 133.604309,121.645592 
z"/>
<path fill="#1C1213" opacity="1.000000" stroke="none" 
	d="
M105.085373,27.301773 
	C105.243027,26.786434 105.446381,26.596008 105.763138,26.226765 
	C106.366264,26.049978 106.839607,26.034525 107.667229,26.017525 
	C107.502487,27.507357 106.983475,28.998737 106.236404,30.744181 
	C105.721382,29.880220 105.434418,28.762197 105.085373,27.301773 
z"/>
<path fill="#121808" opacity="1.000000" stroke="none" 
	d="
M53.092949,128.062820 
	C53.490154,127.833740 53.886261,127.971573 54.717300,128.419830 
	C55.418686,129.199005 55.685135,129.667725 55.951580,130.136459 
	C55.719704,130.604904 55.487823,131.073364 55.144974,131.778564 
	C54.386616,130.820129 53.739231,129.624939 53.092949,128.062820 
z"/>
<path fill="#121808" opacity="1.000000" stroke="none" 
	d="
M45.028305,119.972237 
	C43.689003,119.251305 42.395649,118.484879 41.041634,117.369080 
	C40.980972,117.019691 41.268578,116.730690 41.653809,116.773300 
	C43.081421,117.822525 44.123795,118.829155 45.166168,119.835785 
	C45.166168,119.835785 45.074257,119.926750 45.028305,119.972237 
z"/>
<path fill="#121808" opacity="1.000000" stroke="none" 
	d="
M28.096693,103.899521 
	C27.383612,103.537300 26.788218,103.055290 26.191193,102.166077 
	C26.189560,101.758873 26.400713,101.498932 26.642365,101.664642 
	C27.405823,102.400169 27.927628,102.969978 28.449432,103.539787 
	C28.449434,103.539787 28.214382,103.779716 28.096693,103.899521 
z"/>
<path fill="#121808" opacity="1.000000" stroke="none" 
	d="
M36.104462,111.890594 
	C35.384689,111.538010 34.792828,111.054520 34.091164,110.295670 
	C33.981365,110.020317 34.219368,109.786865 34.568306,109.833481 
	C35.440765,110.419235 35.964291,110.958374 36.487816,111.497513 
	C36.487816,111.497513 36.232376,111.759689 36.104462,111.890594 
z"/>
<path fill="#182105" opacity="1.000000" stroke="none" 
	d="
M80.908920,132.111496 
	C81.281303,132.160599 81.515236,132.367508 81.883781,132.772797 
	C82.037498,132.949600 81.769035,133.198715 81.449768,133.196930 
	C80.896881,133.005356 80.703987,132.780609 80.551811,132.520935 
	C80.551811,132.520935 80.789574,132.247696 80.908920,132.111496 
z"/>
<path fill="#241A08" opacity="1.000000" stroke="none" 
	d="
M112.022766,114.052475 
	C111.916771,114.377914 111.718307,114.608307 111.315598,114.959610 
	C111.138763,115.104141 111.045219,115.030357 111.055321,114.747192 
	C111.317719,114.257088 111.570015,114.050140 111.822304,113.843185 
	C111.822304,113.843185 111.957703,113.981049 112.022766,114.052475 
z"/>
<path fill="#1B2507" opacity="1.000000" stroke="none" 
	d="
M169.356140,106.884506 
	C169.249359,106.715775 169.382095,106.517014 169.787811,106.334900 
	C169.839462,106.482300 169.684418,106.649940 169.356140,106.884506 
z"/>
<path fill="#121808" opacity="1.000000" stroke="none" 
	d="
M26.083450,101.888412 
	C25.731153,101.822083 25.502115,101.607880 25.138971,101.194984 
	C24.987715,101.014633 25.260670,100.808609 25.527170,100.868378 
	C25.984299,101.130867 26.186646,101.321129 26.400713,101.498932 
	C26.400713,101.498932 26.189560,101.758873 26.083450,101.888412 
z"/>
<path fill="#17150A" opacity="1.000000" stroke="none" 
	d="
M141.149399,76.798485 
	C141.157715,76.696419 141.370773,76.473930 141.781189,76.122849 
	C141.780853,76.230911 141.572708,76.458847 141.149399,76.798485 
z"/>
<path fill="#F8C630" opacity="1.000000" stroke="none" 
	d="
M73.793091,83.756866 
	C73.793091,83.756866 73.874390,83.350235 74.286209,83.047791 
	C78.247902,80.377449 81.143593,77.600037 80.891068,72.851921 
	C80.891068,72.851921 80.916824,72.924797 81.250137,72.889435 
	C87.497299,70.944221 87.750786,65.635765 88.813171,60.812988 
	C88.813171,60.812988 88.886513,60.935539 89.181595,60.852638 
	C93.500076,57.803371 96.667519,54.294151 96.963821,48.964058 
	C96.963821,48.964058 97.000305,48.999542 97.343185,48.967293 
	C98.869026,47.915302 100.316528,47.080456 101.183601,45.839924 
	C103.461891,42.580330 105.310051,39.010662 107.695091,35.839439 
	C108.750092,34.436687 110.688683,33.698486 112.226151,32.658600 
	C112.818481,34.247669 113.940704,35.846615 113.911316,37.424107 
	C113.784805,44.214828 113.360657,51.001617 112.964676,57.785152 
	C112.699928,62.320457 114.928886,64.303246 119.259399,65.070374 
	C124.445068,65.988991 129.547684,67.408897 134.650711,68.747314 
	C137.044937,69.375275 138.787338,70.767685 136.903610,73.405945 
	C132.978592,78.903145 128.641785,84.121376 124.957634,89.769577 
	C122.904404,92.917412 119.018776,95.562981 120.569458,100.302643 
	C117.843925,104.079353 115.118385,107.856071 111.909225,112.025681 
	C110.997917,113.351799 110.570244,114.285019 110.142570,115.218231 
	C110.142570,115.218231 110.102928,115.093842 109.877792,115.215530 
	C109.316292,116.063988 108.979935,116.790741 108.643570,117.517494 
	C108.643570,117.517494 108.678619,117.637985 108.269897,117.617722 
	C105.543983,119.509178 103.226791,121.420898 100.049446,124.042267 
	C100.049446,114.258568 100.180870,106.068451 99.958893,97.887917 
	C99.901962,95.789688 99.027992,92.100174 98.019211,91.914574 
	C93.094101,91.008423 87.996223,91.041260 82.959457,90.741966 
	C82.406906,90.690331 81.854355,90.638702 80.922241,90.076958 
	C78.531090,87.353378 73.600632,88.530830 73.793091,83.756866 
M82.315498,83.296127 
	C82.013771,84.270241 81.712044,85.244347 81.410316,86.218460 
	C83.432701,86.067413 85.455093,85.916367 87.477478,85.765327 
	C87.455246,85.073853 87.433014,84.382385 87.410782,83.690918 
	C85.948792,83.506355 84.486794,83.321793 82.315498,83.296127 
z"/>
<path fill="#DCB852" opacity="1.000000" stroke="none" 
	d="
M83.331551,90.888702 
	C87.996223,91.041260 93.094101,91.008423 98.019211,91.914574 
	C99.027992,92.100174 99.901962,95.789688 99.958893,97.887917 
	C100.180870,106.068451 100.049446,114.258568 100.049446,124.042267 
	C103.226791,121.420898 105.543983,119.509178 108.211967,117.641815 
	C106.763000,120.255852 105.125671,122.965424 103.088478,125.330566 
	C102.196617,126.366005 100.063309,127.547592 99.252808,127.142838 
	C98.134827,126.584518 97.106293,124.576492 97.130836,123.209023 
	C97.279793,114.907509 97.744606,106.611801 98.087975,98.313484 
	C98.135429,97.166504 98.094521,96.015854 98.094521,94.385002 
	C93.282944,93.265076 88.493294,92.150261 83.331551,90.888702 
z"/>
<path fill="#DCB852" opacity="1.000000" stroke="none" 
	d="
M73.426239,83.792389 
	C73.600632,88.530830 78.531090,87.353378 80.724091,89.876907 
	C78.565071,89.791023 76.224648,89.395088 73.495499,88.938034 
	C73.090981,87.193909 73.075188,85.510902 73.426239,83.792389 
z"/>
<path fill="#DCB852" opacity="1.000000" stroke="none" 
	d="
M110.348351,115.160416 
	C110.570244,114.285019 110.997917,113.351799 111.740311,112.345627 
	C112.006798,112.618889 111.958565,112.965111 111.866318,113.577255 
	C111.570015,114.050140 111.317719,114.257088 111.010010,114.708527 
	C110.954597,114.953011 110.554131,115.102600 110.348351,115.160416 
z"/>
<path fill="#DCB852" opacity="1.000000" stroke="none" 
	d="
M108.886017,117.332153 
	C108.979935,116.790741 109.316292,116.063988 109.940292,115.196724 
	C109.861435,115.753082 109.494942,116.449951 108.886017,117.332153 
z"/>
<path fill="#DCB948" opacity="1.000000" stroke="none" 
	d="
M120.810005,100.077423 
	C119.018776,95.562981 122.904404,92.917412 124.957634,89.769577 
	C128.641785,84.121376 132.978592,78.903145 136.903610,73.405945 
	C138.787338,70.767685 137.044937,69.375275 134.650711,68.747314 
	C129.547684,67.408897 124.445068,65.988991 119.259399,65.070374 
	C114.928886,64.303246 112.699928,62.320457 112.964676,57.785152 
	C113.360657,51.001617 113.784805,44.214828 113.911316,37.424107 
	C113.940704,35.846615 112.818481,34.247669 112.226151,32.658600 
	C110.688683,33.698486 108.750092,34.436687 107.695091,35.839439 
	C105.310051,39.010662 103.461891,42.580330 101.183601,45.839924 
	C100.316528,47.080456 98.869026,47.915302 97.324249,48.950935 
	C98.655998,46.258541 100.349564,43.550262 102.121819,40.507042 
	C104.135513,37.311066 105.858727,34.268650 108.090881,31.662067 
	C109.287300,30.264954 111.359329,29.617672 113.036217,28.632011 
	C113.736732,30.285995 114.875145,31.896999 115.042625,33.603302 
	C115.349747,36.732273 115.084145,39.917461 115.122292,43.541981 
	C114.818924,47.738476 114.279236,51.465271 114.127945,55.207767 
	C113.959114,59.384399 115.761032,62.284130 120.214966,63.019516 
	C122.132668,63.336151 124.031731,63.765663 126.342972,64.147408 
	C129.929916,64.907654 133.117035,65.648521 136.295502,66.424759 
	C141.337952,67.656219 142.119644,69.432716 139.208817,73.691231 
	C133.218842,82.454475 127.110298,91.136665 120.810005,100.077423 
z"/>
<path fill="#709427" opacity="1.000000" stroke="none" 
	d="
M125.857018,149.630219 
	C121.913651,153.659531 117.970284,157.688828 113.388306,161.989594 
	C111.508736,162.516022 110.267776,162.770981 109.017471,162.768188 
	C109.003616,162.338745 108.999115,162.167053 109.028328,161.627808 
	C109.968330,159.585632 110.622536,157.694183 111.835770,156.283539 
	C114.050713,153.708206 116.596687,151.417572 119.429550,149.006775 
	C121.547768,148.985397 123.241013,148.965454 125.158707,149.125107 
	C125.541100,149.413223 125.699059,149.521729 125.857018,149.630219 
z"/>
<path fill="#709526" opacity="1.000000" stroke="none" 
	d="
M144.374298,131.191925 
	C139.493622,136.141129 134.612946,141.090332 129.399841,145.875275 
	C129.040802,145.476852 129.014191,145.242691 128.994049,144.604904 
	C130.055328,136.332062 135.604401,132.309677 142.188843,129.277313 
	C143.042542,130.091888 143.708405,130.641907 144.374298,131.191925 
z"/>
<path fill="#709427" opacity="1.000000" stroke="none" 
	d="
M128.987579,145.008545 
	C129.014191,145.242691 129.040802,145.476852 129.110748,146.062286 
	C128.214355,147.392227 127.274635,148.370895 126.095970,149.489899 
	C125.699059,149.521729 125.541100,149.413223 125.067749,148.826172 
	C124.169640,147.231339 123.586929,146.115067 123.431801,144.998047 
	C125.568787,145.001068 127.278183,145.004807 128.987579,145.008545 
z"/>
<path fill="#718D37" opacity="1.000000" stroke="none" 
	d="
M109.026817,163.025955 
	C110.267776,162.770981 111.508736,162.516022 113.123260,162.156219 
	C113.454788,162.213257 113.412750,162.375092 113.307343,162.779572 
	C111.366005,164.626038 109.488045,166.229858 107.138397,167.755264 
	C106.466476,167.134201 106.266235,166.591553 106.329720,165.968597 
	C107.055344,165.593170 107.517242,165.298065 108.160034,164.784943 
	C108.569557,164.053284 108.798187,163.539612 109.026817,163.025955 
z"/>
<path fill="#729527" opacity="1.000000" stroke="none" 
	d="
M150.259109,125.237686 
	C149.210770,126.237175 148.162430,127.236664 146.717529,128.271576 
	C146.320969,128.306992 145.996429,127.996391 145.846893,127.816956 
	C145.486877,127.406815 145.257263,127.197098 145.005066,127.005051 
	C145.001648,127.001717 145.001007,127.000847 145.011444,126.646622 
	C145.680634,125.196007 146.339386,124.099609 147.126007,123.294800 
	C148.151184,124.036430 149.048508,124.486473 150.024109,125.011848 
	C150.102386,125.087181 150.259109,125.237694 150.259109,125.237686 
z"/>
<path fill="#729527" opacity="1.000000" stroke="none" 
	d="
M144.616882,131.030304 
	C143.708405,130.641907 143.042542,130.091888 142.370270,129.023132 
	C143.242920,128.003189 144.121964,127.502022 145.001007,127.000847 
	C145.001007,127.000847 145.001648,127.001717 145.154388,127.184410 
	C145.517960,127.597610 145.747726,127.807373 145.996429,127.996391 
	C145.996429,127.996391 146.320969,128.306992 146.478271,128.469818 
	C146.043549,129.378006 145.451523,130.123367 144.616882,131.030304 
z"/>
<path fill="#729527" opacity="1.000000" stroke="none" 
	d="
M154.269745,121.254730 
	C153.582504,121.996857 152.895248,122.738991 151.766388,123.410049 
	C151.324799,123.338966 150.989197,122.992477 151.119812,122.700241 
	C152.146179,121.914703 153.041901,121.421394 154.020630,121.009766 
	C154.103638,121.091446 154.269745,121.254723 154.269745,121.254730 
z"/>
<path fill="#729527" opacity="1.000000" stroke="none" 
	d="
M156.138062,119.146729 
	C155.718918,119.790794 155.232269,120.365639 154.507690,121.097610 
	C154.269745,121.254723 154.103638,121.091446 154.140320,120.742241 
	C154.763168,119.908394 155.349335,119.423752 155.935516,118.939102 
	C155.935516,118.939102 156.070572,119.077515 156.138062,119.146729 
z"/>
<path fill="#729527" opacity="1.000000" stroke="none" 
	d="
M151.480865,123.522835 
	C151.327682,124.123329 151.018402,124.539948 150.484131,125.097137 
	C150.259109,125.237694 150.102386,125.087181 150.109634,124.747177 
	C150.407654,123.935608 150.698425,123.464043 150.989197,122.992477 
	C150.989197,122.992477 151.324799,123.338966 151.480865,123.522835 
z"/>
<path fill="#719B18" opacity="1.000000" stroke="none" 
	d="
M145.011444,126.646622 
	C144.121964,127.502022 143.242920,128.003189 142.182434,128.758560 
	C135.604401,132.309677 130.055328,136.332062 128.994049,144.604904 
	C127.278183,145.004807 125.568787,145.001068 123.324333,144.701447 
	C121.850571,143.263336 120.911865,142.121078 120.114990,140.641006 
	C120.494514,138.859695 120.732201,137.416229 120.969879,135.972748 
	C122.072212,135.707794 123.174553,135.442856 124.878250,135.161484 
	C128.321442,133.181137 131.233444,131.304062 133.913239,129.139511 
	C134.235458,128.879242 133.299011,127.060677 133.020111,125.611198 
	C133.288025,124.068558 133.481766,122.879105 133.675522,121.689644 
	C133.675522,121.689644 133.628540,121.683281 133.616425,121.664436 
	C134.926437,120.519081 136.248550,119.392563 137.625122,117.902878 
	C137.679581,117.539696 137.702637,117.564545 138.027954,117.715431 
	C138.573288,117.929726 138.793289,117.993126 139.328690,118.236389 
	C146.449127,119.488266 151.686737,114.192574 149.973984,107.971809 
	C152.620193,104.882996 155.266388,101.794174 158.325256,98.274597 
	C159.691177,96.436653 160.644409,95.029457 161.597626,93.622269 
	C161.597641,93.622269 161.579620,93.561447 161.991791,93.663956 
	C162.925858,93.835449 163.447769,93.904434 163.969666,93.973419 
	C166.663742,96.893448 167.356308,93.454506 168.064972,92.329971 
	C169.560074,89.957497 170.830856,87.938271 173.710312,90.370026 
	C176.830032,93.004669 174.079590,94.428642 172.457550,96.244164 
	C169.555176,99.492767 166.855927,102.922852 164.035919,106.638565 
	C164.000046,107.000069 163.993759,107.009338 163.993774,107.009338 
	C161.158722,109.184341 158.323685,111.359337 155.003433,113.992516 
	C152.011520,117.301544 149.504837,120.152374 146.998138,123.003204 
	C146.339386,124.099609 145.680634,125.196007 145.011444,126.646622 
z"/>
<path fill="#719922" opacity="1.000000" stroke="none" 
	d="
M147.126007,123.294800 
	C149.504837,120.152374 152.011520,117.301544 154.766663,114.224808 
	C155.372589,115.440178 155.730072,116.881462 156.011536,118.630920 
	C155.349335,119.423752 154.763168,119.908394 154.057312,120.660553 
	C153.041901,121.421394 152.146179,121.914703 151.119812,122.700241 
	C150.698425,123.464043 150.407654,123.935608 150.031342,124.671844 
	C149.048508,124.486473 148.151184,124.036430 147.126007,123.294800 
z"/>
<path fill="#6E8639" opacity="1.000000" stroke="none" 
	d="
M175.975723,86.572533 
	C177.365524,89.273453 178.383530,91.850945 179.231506,94.716888 
	C176.667328,91.054428 174.613953,86.610245 168.214325,87.730545 
	C170.382599,87.246368 172.993256,86.847733 175.975723,86.572533 
z"/>
<path fill="#6E8639" opacity="1.000000" stroke="none" 
	d="
M164.150208,93.687996 
	C163.447769,93.904434 162.925858,93.835449 162.020447,93.650345 
	C162.747665,92.298454 163.858414,91.062698 165.264343,89.726700 
	C165.149918,90.885170 164.740326,92.143867 164.150208,93.687996 
z"/>
<path fill="#6E8639" opacity="1.000000" stroke="none" 
	d="
M165.970596,89.597733 
	C166.121552,89.020538 166.599564,88.424080 167.355927,87.727859 
	C167.188721,88.278214 166.743195,88.928337 165.970596,89.597733 
z"/>
<path fill="#6E8639" opacity="1.000000" stroke="none" 
	d="
M176.954468,98.210114 
	C176.925079,98.501945 176.710510,98.958939 176.257111,99.524292 
	C176.268600,99.213524 176.518936,98.794395 176.954468,98.210114 
z"/>
<path fill="#719B18" opacity="1.000000" stroke="none" 
	d="
M164.004669,106.996872 
	C164.009293,106.993683 164.047409,107.095390 164.020584,107.052368 
	C163.993759,107.009338 164.000046,107.000069 164.004669,106.996872 
z"/>
<path fill="#6E8639" opacity="1.000000" stroke="none" 
	d="
M178.090393,97.184143 
	C178.093704,97.357040 177.852936,97.666275 177.317566,98.022812 
	C177.297424,97.820244 177.571869,97.570358 178.090393,97.184143 
z"/>
<path fill="#DCB948" opacity="1.000000" stroke="none" 
	d="
M88.517105,60.977951 
	C87.750786,65.635765 87.497299,70.944221 81.213867,72.876099 
	C83.303200,68.979721 85.762123,65.061317 88.517105,60.977951 
z"/>
<path fill="#DCB948" opacity="1.000000" stroke="none" 
	d="
M96.755447,49.008774 
	C96.667519,54.294151 93.500076,57.803371 89.127869,60.805592 
	C91.158813,57.158039 93.538559,53.474628 96.024582,49.468254 
	C96.130859,49.145283 96.547081,49.053486 96.755447,49.008774 
z"/>
<path fill="#DCB948" opacity="1.000000" stroke="none" 
	d="
M80.569656,72.992203 
	C81.143593,77.600037 78.247902,80.377449 74.391968,82.869461 
	C76.140030,79.706535 78.194130,76.419518 80.569656,72.992203 
z"/>
<path fill="#739529" opacity="1.000000" stroke="none" 
	d="
M80.262604,132.353210 
	C80.703987,132.780609 80.896881,133.005356 81.314590,133.320465 
	C88.075783,139.903244 94.652878,146.360718 101.951988,152.892975 
	C103.457069,152.988892 104.240150,153.010010 104.943718,153.368332 
	C104.080925,155.278259 103.297638,156.850998 102.867905,157.713852 
	C99.635338,157.713852 97.241501,157.658295 94.851395,157.728836 
	C92.237976,157.805939 91.342621,156.923996 91.865654,154.125229 
	C92.222298,152.216782 92.294746,149.519348 91.225143,148.216949 
	C87.894295,144.161118 84.759933,139.123306 77.616211,141.437668 
	C77.361435,139.209869 77.462242,137.350128 76.878693,135.738083 
	C76.260666,134.030807 74.991898,132.559082 73.890991,130.673691 
	C72.147888,128.495148 70.645210,126.497681 68.862625,124.792885 
	C66.692352,122.717316 64.537674,123.022705 62.326397,125.121559 
	C59.990635,127.338577 60.126968,129.581329 62.069298,131.638947 
	C64.539764,134.256042 67.336456,136.565170 70.084213,139.348419 
	C70.779724,141.470490 71.383522,143.251221 71.987328,145.031967 
	C67.422989,140.552994 62.858646,136.074036 58.139542,130.911804 
	C58.506428,123.201057 60.614819,121.255898 67.827126,121.148178 
	C71.875877,124.827286 75.924629,128.506378 80.262604,132.353210 
z"/>
<path fill="#718A3B" opacity="1.000000" stroke="none" 
	d="
M105.023224,153.031128 
	C104.240150,153.010010 103.457069,152.988892 102.283875,152.943680 
	C104.049850,150.700241 106.205956,148.480896 108.685341,146.132767 
	C109.008621,146.003983 109.091919,146.092545 109.040848,146.445190 
	C108.646957,148.181717 108.304123,149.565582 107.780655,151.201599 
	C106.741081,151.979538 105.882149,152.505325 105.023224,153.031128 
z"/>
<path fill="#718A3B" opacity="1.000000" stroke="none" 
	d="
M116.070938,137.462555 
	C116.878952,136.818832 117.613457,136.492844 118.618225,136.024597 
	C118.888504,135.882339 118.979156,136.003174 118.936844,136.381866 
	C117.923447,138.503815 116.952362,140.247055 115.624146,141.999268 
	C114.556755,142.050232 113.846489,142.092224 113.070694,142.072235 
	C113.005150,142.010269 112.873917,141.886475 112.873917,141.886475 
	C113.915085,140.517746 114.956261,139.149017 116.070938,137.462555 
z"/>
<path fill="#718A3B" opacity="1.000000" stroke="none" 
	d="
M108.967224,145.959473 
	C110.055817,144.671814 111.185822,143.428680 112.594872,142.036011 
	C112.873917,141.886475 113.005150,142.010269 113.048920,142.426880 
	C113.062737,143.559250 113.032791,144.274979 112.689499,145.126099 
	C111.281418,145.538513 110.186668,145.815536 109.091919,146.092560 
	C109.091919,146.092545 109.008621,146.003983 108.967224,145.959473 
z"/>
<path fill="#445618" opacity="1.000000" stroke="none" 
	d="
M67.872559,120.868004 
	C60.614819,121.255898 58.506428,123.201057 57.955719,130.633194 
	C57.437531,130.801697 56.948414,130.565521 56.205437,130.232910 
	C55.685135,129.667725 55.418686,129.199005 55.021297,128.499161 
	C53.239586,126.530838 51.588814,124.793625 49.606133,123.013008 
	C49.274227,122.969604 49.048164,122.652954 48.967148,122.087311 
	C46.591160,118.618347 44.463799,115.560921 41.965900,112.844185 
	C36.956188,107.395599 31.534103,102.315231 26.689547,96.729599 
	C23.485649,93.035599 24.994572,89.631271 30.166519,87.821938 
	C30.595406,87.473633 30.805477,87.240028 30.994019,86.743820 
	C31.002665,86.508354 31.016468,86.037300 31.016468,86.037292 
	C31.547554,86.192368 32.078640,86.347443 32.894188,87.037376 
	C35.096878,91.315643 37.240742,94.786819 42.107426,94.972992 
	C42.374050,95.124718 42.609291,95.315193 42.796032,95.987625 
	C44.516750,98.625435 46.254585,100.820045 48.119209,103.331192 
	C53.428799,106.742798 47.201359,111.918724 49.821072,115.204178 
	C53.216801,114.018486 56.153267,112.993156 59.089733,111.967827 
	C61.848988,114.543480 64.608246,117.119133 67.669044,119.858696 
	C67.953064,120.211006 67.935532,120.399414 67.872559,120.868004 
z"/>
<path fill="#719C17" opacity="1.000000" stroke="none" 
	d="
M104.943710,153.368317 
	C105.882149,152.505325 106.741081,151.979538 108.134880,151.139404 
	C111.106613,149.544067 113.543472,148.263046 116.258972,146.816406 
	C117.856956,146.107986 119.176300,145.565201 120.495644,145.022400 
	C120.669250,145.310272 120.842857,145.598145 121.016464,145.886002 
	C120.345840,146.926743 119.675217,147.967468 119.004593,149.008194 
	C116.596687,151.417572 114.050713,153.708206 111.835770,156.283539 
	C110.622536,157.694183 109.968330,159.585632 108.734131,161.758392 
	C107.936996,163.166931 107.467781,164.077362 106.824745,165.148148 
	C106.426971,165.532410 106.232002,165.779205 106.065994,166.048904 
	C106.266235,166.591553 106.466476,167.134201 106.840790,167.910889 
	C106.951889,168.385895 106.854469,168.612061 106.131989,168.929077 
	C104.030365,169.015060 102.519363,168.995316 100.921555,168.646179 
	C99.436821,166.121521 98.935509,162.675797 94.520020,164.104309 
	C93.251259,164.272980 92.408699,164.431870 91.566132,164.590775 
	C91.566132,164.590775 91.541031,164.375259 91.546074,164.044571 
	C90.672775,163.161942 89.794434,162.610016 88.916092,162.058075 
	C88.916092,162.058075 88.954704,162.009384 88.823067,161.831482 
	C88.433266,161.440262 88.175095,161.226913 87.916931,161.013580 
	C87.916931,161.013580 87.962173,161.068710 87.952759,160.711212 
	C87.935753,159.597778 87.928169,158.841827 87.893845,157.751007 
	C87.179604,155.187515 84.511444,153.249680 87.039406,150.519852 
	C87.438179,150.089233 87.205551,148.438492 86.697823,147.980484 
	C86.178108,147.511642 84.936501,147.665192 84.054642,147.810989 
	C81.917839,148.164307 79.806488,148.671555 77.684875,149.116760 
	C75.980598,147.856491 74.276321,146.596222 72.279694,145.183960 
	C71.383522,143.251221 70.779724,141.470490 70.236626,139.039825 
	C71.534004,135.921448 72.770676,133.452957 74.007347,130.984482 
	C74.991898,132.559082 76.260666,134.030807 76.878693,135.738083 
	C77.462242,137.350128 77.361435,139.209869 77.616211,141.437668 
	C84.759933,139.123306 87.894295,144.161118 91.225143,148.216949 
	C92.294746,149.519348 92.222298,152.216782 91.865654,154.125229 
	C91.342621,156.923996 92.237976,157.805939 94.851395,157.728836 
	C97.241501,157.658295 99.635338,157.713852 102.867905,157.713852 
	C103.297638,156.850998 104.080925,155.278259 104.943710,153.368317 
z"/>
<path fill="#71981F" opacity="1.000000" stroke="none" 
	d="
M77.754501,149.445312 
	C79.806488,148.671555 81.917839,148.164307 84.054642,147.810989 
	C84.936501,147.665192 86.178108,147.511642 86.697823,147.980484 
	C87.205551,148.438492 87.438179,150.089233 87.039406,150.519852 
	C84.511444,153.249680 87.179604,155.187515 87.565460,157.642105 
	C85.331993,156.936111 83.400185,156.004150 81.468376,155.072174 
	C80.253624,153.306061 79.038872,151.539963 77.754501,149.445312 
z"/>
<path fill="#718D37" opacity="1.000000" stroke="none" 
	d="
M81.676857,155.334732 
	C83.400185,156.004150 85.331993,156.936111 87.592194,157.976990 
	C87.928169,158.841827 87.935753,159.597778 87.925034,160.733643 
	C86.890724,160.385956 85.874718,159.658340 84.587051,158.774384 
	C83.505379,157.611115 82.695358,156.604202 81.676857,155.334732 
z"/>
<path fill="#718D37" opacity="1.000000" stroke="none" 
	d="
M101.008369,168.975586 
	C102.519363,168.995316 104.030365,169.015060 105.999329,169.059952 
	C100.958054,173.520645 98.018066,172.748505 91.627167,164.898514 
	C92.408699,164.431870 93.251259,164.272980 94.617981,164.425751 
	C97.097557,166.150146 99.052963,167.562866 101.008369,168.975586 
z"/>
<path fill="#718D37" opacity="1.000000" stroke="none" 
	d="
M88.990288,162.386902 
	C89.794434,162.610016 90.672775,163.161942 91.653717,164.031006 
	C90.859032,163.803986 89.961761,163.259857 88.990288,162.386902 
z"/>
<path fill="#718D37" opacity="1.000000" stroke="none" 
	d="
M87.972015,161.289352 
	C88.175095,161.226913 88.433266,161.440262 88.837440,161.859039 
	C88.664665,161.898026 88.345886,161.731583 87.972015,161.289352 
z"/>
<path fill="#3E4B26" opacity="1.000000" stroke="none" 
	d="
M30.614525,86.002106 
	C31.016468,86.037300 31.002665,86.508354 30.813391,86.894745 
	C30.390463,87.491417 30.175051,87.718964 29.977882,87.963776 
	C24.994572,89.631271 23.485649,93.035599 26.689547,96.729599 
	C31.534103,102.315231 36.956188,107.395599 41.965900,112.844185 
	C44.463799,115.560921 46.591160,118.618347 48.887886,121.909660 
	C47.825275,121.593857 46.760902,120.890053 45.431351,120.011017 
	C44.123795,118.829155 43.081421,117.822525 41.797680,116.628868 
	C40.046867,114.908333 38.537422,113.374832 36.757896,111.669418 
	C35.964291,110.958374 35.440765,110.419235 34.687462,109.716919 
	C32.642002,107.657295 30.826317,105.760849 28.730034,103.702103 
	C27.927628,102.969978 27.405823,102.400169 26.642365,101.664642 
	C26.186646,101.321129 25.984299,101.130867 25.663925,100.765732 
	C24.747931,98.972107 23.733606,97.409615 23.217600,95.696976 
	C21.578897,90.258049 24.260883,86.622696 30.614525,86.002106 
z"/>
<path fill="#445225" opacity="1.000000" stroke="none" 
	d="
M41.968075,94.712402 
	C37.240742,94.786819 35.096878,91.315643 33.106380,87.219559 
	C35.395107,88.612511 37.756115,90.358147 40.420246,92.253677 
	C41.091824,93.086319 41.460274,93.769073 41.968075,94.712402 
z"/>
<path fill="#6E8639" opacity="1.000000" stroke="none" 
	d="
M161.294525,93.724068 
	C160.644409,95.029457 159.691177,96.436653 158.416473,97.944473 
	C157.872803,98.020706 157.650604,97.996307 157.095093,97.933617 
	C158.171661,96.538841 159.581543,95.182358 161.294525,93.724068 
z"/>
<path fill="#435420" opacity="1.000000" stroke="none" 
	d="
M58.907085,111.686859 
	C56.153267,112.993156 53.216801,114.018486 49.821072,115.204178 
	C47.201359,111.918724 53.428799,106.742798 48.470314,103.323318 
	C49.163364,102.985733 49.632095,102.972549 50.100826,102.959358 
	C52.975365,105.774864 55.849899,108.590370 58.907085,111.686859 
z"/>
<path fill="#455024" opacity="1.000000" stroke="none" 
	d="
M49.919586,102.683220 
	C49.632095,102.972549 49.163364,102.985733 48.343529,103.006790 
	C46.254585,100.820045 44.516750,98.625435 42.933907,96.168968 
	C43.784088,96.284599 44.479271,96.662079 45.436817,97.170914 
	C47.045567,99.003876 48.391953,100.705482 49.919586,102.683220 
z"/>
<path fill="#718639" opacity="1.000000" stroke="none" 
	d="
M139.013290,118.056534 
	C138.793289,117.993126 138.573288,117.929726 138.034790,117.730728 
	C138.781647,116.303833 139.846985,115.012527 141.323853,113.711334 
	C141.735397,113.701454 142.010483,114.007660 141.932877,114.322556 
	C140.907944,115.777153 139.960617,116.916840 139.013290,118.056534 
z"/>
<path fill="#718639" opacity="1.000000" stroke="none" 
	d="
M143.367554,111.475128 
	C143.726532,111.053764 144.085526,110.632401 144.693604,110.085548 
	C144.942703,109.960060 145.062424,110.043510 145.013000,110.346962 
	C144.651291,111.108665 144.339005,111.566917 143.864914,111.884079 
	C143.703110,111.743004 143.367554,111.475128 143.367554,111.475128 
z"/>
<path fill="#718639" opacity="1.000000" stroke="none" 
	d="
M141.603088,113.543816 
	C141.625244,113.094711 141.824249,112.837738 142.400696,112.648300 
	C142.733597,112.681335 143.010757,113.010895 142.860016,113.192612 
	C142.496994,113.608215 142.264069,113.819328 142.010483,114.007660 
	C142.010483,114.007660 141.735397,113.701454 141.603088,113.543816 
z"/>
<path fill="#718639" opacity="1.000000" stroke="none" 
	d="
M142.603485,112.509789 
	C142.610336,112.088486 142.790955,111.875816 143.191406,111.587692 
	C143.367554,111.475128 143.703110,111.743004 143.714142,112.066803 
	C143.509842,112.623634 143.271713,112.830406 143.010757,113.010895 
	C143.010757,113.010895 142.733597,112.681335 142.603485,112.509789 
z"/>
<path fill="#718639" opacity="1.000000" stroke="none" 
	d="
M133.359421,121.748604 
	C133.481766,122.879105 133.288025,124.068558 132.640747,125.619713 
	C131.179153,126.043816 130.171082,126.106232 129.094910,126.101212 
	C129.026825,126.033775 128.890228,125.899345 128.890228,125.899338 
	C130.274582,124.535416 131.658951,123.171486 133.359421,121.748604 
z"/>
<path fill="#718639" opacity="1.000000" stroke="none" 
	d="
M125.943146,128.936035 
	C126.703819,127.977554 127.528801,127.085892 128.622009,126.046783 
	C128.890228,125.899345 129.026825,126.033775 129.012970,126.421097 
	C128.044907,127.584335 127.090675,128.360245 126.136444,129.136154 
	C126.136444,129.136154 126.007454,129.002869 125.943146,128.936035 
z"/>
<path fill="#739722" opacity="1.000000" stroke="none" 
	d="
M142.860016,113.192612 
	C143.271713,112.830406 143.509842,112.623634 143.875946,112.207878 
	C144.339005,111.566917 144.651291,111.108665 145.069717,110.392883 
	C146.586700,109.533852 147.997528,108.932365 149.691177,108.151337 
	C151.686737,114.192574 146.449127,119.488266 139.328690,118.236389 
	C139.960617,116.916840 140.907944,115.777153 141.932877,114.322556 
	C142.264069,113.819328 142.496994,113.608215 142.860016,113.192612 
z"/>
<path fill="#749822" opacity="1.000000" stroke="none" 
	d="
M126.069160,129.497635 
	C127.090675,128.360245 128.044907,127.584335 129.081070,126.488541 
	C130.171082,126.106232 131.179153,126.043816 132.566589,125.972893 
	C133.299011,127.060677 134.235458,128.879242 133.913239,129.139511 
	C131.233444,131.304062 128.321442,133.181137 125.190697,135.021759 
	C125.268486,133.218658 125.635178,131.538895 126.069160,129.497635 
z"/>
<path fill="#739529" opacity="1.000000" stroke="none" 
	d="
M115.981285,141.990295 
	C116.952362,140.247055 117.923447,138.503815 118.985031,136.440048 
	C119.496216,136.081116 119.916893,136.042709 120.653732,135.988525 
	C120.732201,137.416229 120.494514,138.859695 119.845276,140.734070 
	C118.282906,141.440079 117.132095,141.715179 115.981285,141.990295 
z"/>
<path fill="#FCC537" opacity="1.000000" stroke="none" 
	d="
M82.670151,83.216675 
	C84.486794,83.321793 85.948792,83.506355 87.410782,83.690918 
	C87.433014,84.382385 87.455246,85.073853 87.477478,85.765327 
	C85.455093,85.916367 83.432701,86.067413 81.410316,86.218460 
	C81.712044,85.244347 82.013771,84.270241 82.670151,83.216675 
z"/>
<path fill="#6F9A1D" opacity="1.000000" stroke="none" 
	d="
M115.624146,141.999268 
	C117.132095,141.715179 118.282906,141.440079 119.703430,141.071899 
	C120.911865,142.121078 121.850571,143.263336 122.896744,144.702179 
	C123.586929,146.115067 124.169640,147.231339 124.843307,148.646576 
	C123.241013,148.965454 121.547768,148.985397 119.429550,149.006775 
	C119.675217,147.967468 120.345840,146.926743 121.016464,145.886002 
	C120.842857,145.598145 120.669250,145.310272 120.495644,145.022400 
	C119.176300,145.565201 117.856956,146.107986 116.131775,146.523254 
	C114.818237,145.927399 113.910538,145.459061 113.002838,144.990723 
	C113.032791,144.274979 113.062737,143.559250 113.114456,142.488861 
	C113.846489,142.092224 114.556755,142.050232 115.624146,141.999268 
z"/>
<path fill="#719920" opacity="1.000000" stroke="none" 
	d="
M106.998566,164.987808 
	C107.467781,164.077362 107.936996,163.166931 108.700409,162.125931 
	C108.999115,162.167053 109.003616,162.338745 109.017471,162.768188 
	C108.798187,163.539612 108.569557,164.053284 107.915016,164.781311 
	C107.489105,164.995697 106.998573,164.987808 106.998566,164.987808 
z"/>
<path fill="#709427" opacity="1.000000" stroke="none" 
	d="
M106.824753,165.148148 
	C106.998573,164.987808 107.489105,164.995697 107.734123,164.999329 
	C107.517242,165.298065 107.055344,165.593170 106.329727,165.968597 
	C106.232002,165.779205 106.426971,165.532410 106.824753,165.148148 
z"/>
<path fill="#719922" opacity="1.000000" stroke="none" 
	d="
M145.846893,127.816956 
	C145.747726,127.807373 145.517960,127.597610 145.157806,127.187744 
	C145.257263,127.197098 145.486877,127.406815 145.846893,127.816956 
z"/>
<path fill="#719A1A" opacity="1.000000" stroke="none" 
	d="
M73.890991,130.673691 
	C72.770676,133.452957 71.534004,135.921448 70.144913,138.698502 
	C67.336456,136.565170 64.539764,134.256042 62.069298,131.638947 
	C60.126968,129.581329 59.990635,127.338577 62.326397,125.121559 
	C64.537674,123.022705 66.692352,122.717316 68.862625,124.792885 
	C70.645210,126.497681 72.147888,128.495148 73.890991,130.673691 
z"/>
<path fill="#739529" opacity="1.000000" stroke="none" 
	d="
M112.689499,145.126099 
	C113.910538,145.459061 114.818237,145.927399 115.853134,146.688904 
	C113.543472,148.263046 111.106613,149.544067 108.315521,150.887268 
	C108.304123,149.565582 108.646957,148.181717 109.040848,146.445206 
	C110.186668,145.815536 111.281418,145.538513 112.689499,145.126099 
z"/>
<path fill="#445225" opacity="1.000000" stroke="none" 
	d="
M30.166519,87.821938 
	C30.175051,87.718964 30.390463,87.491417 30.804745,87.130211 
	C30.805477,87.240028 30.595406,87.473633 30.166519,87.821938 
z"/>
<path fill="#719920" opacity="1.000000" stroke="none" 
	d="
M100.921555,168.646194 
	C99.052963,167.562866 97.097557,166.150146 95.044174,164.415985 
	C98.935509,162.675797 99.436821,166.121521 100.921555,168.646194 
z"/>
</svg>