<?xml version="1.0" encoding="UTF-8"?>
<svg xmlns="http://www.w3.org/2000/svg" xmlns:xlink="http://www.w3.org/1999/xlink" width="860px" height="580px" viewBox="0 0 860 580" version="1.1">
<g id="surface1">
<path style=" stroke:none;fill-rule:evenodd;fill:rgb(8.235294%,12.54902%,16.078432%);fill-opacity:1;" d="M -1.609375 -1.609375 C 285.054688 -1.609375 571.722656 -1.609375 858.390625 -1.609375 C 858.390625 191.722656 858.390625 385.054688 858.390625 578.390625 C 571.722656 578.390625 285.054688 578.390625 -1.609375 578.390625 C -1.609375 385.054688 -1.609375 191.722656 -1.609375 -1.609375 Z M -1.609375 -1.609375 "/>
<path style=" stroke:none;fill-rule:evenodd;fill:rgb(12.941177%,73.333335%,62.7451%);fill-opacity:1;" d="M 120.785156 75.722656 C 285.058594 75.183594 449.328125 75.722656 613.59375 77.332031 C 633.96875 82.46875 648.460938 94.824219 657.078125 114.390625 C 658.6875 136.917969 659.222656 159.472656 658.6875 182.054688 C 649.027344 182.054688 639.363281 182.054688 629.699219 182.054688 C 629.699219 176.683594 629.699219 171.316406 629.699219 165.945312 C 454.695312 165.945312 279.6875 165.945312 104.683594 165.945312 C 104.144531 274.429688 104.683594 382.914062 106.292969 491.390625 C 108.820312 497.144531 112.578125 501.976562 117.566406 505.890625 C 280.574219 511.214844 443.769531 512.289062 607.152344 509.109375 C 617.367188 507.480469 624.882812 502.113281 629.699219 493 C 639.304688 491.394531 648.96875 490.855469 658.6875 491.390625 C 654.050781 516.972656 639.019531 532.550781 613.59375 538.109375 C 449.324219 540.261719 285.054688 540.261719 120.785156 538.109375 C 97.589844 532.089844 83.09375 517.589844 77.304688 494.609375 C 75.15625 370.015625 75.15625 245.425781 77.304688 120.832031 C 83.683594 97.804688 98.179688 82.765625 120.785156 75.722656 Z M 120.785156 75.722656 "/>
<path style=" stroke:none;fill-rule:evenodd;fill:rgb(9.019608%,15.294118%,18.431373%);fill-opacity:1;" d="M 497.640625 111.167969 C 520.214844 110.628906 542.761719 111.167969 565.28125 112.777344 C 578.164062 120.296875 578.164062 127.816406 565.28125 135.332031 C 542.734375 137.480469 520.1875 137.480469 497.640625 135.332031 C 489.390625 127.3125 489.390625 119.253906 497.640625 111.167969 Z M 497.640625 111.167969 "/>
<path style=" stroke:none;fill-rule:evenodd;fill:rgb(7.450981%,10.980392%,14.509805%);fill-opacity:1;" d="M 594.269531 111.167969 C 608.695312 112.449219 612.988281 119.964844 607.152344 133.722656 C 596.550781 139.125 590.109375 135.90625 587.828125 124.054688 C 588.640625 118.988281 590.785156 114.691406 594.269531 111.167969 Z M 594.269531 111.167969 "/>
<path style=" stroke:none;fill-rule:evenodd;fill:rgb(13.333334%,73.333335%,62.7451%);fill-opacity:1;" d="M 632.921875 198.167969 C 643.65625 198.167969 654.394531 198.167969 665.132812 198.167969 C 666.542969 209.675781 668.6875 220.957031 671.574219 232 C 683.21875 236.234375 694.492188 241.066406 705.394531 246.5 C 713.949219 240.101562 722.539062 233.65625 731.160156 227.167969 C 738.675781 234.683594 746.191406 242.203125 753.707031 249.722656 C 751.179688 259.597656 746.347656 268.726562 739.214844 277.109375 C 744.582031 287.851562 748.339844 299.128906 750.488281 310.945312 C 760.269531 314.839844 770.46875 317.527344 781.085938 319 C 785.378906 330.816406 785.378906 342.628906 781.085938 354.445312 C 771.253906 355.019531 761.589844 356.632812 752.097656 359.277344 C 746.597656 371.992188 742.835938 384.882812 740.824219 397.945312 C 748.359375 405.328125 752.65625 413.921875 753.707031 423.722656 C 747.105469 431.417969 739.585938 437.863281 731.160156 443.054688 C 723.113281 436.878906 714.523438 431.507812 705.394531 426.945312 C 694.246094 431.558594 682.972656 435.855469 671.574219 439.832031 C 668.527344 450.429688 666.378906 461.167969 665.132812 472.054688 C 653.320312 472.054688 641.511719 472.054688 629.699219 472.054688 C 629.621094 460.90625 627.472656 450.164062 623.257812 439.832031 C 612.140625 436.132812 601.402344 431.835938 591.046875 426.945312 C 582.535156 432.195312 573.949219 437.566406 565.28125 443.054688 C 556.292969 435.679688 547.699219 427.625 539.511719 418.890625 C 545.34375 410.371094 551.785156 402.3125 558.839844 394.722656 C 552.433594 383.554688 547.601562 371.742188 544.34375 359.277344 C 534.4375 356.738281 524.238281 355.128906 513.746094 354.445312 C 509.453125 342.628906 509.453125 330.816406 513.746094 319 C 524.351562 316.339844 535.085938 314.730469 545.953125 314.167969 C 547.523438 301.363281 551.816406 289.546875 558.839844 278.722656 C 551.078125 269.53125 545.167969 259.863281 541.125 249.722656 C 547.867188 241.335938 555.921875 234.890625 565.28125 230.390625 C 573.792969 235.640625 582.382812 241.011719 591.046875 246.5 C 601.988281 239.632812 613.796875 235.335938 626.480469 233.609375 C 626.210938 221.253906 628.355469 209.4375 632.921875 198.167969 Z M 632.921875 198.167969 "/>
<path style=" stroke:none;fill-rule:evenodd;fill:rgb(8.235294%,12.54902%,16.470589%);fill-opacity:1;" d="M 632.921875 259.390625 C 699.507812 259.941406 729.035156 293.238281 721.5 359.277344 C 695.671875 411.667969 656.484375 425.089844 603.933594 399.554688 C 567.070312 365.59375 562.242188 327.464844 589.4375 285.167969 C 601.992188 272.734375 616.484375 264.140625 632.921875 259.390625 Z M 632.921875 259.390625 "/>
<path style=" stroke:none;fill-rule:evenodd;fill:rgb(95.294118%,95.686275%,95.686275%);fill-opacity:1;" d="M 233.519531 391.5 C 222.207031 393.289062 212.546875 391.140625 204.53125 385.054688 C 213.96875 351.363281 224.703125 318.070312 236.742188 285.167969 C 250.535156 281.96875 264.492188 280.894531 278.613281 281.945312 C 289.988281 318.238281 300.726562 354.757812 310.824219 391.5 C 299.878906 392.53125 289.140625 391.457031 278.613281 388.277344 C 276.007812 383.214844 274.933594 377.84375 275.394531 372.167969 C 263.535156 371.636719 251.722656 372.167969 239.960938 373.777344 C 236.859375 379.335938 234.710938 385.246094 233.519531 391.5 Z M 233.519531 391.5 "/>
<path style=" stroke:none;fill-rule:evenodd;fill:rgb(98.039216%,98.039216%,98.039216%);fill-opacity:1;" d="M 378.464844 285.167969 C 404.855469 290.65625 415.050781 306.769531 409.0625 333.5 C 399.273438 352.628906 383.707031 360.144531 362.359375 356.054688 C 359.195312 367.210938 358.125 379.027344 359.136719 391.5 C 350.546875 391.5 341.960938 391.5 333.371094 391.5 C 333.371094 356.054688 333.371094 320.609375 333.371094 285.167969 C 348.402344 285.167969 363.433594 285.167969 378.464844 285.167969 Z M 378.464844 285.167969 "/>
<path style=" stroke:none;fill-rule:evenodd;fill:rgb(97.647059%,97.647059%,97.647059%);fill-opacity:1;" d="M 465.429688 285.167969 C 465.429688 320.609375 465.429688 356.054688 465.429688 391.5 C 455.769531 391.5 446.105469 391.5 436.441406 391.5 C 436.441406 356.054688 436.441406 320.609375 436.441406 285.167969 C 446.105469 285.167969 455.769531 285.167969 465.429688 285.167969 Z M 465.429688 285.167969 "/>
<path style=" stroke:none;fill-rule:evenodd;fill:rgb(50.196081%,53.333336%,54.901963%);fill-opacity:1;" d="M 378.464844 285.167969 C 363.433594 285.167969 348.402344 285.167969 333.371094 285.167969 C 333.371094 320.609375 333.371094 356.054688 333.371094 391.5 C 341.960938 391.5 350.546875 391.5 359.136719 391.5 C 358.125 379.027344 359.195312 367.210938 362.359375 356.054688 C 362.359375 368.945312 362.359375 381.832031 362.359375 394.722656 C 351.625 394.722656 340.886719 394.722656 330.148438 394.722656 C 330.148438 357.128906 330.148438 319.539062 330.148438 281.945312 C 346.882812 280.910156 362.988281 281.984375 378.464844 285.167969 Z M 378.464844 285.167969 "/>
<path style=" stroke:none;fill-rule:evenodd;fill:rgb(40.000001%,43.137255%,45.490196%);fill-opacity:1;" d="M 465.429688 285.167969 C 455.769531 285.167969 446.105469 285.167969 436.441406 285.167969 C 436.441406 320.609375 436.441406 356.054688 436.441406 391.5 C 446.105469 391.5 455.769531 391.5 465.429688 391.5 C 455.363281 394.65625 444.628906 395.730469 433.222656 394.722656 C 433.222656 357.128906 433.222656 319.539062 433.222656 281.945312 C 444.628906 280.9375 455.363281 282.011719 465.429688 285.167969 Z M 465.429688 285.167969 "/>
<path style=" stroke:none;fill-rule:evenodd;fill:rgb(51.372552%,54.509807%,56.078434%);fill-opacity:1;" d="M 362.359375 307.722656 C 362.359375 315.242188 362.359375 322.761719 362.359375 330.277344 C 365.582031 330.277344 368.800781 330.277344 372.023438 330.277344 C 368.582031 333.289062 364.289062 334.363281 359.136719 333.5 C 358.152344 324.203125 359.226562 315.609375 362.359375 307.722656 Z M 362.359375 307.722656 "/>
<path style=" stroke:none;fill-rule:evenodd;fill:rgb(6.27451%,8.627451%,12.54902%);fill-opacity:1;" d="M 362.359375 307.722656 C 377.074219 306.378906 381.90625 312.820312 376.855469 327.054688 C 375.621094 328.847656 374.011719 329.921875 372.023438 330.277344 C 368.800781 330.277344 365.582031 330.277344 362.359375 330.277344 C 362.359375 322.761719 362.359375 315.242188 362.359375 307.722656 Z M 362.359375 307.722656 "/>
<path style=" stroke:none;fill-rule:evenodd;fill:rgb(8.235294%,10.980392%,14.901961%);fill-opacity:1;" d="M 265.730469 339.945312 C 261.164062 345.769531 254.722656 347.917969 246.40625 346.390625 C 250.640625 332.664062 254.398438 318.703125 257.679688 304.5 C 260.050781 316.445312 262.738281 328.257812 265.730469 339.945312 Z M 265.730469 339.945312 "/>
<path style=" stroke:none;fill-rule:evenodd;fill:rgb(51.372552%,53.725493%,55.686277%);fill-opacity:1;" d="M 265.730469 339.945312 C 268.640625 342.230469 269.714844 345.453125 268.953125 349.609375 C 260.707031 350.585938 253.191406 349.507812 246.40625 346.390625 C 254.722656 347.917969 261.164062 345.769531 265.730469 339.945312 Z M 265.730469 339.945312 "/>
<path style=" stroke:none;fill-rule:evenodd;fill:rgb(41.568628%,44.313726%,46.666667%);fill-opacity:1;" d="M 204.53125 385.054688 C 212.546875 391.140625 222.207031 393.289062 233.519531 391.5 C 223.457031 394.65625 212.71875 395.730469 201.3125 394.722656 C 200.546875 390.5625 201.621094 387.339844 204.53125 385.054688 Z M 204.53125 385.054688 "/>
</g>
</svg>
