<?xml version="1.0" encoding="UTF-8"?>
<!DOCTYPE svg PUBLIC "-//W3C//DTD SVG 1.1//EN" "http://www.w3.org/Graphics/SVG/1.1/DTD/svg11.dtd">
<svg xmlns="http://www.w3.org/2000/svg" version="1.1" width="267px" height="180px" style="shape-rendering:geometricPrecision; text-rendering:geometricPrecision; image-rendering:optimizeQuality; fill-rule:evenodd; clip-rule:evenodd" xmlns:xlink="http://www.w3.org/1999/xlink">
<g><path style="opacity:1" fill="#152029" d="M -0.5,-0.5 C 88.5,-0.5 177.5,-0.5 266.5,-0.5C 266.5,59.5 266.5,119.5 266.5,179.5C 177.5,179.5 88.5,179.5 -0.5,179.5C -0.5,119.5 -0.5,59.5 -0.5,-0.5 Z"/></g>
<g><path style="opacity:1" fill="#21bba0" d="M 37.5,23.5 C 88.5011,23.3333 139.501,23.5 190.5,24C 196.825,25.5942 201.325,29.4276 204,35.5C 204.5,42.4921 204.666,49.4921 204.5,56.5C 201.5,56.5 198.5,56.5 195.5,56.5C 195.5,54.8333 195.5,53.1667 195.5,51.5C 141.167,51.5 86.8333,51.5 32.5,51.5C 32.3333,85.1683 32.5,118.835 33,152.5C 33.7845,154.286 34.9512,155.786 36.5,157C 87.1082,158.653 137.775,158.986 188.5,158C 191.671,157.494 194.004,155.828 195.5,153C 198.482,152.502 201.482,152.335 204.5,152.5C 203.06,160.44 198.393,165.274 190.5,167C 139.5,167.667 88.5,167.667 37.5,167C 30.2979,165.131 25.7979,160.631 24,153.5C 23.3333,114.833 23.3333,76.1667 24,37.5C 25.9811,30.353 30.4811,25.6863 37.5,23.5 Z"/></g>
<g><path style="opacity:1" fill="#17272f" d="M 154.5,34.5 C 161.508,34.3337 168.508,34.5004 175.5,35C 179.5,37.3333 179.5,39.6667 175.5,42C 168.5,42.6667 161.5,42.6667 154.5,42C 151.939,39.5103 151.939,37.0103 154.5,34.5 Z"/></g>
<g><path style="opacity:1" fill="#131c25" d="M 184.5,34.5 C 188.979,34.8975 190.312,37.2309 188.5,41.5C 185.208,43.1773 183.208,42.1773 182.5,38.5C 182.752,36.9271 183.418,35.5938 184.5,34.5 Z"/></g>
<g><path style="opacity:1" fill="#22bba0" d="M 196.5,61.5 C 199.833,61.5 203.167,61.5 206.5,61.5C 206.938,65.0723 207.604,68.5723 208.5,72C 212.116,73.3136 215.616,74.8136 219,76.5C 221.656,74.5143 224.323,72.5143 227,70.5C 229.333,72.8333 231.667,75.1667 234,77.5C 233.215,80.5647 231.715,83.398 229.5,86C 231.167,89.3337 232.334,92.8337 233,96.5C 236.037,97.7093 239.204,98.5426 242.5,99C 243.833,102.667 243.833,106.333 242.5,110C 239.447,110.179 236.447,110.679 233.5,111.5C 231.792,115.446 230.625,119.446 230,123.5C 232.34,125.791 233.673,128.458 234,131.5C 231.95,133.888 229.616,135.888 227,137.5C 224.502,135.583 221.835,133.916 219,132.5C 215.539,133.932 212.039,135.265 208.5,136.5C 207.555,139.788 206.888,143.121 206.5,146.5C 202.833,146.5 199.167,146.5 195.5,146.5C 195.475,143.04 194.808,139.706 193.5,136.5C 190.048,135.352 186.714,134.018 183.5,132.5C 180.857,134.13 178.191,135.797 175.5,137.5C 172.709,135.211 170.042,132.711 167.5,130C 169.31,127.356 171.31,124.856 173.5,122.5C 171.511,119.034 170.011,115.368 169,111.5C 165.924,110.712 162.758,110.212 159.5,110C 158.167,106.333 158.167,102.667 159.5,99C 162.793,98.1744 166.126,97.6744 169.5,97.5C 169.987,93.526 171.32,89.8593 173.5,86.5C 171.09,83.6475 169.256,80.6475 168,77.5C 170.094,74.8974 172.594,72.8974 175.5,71.5C 178.143,73.1303 180.809,74.7969 183.5,76.5C 186.896,74.3685 190.563,73.0351 194.5,72.5C 194.417,68.6648 195.083,64.9981 196.5,61.5 Z"/></g>
<g><path style="opacity:1" fill="#15202a" d="M 196.5,80.5 C 217.173,80.6714 226.34,91.0047 224,111.5C 215.982,127.759 203.815,131.925 187.5,124C 176.056,113.46 174.556,101.627 183,88.5C 186.897,84.6414 191.397,81.9747 196.5,80.5 Z"/></g>
<g><path style="opacity:1" fill="#f3f4f4" d="M 72.5,121.5 C 68.9878,122.055 65.9878,121.388 63.5,119.5C 66.4296,109.044 69.7629,98.711 73.5,88.5C 77.7828,87.5078 82.1161,87.1744 86.5,87.5C 90.0318,98.7632 93.3651,110.097 96.5,121.5C 93.1016,121.82 89.7683,121.487 86.5,120.5C 85.6906,118.929 85.3573,117.262 85.5,115.5C 81.8183,115.335 78.1516,115.501 74.5,116C 73.536,117.725 72.8693,119.559 72.5,121.5 Z"/></g>
<g><path style="opacity:1" fill="#fafafa" d="M 117.5,88.5 C 125.693,90.2038 128.859,95.2038 127,103.5C 123.961,109.436 119.128,111.769 112.5,110.5C 111.518,113.962 111.185,117.629 111.5,121.5C 108.833,121.5 106.167,121.5 103.5,121.5C 103.5,110.5 103.5,99.5 103.5,88.5C 108.167,88.5 112.833,88.5 117.5,88.5 Z"/></g>
<g><path style="opacity:1" fill="#f9f9f9" d="M 144.5,88.5 C 144.5,99.5 144.5,110.5 144.5,121.5C 141.5,121.5 138.5,121.5 135.5,121.5C 135.5,110.5 135.5,99.5 135.5,88.5C 138.5,88.5 141.5,88.5 144.5,88.5 Z"/></g>
<g><path style="opacity:1" fill="#80888c" d="M 117.5,88.5 C 112.833,88.5 108.167,88.5 103.5,88.5C 103.5,99.5 103.5,110.5 103.5,121.5C 106.167,121.5 108.833,121.5 111.5,121.5C 111.185,117.629 111.518,113.962 112.5,110.5C 112.5,114.5 112.5,118.5 112.5,122.5C 109.167,122.5 105.833,122.5 102.5,122.5C 102.5,110.833 102.5,99.1667 102.5,87.5C 107.695,87.1795 112.695,87.5128 117.5,88.5 Z"/></g>
<g><path style="opacity:1" fill="#666e74" d="M 144.5,88.5 C 141.5,88.5 138.5,88.5 135.5,88.5C 135.5,99.5 135.5,110.5 135.5,121.5C 138.5,121.5 141.5,121.5 144.5,121.5C 141.375,122.479 138.042,122.813 134.5,122.5C 134.5,110.833 134.5,99.1667 134.5,87.5C 138.042,87.1872 141.375,87.5206 144.5,88.5 Z"/></g>
<g><path style="opacity:1" fill="#838b8f" d="M 112.5,95.5 C 112.5,97.8333 112.5,100.167 112.5,102.5C 113.5,102.5 114.5,102.5 115.5,102.5C 114.432,103.434 113.099,103.768 111.5,103.5C 111.194,100.615 111.527,97.9479 112.5,95.5 Z"/></g>
<g><path style="opacity:1" fill="#101620" d="M 112.5,95.5 C 117.068,95.0826 118.568,97.0826 117,101.5C 116.617,102.056 116.117,102.389 115.5,102.5C 114.5,102.5 113.5,102.5 112.5,102.5C 112.5,100.167 112.5,97.8333 112.5,95.5 Z"/></g>
<g><path style="opacity:1" fill="#151c26" d="M 82.5,105.5 C 81.0821,107.308 79.0821,107.975 76.5,107.5C 77.8154,103.241 78.9821,98.9073 80,94.5C 80.7373,98.2066 81.5707,101.873 82.5,105.5 Z"/></g>
<g><path style="opacity:1" fill="#83898e" d="M 82.5,105.5 C 83.404,106.209 83.7373,107.209 83.5,108.5C 80.9407,108.802 78.6074,108.468 76.5,107.5C 79.0821,107.975 81.0821,107.308 82.5,105.5 Z"/></g>
<g><path style="opacity:1" fill="#6a7177" d="M 63.5,119.5 C 65.9878,121.388 68.9878,122.055 72.5,121.5C 69.3752,122.479 66.0419,122.813 62.5,122.5C 62.2627,121.209 62.596,120.209 63.5,119.5 Z"/></g>
</svg>
